G04*
G04 #@! TF.GenerationSoftware,Altium Limited,Altium Designer,23.10.1 (27)*
G04*
G04 Layer_Color=255*
%FSLAX44Y44*%
%MOMM*%
G71*
G04*
G04 #@! TF.SameCoordinates,F1356F94-EBF5-402A-8C13-2620F03D8000*
G04*
G04*
G04 #@! TF.FilePolarity,Positive*
G04*
G01*
G75*
%ADD12R,0.9500X0.9500*%
G04:AMPARAMS|DCode=13|XSize=2.5mm|YSize=0.65mm|CornerRadius=0.1625mm|HoleSize=0mm|Usage=FLASHONLY|Rotation=0.000|XOffset=0mm|YOffset=0mm|HoleType=Round|Shape=RoundedRectangle|*
%AMROUNDEDRECTD13*
21,1,2.5000,0.3250,0,0,0.0*
21,1,2.1750,0.6500,0,0,0.0*
1,1,0.3250,1.0875,-0.1625*
1,1,0.3250,-1.0875,-0.1625*
1,1,0.3250,-1.0875,0.1625*
1,1,0.3250,1.0875,0.1625*
%
%ADD13ROUNDEDRECTD13*%
G04:AMPARAMS|DCode=14|XSize=1.97mm|YSize=0.6mm|CornerRadius=0.15mm|HoleSize=0mm|Usage=FLASHONLY|Rotation=180.000|XOffset=0mm|YOffset=0mm|HoleType=Round|Shape=RoundedRectangle|*
%AMROUNDEDRECTD14*
21,1,1.9700,0.3000,0,0,180.0*
21,1,1.6700,0.6000,0,0,180.0*
1,1,0.3000,-0.8350,0.1500*
1,1,0.3000,0.8350,0.1500*
1,1,0.3000,0.8350,-0.1500*
1,1,0.3000,-0.8350,-0.1500*
%
%ADD14ROUNDEDRECTD14*%
%ADD15R,0.8000X0.8000*%
%ADD21C,2.5000*%
%ADD24C,2.0000*%
%ADD25R,1.0000X1.0000*%
%ADD35R,1.5000X1.5000*%
%ADD36C,1.5000*%
D12*
X-30564Y-169103D02*
D03*
X-46564D02*
D03*
X-46532Y-155009D02*
D03*
X-30531D02*
D03*
X48388Y-161459D02*
D03*
X64388D02*
D03*
X-61693Y-203179D02*
D03*
X-77693D02*
D03*
X92632Y-212473D02*
D03*
X108631D02*
D03*
X77888Y-212191D02*
D03*
X61888D02*
D03*
X77887Y-197613D02*
D03*
X61887D02*
D03*
X-61693Y-188731D02*
D03*
X-77693D02*
D03*
X-77568Y-217572D02*
D03*
X-61568D02*
D03*
X64388Y-61580D02*
D03*
X48388D02*
D03*
X-61693Y-232076D02*
D03*
X-77693D02*
D03*
X-61693Y-246524D02*
D03*
X-77693D02*
D03*
X-61693Y-260973D02*
D03*
X-77693D02*
D03*
D13*
X30971Y-204563D02*
D03*
Y-217263D02*
D03*
Y-229963D02*
D03*
Y-242663D02*
D03*
X-29029D02*
D03*
Y-229963D02*
D03*
Y-217263D02*
D03*
Y-204563D02*
D03*
D14*
X-24750Y-138100D02*
D03*
Y-125400D02*
D03*
Y-112700D02*
D03*
Y-100000D02*
D03*
Y-87300D02*
D03*
Y-74600D02*
D03*
Y-61900D02*
D03*
X24750D02*
D03*
Y-74600D02*
D03*
Y-87300D02*
D03*
Y-100000D02*
D03*
Y-112700D02*
D03*
Y-125400D02*
D03*
Y-138100D02*
D03*
D15*
X6426Y-161230D02*
D03*
X-8574D02*
D03*
D21*
X-84128Y-87199D02*
D03*
X-99128Y-113180D02*
D03*
X-114128Y-139160D02*
D03*
X48068Y-30525D02*
D03*
D24*
X140000Y-200000D02*
D03*
X50Y-20000D02*
D03*
X-140000Y-200000D02*
D03*
D25*
X24750Y-161459D02*
D03*
D35*
X12700Y-286480D02*
D03*
D36*
X-12700D02*
D03*
M02*
