G04*
G04 #@! TF.GenerationSoftware,Altium Limited,Altium Designer,23.10.1 (27)*
G04*
G04 Layer_Color=8388736*
%FSLAX44Y44*%
%MOMM*%
G71*
G04*
G04 #@! TF.SameCoordinates,F1356F94-EBF5-402A-8C13-2620F03D8000*
G04*
G04*
G04 #@! TF.FilePolarity,Positive*
G04*
G01*
G75*
%ADD10C,0.2000*%
G36*
X1166768Y-281791D02*
Y-275791D01*
X1160768Y-281791D01*
X1166768D01*
D02*
G37*
G36*
X1135667Y-264158D02*
X1135467Y-264180D01*
X1135290Y-264213D01*
X1135112Y-264258D01*
X1134957Y-264313D01*
X1134801Y-264368D01*
X1134657Y-264435D01*
X1134535Y-264502D01*
X1134424Y-264568D01*
X1134313Y-264635D01*
X1134235Y-264690D01*
X1134157Y-264746D01*
X1134102Y-264790D01*
X1134058Y-264824D01*
X1134035Y-264846D01*
X1134024Y-264857D01*
X1133891Y-264990D01*
X1133780Y-265134D01*
X1133680Y-265279D01*
X1133592Y-265423D01*
X1133525Y-265578D01*
X1133458Y-265723D01*
X1133370Y-265989D01*
X1133347Y-266111D01*
X1133325Y-266233D01*
X1133303Y-266333D01*
X1133292Y-266422D01*
X1133281Y-266488D01*
Y-266544D01*
Y-266577D01*
Y-266588D01*
X1133303Y-266844D01*
X1133347Y-267066D01*
X1133403Y-267277D01*
X1133481Y-267443D01*
X1133558Y-267587D01*
X1133614Y-267687D01*
X1133658Y-267754D01*
X1133680Y-267776D01*
X1133836Y-267943D01*
X1134013Y-268087D01*
X1134191Y-268198D01*
X1134357Y-268287D01*
X1134502Y-268353D01*
X1134624Y-268387D01*
X1134668Y-268409D01*
X1134701D01*
X1134724Y-268420D01*
X1134735D01*
X1134535Y-268542D01*
X1134368Y-268664D01*
X1134224Y-268797D01*
X1134091Y-268930D01*
X1133980Y-269064D01*
X1133891Y-269197D01*
X1133825Y-269330D01*
X1133758Y-269452D01*
X1133714Y-269574D01*
X1133680Y-269685D01*
X1133658Y-269785D01*
X1133647Y-269874D01*
X1133636Y-269941D01*
X1133625Y-269996D01*
Y-270029D01*
Y-270040D01*
X1133636Y-270174D01*
X1133647Y-270296D01*
X1133714Y-270540D01*
X1133791Y-270762D01*
X1133891Y-270951D01*
X1133991Y-271106D01*
X1134080Y-271217D01*
X1134113Y-271262D01*
X1134146Y-271295D01*
X1134157Y-271306D01*
X1134169Y-271317D01*
X1134291Y-271439D01*
X1134435Y-271550D01*
X1134568Y-271639D01*
X1134713Y-271717D01*
X1134868Y-271794D01*
X1135012Y-271850D01*
X1135290Y-271927D01*
X1135412Y-271961D01*
X1135534Y-271983D01*
X1135634Y-271994D01*
X1135734Y-272005D01*
X1135811Y-272016D01*
X1135911D01*
X1136144Y-272005D01*
X1136355Y-271983D01*
X1136555Y-271938D01*
X1136722Y-271894D01*
X1136855Y-271850D01*
X1136966Y-271805D01*
X1137032Y-271783D01*
X1137044Y-271772D01*
X1137055D01*
X1137232Y-271672D01*
X1137399Y-271561D01*
X1137532Y-271450D01*
X1137643Y-271350D01*
X1137732Y-271250D01*
X1137798Y-271173D01*
X1137843Y-271128D01*
X1137854Y-271106D01*
X1137954Y-270940D01*
X1138043Y-270762D01*
X1138109Y-270573D01*
X1138176Y-270396D01*
X1138220Y-270229D01*
X1138253Y-270107D01*
X1138264Y-270052D01*
Y-270018D01*
X1138276Y-269996D01*
Y-269985D01*
X1136921Y-269763D01*
X1136888Y-269941D01*
X1136844Y-270096D01*
X1136799Y-270229D01*
X1136744Y-270329D01*
X1136688Y-270418D01*
X1136644Y-270485D01*
X1136611Y-270518D01*
X1136600Y-270529D01*
X1136500Y-270618D01*
X1136389Y-270684D01*
X1136278Y-270729D01*
X1136178Y-270762D01*
X1136089Y-270784D01*
X1136022Y-270795D01*
X1135956D01*
X1135823Y-270784D01*
X1135689Y-270762D01*
X1135589Y-270718D01*
X1135501Y-270684D01*
X1135423Y-270640D01*
X1135378Y-270595D01*
X1135345Y-270573D01*
X1135334Y-270562D01*
X1135256Y-270473D01*
X1135201Y-270362D01*
X1135156Y-270263D01*
X1135134Y-270163D01*
X1135112Y-270074D01*
X1135101Y-270007D01*
Y-269963D01*
Y-269941D01*
X1135112Y-269774D01*
X1135145Y-269630D01*
X1135201Y-269508D01*
X1135256Y-269408D01*
X1135323Y-269319D01*
X1135367Y-269263D01*
X1135412Y-269219D01*
X1135423Y-269208D01*
X1135556Y-269119D01*
X1135700Y-269053D01*
X1135856Y-269008D01*
X1136000Y-268975D01*
X1136133Y-268964D01*
X1136244Y-268953D01*
X1136344D01*
X1136500Y-267765D01*
X1136355Y-267798D01*
X1136233Y-267832D01*
X1136111Y-267854D01*
X1136011Y-267865D01*
X1135934Y-267876D01*
X1135823D01*
X1135667Y-267865D01*
X1135534Y-267820D01*
X1135412Y-267776D01*
X1135301Y-267710D01*
X1135223Y-267654D01*
X1135156Y-267598D01*
X1135112Y-267554D01*
X1135101Y-267543D01*
X1135001Y-267410D01*
X1134923Y-267265D01*
X1134868Y-267121D01*
X1134824Y-266977D01*
X1134801Y-266844D01*
X1134790Y-266744D01*
Y-266677D01*
Y-266666D01*
Y-266655D01*
X1134801Y-266444D01*
X1134835Y-266255D01*
X1134890Y-266089D01*
X1134946Y-265956D01*
X1135012Y-265856D01*
X1135057Y-265778D01*
X1135101Y-265723D01*
X1135112Y-265712D01*
X1135234Y-265601D01*
X1135367Y-265512D01*
X1135490Y-265456D01*
X1135612Y-265412D01*
X1135723Y-265390D01*
X1135800Y-265379D01*
X1135856Y-265368D01*
X1135878D01*
X1136033Y-265379D01*
X1136167Y-265412D01*
X1136289Y-265456D01*
X1136400Y-265512D01*
X1136477Y-265556D01*
X1136544Y-265601D01*
X1136588Y-265634D01*
X1136600Y-265645D01*
X1136699Y-265767D01*
X1136788Y-265900D01*
X1136844Y-266045D01*
X1136899Y-266178D01*
X1136933Y-266300D01*
X1136955Y-266400D01*
X1136966Y-266466D01*
Y-266477D01*
Y-266488D01*
X1138387Y-266311D01*
X1138364Y-266133D01*
X1138320Y-265967D01*
X1138220Y-265656D01*
X1138098Y-265390D01*
X1138020Y-265279D01*
X1137954Y-265168D01*
X1137887Y-265068D01*
X1137821Y-264990D01*
X1137765Y-264912D01*
X1137710Y-264857D01*
X1137665Y-264813D01*
X1137632Y-264779D01*
X1137610Y-264757D01*
X1137598Y-264746D01*
X1137465Y-264646D01*
X1137321Y-264546D01*
X1137188Y-264468D01*
X1137032Y-264402D01*
X1136744Y-264291D01*
X1136477Y-264224D01*
X1136344Y-264202D01*
X1136233Y-264180D01*
X1136133Y-264169D01*
X1136044Y-264158D01*
X1135967Y-264146D01*
X1135867D01*
X1135667Y-264158D01*
D02*
G37*
G36*
X1142294D02*
X1142005Y-264180D01*
X1141750Y-264224D01*
X1141539Y-264269D01*
X1141450Y-264280D01*
X1141361Y-264302D01*
X1141295Y-264324D01*
X1141239Y-264346D01*
X1141195Y-264357D01*
X1141161Y-264368D01*
X1141150Y-264380D01*
X1141139D01*
X1140939Y-264468D01*
X1140762Y-264579D01*
X1140607Y-264679D01*
X1140473Y-264779D01*
X1140373Y-264868D01*
X1140296Y-264935D01*
X1140251Y-264979D01*
X1140240Y-265001D01*
X1140118Y-265157D01*
X1140018Y-265323D01*
X1139940Y-265478D01*
X1139874Y-265634D01*
X1139829Y-265767D01*
X1139796Y-265878D01*
X1139785Y-265911D01*
Y-265945D01*
X1139774Y-265956D01*
Y-265967D01*
X1139752Y-266089D01*
X1139730Y-266222D01*
X1139707Y-266366D01*
X1139696Y-266511D01*
X1139674Y-266844D01*
X1139652Y-267166D01*
Y-267310D01*
Y-267454D01*
X1139641Y-267587D01*
Y-267698D01*
Y-267787D01*
Y-267865D01*
Y-267909D01*
Y-267920D01*
Y-271972D01*
X1141195D01*
Y-267710D01*
Y-267543D01*
Y-267388D01*
X1141206Y-267243D01*
Y-267110D01*
X1141217Y-266999D01*
Y-266888D01*
X1141228Y-266788D01*
Y-266699D01*
X1141250Y-266566D01*
X1141261Y-266466D01*
X1141273Y-266411D01*
Y-266389D01*
X1141306Y-266244D01*
X1141361Y-266122D01*
X1141428Y-266011D01*
X1141495Y-265911D01*
X1141561Y-265834D01*
X1141617Y-265778D01*
X1141661Y-265745D01*
X1141672Y-265734D01*
X1141805Y-265645D01*
X1141972Y-265578D01*
X1142127Y-265534D01*
X1142294Y-265501D01*
X1142438Y-265478D01*
X1142549Y-265467D01*
X1142660D01*
X1142893Y-265478D01*
X1143093Y-265512D01*
X1143270Y-265556D01*
X1143426Y-265612D01*
X1143537Y-265656D01*
X1143626Y-265700D01*
X1143670Y-265734D01*
X1143692Y-265745D01*
X1143814Y-265856D01*
X1143914Y-265989D01*
X1144003Y-266111D01*
X1144059Y-266233D01*
X1144103Y-266344D01*
X1144136Y-266433D01*
X1144158Y-266488D01*
Y-266511D01*
X1144170Y-266577D01*
X1144181Y-266644D01*
Y-266733D01*
X1144192Y-266833D01*
X1144203Y-267043D01*
Y-267265D01*
X1144214Y-267465D01*
Y-267554D01*
Y-267643D01*
Y-267710D01*
Y-267754D01*
Y-267787D01*
Y-267798D01*
Y-271972D01*
X1145768D01*
Y-267865D01*
Y-267632D01*
X1145757Y-267410D01*
Y-267199D01*
X1145746Y-267010D01*
X1145735Y-266833D01*
X1145723Y-266677D01*
X1145712Y-266533D01*
X1145690Y-266400D01*
X1145679Y-266289D01*
X1145668Y-266189D01*
X1145657Y-266100D01*
X1145646Y-266033D01*
X1145635Y-265978D01*
Y-265945D01*
X1145624Y-265923D01*
Y-265911D01*
X1145568Y-265745D01*
X1145513Y-265590D01*
X1145435Y-265445D01*
X1145368Y-265323D01*
X1145302Y-265212D01*
X1145246Y-265123D01*
X1145202Y-265079D01*
X1145191Y-265057D01*
X1145058Y-264912D01*
X1144913Y-264779D01*
X1144758Y-264668D01*
X1144614Y-264568D01*
X1144492Y-264491D01*
X1144380Y-264435D01*
X1144314Y-264402D01*
X1144303Y-264391D01*
X1144292D01*
X1144181Y-264346D01*
X1144059Y-264313D01*
X1143781Y-264246D01*
X1143504Y-264202D01*
X1143237Y-264180D01*
X1143115Y-264169D01*
X1142993Y-264158D01*
X1142893D01*
X1142793Y-264146D01*
X1142616D01*
X1142294Y-264158D01*
D02*
G37*
G36*
X1181748Y-174099D02*
X1181537Y-174110D01*
X1181326Y-174144D01*
X1181137Y-174188D01*
X1180959Y-174232D01*
X1180793Y-174277D01*
X1180638Y-174332D01*
X1180493Y-174399D01*
X1180371Y-174454D01*
X1180260Y-174510D01*
X1180160Y-174554D01*
X1180083Y-174599D01*
X1180016Y-174643D01*
X1179972Y-174676D01*
X1179949Y-174688D01*
X1179938Y-174699D01*
X1179794Y-174821D01*
X1179661Y-174954D01*
X1179417Y-175254D01*
X1179217Y-175564D01*
X1179061Y-175864D01*
X1178995Y-176008D01*
X1178939Y-176142D01*
X1178895Y-176264D01*
X1178850Y-176364D01*
X1178817Y-176452D01*
X1178795Y-176519D01*
X1178784Y-176563D01*
Y-176574D01*
X1180293Y-177041D01*
X1180382Y-176741D01*
X1180482Y-176486D01*
X1180582Y-176275D01*
X1180693Y-176097D01*
X1180782Y-175964D01*
X1180860Y-175875D01*
X1180915Y-175820D01*
X1180937Y-175798D01*
X1181115Y-175664D01*
X1181292Y-175576D01*
X1181470Y-175509D01*
X1181625Y-175453D01*
X1181770Y-175431D01*
X1181892Y-175420D01*
X1181936Y-175409D01*
X1181992D01*
X1182147Y-175420D01*
X1182291Y-175431D01*
X1182558Y-175509D01*
X1182791Y-175598D01*
X1182980Y-175720D01*
X1183135Y-175831D01*
X1183246Y-175920D01*
X1183290Y-175964D01*
X1183324Y-175997D01*
X1183335Y-176008D01*
X1183346Y-176019D01*
X1183435Y-176142D01*
X1183512Y-176286D01*
X1183590Y-176441D01*
X1183646Y-176608D01*
X1183734Y-176952D01*
X1183801Y-177296D01*
X1183823Y-177463D01*
X1183834Y-177607D01*
X1183857Y-177751D01*
Y-177873D01*
X1183868Y-177962D01*
Y-178040D01*
Y-178095D01*
Y-178106D01*
X1183857Y-178362D01*
X1183845Y-178595D01*
X1183823Y-178806D01*
X1183790Y-179005D01*
X1183745Y-179183D01*
X1183701Y-179349D01*
X1183657Y-179494D01*
X1183601Y-179627D01*
X1183557Y-179738D01*
X1183512Y-179838D01*
X1183468Y-179916D01*
X1183424Y-179982D01*
X1183390Y-180038D01*
X1183368Y-180071D01*
X1183346Y-180093D01*
Y-180104D01*
X1183246Y-180215D01*
X1183135Y-180315D01*
X1183024Y-180393D01*
X1182902Y-180459D01*
X1182669Y-180570D01*
X1182447Y-180648D01*
X1182258Y-180693D01*
X1182169Y-180704D01*
X1182103Y-180715D01*
X1182036Y-180726D01*
X1181958D01*
X1181736Y-180715D01*
X1181537Y-180670D01*
X1181359Y-180615D01*
X1181204Y-180548D01*
X1181081Y-180482D01*
X1180993Y-180426D01*
X1180937Y-180382D01*
X1180915Y-180371D01*
X1180771Y-180237D01*
X1180638Y-180082D01*
X1180538Y-179927D01*
X1180460Y-179771D01*
X1180404Y-179638D01*
X1180371Y-179538D01*
X1180349Y-179494D01*
Y-179460D01*
X1180338Y-179449D01*
Y-179438D01*
X1178806Y-179804D01*
X1178917Y-180126D01*
X1179039Y-180404D01*
X1179172Y-180648D01*
X1179295Y-180848D01*
X1179417Y-181003D01*
X1179461Y-181070D01*
X1179505Y-181125D01*
X1179539Y-181159D01*
X1179572Y-181192D01*
X1179583Y-181214D01*
X1179594D01*
X1179761Y-181359D01*
X1179949Y-181492D01*
X1180127Y-181603D01*
X1180316Y-181691D01*
X1180515Y-181780D01*
X1180704Y-181847D01*
X1180893Y-181902D01*
X1181070Y-181947D01*
X1181237Y-181980D01*
X1181392Y-182002D01*
X1181525Y-182024D01*
X1181648Y-182036D01*
X1181748Y-182047D01*
X1181881D01*
X1182169Y-182036D01*
X1182458Y-182002D01*
X1182713Y-181947D01*
X1182969Y-181880D01*
X1183191Y-181803D01*
X1183412Y-181714D01*
X1183601Y-181614D01*
X1183779Y-181514D01*
X1183945Y-181414D01*
X1184079Y-181314D01*
X1184201Y-181225D01*
X1184301Y-181148D01*
X1184378Y-181081D01*
X1184434Y-181026D01*
X1184467Y-180992D01*
X1184478Y-180981D01*
X1184656Y-180770D01*
X1184800Y-180548D01*
X1184933Y-180315D01*
X1185044Y-180071D01*
X1185144Y-179816D01*
X1185222Y-179571D01*
X1185288Y-179327D01*
X1185344Y-179094D01*
X1185388Y-178861D01*
X1185411Y-178661D01*
X1185433Y-178473D01*
X1185455Y-178317D01*
Y-178184D01*
X1185466Y-178084D01*
Y-178018D01*
Y-178006D01*
Y-177995D01*
X1185455Y-177662D01*
X1185422Y-177351D01*
X1185377Y-177052D01*
X1185311Y-176785D01*
X1185244Y-176530D01*
X1185155Y-176286D01*
X1185066Y-176075D01*
X1184978Y-175886D01*
X1184889Y-175709D01*
X1184800Y-175553D01*
X1184711Y-175431D01*
X1184645Y-175320D01*
X1184578Y-175243D01*
X1184534Y-175176D01*
X1184500Y-175143D01*
X1184489Y-175131D01*
X1184301Y-174943D01*
X1184101Y-174787D01*
X1183890Y-174643D01*
X1183679Y-174532D01*
X1183468Y-174432D01*
X1183257Y-174343D01*
X1183057Y-174277D01*
X1182869Y-174221D01*
X1182680Y-174177D01*
X1182513Y-174144D01*
X1182358Y-174121D01*
X1182236Y-174110D01*
X1182125Y-174099D01*
X1182047Y-174088D01*
X1181981D01*
X1181748Y-174099D01*
D02*
G37*
G36*
X1172801Y-175587D02*
X1175731D01*
X1175643Y-175731D01*
X1175543Y-175853D01*
X1175498Y-175909D01*
X1175465Y-175953D01*
X1175443Y-175975D01*
X1175432Y-175986D01*
X1175387Y-176031D01*
X1175343Y-176086D01*
X1175210Y-176208D01*
X1175065Y-176353D01*
X1174921Y-176497D01*
X1174777Y-176630D01*
X1174655Y-176741D01*
X1174610Y-176785D01*
X1174577Y-176819D01*
X1174555Y-176830D01*
X1174544Y-176841D01*
X1174300Y-177074D01*
X1174100Y-177263D01*
X1173933Y-177440D01*
X1173800Y-177574D01*
X1173700Y-177684D01*
X1173634Y-177762D01*
X1173589Y-177818D01*
X1173578Y-177829D01*
X1173434Y-178018D01*
X1173312Y-178195D01*
X1173212Y-178362D01*
X1173134Y-178506D01*
X1173067Y-178628D01*
X1173023Y-178728D01*
X1173001Y-178783D01*
X1172990Y-178806D01*
X1172923Y-178983D01*
X1172879Y-179161D01*
X1172846Y-179327D01*
X1172823Y-179483D01*
X1172812Y-179605D01*
X1172801Y-179705D01*
Y-179771D01*
Y-179793D01*
X1172812Y-179960D01*
X1172834Y-180126D01*
X1172857Y-180282D01*
X1172901Y-180426D01*
X1173012Y-180681D01*
X1173123Y-180903D01*
X1173190Y-181003D01*
X1173245Y-181081D01*
X1173301Y-181159D01*
X1173356Y-181214D01*
X1173400Y-181259D01*
X1173423Y-181303D01*
X1173445Y-181314D01*
X1173456Y-181325D01*
X1173578Y-181436D01*
X1173722Y-181536D01*
X1173856Y-181614D01*
X1174011Y-181680D01*
X1174300Y-181791D01*
X1174588Y-181869D01*
X1174721Y-181891D01*
X1174843Y-181914D01*
X1174954Y-181925D01*
X1175054Y-181936D01*
X1175132Y-181947D01*
X1175243D01*
X1175432Y-181936D01*
X1175609Y-181925D01*
X1175953Y-181869D01*
X1176242Y-181780D01*
X1176375Y-181736D01*
X1176497Y-181680D01*
X1176608Y-181636D01*
X1176697Y-181581D01*
X1176786Y-181536D01*
X1176852Y-181503D01*
X1176908Y-181458D01*
X1176941Y-181436D01*
X1176964Y-181425D01*
X1176975Y-181414D01*
X1177097Y-181303D01*
X1177208Y-181192D01*
X1177308Y-181059D01*
X1177396Y-180914D01*
X1177530Y-180626D01*
X1177641Y-180348D01*
X1177674Y-180204D01*
X1177707Y-180082D01*
X1177740Y-179971D01*
X1177752Y-179871D01*
X1177774Y-179782D01*
Y-179727D01*
X1177785Y-179682D01*
Y-179671D01*
X1176320Y-179527D01*
X1176298Y-179749D01*
X1176253Y-179938D01*
X1176209Y-180104D01*
X1176153Y-180226D01*
X1176109Y-180326D01*
X1176064Y-180393D01*
X1176031Y-180437D01*
X1176020Y-180448D01*
X1175909Y-180537D01*
X1175787Y-180604D01*
X1175665Y-180659D01*
X1175543Y-180693D01*
X1175443Y-180715D01*
X1175354Y-180726D01*
X1175276D01*
X1175110Y-180715D01*
X1174966Y-180681D01*
X1174843Y-180637D01*
X1174732Y-180593D01*
X1174655Y-180548D01*
X1174588Y-180504D01*
X1174555Y-180471D01*
X1174544Y-180459D01*
X1174455Y-180348D01*
X1174388Y-180226D01*
X1174344Y-180104D01*
X1174311Y-179982D01*
X1174288Y-179871D01*
X1174277Y-179771D01*
Y-179716D01*
Y-179705D01*
Y-179694D01*
X1174288Y-179527D01*
X1174322Y-179372D01*
X1174377Y-179216D01*
X1174433Y-179083D01*
X1174488Y-178961D01*
X1174544Y-178872D01*
X1174577Y-178817D01*
X1174588Y-178794D01*
X1174633Y-178728D01*
X1174699Y-178650D01*
X1174788Y-178550D01*
X1174877Y-178461D01*
X1175077Y-178251D01*
X1175276Y-178040D01*
X1175476Y-177840D01*
X1175565Y-177751D01*
X1175654Y-177684D01*
X1175720Y-177618D01*
X1175765Y-177574D01*
X1175798Y-177540D01*
X1175809Y-177529D01*
X1176031Y-177318D01*
X1176231Y-177118D01*
X1176420Y-176930D01*
X1176586Y-176763D01*
X1176741Y-176597D01*
X1176875Y-176441D01*
X1176997Y-176308D01*
X1177097Y-176175D01*
X1177186Y-176064D01*
X1177263Y-175964D01*
X1177330Y-175886D01*
X1177374Y-175809D01*
X1177419Y-175764D01*
X1177441Y-175720D01*
X1177463Y-175698D01*
Y-175686D01*
X1177607Y-175431D01*
X1177718Y-175165D01*
X1177807Y-174921D01*
X1177874Y-174699D01*
X1177918Y-174499D01*
X1177929Y-174421D01*
X1177940Y-174354D01*
X1177951Y-174299D01*
X1177962Y-174255D01*
Y-174232D01*
Y-174221D01*
X1172801D01*
Y-175587D01*
D02*
G37*
G36*
X1106354Y-153998D02*
X1106610Y-154109D01*
X1106843Y-154253D01*
X1107065Y-154409D01*
X1107242Y-154564D01*
X1107387Y-154697D01*
X1107498Y-154819D01*
X1107542Y-154864D01*
X1107575Y-154897D01*
X1107587Y-154919D01*
X1107598Y-154930D01*
X1107775Y-155175D01*
X1107931Y-155408D01*
X1108053Y-155619D01*
X1108141Y-155807D01*
X1108208Y-155963D01*
X1108263Y-156074D01*
X1108275Y-156118D01*
X1108286Y-156151D01*
X1108297Y-156163D01*
Y-156174D01*
X1109629D01*
X1109473Y-155774D01*
X1109307Y-155419D01*
X1109218Y-155252D01*
X1109118Y-155097D01*
X1109029Y-154953D01*
X1108941Y-154819D01*
X1108852Y-154697D01*
X1108774Y-154586D01*
X1108708Y-154497D01*
X1108641Y-154420D01*
X1108585Y-154353D01*
X1108552Y-154309D01*
X1108530Y-154287D01*
X1108519Y-154276D01*
X1114080D01*
Y-152799D01*
X1106354D01*
Y-153998D01*
D02*
G37*
G36*
X1108441Y-157528D02*
X1108141Y-157572D01*
X1107897Y-157650D01*
X1107675Y-157728D01*
X1107587Y-157772D01*
X1107509Y-157816D01*
X1107442Y-157850D01*
X1107376Y-157894D01*
X1107331Y-157916D01*
X1107298Y-157938D01*
X1107287Y-157961D01*
X1107276D01*
X1107076Y-158138D01*
X1106909Y-158316D01*
X1106776Y-158505D01*
X1106676Y-158671D01*
X1106610Y-158827D01*
X1106554Y-158949D01*
X1106543Y-158993D01*
X1106532Y-159026D01*
X1106521Y-159048D01*
Y-159059D01*
X1106499Y-159148D01*
X1106477Y-159259D01*
X1106465Y-159392D01*
X1106454Y-159526D01*
X1106432Y-159837D01*
X1106410Y-160147D01*
Y-160436D01*
X1106399Y-160558D01*
Y-163389D01*
X1114080D01*
Y-161835D01*
X1111183D01*
Y-160458D01*
X1111172Y-160292D01*
Y-160136D01*
X1111161Y-159992D01*
X1111150Y-159859D01*
X1111138Y-159737D01*
X1111127Y-159637D01*
Y-159537D01*
X1111116Y-159459D01*
X1111105Y-159381D01*
X1111094Y-159326D01*
Y-159282D01*
X1111083Y-159248D01*
Y-159226D01*
X1111039Y-159071D01*
X1110983Y-158926D01*
X1110928Y-158793D01*
X1110861Y-158671D01*
X1110805Y-158571D01*
X1110761Y-158493D01*
X1110728Y-158449D01*
X1110717Y-158427D01*
X1110606Y-158283D01*
X1110483Y-158160D01*
X1110350Y-158038D01*
X1110239Y-157950D01*
X1110128Y-157872D01*
X1110040Y-157816D01*
X1109984Y-157783D01*
X1109962Y-157772D01*
X1109773Y-157683D01*
X1109573Y-157617D01*
X1109362Y-157572D01*
X1109174Y-157539D01*
X1109018Y-157517D01*
X1108941D01*
X1108885Y-157506D01*
X1108830D01*
X1108796D01*
X1108774D01*
X1108763D01*
X1108441Y-157528D01*
D02*
G37*
G36*
X1106399Y-170492D02*
X1107698D01*
Y-168217D01*
X1114080D01*
Y-166663D01*
X1107698D01*
Y-164399D01*
X1106399D01*
Y-170492D01*
D02*
G37*
G36*
X1240253Y-174553D02*
X1241441Y-174720D01*
X1241541Y-174620D01*
X1241641Y-174531D01*
X1241741Y-174453D01*
X1241841Y-174387D01*
X1242029Y-174287D01*
X1242207Y-174220D01*
X1242362Y-174187D01*
X1242473Y-174165D01*
X1242518Y-174154D01*
X1242584D01*
X1242762Y-174165D01*
X1242928Y-174209D01*
X1243073Y-174265D01*
X1243195Y-174331D01*
X1243284Y-174409D01*
X1243361Y-174464D01*
X1243406Y-174509D01*
X1243417Y-174520D01*
X1243528Y-174664D01*
X1243606Y-174831D01*
X1243661Y-175008D01*
X1243694Y-175186D01*
X1243728Y-175341D01*
X1243739Y-175464D01*
Y-175519D01*
Y-175552D01*
Y-175574D01*
Y-175586D01*
X1243728Y-175852D01*
X1243694Y-176085D01*
X1243639Y-176274D01*
X1243583Y-176429D01*
X1243517Y-176562D01*
X1243472Y-176651D01*
X1243428Y-176696D01*
X1243417Y-176718D01*
X1243295Y-176840D01*
X1243162Y-176940D01*
X1243028Y-177006D01*
X1242906Y-177051D01*
X1242795Y-177073D01*
X1242707Y-177084D01*
X1242651Y-177095D01*
X1242629D01*
X1242485Y-177084D01*
X1242340Y-177051D01*
X1242218Y-177006D01*
X1242118Y-176951D01*
X1242029Y-176895D01*
X1241963Y-176851D01*
X1241918Y-176818D01*
X1241907Y-176807D01*
X1241807Y-176684D01*
X1241719Y-176562D01*
X1241652Y-176429D01*
X1241608Y-176307D01*
X1241574Y-176196D01*
X1241552Y-176096D01*
X1241541Y-176041D01*
Y-176019D01*
X1240076Y-176174D01*
X1240109Y-176352D01*
X1240142Y-176518D01*
X1240253Y-176818D01*
X1240376Y-177084D01*
X1240442Y-177195D01*
X1240520Y-177306D01*
X1240586Y-177395D01*
X1240642Y-177473D01*
X1240708Y-177539D01*
X1240753Y-177606D01*
X1240797Y-177650D01*
X1240831Y-177684D01*
X1240853Y-177695D01*
X1240864Y-177706D01*
X1240997Y-177806D01*
X1241130Y-177894D01*
X1241275Y-177972D01*
X1241419Y-178028D01*
X1241719Y-178139D01*
X1241985Y-178205D01*
X1242118Y-178227D01*
X1242229Y-178239D01*
X1242340Y-178250D01*
X1242429Y-178261D01*
X1242507Y-178272D01*
X1242607D01*
X1242851Y-178261D01*
X1243084Y-178227D01*
X1243295Y-178183D01*
X1243495Y-178116D01*
X1243683Y-178039D01*
X1243850Y-177950D01*
X1244005Y-177861D01*
X1244149Y-177761D01*
X1244272Y-177672D01*
X1244383Y-177584D01*
X1244482Y-177495D01*
X1244560Y-177417D01*
X1244616Y-177351D01*
X1244660Y-177306D01*
X1244682Y-177273D01*
X1244693Y-177262D01*
X1244793Y-177117D01*
X1244882Y-176973D01*
X1244949Y-176829D01*
X1245015Y-176673D01*
X1245115Y-176385D01*
X1245182Y-176118D01*
X1245204Y-176007D01*
X1245215Y-175896D01*
X1245237Y-175797D01*
Y-175708D01*
X1245248Y-175641D01*
Y-175597D01*
Y-175563D01*
Y-175552D01*
X1245237Y-175341D01*
X1245215Y-175142D01*
X1245182Y-174953D01*
X1245137Y-174775D01*
X1245093Y-174620D01*
X1245026Y-174464D01*
X1244971Y-174320D01*
X1244904Y-174198D01*
X1244838Y-174087D01*
X1244782Y-173987D01*
X1244715Y-173899D01*
X1244671Y-173832D01*
X1244627Y-173776D01*
X1244593Y-173732D01*
X1244571Y-173710D01*
X1244560Y-173699D01*
X1244427Y-173577D01*
X1244294Y-173466D01*
X1244149Y-173366D01*
X1244005Y-173277D01*
X1243872Y-173210D01*
X1243728Y-173155D01*
X1243472Y-173066D01*
X1243350Y-173033D01*
X1243239Y-173011D01*
X1243139Y-172999D01*
X1243062Y-172988D01*
X1242995Y-172977D01*
X1242895D01*
X1242707Y-172988D01*
X1242518Y-173022D01*
X1242351Y-173055D01*
X1242196Y-173099D01*
X1242074Y-173155D01*
X1241974Y-173188D01*
X1241907Y-173221D01*
X1241896Y-173232D01*
X1241885D01*
X1242118Y-171923D01*
X1244904D01*
Y-170546D01*
X1241008D01*
X1240253Y-174553D01*
D02*
G37*
G36*
X1236535Y-170657D02*
X1236391Y-170890D01*
X1236235Y-171112D01*
X1236080Y-171290D01*
X1235947Y-171434D01*
X1235825Y-171545D01*
X1235780Y-171590D01*
X1235747Y-171623D01*
X1235725Y-171634D01*
X1235714Y-171645D01*
X1235469Y-171823D01*
X1235236Y-171978D01*
X1235025Y-172100D01*
X1234837Y-172189D01*
X1234681Y-172256D01*
X1234570Y-172311D01*
X1234526Y-172322D01*
X1234493Y-172333D01*
X1234482Y-172344D01*
X1234470D01*
Y-173676D01*
X1234870Y-173521D01*
X1235225Y-173355D01*
X1235392Y-173266D01*
X1235547Y-173166D01*
X1235691Y-173077D01*
X1235825Y-172988D01*
X1235947Y-172899D01*
X1236058Y-172822D01*
X1236146Y-172755D01*
X1236224Y-172689D01*
X1236291Y-172633D01*
X1236335Y-172600D01*
X1236357Y-172578D01*
X1236368Y-172567D01*
Y-178127D01*
X1237845D01*
Y-170402D01*
X1236646D01*
X1236535Y-170657D01*
D02*
G37*
G36*
X1226667Y-178127D02*
X1228221D01*
Y-174920D01*
X1228721D01*
X1228876Y-174931D01*
X1229009Y-174942D01*
X1229120Y-174964D01*
X1229209Y-174975D01*
X1229265Y-174997D01*
X1229298Y-175008D01*
X1229309D01*
X1229398Y-175053D01*
X1229487Y-175097D01*
X1229564Y-175153D01*
X1229642Y-175197D01*
X1229697Y-175253D01*
X1229742Y-175297D01*
X1229764Y-175319D01*
X1229775Y-175330D01*
X1229820Y-175386D01*
X1229875Y-175441D01*
X1229997Y-175608D01*
X1230130Y-175785D01*
X1230275Y-175985D01*
X1230397Y-176163D01*
X1230452Y-176252D01*
X1230497Y-176318D01*
X1230541Y-176374D01*
X1230574Y-176418D01*
X1230585Y-176451D01*
X1230597Y-176462D01*
X1231707Y-178127D01*
X1233571D01*
X1232628Y-176629D01*
X1232528Y-176474D01*
X1232428Y-176318D01*
X1232339Y-176185D01*
X1232251Y-176063D01*
X1232173Y-175952D01*
X1232106Y-175841D01*
X1231973Y-175674D01*
X1231873Y-175541D01*
X1231806Y-175452D01*
X1231751Y-175397D01*
X1231740Y-175386D01*
X1231618Y-175253D01*
X1231473Y-175131D01*
X1231340Y-175031D01*
X1231207Y-174931D01*
X1231096Y-174853D01*
X1231007Y-174797D01*
X1230941Y-174753D01*
X1230930Y-174742D01*
X1230919D01*
X1231107Y-174709D01*
X1231274Y-174664D01*
X1231429Y-174620D01*
X1231584Y-174564D01*
X1231718Y-174509D01*
X1231840Y-174453D01*
X1231962Y-174398D01*
X1232062Y-174331D01*
X1232151Y-174276D01*
X1232228Y-174220D01*
X1232295Y-174165D01*
X1232339Y-174121D01*
X1232384Y-174087D01*
X1232417Y-174054D01*
X1232428Y-174043D01*
X1232439Y-174032D01*
X1232528Y-173921D01*
X1232606Y-173810D01*
X1232739Y-173566D01*
X1232828Y-173332D01*
X1232883Y-173099D01*
X1232928Y-172899D01*
X1232939Y-172822D01*
Y-172744D01*
X1232950Y-172689D01*
Y-172633D01*
Y-172611D01*
Y-172600D01*
X1232939Y-172356D01*
X1232894Y-172122D01*
X1232839Y-171923D01*
X1232783Y-171745D01*
X1232717Y-171601D01*
X1232661Y-171490D01*
X1232639Y-171457D01*
X1232617Y-171423D01*
X1232606Y-171412D01*
Y-171401D01*
X1232473Y-171212D01*
X1232328Y-171057D01*
X1232184Y-170935D01*
X1232040Y-170824D01*
X1231906Y-170757D01*
X1231806Y-170702D01*
X1231740Y-170668D01*
X1231729Y-170657D01*
X1231718D01*
X1231607Y-170624D01*
X1231485Y-170591D01*
X1231207Y-170535D01*
X1230907Y-170502D01*
X1230619Y-170469D01*
X1230474D01*
X1230352Y-170457D01*
X1230230D01*
X1230130Y-170446D01*
X1226667D01*
Y-178127D01*
D02*
G37*
G36*
X1151342Y-234075D02*
X1151131Y-234086D01*
X1150920Y-234119D01*
X1150732Y-234163D01*
X1150554Y-234208D01*
X1150387Y-234252D01*
X1150232Y-234308D01*
X1150088Y-234374D01*
X1149966Y-234430D01*
X1149855Y-234485D01*
X1149755Y-234530D01*
X1149677Y-234574D01*
X1149611Y-234618D01*
X1149566Y-234652D01*
X1149544Y-234663D01*
X1149533Y-234674D01*
X1149389Y-234796D01*
X1149255Y-234929D01*
X1149011Y-235229D01*
X1148811Y-235540D01*
X1148656Y-235840D01*
X1148589Y-235984D01*
X1148534Y-236117D01*
X1148489Y-236239D01*
X1148445Y-236339D01*
X1148412Y-236428D01*
X1148390Y-236494D01*
X1148378Y-236539D01*
Y-236550D01*
X1149888Y-237016D01*
X1149977Y-236716D01*
X1150077Y-236461D01*
X1150176Y-236250D01*
X1150287Y-236073D01*
X1150376Y-235939D01*
X1150454Y-235851D01*
X1150509Y-235795D01*
X1150532Y-235773D01*
X1150709Y-235640D01*
X1150887Y-235551D01*
X1151065Y-235484D01*
X1151220Y-235429D01*
X1151364Y-235407D01*
X1151486Y-235396D01*
X1151531Y-235384D01*
X1151586D01*
X1151742Y-235396D01*
X1151886Y-235407D01*
X1152152Y-235484D01*
X1152385Y-235573D01*
X1152574Y-235695D01*
X1152729Y-235806D01*
X1152840Y-235895D01*
X1152885Y-235939D01*
X1152918Y-235973D01*
X1152929Y-235984D01*
X1152940Y-235995D01*
X1153029Y-236117D01*
X1153107Y-236261D01*
X1153185Y-236417D01*
X1153240Y-236583D01*
X1153329Y-236927D01*
X1153395Y-237271D01*
X1153418Y-237438D01*
X1153429Y-237582D01*
X1153451Y-237726D01*
Y-237849D01*
X1153462Y-237937D01*
Y-238015D01*
Y-238071D01*
Y-238082D01*
X1153451Y-238337D01*
X1153440Y-238570D01*
X1153418Y-238781D01*
X1153384Y-238981D01*
X1153340Y-239158D01*
X1153296Y-239325D01*
X1153251Y-239469D01*
X1153196Y-239602D01*
X1153151Y-239713D01*
X1153107Y-239813D01*
X1153063Y-239891D01*
X1153018Y-239958D01*
X1152985Y-240013D01*
X1152963Y-240046D01*
X1152940Y-240068D01*
Y-240080D01*
X1152840Y-240191D01*
X1152729Y-240291D01*
X1152618Y-240368D01*
X1152496Y-240435D01*
X1152263Y-240546D01*
X1152041Y-240623D01*
X1151853Y-240668D01*
X1151764Y-240679D01*
X1151697Y-240690D01*
X1151631Y-240701D01*
X1151553D01*
X1151331Y-240690D01*
X1151131Y-240646D01*
X1150954Y-240590D01*
X1150798Y-240524D01*
X1150676Y-240457D01*
X1150587Y-240401D01*
X1150532Y-240357D01*
X1150509Y-240346D01*
X1150365Y-240213D01*
X1150232Y-240057D01*
X1150132Y-239902D01*
X1150054Y-239747D01*
X1149999Y-239613D01*
X1149966Y-239513D01*
X1149943Y-239469D01*
Y-239436D01*
X1149932Y-239425D01*
Y-239414D01*
X1148401Y-239780D01*
X1148512Y-240102D01*
X1148634Y-240379D01*
X1148767Y-240623D01*
X1148889Y-240823D01*
X1149011Y-240979D01*
X1149055Y-241045D01*
X1149100Y-241101D01*
X1149133Y-241134D01*
X1149166Y-241167D01*
X1149178Y-241190D01*
X1149189D01*
X1149355Y-241334D01*
X1149544Y-241467D01*
X1149721Y-241578D01*
X1149910Y-241667D01*
X1150110Y-241756D01*
X1150299Y-241822D01*
X1150487Y-241878D01*
X1150665Y-241922D01*
X1150831Y-241956D01*
X1150987Y-241978D01*
X1151120Y-242000D01*
X1151242Y-242011D01*
X1151342Y-242022D01*
X1151475D01*
X1151764Y-242011D01*
X1152052Y-241978D01*
X1152308Y-241922D01*
X1152563Y-241856D01*
X1152785Y-241778D01*
X1153007Y-241689D01*
X1153196Y-241589D01*
X1153373Y-241489D01*
X1153540Y-241389D01*
X1153673Y-241290D01*
X1153795Y-241201D01*
X1153895Y-241123D01*
X1153973Y-241056D01*
X1154028Y-241001D01*
X1154062Y-240968D01*
X1154073Y-240956D01*
X1154250Y-240746D01*
X1154395Y-240524D01*
X1154528Y-240291D01*
X1154639Y-240046D01*
X1154739Y-239791D01*
X1154816Y-239547D01*
X1154883Y-239303D01*
X1154938Y-239069D01*
X1154983Y-238836D01*
X1155005Y-238637D01*
X1155027Y-238448D01*
X1155049Y-238293D01*
Y-238159D01*
X1155061Y-238060D01*
Y-237993D01*
Y-237982D01*
Y-237971D01*
X1155049Y-237638D01*
X1155016Y-237327D01*
X1154972Y-237027D01*
X1154905Y-236761D01*
X1154838Y-236506D01*
X1154750Y-236261D01*
X1154661Y-236050D01*
X1154572Y-235862D01*
X1154483Y-235684D01*
X1154395Y-235529D01*
X1154306Y-235407D01*
X1154239Y-235296D01*
X1154173Y-235218D01*
X1154128Y-235151D01*
X1154095Y-235118D01*
X1154084Y-235107D01*
X1153895Y-234918D01*
X1153695Y-234763D01*
X1153484Y-234618D01*
X1153273Y-234508D01*
X1153063Y-234408D01*
X1152852Y-234319D01*
X1152652Y-234252D01*
X1152463Y-234197D01*
X1152274Y-234152D01*
X1152108Y-234119D01*
X1151953Y-234097D01*
X1151830Y-234086D01*
X1151719Y-234075D01*
X1151642Y-234063D01*
X1151575D01*
X1151342Y-234075D01*
D02*
G37*
G36*
X1137634Y-241922D02*
X1138832D01*
X1138943Y-241667D01*
X1139088Y-241434D01*
X1139243Y-241212D01*
X1139399Y-241034D01*
X1139532Y-240890D01*
X1139654Y-240779D01*
X1139698Y-240735D01*
X1139732Y-240701D01*
X1139754Y-240690D01*
X1139765Y-240679D01*
X1140009Y-240501D01*
X1140242Y-240346D01*
X1140453Y-240224D01*
X1140642Y-240135D01*
X1140797Y-240068D01*
X1140908Y-240013D01*
X1140953Y-240002D01*
X1140986Y-239991D01*
X1140997Y-239980D01*
X1141008D01*
Y-238648D01*
X1140609Y-238803D01*
X1140253Y-238970D01*
X1140087Y-239058D01*
X1139931Y-239158D01*
X1139787Y-239247D01*
X1139654Y-239336D01*
X1139532Y-239425D01*
X1139421Y-239502D01*
X1139332Y-239569D01*
X1139254Y-239636D01*
X1139188Y-239691D01*
X1139143Y-239724D01*
X1139121Y-239747D01*
X1139110Y-239758D01*
Y-234197D01*
X1137634D01*
Y-241922D01*
D02*
G37*
G36*
X1143605D02*
X1144804D01*
X1144915Y-241667D01*
X1145060Y-241434D01*
X1145215Y-241212D01*
X1145370Y-241034D01*
X1145503Y-240890D01*
X1145626Y-240779D01*
X1145670Y-240735D01*
X1145703Y-240701D01*
X1145725Y-240690D01*
X1145737Y-240679D01*
X1145981Y-240501D01*
X1146214Y-240346D01*
X1146425Y-240224D01*
X1146613Y-240135D01*
X1146769Y-240068D01*
X1146880Y-240013D01*
X1146924Y-240002D01*
X1146958Y-239991D01*
X1146969Y-239980D01*
X1146980D01*
Y-238648D01*
X1146580Y-238803D01*
X1146225Y-238970D01*
X1146059Y-239058D01*
X1145903Y-239158D01*
X1145759Y-239247D01*
X1145626Y-239336D01*
X1145503Y-239425D01*
X1145393Y-239502D01*
X1145304Y-239569D01*
X1145226Y-239636D01*
X1145159Y-239691D01*
X1145115Y-239724D01*
X1145093Y-239747D01*
X1145082Y-239758D01*
Y-234197D01*
X1143605D01*
Y-241922D01*
D02*
G37*
G36*
X1185234Y-273426D02*
X1185090Y-273659D01*
X1184935Y-273881D01*
X1184779Y-274058D01*
X1184646Y-274203D01*
X1184524Y-274314D01*
X1184480Y-274358D01*
X1184446Y-274391D01*
X1184424Y-274403D01*
X1184413Y-274414D01*
X1184169Y-274591D01*
X1183936Y-274747D01*
X1183725Y-274869D01*
X1183536Y-274958D01*
X1183381Y-275024D01*
X1183270Y-275080D01*
X1183225Y-275091D01*
X1183192Y-275102D01*
X1183181Y-275113D01*
X1183170D01*
Y-276445D01*
X1183569Y-276290D01*
X1183924Y-276123D01*
X1184091Y-276034D01*
X1184246Y-275934D01*
X1184391Y-275846D01*
X1184524Y-275757D01*
X1184646Y-275668D01*
X1184757Y-275590D01*
X1184846Y-275524D01*
X1184923Y-275457D01*
X1184990Y-275402D01*
X1185034Y-275368D01*
X1185057Y-275346D01*
X1185068Y-275335D01*
Y-280896D01*
X1186544D01*
Y-273171D01*
X1185345D01*
X1185234Y-273426D01*
D02*
G37*
G36*
X1178386Y-273082D02*
X1178097Y-273115D01*
X1177842Y-273171D01*
X1177587Y-273237D01*
X1177365Y-273315D01*
X1177143Y-273404D01*
X1176954Y-273503D01*
X1176776Y-273603D01*
X1176610Y-273703D01*
X1176477Y-273803D01*
X1176355Y-273892D01*
X1176255Y-273970D01*
X1176177Y-274036D01*
X1176121Y-274092D01*
X1176088Y-274125D01*
X1176077Y-274136D01*
X1175899Y-274347D01*
X1175755Y-274569D01*
X1175622Y-274802D01*
X1175511Y-275046D01*
X1175411Y-275302D01*
X1175333Y-275546D01*
X1175267Y-275790D01*
X1175211Y-276023D01*
X1175167Y-276256D01*
X1175145Y-276456D01*
X1175122Y-276645D01*
X1175100Y-276800D01*
Y-276933D01*
X1175089Y-277033D01*
Y-277100D01*
Y-277111D01*
Y-277122D01*
X1175100Y-277455D01*
X1175134Y-277766D01*
X1175178Y-278065D01*
X1175245Y-278332D01*
X1175311Y-278587D01*
X1175400Y-278831D01*
X1175489Y-279042D01*
X1175577Y-279231D01*
X1175666Y-279409D01*
X1175755Y-279564D01*
X1175844Y-279686D01*
X1175910Y-279797D01*
X1175977Y-279875D01*
X1176021Y-279941D01*
X1176055Y-279975D01*
X1176066Y-279986D01*
X1176255Y-280175D01*
X1176454Y-280330D01*
X1176665Y-280474D01*
X1176876Y-280585D01*
X1177087Y-280685D01*
X1177298Y-280774D01*
X1177498Y-280840D01*
X1177686Y-280896D01*
X1177875Y-280940D01*
X1178042Y-280974D01*
X1178197Y-280996D01*
X1178319Y-281007D01*
X1178430Y-281018D01*
X1178508Y-281029D01*
X1178574D01*
X1178808Y-281018D01*
X1179018Y-281007D01*
X1179229Y-280974D01*
X1179418Y-280929D01*
X1179596Y-280885D01*
X1179762Y-280840D01*
X1179918Y-280785D01*
X1180062Y-280718D01*
X1180184Y-280663D01*
X1180295Y-280607D01*
X1180395Y-280563D01*
X1180472Y-280519D01*
X1180539Y-280474D01*
X1180583Y-280441D01*
X1180606Y-280430D01*
X1180617Y-280419D01*
X1180761Y-280297D01*
X1180894Y-280163D01*
X1181139Y-279864D01*
X1181338Y-279553D01*
X1181494Y-279253D01*
X1181560Y-279109D01*
X1181616Y-278976D01*
X1181660Y-278854D01*
X1181705Y-278754D01*
X1181738Y-278665D01*
X1181760Y-278598D01*
X1181771Y-278554D01*
Y-278543D01*
X1180262Y-278077D01*
X1180173Y-278376D01*
X1180073Y-278632D01*
X1179973Y-278843D01*
X1179862Y-279020D01*
X1179773Y-279153D01*
X1179696Y-279242D01*
X1179640Y-279298D01*
X1179618Y-279320D01*
X1179440Y-279453D01*
X1179263Y-279542D01*
X1179085Y-279608D01*
X1178930Y-279664D01*
X1178785Y-279686D01*
X1178663Y-279697D01*
X1178619Y-279708D01*
X1178563D01*
X1178408Y-279697D01*
X1178264Y-279686D01*
X1177997Y-279608D01*
X1177764Y-279520D01*
X1177575Y-279398D01*
X1177420Y-279286D01*
X1177309Y-279198D01*
X1177265Y-279153D01*
X1177231Y-279120D01*
X1177220Y-279109D01*
X1177209Y-279098D01*
X1177120Y-278976D01*
X1177043Y-278831D01*
X1176965Y-278676D01*
X1176909Y-278510D01*
X1176821Y-278165D01*
X1176754Y-277821D01*
X1176732Y-277655D01*
X1176721Y-277511D01*
X1176699Y-277366D01*
Y-277244D01*
X1176687Y-277155D01*
Y-277078D01*
Y-277022D01*
Y-277011D01*
X1176699Y-276756D01*
X1176710Y-276523D01*
X1176732Y-276312D01*
X1176765Y-276112D01*
X1176810Y-275934D01*
X1176854Y-275768D01*
X1176898Y-275624D01*
X1176954Y-275490D01*
X1176998Y-275379D01*
X1177043Y-275280D01*
X1177087Y-275202D01*
X1177132Y-275135D01*
X1177165Y-275080D01*
X1177187Y-275046D01*
X1177209Y-275024D01*
Y-275013D01*
X1177309Y-274902D01*
X1177420Y-274802D01*
X1177531Y-274725D01*
X1177653Y-274658D01*
X1177886Y-274547D01*
X1178108Y-274469D01*
X1178297Y-274425D01*
X1178386Y-274414D01*
X1178452Y-274403D01*
X1178519Y-274391D01*
X1178597D01*
X1178819Y-274403D01*
X1179018Y-274447D01*
X1179196Y-274503D01*
X1179351Y-274569D01*
X1179473Y-274636D01*
X1179562Y-274691D01*
X1179618Y-274736D01*
X1179640Y-274747D01*
X1179784Y-274880D01*
X1179918Y-275035D01*
X1180017Y-275191D01*
X1180095Y-275346D01*
X1180151Y-275479D01*
X1180184Y-275579D01*
X1180206Y-275624D01*
Y-275657D01*
X1180217Y-275668D01*
Y-275679D01*
X1181749Y-275313D01*
X1181638Y-274991D01*
X1181516Y-274713D01*
X1181383Y-274469D01*
X1181261Y-274269D01*
X1181139Y-274114D01*
X1181094Y-274047D01*
X1181050Y-273992D01*
X1181016Y-273959D01*
X1180983Y-273925D01*
X1180972Y-273903D01*
X1180961D01*
X1180794Y-273759D01*
X1180606Y-273626D01*
X1180428Y-273515D01*
X1180239Y-273426D01*
X1180040Y-273337D01*
X1179851Y-273270D01*
X1179662Y-273215D01*
X1179485Y-273171D01*
X1179318Y-273137D01*
X1179163Y-273115D01*
X1179029Y-273093D01*
X1178907Y-273082D01*
X1178808Y-273071D01*
X1178674D01*
X1178386Y-273082D01*
D02*
G37*
G36*
X1191040Y-273182D02*
X1190851Y-273204D01*
X1190662Y-273248D01*
X1190496Y-273293D01*
X1190340Y-273359D01*
X1190196Y-273426D01*
X1190074Y-273492D01*
X1189952Y-273570D01*
X1189852Y-273648D01*
X1189752Y-273714D01*
X1189674Y-273781D01*
X1189619Y-273848D01*
X1189563Y-273892D01*
X1189530Y-273936D01*
X1189508Y-273959D01*
X1189497Y-273970D01*
X1189363Y-274158D01*
X1189252Y-274380D01*
X1189153Y-274613D01*
X1189064Y-274858D01*
X1188997Y-275113D01*
X1188931Y-275379D01*
X1188886Y-275635D01*
X1188842Y-275890D01*
X1188820Y-276134D01*
X1188797Y-276356D01*
X1188775Y-276567D01*
X1188764Y-276745D01*
X1188753Y-276889D01*
Y-277000D01*
Y-277044D01*
Y-277078D01*
Y-277089D01*
Y-277100D01*
X1188764Y-277499D01*
X1188786Y-277866D01*
X1188820Y-278210D01*
X1188864Y-278521D01*
X1188908Y-278798D01*
X1188964Y-279053D01*
X1189030Y-279275D01*
X1189097Y-279475D01*
X1189153Y-279642D01*
X1189219Y-279797D01*
X1189275Y-279919D01*
X1189330Y-280019D01*
X1189363Y-280086D01*
X1189397Y-280141D01*
X1189419Y-280175D01*
X1189430Y-280186D01*
X1189563Y-280341D01*
X1189707Y-280463D01*
X1189852Y-280585D01*
X1190007Y-280674D01*
X1190152Y-280763D01*
X1190307Y-280829D01*
X1190451Y-280885D01*
X1190595Y-280929D01*
X1190729Y-280974D01*
X1190851Y-280996D01*
X1190962Y-281018D01*
X1191051Y-281029D01*
X1191128D01*
X1191195Y-281040D01*
X1191239D01*
X1191439Y-281029D01*
X1191628Y-281007D01*
X1191816Y-280963D01*
X1191983Y-280918D01*
X1192138Y-280863D01*
X1192283Y-280796D01*
X1192405Y-280718D01*
X1192527Y-280641D01*
X1192627Y-280574D01*
X1192727Y-280496D01*
X1192804Y-280430D01*
X1192871Y-280374D01*
X1192915Y-280330D01*
X1192949Y-280285D01*
X1192971Y-280263D01*
X1192982Y-280252D01*
X1193115Y-280063D01*
X1193226Y-279841D01*
X1193337Y-279608D01*
X1193415Y-279353D01*
X1193493Y-279098D01*
X1193548Y-278843D01*
X1193604Y-278576D01*
X1193648Y-278321D01*
X1193670Y-278077D01*
X1193692Y-277855D01*
X1193715Y-277644D01*
X1193726Y-277466D01*
X1193737Y-277322D01*
Y-277211D01*
Y-277167D01*
Y-277133D01*
Y-277122D01*
Y-277111D01*
X1193726Y-276711D01*
X1193704Y-276345D01*
X1193670Y-276012D01*
X1193615Y-275701D01*
X1193559Y-275413D01*
X1193504Y-275157D01*
X1193426Y-274924D01*
X1193359Y-274725D01*
X1193293Y-274536D01*
X1193226Y-274391D01*
X1193160Y-274258D01*
X1193104Y-274147D01*
X1193049Y-274070D01*
X1193015Y-274014D01*
X1192993Y-273981D01*
X1192982Y-273970D01*
X1192860Y-273825D01*
X1192727Y-273703D01*
X1192582Y-273603D01*
X1192438Y-273503D01*
X1192294Y-273426D01*
X1192150Y-273370D01*
X1192016Y-273315D01*
X1191872Y-273270D01*
X1191739Y-273237D01*
X1191628Y-273215D01*
X1191517Y-273193D01*
X1191428Y-273182D01*
X1191350Y-273171D01*
X1191239D01*
X1191040Y-273182D01*
D02*
G37*
G36*
X1176096Y-248291D02*
X1175752Y-248313D01*
X1175430Y-248346D01*
X1175130Y-248402D01*
X1174864Y-248457D01*
X1174620Y-248513D01*
X1174398Y-248590D01*
X1174198Y-248657D01*
X1174031Y-248724D01*
X1173887Y-248790D01*
X1173765Y-248857D01*
X1173665Y-248912D01*
X1173587Y-248968D01*
X1173532Y-249001D01*
X1173499Y-249023D01*
X1173487Y-249034D01*
X1173332Y-249179D01*
X1173188Y-249334D01*
X1173066Y-249489D01*
X1172966Y-249645D01*
X1172877Y-249811D01*
X1172799Y-249967D01*
X1172744Y-250122D01*
X1172688Y-250278D01*
X1172655Y-250411D01*
X1172622Y-250544D01*
X1172599Y-250655D01*
X1172588Y-250755D01*
Y-250844D01*
X1172577Y-250899D01*
Y-250955D01*
X1172588Y-251154D01*
X1172611Y-251332D01*
X1172644Y-251510D01*
X1172688Y-251676D01*
X1172744Y-251831D01*
X1172810Y-251976D01*
X1172866Y-252120D01*
X1172933Y-252231D01*
X1173010Y-252342D01*
X1173066Y-252442D01*
X1173132Y-252520D01*
X1173188Y-252597D01*
X1173232Y-252653D01*
X1173266Y-252686D01*
X1173288Y-252708D01*
X1173299Y-252719D01*
X1173443Y-252841D01*
X1173587Y-252941D01*
X1173743Y-253041D01*
X1173898Y-253119D01*
X1174054Y-253186D01*
X1174220Y-253241D01*
X1174520Y-253319D01*
X1174653Y-253352D01*
X1174786Y-253374D01*
X1174897Y-253385D01*
X1174997Y-253396D01*
X1175086Y-253408D01*
X1175141D01*
X1175186D01*
X1175197D01*
X1175397Y-253396D01*
X1175596Y-253374D01*
X1175785Y-253352D01*
X1175952Y-253308D01*
X1176118Y-253252D01*
X1176263Y-253197D01*
X1176407Y-253141D01*
X1176529Y-253075D01*
X1176640Y-253019D01*
X1176740Y-252964D01*
X1176817Y-252908D01*
X1176895Y-252853D01*
X1176940Y-252808D01*
X1176984Y-252786D01*
X1177006Y-252764D01*
X1177017Y-252753D01*
X1177139Y-252631D01*
X1177250Y-252497D01*
X1177339Y-252364D01*
X1177417Y-252231D01*
X1177483Y-252098D01*
X1177550Y-251976D01*
X1177628Y-251732D01*
X1177683Y-251521D01*
X1177694Y-251432D01*
X1177705Y-251354D01*
X1177717Y-251288D01*
Y-251199D01*
X1177705Y-251043D01*
X1177683Y-250899D01*
X1177661Y-250766D01*
X1177617Y-250633D01*
X1177517Y-250389D01*
X1177395Y-250189D01*
X1177273Y-250033D01*
X1177217Y-249967D01*
X1177173Y-249911D01*
X1177128Y-249867D01*
X1177095Y-249834D01*
X1177084Y-249822D01*
X1177073Y-249811D01*
X1177306Y-249834D01*
X1177528Y-249856D01*
X1177728Y-249878D01*
X1177905Y-249911D01*
X1178061Y-249944D01*
X1178205Y-249978D01*
X1178327Y-250011D01*
X1178438Y-250044D01*
X1178538Y-250089D01*
X1178616Y-250111D01*
X1178682Y-250144D01*
X1178727Y-250166D01*
X1178771Y-250189D01*
X1178793Y-250211D01*
X1178815Y-250222D01*
X1178949Y-250344D01*
X1179048Y-250477D01*
X1179126Y-250599D01*
X1179171Y-250721D01*
X1179204Y-250833D01*
X1179215Y-250910D01*
X1179226Y-250966D01*
Y-250988D01*
X1179215Y-251110D01*
X1179193Y-251232D01*
X1179159Y-251321D01*
X1179126Y-251410D01*
X1179093Y-251476D01*
X1179060Y-251521D01*
X1179037Y-251554D01*
X1179026Y-251565D01*
X1178938Y-251643D01*
X1178838Y-251698D01*
X1178727Y-251743D01*
X1178616Y-251776D01*
X1178527Y-251809D01*
X1178449Y-251820D01*
X1178394Y-251831D01*
X1178371D01*
X1178538Y-253252D01*
X1178716Y-253219D01*
X1178871Y-253174D01*
X1179026Y-253130D01*
X1179159Y-253075D01*
X1179293Y-253019D01*
X1179415Y-252964D01*
X1179515Y-252897D01*
X1179615Y-252841D01*
X1179692Y-252775D01*
X1179770Y-252731D01*
X1179826Y-252675D01*
X1179881Y-252631D01*
X1179914Y-252597D01*
X1179948Y-252564D01*
X1179959Y-252553D01*
X1179970Y-252542D01*
X1180059Y-252431D01*
X1180125Y-252320D01*
X1180247Y-252076D01*
X1180325Y-251842D01*
X1180392Y-251609D01*
X1180425Y-251399D01*
X1180436Y-251310D01*
Y-251232D01*
X1180447Y-251177D01*
Y-251088D01*
X1180436Y-250855D01*
X1180403Y-250644D01*
X1180358Y-250444D01*
X1180303Y-250244D01*
X1180225Y-250067D01*
X1180147Y-249900D01*
X1180070Y-249745D01*
X1179981Y-249611D01*
X1179892Y-249489D01*
X1179814Y-249378D01*
X1179726Y-249290D01*
X1179659Y-249212D01*
X1179604Y-249145D01*
X1179559Y-249101D01*
X1179526Y-249079D01*
X1179515Y-249068D01*
X1179326Y-248923D01*
X1179115Y-248812D01*
X1178882Y-248701D01*
X1178649Y-248612D01*
X1178394Y-248535D01*
X1178138Y-248468D01*
X1177894Y-248424D01*
X1177639Y-248379D01*
X1177406Y-248346D01*
X1177195Y-248324D01*
X1176995Y-248302D01*
X1176817Y-248291D01*
X1176673Y-248279D01*
X1176562D01*
X1176529D01*
X1176496D01*
X1176485D01*
X1176473D01*
X1176096Y-248291D01*
D02*
G37*
G36*
X1177483Y-255816D02*
X1177783Y-255905D01*
X1178038Y-256005D01*
X1178249Y-256105D01*
X1178427Y-256216D01*
X1178560Y-256305D01*
X1178649Y-256382D01*
X1178704Y-256438D01*
X1178727Y-256460D01*
X1178860Y-256638D01*
X1178949Y-256815D01*
X1179015Y-256993D01*
X1179071Y-257148D01*
X1179093Y-257293D01*
X1179104Y-257415D01*
X1179115Y-257459D01*
Y-257514D01*
X1179104Y-257670D01*
X1179093Y-257814D01*
X1179015Y-258081D01*
X1178926Y-258314D01*
X1178804Y-258502D01*
X1178693Y-258658D01*
X1178605Y-258769D01*
X1178560Y-258813D01*
X1178527Y-258846D01*
X1178516Y-258858D01*
X1178505Y-258869D01*
X1178382Y-258958D01*
X1178238Y-259035D01*
X1178083Y-259113D01*
X1177916Y-259168D01*
X1177572Y-259257D01*
X1177228Y-259324D01*
X1177062Y-259346D01*
X1176917Y-259357D01*
X1176773Y-259379D01*
X1176651D01*
X1176562Y-259390D01*
X1176485D01*
X1176429D01*
X1176418D01*
X1176163Y-259379D01*
X1175929Y-259368D01*
X1175719Y-259346D01*
X1175519Y-259313D01*
X1175341Y-259268D01*
X1175175Y-259224D01*
X1175030Y-259179D01*
X1174897Y-259124D01*
X1174786Y-259080D01*
X1174686Y-259035D01*
X1174609Y-258991D01*
X1174542Y-258946D01*
X1174486Y-258913D01*
X1174453Y-258891D01*
X1174431Y-258869D01*
X1174420D01*
X1174309Y-258769D01*
X1174209Y-258658D01*
X1174131Y-258547D01*
X1174065Y-258425D01*
X1173954Y-258192D01*
X1173876Y-257970D01*
X1173832Y-257781D01*
X1173820Y-257692D01*
X1173809Y-257626D01*
X1173798Y-257559D01*
Y-257481D01*
X1173809Y-257259D01*
X1173854Y-257059D01*
X1173909Y-256882D01*
X1173976Y-256726D01*
X1174043Y-256604D01*
X1174098Y-256516D01*
X1174142Y-256460D01*
X1174154Y-256438D01*
X1174287Y-256294D01*
X1174442Y-256160D01*
X1174597Y-256061D01*
X1174753Y-255983D01*
X1174886Y-255927D01*
X1174986Y-255894D01*
X1175030Y-255872D01*
X1175064D01*
X1175075Y-255861D01*
X1175086D01*
X1174720Y-254329D01*
X1174398Y-254440D01*
X1174120Y-254562D01*
X1173876Y-254695D01*
X1173676Y-254817D01*
X1173521Y-254939D01*
X1173454Y-254984D01*
X1173399Y-255028D01*
X1173365Y-255061D01*
X1173332Y-255095D01*
X1173310Y-255106D01*
Y-255117D01*
X1173166Y-255284D01*
X1173032Y-255472D01*
X1172921Y-255650D01*
X1172833Y-255839D01*
X1172744Y-256038D01*
X1172677Y-256227D01*
X1172622Y-256416D01*
X1172577Y-256593D01*
X1172544Y-256760D01*
X1172522Y-256915D01*
X1172500Y-257048D01*
X1172488Y-257171D01*
X1172477Y-257270D01*
Y-257404D01*
X1172488Y-257692D01*
X1172522Y-257981D01*
X1172577Y-258236D01*
X1172644Y-258491D01*
X1172722Y-258713D01*
X1172810Y-258935D01*
X1172910Y-259124D01*
X1173010Y-259302D01*
X1173110Y-259468D01*
X1173210Y-259601D01*
X1173299Y-259723D01*
X1173376Y-259823D01*
X1173443Y-259901D01*
X1173499Y-259956D01*
X1173532Y-259990D01*
X1173543Y-260001D01*
X1173754Y-260179D01*
X1173976Y-260323D01*
X1174209Y-260456D01*
X1174453Y-260567D01*
X1174708Y-260667D01*
X1174953Y-260745D01*
X1175197Y-260811D01*
X1175430Y-260867D01*
X1175663Y-260911D01*
X1175863Y-260933D01*
X1176052Y-260956D01*
X1176207Y-260978D01*
X1176340D01*
X1176440Y-260989D01*
X1176507D01*
X1176518D01*
X1176529D01*
X1176862Y-260978D01*
X1177173Y-260944D01*
X1177472Y-260900D01*
X1177739Y-260833D01*
X1177994Y-260767D01*
X1178238Y-260678D01*
X1178449Y-260589D01*
X1178638Y-260500D01*
X1178815Y-260412D01*
X1178971Y-260323D01*
X1179093Y-260234D01*
X1179204Y-260167D01*
X1179282Y-260101D01*
X1179348Y-260056D01*
X1179381Y-260023D01*
X1179393Y-260012D01*
X1179581Y-259823D01*
X1179737Y-259624D01*
X1179881Y-259413D01*
X1179992Y-259202D01*
X1180092Y-258991D01*
X1180181Y-258780D01*
X1180247Y-258580D01*
X1180303Y-258391D01*
X1180347Y-258203D01*
X1180380Y-258036D01*
X1180403Y-257881D01*
X1180414Y-257759D01*
X1180425Y-257648D01*
X1180436Y-257570D01*
Y-257503D01*
X1180425Y-257270D01*
X1180414Y-257059D01*
X1180380Y-256849D01*
X1180336Y-256660D01*
X1180292Y-256482D01*
X1180247Y-256316D01*
X1180192Y-256160D01*
X1180125Y-256016D01*
X1180070Y-255894D01*
X1180014Y-255783D01*
X1179970Y-255683D01*
X1179925Y-255605D01*
X1179881Y-255539D01*
X1179848Y-255494D01*
X1179837Y-255472D01*
X1179826Y-255461D01*
X1179703Y-255317D01*
X1179570Y-255184D01*
X1179270Y-254939D01*
X1178960Y-254740D01*
X1178660Y-254584D01*
X1178516Y-254518D01*
X1178382Y-254462D01*
X1178260Y-254418D01*
X1178160Y-254373D01*
X1178072Y-254340D01*
X1178005Y-254318D01*
X1177961Y-254307D01*
X1177950D01*
X1177483Y-255816D01*
D02*
G37*
G36*
X1185303Y-72650D02*
X1185092Y-72672D01*
X1184892Y-72716D01*
X1184726Y-72761D01*
X1184593Y-72805D01*
X1184482Y-72850D01*
X1184415Y-72872D01*
X1184404Y-72883D01*
X1184393D01*
X1184215Y-72983D01*
X1184049Y-73094D01*
X1183916Y-73205D01*
X1183805Y-73305D01*
X1183716Y-73405D01*
X1183649Y-73482D01*
X1183605Y-73527D01*
X1183594Y-73549D01*
X1183494Y-73716D01*
X1183405Y-73893D01*
X1183338Y-74082D01*
X1183272Y-74259D01*
X1183227Y-74426D01*
X1183194Y-74548D01*
X1183183Y-74604D01*
Y-74637D01*
X1183172Y-74659D01*
Y-74670D01*
X1184526Y-74892D01*
X1184559Y-74714D01*
X1184604Y-74559D01*
X1184648Y-74426D01*
X1184704Y-74326D01*
X1184759Y-74237D01*
X1184803Y-74171D01*
X1184837Y-74137D01*
X1184848Y-74126D01*
X1184948Y-74037D01*
X1185059Y-73971D01*
X1185170Y-73926D01*
X1185270Y-73893D01*
X1185359Y-73871D01*
X1185425Y-73860D01*
X1185492D01*
X1185625Y-73871D01*
X1185758Y-73893D01*
X1185858Y-73938D01*
X1185947Y-73971D01*
X1186024Y-74015D01*
X1186069Y-74060D01*
X1186102Y-74082D01*
X1186113Y-74093D01*
X1186191Y-74182D01*
X1186246Y-74293D01*
X1186291Y-74393D01*
X1186313Y-74493D01*
X1186335Y-74581D01*
X1186346Y-74648D01*
Y-74692D01*
Y-74714D01*
X1186335Y-74881D01*
X1186302Y-75025D01*
X1186246Y-75147D01*
X1186191Y-75247D01*
X1186124Y-75336D01*
X1186080Y-75392D01*
X1186036Y-75436D01*
X1186024Y-75447D01*
X1185891Y-75536D01*
X1185747Y-75602D01*
X1185592Y-75647D01*
X1185447Y-75680D01*
X1185314Y-75691D01*
X1185203Y-75702D01*
X1185103D01*
X1184948Y-76890D01*
X1185092Y-76857D01*
X1185214Y-76824D01*
X1185336Y-76801D01*
X1185436Y-76790D01*
X1185514Y-76779D01*
X1185625D01*
X1185780Y-76790D01*
X1185913Y-76835D01*
X1186036Y-76879D01*
X1186147Y-76946D01*
X1186224Y-77001D01*
X1186291Y-77057D01*
X1186335Y-77101D01*
X1186346Y-77112D01*
X1186446Y-77245D01*
X1186524Y-77390D01*
X1186580Y-77534D01*
X1186624Y-77678D01*
X1186646Y-77811D01*
X1186657Y-77911D01*
Y-77978D01*
Y-77989D01*
Y-78000D01*
X1186646Y-78211D01*
X1186613Y-78400D01*
X1186557Y-78566D01*
X1186502Y-78699D01*
X1186435Y-78799D01*
X1186391Y-78877D01*
X1186346Y-78932D01*
X1186335Y-78944D01*
X1186213Y-79054D01*
X1186080Y-79143D01*
X1185958Y-79199D01*
X1185836Y-79243D01*
X1185725Y-79265D01*
X1185647Y-79276D01*
X1185592Y-79288D01*
X1185569D01*
X1185414Y-79276D01*
X1185281Y-79243D01*
X1185159Y-79199D01*
X1185048Y-79143D01*
X1184970Y-79099D01*
X1184903Y-79054D01*
X1184859Y-79021D01*
X1184848Y-79010D01*
X1184748Y-78888D01*
X1184659Y-78755D01*
X1184604Y-78611D01*
X1184548Y-78477D01*
X1184515Y-78355D01*
X1184493Y-78255D01*
X1184482Y-78189D01*
Y-78178D01*
Y-78166D01*
X1183061Y-78344D01*
X1183083Y-78522D01*
X1183128Y-78688D01*
X1183227Y-78999D01*
X1183350Y-79265D01*
X1183427Y-79376D01*
X1183494Y-79487D01*
X1183560Y-79587D01*
X1183627Y-79665D01*
X1183682Y-79743D01*
X1183738Y-79798D01*
X1183782Y-79843D01*
X1183816Y-79876D01*
X1183838Y-79898D01*
X1183849Y-79909D01*
X1183982Y-80009D01*
X1184127Y-80109D01*
X1184260Y-80187D01*
X1184415Y-80253D01*
X1184704Y-80364D01*
X1184970Y-80431D01*
X1185103Y-80453D01*
X1185214Y-80475D01*
X1185314Y-80486D01*
X1185403Y-80498D01*
X1185481Y-80509D01*
X1185581D01*
X1185780Y-80498D01*
X1185980Y-80475D01*
X1186158Y-80442D01*
X1186335Y-80398D01*
X1186491Y-80342D01*
X1186646Y-80287D01*
X1186790Y-80220D01*
X1186913Y-80153D01*
X1187023Y-80087D01*
X1187134Y-80020D01*
X1187212Y-79965D01*
X1187290Y-79909D01*
X1187345Y-79865D01*
X1187390Y-79832D01*
X1187412Y-79809D01*
X1187423Y-79798D01*
X1187556Y-79665D01*
X1187667Y-79521D01*
X1187767Y-79376D01*
X1187856Y-79232D01*
X1187923Y-79077D01*
X1187989Y-78932D01*
X1188078Y-78666D01*
X1188100Y-78544D01*
X1188122Y-78422D01*
X1188145Y-78322D01*
X1188156Y-78233D01*
X1188167Y-78166D01*
Y-78111D01*
Y-78078D01*
Y-78067D01*
X1188145Y-77811D01*
X1188100Y-77589D01*
X1188045Y-77379D01*
X1187967Y-77212D01*
X1187889Y-77068D01*
X1187834Y-76968D01*
X1187789Y-76901D01*
X1187767Y-76879D01*
X1187612Y-76712D01*
X1187434Y-76568D01*
X1187257Y-76457D01*
X1187090Y-76368D01*
X1186946Y-76302D01*
X1186824Y-76269D01*
X1186779Y-76246D01*
X1186746D01*
X1186724Y-76235D01*
X1186713D01*
X1186913Y-76113D01*
X1187079Y-75991D01*
X1187223Y-75858D01*
X1187356Y-75725D01*
X1187467Y-75591D01*
X1187556Y-75458D01*
X1187623Y-75325D01*
X1187690Y-75203D01*
X1187734Y-75081D01*
X1187767Y-74970D01*
X1187789Y-74870D01*
X1187801Y-74781D01*
X1187812Y-74714D01*
X1187823Y-74659D01*
Y-74626D01*
Y-74615D01*
X1187812Y-74481D01*
X1187801Y-74359D01*
X1187734Y-74115D01*
X1187656Y-73893D01*
X1187556Y-73704D01*
X1187456Y-73549D01*
X1187368Y-73438D01*
X1187334Y-73394D01*
X1187301Y-73360D01*
X1187290Y-73349D01*
X1187279Y-73338D01*
X1187157Y-73216D01*
X1187012Y-73105D01*
X1186879Y-73016D01*
X1186735Y-72938D01*
X1186580Y-72861D01*
X1186435Y-72805D01*
X1186158Y-72728D01*
X1186036Y-72694D01*
X1185913Y-72672D01*
X1185814Y-72661D01*
X1185714Y-72650D01*
X1185636Y-72639D01*
X1185536D01*
X1185303Y-72650D01*
D02*
G37*
G36*
X1179598Y-72894D02*
X1179453Y-73127D01*
X1179298Y-73349D01*
X1179143Y-73527D01*
X1179009Y-73671D01*
X1178887Y-73782D01*
X1178843Y-73826D01*
X1178810Y-73860D01*
X1178788Y-73871D01*
X1178776Y-73882D01*
X1178532Y-74060D01*
X1178299Y-74215D01*
X1178088Y-74337D01*
X1177899Y-74426D01*
X1177744Y-74493D01*
X1177633Y-74548D01*
X1177589Y-74559D01*
X1177555Y-74570D01*
X1177544Y-74581D01*
X1177533D01*
Y-75913D01*
X1177933Y-75758D01*
X1178288Y-75591D01*
X1178455Y-75503D01*
X1178610Y-75403D01*
X1178754Y-75314D01*
X1178887Y-75225D01*
X1179009Y-75136D01*
X1179120Y-75059D01*
X1179209Y-74992D01*
X1179287Y-74925D01*
X1179353Y-74870D01*
X1179398Y-74837D01*
X1179420Y-74814D01*
X1179431Y-74803D01*
Y-80364D01*
X1180908D01*
Y-72639D01*
X1179709D01*
X1179598Y-72894D01*
D02*
G37*
G36*
X1169730Y-80364D02*
X1171284D01*
Y-77157D01*
X1171784D01*
X1171939Y-77168D01*
X1172072Y-77179D01*
X1172183Y-77201D01*
X1172272Y-77212D01*
X1172327Y-77234D01*
X1172361Y-77245D01*
X1172372D01*
X1172461Y-77290D01*
X1172549Y-77334D01*
X1172627Y-77390D01*
X1172705Y-77434D01*
X1172760Y-77490D01*
X1172805Y-77534D01*
X1172827Y-77556D01*
X1172838Y-77567D01*
X1172882Y-77623D01*
X1172938Y-77678D01*
X1173060Y-77845D01*
X1173193Y-78022D01*
X1173337Y-78222D01*
X1173460Y-78400D01*
X1173515Y-78488D01*
X1173559Y-78555D01*
X1173604Y-78611D01*
X1173637Y-78655D01*
X1173648Y-78688D01*
X1173659Y-78699D01*
X1174769Y-80364D01*
X1176634D01*
X1175691Y-78866D01*
X1175591Y-78710D01*
X1175491Y-78555D01*
X1175402Y-78422D01*
X1175313Y-78300D01*
X1175236Y-78189D01*
X1175169Y-78078D01*
X1175036Y-77911D01*
X1174936Y-77778D01*
X1174869Y-77689D01*
X1174814Y-77634D01*
X1174803Y-77623D01*
X1174680Y-77490D01*
X1174536Y-77367D01*
X1174403Y-77267D01*
X1174270Y-77168D01*
X1174159Y-77090D01*
X1174070Y-77034D01*
X1174003Y-76990D01*
X1173992Y-76979D01*
X1173981D01*
X1174170Y-76946D01*
X1174336Y-76901D01*
X1174492Y-76857D01*
X1174647Y-76801D01*
X1174780Y-76746D01*
X1174902Y-76690D01*
X1175025Y-76635D01*
X1175125Y-76568D01*
X1175213Y-76513D01*
X1175291Y-76457D01*
X1175358Y-76402D01*
X1175402Y-76357D01*
X1175446Y-76324D01*
X1175480Y-76291D01*
X1175491Y-76280D01*
X1175502Y-76269D01*
X1175591Y-76157D01*
X1175668Y-76047D01*
X1175802Y-75802D01*
X1175890Y-75569D01*
X1175946Y-75336D01*
X1175990Y-75136D01*
X1176001Y-75059D01*
Y-74981D01*
X1176012Y-74925D01*
Y-74870D01*
Y-74848D01*
Y-74837D01*
X1176001Y-74592D01*
X1175957Y-74359D01*
X1175901Y-74159D01*
X1175846Y-73982D01*
X1175779Y-73838D01*
X1175724Y-73727D01*
X1175702Y-73693D01*
X1175679Y-73660D01*
X1175668Y-73649D01*
Y-73638D01*
X1175535Y-73449D01*
X1175391Y-73294D01*
X1175247Y-73172D01*
X1175102Y-73061D01*
X1174969Y-72994D01*
X1174869Y-72938D01*
X1174803Y-72905D01*
X1174791Y-72894D01*
X1174780D01*
X1174669Y-72861D01*
X1174547Y-72828D01*
X1174270Y-72772D01*
X1173970Y-72739D01*
X1173681Y-72705D01*
X1173537D01*
X1173415Y-72694D01*
X1173293D01*
X1173193Y-72683D01*
X1169730D01*
Y-80364D01*
D02*
G37*
G36*
X1182424Y-88876D02*
X1182524Y-89031D01*
X1182624Y-89186D01*
X1182713Y-89319D01*
X1182802Y-89442D01*
X1182879Y-89553D01*
X1182946Y-89663D01*
X1183079Y-89830D01*
X1183179Y-89963D01*
X1183246Y-90052D01*
X1183301Y-90107D01*
X1183312Y-90119D01*
X1183434Y-90252D01*
X1183579Y-90374D01*
X1183712Y-90474D01*
X1183845Y-90574D01*
X1183956Y-90651D01*
X1184045Y-90707D01*
X1184111Y-90751D01*
X1184122Y-90762D01*
X1184134D01*
X1183945Y-90796D01*
X1183778Y-90840D01*
X1183623Y-90885D01*
X1183468Y-90940D01*
X1183334Y-90996D01*
X1183212Y-91051D01*
X1183090Y-91107D01*
X1182990Y-91173D01*
X1182902Y-91229D01*
X1182824Y-91284D01*
X1182757Y-91340D01*
X1182713Y-91384D01*
X1182668Y-91417D01*
X1182635Y-91451D01*
X1182624Y-91462D01*
X1182613Y-91473D01*
X1182524Y-91584D01*
X1182446Y-91695D01*
X1182313Y-91939D01*
X1182224Y-92172D01*
X1182169Y-92405D01*
X1182124Y-92605D01*
X1182113Y-92683D01*
Y-92760D01*
X1182102Y-92816D01*
Y-92871D01*
Y-92894D01*
Y-92905D01*
X1182113Y-93149D01*
X1182158Y-93382D01*
X1182213Y-93582D01*
X1182269Y-93759D01*
X1182335Y-93904D01*
X1182391Y-94015D01*
X1182413Y-94048D01*
X1182435Y-94081D01*
X1182446Y-94092D01*
Y-94103D01*
X1182580Y-94292D01*
X1182724Y-94448D01*
X1182868Y-94570D01*
X1183012Y-94681D01*
X1183146Y-94747D01*
X1183246Y-94803D01*
X1183312Y-94836D01*
X1183323Y-94847D01*
X1183334D01*
X1183445Y-94881D01*
X1183568Y-94914D01*
X1183845Y-94969D01*
X1184145Y-95003D01*
X1184433Y-95036D01*
X1184578D01*
X1184700Y-95047D01*
X1184822D01*
X1184922Y-95058D01*
X1188385D01*
Y-87377D01*
X1186831D01*
Y-90585D01*
X1186331D01*
X1186176Y-90574D01*
X1186043Y-90563D01*
X1185932Y-90540D01*
X1185843Y-90529D01*
X1185788Y-90507D01*
X1185754Y-90496D01*
X1185743D01*
X1185654Y-90452D01*
X1185565Y-90407D01*
X1185488Y-90352D01*
X1185410Y-90307D01*
X1185355Y-90252D01*
X1185310Y-90207D01*
X1185288Y-90185D01*
X1185277Y-90174D01*
X1185232Y-90119D01*
X1185177Y-90063D01*
X1185055Y-89897D01*
X1184922Y-89719D01*
X1184777Y-89519D01*
X1184655Y-89342D01*
X1184600Y-89253D01*
X1184555Y-89186D01*
X1184511Y-89131D01*
X1184478Y-89086D01*
X1184467Y-89053D01*
X1184455Y-89042D01*
X1183345Y-87377D01*
X1181481D01*
X1182424Y-88876D01*
D02*
G37*
G36*
X1177207Y-95103D02*
X1178406D01*
X1178517Y-94847D01*
X1178661Y-94614D01*
X1178817Y-94392D01*
X1178972Y-94214D01*
X1179105Y-94070D01*
X1179228Y-93959D01*
X1179272Y-93915D01*
X1179305Y-93882D01*
X1179327Y-93870D01*
X1179339Y-93859D01*
X1179583Y-93682D01*
X1179816Y-93526D01*
X1180027Y-93404D01*
X1180215Y-93315D01*
X1180371Y-93249D01*
X1180482Y-93193D01*
X1180526Y-93182D01*
X1180559Y-93171D01*
X1180571Y-93160D01*
X1180582D01*
Y-91828D01*
X1180182Y-91983D01*
X1179827Y-92150D01*
X1179660Y-92239D01*
X1179505Y-92339D01*
X1179361Y-92427D01*
X1179228Y-92516D01*
X1179105Y-92605D01*
X1178994Y-92683D01*
X1178906Y-92749D01*
X1178828Y-92816D01*
X1178761Y-92871D01*
X1178717Y-92905D01*
X1178695Y-92927D01*
X1178684Y-92938D01*
Y-87377D01*
X1177207D01*
Y-95103D01*
D02*
G37*
G36*
X1172312Y-87244D02*
X1172124Y-87266D01*
X1171935Y-87310D01*
X1171768Y-87355D01*
X1171613Y-87410D01*
X1171469Y-87477D01*
X1171347Y-87555D01*
X1171225Y-87632D01*
X1171125Y-87699D01*
X1171025Y-87777D01*
X1170947Y-87843D01*
X1170880Y-87899D01*
X1170836Y-87943D01*
X1170803Y-87987D01*
X1170780Y-88010D01*
X1170769Y-88021D01*
X1170636Y-88209D01*
X1170525Y-88432D01*
X1170414Y-88665D01*
X1170337Y-88920D01*
X1170259Y-89175D01*
X1170203Y-89431D01*
X1170148Y-89697D01*
X1170104Y-89952D01*
X1170081Y-90196D01*
X1170059Y-90418D01*
X1170037Y-90629D01*
X1170026Y-90807D01*
X1170015Y-90951D01*
Y-91062D01*
Y-91107D01*
Y-91140D01*
Y-91151D01*
Y-91162D01*
X1170026Y-91562D01*
X1170048Y-91928D01*
X1170081Y-92261D01*
X1170137Y-92572D01*
X1170192Y-92860D01*
X1170248Y-93116D01*
X1170325Y-93349D01*
X1170392Y-93548D01*
X1170459Y-93737D01*
X1170525Y-93882D01*
X1170592Y-94015D01*
X1170647Y-94126D01*
X1170703Y-94203D01*
X1170736Y-94259D01*
X1170758Y-94292D01*
X1170769Y-94303D01*
X1170891Y-94448D01*
X1171025Y-94570D01*
X1171169Y-94670D01*
X1171313Y-94769D01*
X1171458Y-94847D01*
X1171602Y-94903D01*
X1171735Y-94958D01*
X1171879Y-95003D01*
X1172013Y-95036D01*
X1172124Y-95058D01*
X1172235Y-95080D01*
X1172323Y-95091D01*
X1172401Y-95103D01*
X1172512D01*
X1172712Y-95091D01*
X1172901Y-95069D01*
X1173089Y-95025D01*
X1173256Y-94980D01*
X1173411Y-94914D01*
X1173556Y-94847D01*
X1173678Y-94781D01*
X1173800Y-94703D01*
X1173900Y-94625D01*
X1173999Y-94559D01*
X1174077Y-94492D01*
X1174133Y-94425D01*
X1174188Y-94381D01*
X1174221Y-94337D01*
X1174244Y-94314D01*
X1174255Y-94303D01*
X1174388Y-94115D01*
X1174499Y-93893D01*
X1174599Y-93659D01*
X1174688Y-93415D01*
X1174754Y-93160D01*
X1174821Y-92894D01*
X1174865Y-92638D01*
X1174910Y-92383D01*
X1174932Y-92139D01*
X1174954Y-91917D01*
X1174976Y-91706D01*
X1174987Y-91528D01*
X1174998Y-91384D01*
Y-91273D01*
Y-91229D01*
Y-91195D01*
Y-91184D01*
Y-91173D01*
X1174987Y-90773D01*
X1174965Y-90407D01*
X1174932Y-90063D01*
X1174887Y-89752D01*
X1174843Y-89475D01*
X1174788Y-89220D01*
X1174721Y-88998D01*
X1174654Y-88798D01*
X1174599Y-88631D01*
X1174532Y-88476D01*
X1174477Y-88354D01*
X1174421Y-88254D01*
X1174388Y-88187D01*
X1174355Y-88132D01*
X1174333Y-88098D01*
X1174321Y-88087D01*
X1174188Y-87932D01*
X1174044Y-87810D01*
X1173900Y-87688D01*
X1173744Y-87599D01*
X1173600Y-87510D01*
X1173445Y-87444D01*
X1173300Y-87388D01*
X1173156Y-87344D01*
X1173023Y-87299D01*
X1172901Y-87277D01*
X1172790Y-87255D01*
X1172701Y-87244D01*
X1172623D01*
X1172557Y-87233D01*
X1172512D01*
X1172312Y-87244D01*
D02*
G37*
G36*
X1175827Y-101740D02*
X1175538Y-101773D01*
X1175283Y-101829D01*
X1175028Y-101895D01*
X1174806Y-101973D01*
X1174584Y-102062D01*
X1174395Y-102162D01*
X1174218Y-102262D01*
X1174051Y-102361D01*
X1173918Y-102461D01*
X1173796Y-102550D01*
X1173696Y-102628D01*
X1173618Y-102695D01*
X1173563Y-102750D01*
X1173529Y-102783D01*
X1173518Y-102794D01*
X1173341Y-103005D01*
X1173196Y-103227D01*
X1173063Y-103460D01*
X1172952Y-103705D01*
X1172852Y-103960D01*
X1172775Y-104204D01*
X1172708Y-104448D01*
X1172652Y-104681D01*
X1172608Y-104915D01*
X1172586Y-105114D01*
X1172564Y-105303D01*
X1172541Y-105458D01*
Y-105592D01*
X1172530Y-105691D01*
Y-105758D01*
Y-105769D01*
Y-105780D01*
X1172541Y-106113D01*
X1172575Y-106424D01*
X1172619Y-106724D01*
X1172686Y-106990D01*
X1172752Y-107246D01*
X1172841Y-107490D01*
X1172930Y-107701D01*
X1173019Y-107889D01*
X1173108Y-108067D01*
X1173196Y-108222D01*
X1173285Y-108344D01*
X1173352Y-108455D01*
X1173418Y-108533D01*
X1173463Y-108600D01*
X1173496Y-108633D01*
X1173507Y-108644D01*
X1173696Y-108833D01*
X1173896Y-108988D01*
X1174107Y-109132D01*
X1174317Y-109243D01*
X1174528Y-109343D01*
X1174739Y-109432D01*
X1174939Y-109499D01*
X1175128Y-109554D01*
X1175316Y-109599D01*
X1175483Y-109632D01*
X1175638Y-109654D01*
X1175760Y-109665D01*
X1175871Y-109676D01*
X1175949Y-109687D01*
X1176016D01*
X1176249Y-109676D01*
X1176460Y-109665D01*
X1176671Y-109632D01*
X1176859Y-109587D01*
X1177037Y-109543D01*
X1177203Y-109499D01*
X1177359Y-109443D01*
X1177503Y-109377D01*
X1177625Y-109321D01*
X1177736Y-109266D01*
X1177836Y-109221D01*
X1177914Y-109177D01*
X1177980Y-109132D01*
X1178025Y-109099D01*
X1178047Y-109088D01*
X1178058Y-109077D01*
X1178202Y-108955D01*
X1178335Y-108822D01*
X1178580Y-108522D01*
X1178780Y-108211D01*
X1178935Y-107911D01*
X1179001Y-107767D01*
X1179057Y-107634D01*
X1179101Y-107512D01*
X1179146Y-107412D01*
X1179179Y-107323D01*
X1179201Y-107257D01*
X1179212Y-107212D01*
Y-107201D01*
X1177703Y-106735D01*
X1177614Y-107035D01*
X1177514Y-107290D01*
X1177414Y-107501D01*
X1177303Y-107678D01*
X1177215Y-107811D01*
X1177137Y-107900D01*
X1177081Y-107956D01*
X1177059Y-107978D01*
X1176881Y-108111D01*
X1176704Y-108200D01*
X1176526Y-108267D01*
X1176371Y-108322D01*
X1176227Y-108344D01*
X1176105Y-108355D01*
X1176060Y-108366D01*
X1176005D01*
X1175849Y-108355D01*
X1175705Y-108344D01*
X1175439Y-108267D01*
X1175205Y-108178D01*
X1175017Y-108056D01*
X1174861Y-107945D01*
X1174750Y-107856D01*
X1174706Y-107811D01*
X1174673Y-107778D01*
X1174661Y-107767D01*
X1174650Y-107756D01*
X1174562Y-107634D01*
X1174484Y-107490D01*
X1174406Y-107334D01*
X1174351Y-107168D01*
X1174262Y-106824D01*
X1174195Y-106480D01*
X1174173Y-106313D01*
X1174162Y-106169D01*
X1174140Y-106025D01*
Y-105902D01*
X1174129Y-105814D01*
Y-105736D01*
Y-105680D01*
Y-105669D01*
X1174140Y-105414D01*
X1174151Y-105181D01*
X1174173Y-104970D01*
X1174206Y-104770D01*
X1174251Y-104593D01*
X1174295Y-104426D01*
X1174340Y-104282D01*
X1174395Y-104149D01*
X1174439Y-104038D01*
X1174484Y-103938D01*
X1174528Y-103860D01*
X1174573Y-103793D01*
X1174606Y-103738D01*
X1174628Y-103705D01*
X1174650Y-103682D01*
Y-103671D01*
X1174750Y-103560D01*
X1174861Y-103460D01*
X1174972Y-103383D01*
X1175094Y-103316D01*
X1175328Y-103205D01*
X1175549Y-103127D01*
X1175738Y-103083D01*
X1175827Y-103072D01*
X1175894Y-103061D01*
X1175960Y-103050D01*
X1176038D01*
X1176260Y-103061D01*
X1176460Y-103105D01*
X1176637Y-103161D01*
X1176793Y-103227D01*
X1176915Y-103294D01*
X1177004Y-103349D01*
X1177059Y-103394D01*
X1177081Y-103405D01*
X1177226Y-103538D01*
X1177359Y-103694D01*
X1177459Y-103849D01*
X1177536Y-104004D01*
X1177592Y-104137D01*
X1177625Y-104237D01*
X1177647Y-104282D01*
Y-104315D01*
X1177658Y-104326D01*
Y-104337D01*
X1179190Y-103971D01*
X1179079Y-103649D01*
X1178957Y-103372D01*
X1178824Y-103127D01*
X1178702Y-102928D01*
X1178580Y-102772D01*
X1178535Y-102706D01*
X1178491Y-102650D01*
X1178458Y-102617D01*
X1178424Y-102584D01*
X1178413Y-102561D01*
X1178402D01*
X1178236Y-102417D01*
X1178047Y-102284D01*
X1177869Y-102173D01*
X1177681Y-102084D01*
X1177481Y-101995D01*
X1177292Y-101929D01*
X1177104Y-101873D01*
X1176926Y-101829D01*
X1176759Y-101796D01*
X1176604Y-101773D01*
X1176471Y-101751D01*
X1176349Y-101740D01*
X1176249Y-101729D01*
X1176116D01*
X1175827Y-101740D01*
D02*
G37*
G36*
X1179967Y-106735D02*
Y-108011D01*
X1183120D01*
Y-109554D01*
X1184540D01*
Y-108011D01*
X1185495D01*
Y-106724D01*
X1184540D01*
Y-101840D01*
X1183297D01*
X1179967Y-106735D01*
D02*
G37*
G36*
X1172798Y-123994D02*
X1174352D01*
Y-120786D01*
X1174851D01*
X1175006Y-120797D01*
X1175140Y-120808D01*
X1175251Y-120830D01*
X1175340Y-120841D01*
X1175395Y-120863D01*
X1175428Y-120875D01*
X1175439D01*
X1175528Y-120919D01*
X1175617Y-120963D01*
X1175695Y-121019D01*
X1175772Y-121063D01*
X1175828Y-121119D01*
X1175872Y-121163D01*
X1175894Y-121185D01*
X1175906Y-121196D01*
X1175950Y-121252D01*
X1176005Y-121307D01*
X1176128Y-121474D01*
X1176261Y-121651D01*
X1176405Y-121851D01*
X1176527Y-122029D01*
X1176583Y-122118D01*
X1176627Y-122184D01*
X1176672Y-122240D01*
X1176705Y-122284D01*
X1176716Y-122317D01*
X1176727Y-122329D01*
X1177837Y-123994D01*
X1179702D01*
X1178758Y-122495D01*
X1178658Y-122340D01*
X1178558Y-122184D01*
X1178470Y-122051D01*
X1178381Y-121929D01*
X1178303Y-121818D01*
X1178236Y-121707D01*
X1178103Y-121540D01*
X1178003Y-121407D01*
X1177937Y-121319D01*
X1177881Y-121263D01*
X1177870Y-121252D01*
X1177748Y-121119D01*
X1177604Y-120997D01*
X1177471Y-120897D01*
X1177337Y-120797D01*
X1177226Y-120719D01*
X1177138Y-120664D01*
X1177071Y-120619D01*
X1177060Y-120608D01*
X1177049D01*
X1177237Y-120575D01*
X1177404Y-120530D01*
X1177559Y-120486D01*
X1177715Y-120430D01*
X1177848Y-120375D01*
X1177970Y-120319D01*
X1178092Y-120264D01*
X1178192Y-120197D01*
X1178281Y-120142D01*
X1178359Y-120086D01*
X1178425Y-120031D01*
X1178470Y-119986D01*
X1178514Y-119953D01*
X1178547Y-119920D01*
X1178558Y-119909D01*
X1178569Y-119898D01*
X1178658Y-119787D01*
X1178736Y-119676D01*
X1178869Y-119431D01*
X1178958Y-119198D01*
X1179014Y-118965D01*
X1179058Y-118765D01*
X1179069Y-118688D01*
Y-118610D01*
X1179080Y-118555D01*
Y-118499D01*
Y-118477D01*
Y-118466D01*
X1179069Y-118222D01*
X1179025Y-117989D01*
X1178969Y-117789D01*
X1178914Y-117611D01*
X1178847Y-117467D01*
X1178792Y-117356D01*
X1178769Y-117323D01*
X1178747Y-117289D01*
X1178736Y-117278D01*
Y-117267D01*
X1178603Y-117078D01*
X1178458Y-116923D01*
X1178314Y-116801D01*
X1178170Y-116690D01*
X1178037Y-116623D01*
X1177937Y-116568D01*
X1177870Y-116535D01*
X1177859Y-116523D01*
X1177848D01*
X1177737Y-116490D01*
X1177615Y-116457D01*
X1177337Y-116401D01*
X1177038Y-116368D01*
X1176749Y-116335D01*
X1176605D01*
X1176483Y-116324D01*
X1176361D01*
X1176261Y-116313D01*
X1172798D01*
Y-123994D01*
D02*
G37*
G36*
X1180212Y-117778D02*
X1183553D01*
X1183187Y-118277D01*
X1182865Y-118799D01*
X1182710Y-119043D01*
X1182577Y-119298D01*
X1182455Y-119531D01*
X1182344Y-119753D01*
X1182244Y-119964D01*
X1182155Y-120153D01*
X1182077Y-120331D01*
X1182010Y-120475D01*
X1181966Y-120586D01*
X1181933Y-120675D01*
X1181911Y-120730D01*
X1181899Y-120752D01*
X1181788Y-121063D01*
X1181689Y-121363D01*
X1181611Y-121663D01*
X1181533Y-121951D01*
X1181478Y-122240D01*
X1181422Y-122506D01*
X1181378Y-122761D01*
X1181345Y-122995D01*
X1181311Y-123205D01*
X1181289Y-123405D01*
X1181267Y-123572D01*
X1181256Y-123716D01*
Y-123838D01*
X1181245Y-123927D01*
Y-123971D01*
Y-123994D01*
X1182665D01*
X1182676Y-123605D01*
X1182710Y-123205D01*
X1182765Y-122817D01*
X1182787Y-122639D01*
X1182821Y-122462D01*
X1182854Y-122306D01*
X1182887Y-122151D01*
X1182909Y-122029D01*
X1182932Y-121918D01*
X1182954Y-121818D01*
X1182976Y-121751D01*
X1182987Y-121707D01*
Y-121696D01*
X1183131Y-121219D01*
X1183287Y-120764D01*
X1183365Y-120553D01*
X1183453Y-120353D01*
X1183531Y-120164D01*
X1183609Y-119986D01*
X1183687Y-119831D01*
X1183753Y-119687D01*
X1183820Y-119554D01*
X1183864Y-119454D01*
X1183908Y-119365D01*
X1183942Y-119309D01*
X1183964Y-119265D01*
X1183975Y-119254D01*
X1184097Y-119043D01*
X1184219Y-118843D01*
X1184330Y-118666D01*
X1184441Y-118488D01*
X1184552Y-118333D01*
X1184663Y-118188D01*
X1184763Y-118055D01*
X1184852Y-117933D01*
X1184941Y-117822D01*
X1185018Y-117733D01*
X1185085Y-117656D01*
X1185141Y-117589D01*
X1185185Y-117545D01*
X1185218Y-117511D01*
X1185240Y-117489D01*
X1185252Y-117478D01*
Y-116412D01*
X1180212D01*
Y-117778D01*
D02*
G37*
G36*
X1181859Y-130682D02*
X1181648Y-130693D01*
X1181437Y-130726D01*
X1181248Y-130771D01*
X1181070Y-130815D01*
X1180904Y-130860D01*
X1180749Y-130915D01*
X1180604Y-130982D01*
X1180482Y-131037D01*
X1180371Y-131093D01*
X1180271Y-131137D01*
X1180194Y-131182D01*
X1180127Y-131226D01*
X1180083Y-131259D01*
X1180060Y-131270D01*
X1180049Y-131281D01*
X1179905Y-131404D01*
X1179772Y-131537D01*
X1179528Y-131836D01*
X1179328Y-132147D01*
X1179172Y-132447D01*
X1179106Y-132591D01*
X1179050Y-132724D01*
X1179006Y-132846D01*
X1178961Y-132946D01*
X1178928Y-133035D01*
X1178906Y-133102D01*
X1178895Y-133146D01*
Y-133157D01*
X1180404Y-133624D01*
X1180493Y-133324D01*
X1180593Y-133069D01*
X1180693Y-132858D01*
X1180804Y-132680D01*
X1180893Y-132547D01*
X1180971Y-132458D01*
X1181026Y-132402D01*
X1181048Y-132380D01*
X1181226Y-132247D01*
X1181403Y-132158D01*
X1181581Y-132092D01*
X1181736Y-132036D01*
X1181881Y-132014D01*
X1182003Y-132003D01*
X1182047Y-131992D01*
X1182103D01*
X1182258Y-132003D01*
X1182402Y-132014D01*
X1182669Y-132092D01*
X1182902Y-132181D01*
X1183091Y-132303D01*
X1183246Y-132414D01*
X1183357Y-132502D01*
X1183401Y-132547D01*
X1183435Y-132580D01*
X1183446Y-132591D01*
X1183457Y-132602D01*
X1183546Y-132724D01*
X1183623Y-132869D01*
X1183701Y-133024D01*
X1183757Y-133191D01*
X1183845Y-133535D01*
X1183912Y-133879D01*
X1183934Y-134045D01*
X1183945Y-134190D01*
X1183968Y-134334D01*
Y-134456D01*
X1183979Y-134545D01*
Y-134622D01*
Y-134678D01*
Y-134689D01*
X1183968Y-134944D01*
X1183956Y-135177D01*
X1183934Y-135388D01*
X1183901Y-135588D01*
X1183857Y-135766D01*
X1183812Y-135932D01*
X1183768Y-136077D01*
X1183712Y-136210D01*
X1183668Y-136321D01*
X1183623Y-136421D01*
X1183579Y-136498D01*
X1183535Y-136565D01*
X1183501Y-136621D01*
X1183479Y-136654D01*
X1183457Y-136676D01*
Y-136687D01*
X1183357Y-136798D01*
X1183246Y-136898D01*
X1183135Y-136976D01*
X1183013Y-137042D01*
X1182780Y-137153D01*
X1182558Y-137231D01*
X1182369Y-137275D01*
X1182280Y-137286D01*
X1182214Y-137297D01*
X1182147Y-137309D01*
X1182069D01*
X1181847Y-137297D01*
X1181648Y-137253D01*
X1181470Y-137198D01*
X1181315Y-137131D01*
X1181192Y-137064D01*
X1181104Y-137009D01*
X1181048Y-136965D01*
X1181026Y-136953D01*
X1180882Y-136820D01*
X1180749Y-136665D01*
X1180649Y-136510D01*
X1180571Y-136354D01*
X1180515Y-136221D01*
X1180482Y-136121D01*
X1180460Y-136077D01*
Y-136043D01*
X1180449Y-136032D01*
Y-136021D01*
X1178917Y-136387D01*
X1179028Y-136709D01*
X1179150Y-136987D01*
X1179283Y-137231D01*
X1179406Y-137431D01*
X1179528Y-137586D01*
X1179572Y-137653D01*
X1179616Y-137708D01*
X1179650Y-137741D01*
X1179683Y-137775D01*
X1179694Y-137797D01*
X1179705D01*
X1179872Y-137941D01*
X1180060Y-138075D01*
X1180238Y-138186D01*
X1180427Y-138274D01*
X1180626Y-138363D01*
X1180815Y-138430D01*
X1181004Y-138485D01*
X1181181Y-138530D01*
X1181348Y-138563D01*
X1181503Y-138585D01*
X1181637Y-138607D01*
X1181759Y-138618D01*
X1181859Y-138630D01*
X1181992D01*
X1182280Y-138618D01*
X1182569Y-138585D01*
X1182824Y-138530D01*
X1183080Y-138463D01*
X1183301Y-138385D01*
X1183523Y-138296D01*
X1183712Y-138197D01*
X1183890Y-138097D01*
X1184056Y-137997D01*
X1184190Y-137897D01*
X1184312Y-137808D01*
X1184411Y-137730D01*
X1184489Y-137664D01*
X1184545Y-137608D01*
X1184578Y-137575D01*
X1184589Y-137564D01*
X1184767Y-137353D01*
X1184911Y-137131D01*
X1185044Y-136898D01*
X1185155Y-136654D01*
X1185255Y-136398D01*
X1185333Y-136154D01*
X1185399Y-135910D01*
X1185455Y-135677D01*
X1185499Y-135444D01*
X1185521Y-135244D01*
X1185544Y-135055D01*
X1185566Y-134900D01*
Y-134767D01*
X1185577Y-134667D01*
Y-134600D01*
Y-134589D01*
Y-134578D01*
X1185566Y-134245D01*
X1185533Y-133934D01*
X1185488Y-133635D01*
X1185422Y-133368D01*
X1185355Y-133113D01*
X1185266Y-132869D01*
X1185177Y-132658D01*
X1185089Y-132469D01*
X1185000Y-132291D01*
X1184911Y-132136D01*
X1184822Y-132014D01*
X1184756Y-131903D01*
X1184689Y-131825D01*
X1184645Y-131759D01*
X1184611Y-131725D01*
X1184600Y-131714D01*
X1184411Y-131526D01*
X1184212Y-131370D01*
X1184001Y-131226D01*
X1183790Y-131115D01*
X1183579Y-131015D01*
X1183368Y-130926D01*
X1183168Y-130860D01*
X1182980Y-130804D01*
X1182791Y-130760D01*
X1182624Y-130726D01*
X1182469Y-130704D01*
X1182347Y-130693D01*
X1182236Y-130682D01*
X1182158Y-130671D01*
X1182092D01*
X1181859Y-130682D01*
D02*
G37*
G36*
X1175088Y-130671D02*
X1174855Y-130704D01*
X1174644Y-130749D01*
X1174444Y-130815D01*
X1174255Y-130893D01*
X1174089Y-130982D01*
X1173933Y-131071D01*
X1173789Y-131171D01*
X1173667Y-131259D01*
X1173556Y-131348D01*
X1173456Y-131437D01*
X1173378Y-131515D01*
X1173323Y-131581D01*
X1173278Y-131625D01*
X1173256Y-131659D01*
X1173245Y-131670D01*
X1173145Y-131814D01*
X1173056Y-131959D01*
X1172990Y-132103D01*
X1172923Y-132258D01*
X1172823Y-132547D01*
X1172757Y-132813D01*
X1172735Y-132924D01*
X1172723Y-133035D01*
X1172701Y-133135D01*
Y-133224D01*
X1172690Y-133291D01*
Y-133335D01*
Y-133368D01*
Y-133379D01*
X1172701Y-133590D01*
X1172723Y-133790D01*
X1172757Y-133979D01*
X1172801Y-134156D01*
X1172846Y-134312D01*
X1172912Y-134467D01*
X1172968Y-134611D01*
X1173034Y-134733D01*
X1173101Y-134845D01*
X1173156Y-134944D01*
X1173223Y-135033D01*
X1173267Y-135100D01*
X1173312Y-135155D01*
X1173345Y-135200D01*
X1173367Y-135222D01*
X1173378Y-135233D01*
X1173512Y-135355D01*
X1173645Y-135466D01*
X1173789Y-135566D01*
X1173933Y-135655D01*
X1174066Y-135721D01*
X1174211Y-135777D01*
X1174466Y-135866D01*
X1174588Y-135899D01*
X1174699Y-135921D01*
X1174799Y-135932D01*
X1174877Y-135943D01*
X1174943Y-135955D01*
X1175043D01*
X1175232Y-135943D01*
X1175421Y-135910D01*
X1175587Y-135877D01*
X1175742Y-135832D01*
X1175865Y-135777D01*
X1175965Y-135744D01*
X1176031Y-135710D01*
X1176042Y-135699D01*
X1176053D01*
X1175820Y-137009D01*
X1173034D01*
Y-138385D01*
X1176930D01*
X1177685Y-134378D01*
X1176497Y-134212D01*
X1176397Y-134312D01*
X1176298Y-134401D01*
X1176198Y-134478D01*
X1176098Y-134545D01*
X1175909Y-134645D01*
X1175731Y-134711D01*
X1175576Y-134745D01*
X1175465Y-134767D01*
X1175421Y-134778D01*
X1175354D01*
X1175176Y-134767D01*
X1175010Y-134722D01*
X1174866Y-134667D01*
X1174743Y-134600D01*
X1174655Y-134523D01*
X1174577Y-134467D01*
X1174533Y-134423D01*
X1174522Y-134412D01*
X1174411Y-134267D01*
X1174333Y-134101D01*
X1174277Y-133923D01*
X1174244Y-133746D01*
X1174211Y-133590D01*
X1174200Y-133468D01*
Y-133413D01*
Y-133379D01*
Y-133357D01*
Y-133346D01*
X1174211Y-133080D01*
X1174244Y-132846D01*
X1174300Y-132658D01*
X1174355Y-132502D01*
X1174422Y-132369D01*
X1174466Y-132280D01*
X1174510Y-132236D01*
X1174522Y-132214D01*
X1174644Y-132092D01*
X1174777Y-131992D01*
X1174910Y-131925D01*
X1175032Y-131881D01*
X1175143Y-131859D01*
X1175232Y-131847D01*
X1175287Y-131836D01*
X1175310D01*
X1175454Y-131847D01*
X1175598Y-131881D01*
X1175720Y-131925D01*
X1175820Y-131981D01*
X1175909Y-132036D01*
X1175976Y-132081D01*
X1176020Y-132114D01*
X1176031Y-132125D01*
X1176131Y-132247D01*
X1176220Y-132369D01*
X1176286Y-132502D01*
X1176331Y-132625D01*
X1176364Y-132736D01*
X1176386Y-132835D01*
X1176397Y-132891D01*
Y-132913D01*
X1177863Y-132758D01*
X1177829Y-132580D01*
X1177796Y-132414D01*
X1177685Y-132114D01*
X1177563Y-131847D01*
X1177496Y-131736D01*
X1177419Y-131625D01*
X1177352Y-131537D01*
X1177297Y-131459D01*
X1177230Y-131392D01*
X1177186Y-131326D01*
X1177141Y-131281D01*
X1177108Y-131248D01*
X1177086Y-131237D01*
X1177075Y-131226D01*
X1176941Y-131126D01*
X1176808Y-131037D01*
X1176664Y-130960D01*
X1176519Y-130904D01*
X1176220Y-130793D01*
X1175953Y-130726D01*
X1175820Y-130704D01*
X1175709Y-130693D01*
X1175598Y-130682D01*
X1175509Y-130671D01*
X1175432Y-130660D01*
X1175332D01*
X1175088Y-130671D01*
D02*
G37*
G36*
X1182482Y-145277D02*
X1182271Y-145299D01*
X1182072Y-145343D01*
X1181905Y-145388D01*
X1181772Y-145432D01*
X1181661Y-145477D01*
X1181594Y-145499D01*
X1181583Y-145510D01*
X1181572D01*
X1181394Y-145610D01*
X1181228Y-145721D01*
X1181095Y-145832D01*
X1180984Y-145932D01*
X1180895Y-146032D01*
X1180828Y-146109D01*
X1180784Y-146154D01*
X1180773Y-146176D01*
X1180673Y-146342D01*
X1180584Y-146520D01*
X1180518Y-146708D01*
X1180451Y-146886D01*
X1180407Y-147053D01*
X1180373Y-147175D01*
X1180362Y-147230D01*
Y-147263D01*
X1180351Y-147286D01*
Y-147297D01*
X1181705Y-147519D01*
X1181739Y-147341D01*
X1181783Y-147186D01*
X1181827Y-147053D01*
X1181883Y-146953D01*
X1181938Y-146864D01*
X1181983Y-146797D01*
X1182016Y-146764D01*
X1182027Y-146753D01*
X1182127Y-146664D01*
X1182238Y-146597D01*
X1182349Y-146553D01*
X1182449Y-146520D01*
X1182538Y-146498D01*
X1182604Y-146487D01*
X1182671D01*
X1182804Y-146498D01*
X1182937Y-146520D01*
X1183037Y-146564D01*
X1183126Y-146597D01*
X1183204Y-146642D01*
X1183248Y-146686D01*
X1183281Y-146708D01*
X1183292Y-146720D01*
X1183370Y-146808D01*
X1183426Y-146919D01*
X1183470Y-147019D01*
X1183492Y-147119D01*
X1183514Y-147208D01*
X1183526Y-147275D01*
Y-147319D01*
Y-147341D01*
X1183514Y-147508D01*
X1183481Y-147652D01*
X1183426Y-147774D01*
X1183370Y-147874D01*
X1183304Y-147963D01*
X1183259Y-148018D01*
X1183215Y-148063D01*
X1183204Y-148074D01*
X1183071Y-148163D01*
X1182926Y-148229D01*
X1182771Y-148274D01*
X1182626Y-148307D01*
X1182493Y-148318D01*
X1182382Y-148329D01*
X1182282D01*
X1182127Y-149517D01*
X1182271Y-149483D01*
X1182393Y-149450D01*
X1182515Y-149428D01*
X1182615Y-149417D01*
X1182693Y-149406D01*
X1182804D01*
X1182960Y-149417D01*
X1183093Y-149461D01*
X1183215Y-149506D01*
X1183326Y-149572D01*
X1183403Y-149628D01*
X1183470Y-149683D01*
X1183514Y-149728D01*
X1183526Y-149739D01*
X1183625Y-149872D01*
X1183703Y-150016D01*
X1183759Y-150161D01*
X1183803Y-150305D01*
X1183825Y-150438D01*
X1183836Y-150538D01*
Y-150605D01*
Y-150616D01*
Y-150627D01*
X1183825Y-150838D01*
X1183792Y-151026D01*
X1183736Y-151193D01*
X1183681Y-151326D01*
X1183614Y-151426D01*
X1183570Y-151504D01*
X1183526Y-151559D01*
X1183514Y-151570D01*
X1183392Y-151681D01*
X1183259Y-151770D01*
X1183137Y-151826D01*
X1183015Y-151870D01*
X1182904Y-151892D01*
X1182826Y-151903D01*
X1182771Y-151914D01*
X1182749D01*
X1182593Y-151903D01*
X1182460Y-151870D01*
X1182338Y-151826D01*
X1182227Y-151770D01*
X1182149Y-151726D01*
X1182083Y-151681D01*
X1182038Y-151648D01*
X1182027Y-151637D01*
X1181927Y-151515D01*
X1181838Y-151382D01*
X1181783Y-151237D01*
X1181727Y-151104D01*
X1181694Y-150982D01*
X1181672Y-150882D01*
X1181661Y-150815D01*
Y-150804D01*
Y-150793D01*
X1180240Y-150971D01*
X1180262Y-151149D01*
X1180307Y-151315D01*
X1180407Y-151626D01*
X1180529Y-151892D01*
X1180606Y-152003D01*
X1180673Y-152114D01*
X1180740Y-152214D01*
X1180806Y-152292D01*
X1180862Y-152369D01*
X1180917Y-152425D01*
X1180962Y-152469D01*
X1180995Y-152503D01*
X1181017Y-152525D01*
X1181028Y-152536D01*
X1181161Y-152636D01*
X1181306Y-152736D01*
X1181439Y-152813D01*
X1181594Y-152880D01*
X1181883Y-152991D01*
X1182149Y-153058D01*
X1182282Y-153080D01*
X1182393Y-153102D01*
X1182493Y-153113D01*
X1182582Y-153124D01*
X1182660Y-153135D01*
X1182760D01*
X1182960Y-153124D01*
X1183159Y-153102D01*
X1183337Y-153069D01*
X1183514Y-153024D01*
X1183670Y-152969D01*
X1183825Y-152913D01*
X1183970Y-152847D01*
X1184092Y-152780D01*
X1184203Y-152713D01*
X1184314Y-152647D01*
X1184391Y-152591D01*
X1184469Y-152536D01*
X1184525Y-152492D01*
X1184569Y-152458D01*
X1184591Y-152436D01*
X1184602Y-152425D01*
X1184735Y-152292D01*
X1184846Y-152147D01*
X1184946Y-152003D01*
X1185035Y-151859D01*
X1185102Y-151704D01*
X1185168Y-151559D01*
X1185257Y-151293D01*
X1185279Y-151171D01*
X1185302Y-151049D01*
X1185324Y-150949D01*
X1185335Y-150860D01*
X1185346Y-150793D01*
Y-150738D01*
Y-150704D01*
Y-150693D01*
X1185324Y-150438D01*
X1185279Y-150216D01*
X1185224Y-150005D01*
X1185146Y-149839D01*
X1185069Y-149694D01*
X1185013Y-149594D01*
X1184969Y-149528D01*
X1184946Y-149506D01*
X1184791Y-149339D01*
X1184613Y-149195D01*
X1184436Y-149084D01*
X1184269Y-148995D01*
X1184125Y-148928D01*
X1184003Y-148895D01*
X1183959Y-148873D01*
X1183925D01*
X1183903Y-148862D01*
X1183892D01*
X1184092Y-148740D01*
X1184258Y-148618D01*
X1184402Y-148484D01*
X1184536Y-148351D01*
X1184647Y-148218D01*
X1184735Y-148085D01*
X1184802Y-147952D01*
X1184869Y-147830D01*
X1184913Y-147708D01*
X1184946Y-147597D01*
X1184969Y-147497D01*
X1184980Y-147408D01*
X1184991Y-147341D01*
X1185002Y-147286D01*
Y-147252D01*
Y-147241D01*
X1184991Y-147108D01*
X1184980Y-146986D01*
X1184913Y-146742D01*
X1184835Y-146520D01*
X1184735Y-146331D01*
X1184636Y-146176D01*
X1184547Y-146065D01*
X1184513Y-146020D01*
X1184480Y-145987D01*
X1184469Y-145976D01*
X1184458Y-145965D01*
X1184336Y-145843D01*
X1184192Y-145732D01*
X1184058Y-145643D01*
X1183914Y-145565D01*
X1183759Y-145488D01*
X1183614Y-145432D01*
X1183337Y-145354D01*
X1183215Y-145321D01*
X1183093Y-145299D01*
X1182993Y-145288D01*
X1182893Y-145277D01*
X1182815Y-145266D01*
X1182715D01*
X1182482Y-145277D01*
D02*
G37*
G36*
X1172881Y-152991D02*
X1174435D01*
Y-149783D01*
X1174934D01*
X1175090Y-149794D01*
X1175223Y-149805D01*
X1175334Y-149828D01*
X1175423Y-149839D01*
X1175478Y-149861D01*
X1175511Y-149872D01*
X1175523D01*
X1175611Y-149916D01*
X1175700Y-149961D01*
X1175778Y-150016D01*
X1175856Y-150061D01*
X1175911Y-150116D01*
X1175956Y-150161D01*
X1175978Y-150183D01*
X1175989Y-150194D01*
X1176033Y-150249D01*
X1176089Y-150305D01*
X1176211Y-150471D01*
X1176344Y-150649D01*
X1176488Y-150849D01*
X1176610Y-151026D01*
X1176666Y-151115D01*
X1176710Y-151182D01*
X1176755Y-151237D01*
X1176788Y-151282D01*
X1176799Y-151315D01*
X1176810Y-151326D01*
X1177920Y-152991D01*
X1179785D01*
X1178841Y-151493D01*
X1178742Y-151337D01*
X1178642Y-151182D01*
X1178553Y-151049D01*
X1178464Y-150927D01*
X1178386Y-150815D01*
X1178320Y-150704D01*
X1178187Y-150538D01*
X1178087Y-150405D01*
X1178020Y-150316D01*
X1177965Y-150260D01*
X1177953Y-150249D01*
X1177831Y-150116D01*
X1177687Y-149994D01*
X1177554Y-149894D01*
X1177421Y-149794D01*
X1177310Y-149717D01*
X1177221Y-149661D01*
X1177154Y-149617D01*
X1177143Y-149606D01*
X1177132D01*
X1177321Y-149572D01*
X1177487Y-149528D01*
X1177643Y-149483D01*
X1177798Y-149428D01*
X1177931Y-149373D01*
X1178053Y-149317D01*
X1178176Y-149262D01*
X1178275Y-149195D01*
X1178364Y-149139D01*
X1178442Y-149084D01*
X1178509Y-149028D01*
X1178553Y-148984D01*
X1178597Y-148951D01*
X1178631Y-148917D01*
X1178642Y-148906D01*
X1178653Y-148895D01*
X1178742Y-148784D01*
X1178819Y-148673D01*
X1178952Y-148429D01*
X1179041Y-148196D01*
X1179097Y-147963D01*
X1179141Y-147763D01*
X1179152Y-147685D01*
Y-147608D01*
X1179163Y-147552D01*
Y-147497D01*
Y-147474D01*
Y-147463D01*
X1179152Y-147219D01*
X1179108Y-146986D01*
X1179052Y-146786D01*
X1178997Y-146609D01*
X1178930Y-146464D01*
X1178875Y-146353D01*
X1178853Y-146320D01*
X1178830Y-146287D01*
X1178819Y-146276D01*
Y-146265D01*
X1178686Y-146076D01*
X1178542Y-145920D01*
X1178398Y-145798D01*
X1178253Y-145687D01*
X1178120Y-145621D01*
X1178020Y-145565D01*
X1177953Y-145532D01*
X1177942Y-145521D01*
X1177931D01*
X1177820Y-145488D01*
X1177698Y-145454D01*
X1177421Y-145399D01*
X1177121Y-145365D01*
X1176832Y-145332D01*
X1176688D01*
X1176566Y-145321D01*
X1176444D01*
X1176344Y-145310D01*
X1172881D01*
Y-152991D01*
D02*
G37*
G36*
X1182518Y-159750D02*
X1182340Y-159762D01*
X1181996Y-159817D01*
X1181707Y-159906D01*
X1181574Y-159950D01*
X1181452Y-160006D01*
X1181341Y-160050D01*
X1181252Y-160106D01*
X1181163Y-160150D01*
X1181097Y-160183D01*
X1181041Y-160228D01*
X1181008Y-160250D01*
X1180986Y-160261D01*
X1180975Y-160272D01*
X1180853Y-160383D01*
X1180742Y-160494D01*
X1180642Y-160627D01*
X1180553Y-160772D01*
X1180420Y-161060D01*
X1180309Y-161338D01*
X1180275Y-161482D01*
X1180242Y-161604D01*
X1180209Y-161715D01*
X1180198Y-161815D01*
X1180175Y-161904D01*
Y-161959D01*
X1180164Y-162004D01*
Y-162015D01*
X1181630Y-162159D01*
X1181652Y-161937D01*
X1181696Y-161748D01*
X1181741Y-161582D01*
X1181796Y-161460D01*
X1181841Y-161360D01*
X1181885Y-161293D01*
X1181918Y-161249D01*
X1181929Y-161238D01*
X1182040Y-161149D01*
X1182162Y-161082D01*
X1182284Y-161027D01*
X1182407Y-160994D01*
X1182506Y-160971D01*
X1182595Y-160960D01*
X1182673D01*
X1182840Y-160971D01*
X1182984Y-161005D01*
X1183106Y-161049D01*
X1183217Y-161094D01*
X1183295Y-161138D01*
X1183361Y-161182D01*
X1183394Y-161216D01*
X1183406Y-161227D01*
X1183494Y-161338D01*
X1183561Y-161460D01*
X1183605Y-161582D01*
X1183639Y-161704D01*
X1183661Y-161815D01*
X1183672Y-161915D01*
Y-161970D01*
Y-161982D01*
Y-161993D01*
X1183661Y-162159D01*
X1183628Y-162314D01*
X1183572Y-162470D01*
X1183517Y-162603D01*
X1183461Y-162725D01*
X1183406Y-162814D01*
X1183372Y-162869D01*
X1183361Y-162892D01*
X1183317Y-162958D01*
X1183250Y-163036D01*
X1183161Y-163136D01*
X1183073Y-163225D01*
X1182873Y-163436D01*
X1182673Y-163647D01*
X1182473Y-163846D01*
X1182384Y-163935D01*
X1182296Y-164002D01*
X1182229Y-164068D01*
X1182185Y-164113D01*
X1182151Y-164146D01*
X1182140Y-164157D01*
X1181918Y-164368D01*
X1181718Y-164568D01*
X1181530Y-164757D01*
X1181363Y-164923D01*
X1181208Y-165089D01*
X1181075Y-165245D01*
X1180953Y-165378D01*
X1180853Y-165511D01*
X1180764Y-165622D01*
X1180686Y-165722D01*
X1180620Y-165800D01*
X1180575Y-165877D01*
X1180531Y-165922D01*
X1180508Y-165966D01*
X1180486Y-165989D01*
Y-166000D01*
X1180342Y-166255D01*
X1180231Y-166521D01*
X1180142Y-166765D01*
X1180076Y-166987D01*
X1180031Y-167187D01*
X1180020Y-167265D01*
X1180009Y-167332D01*
X1179998Y-167387D01*
X1179987Y-167432D01*
Y-167454D01*
Y-167465D01*
X1185148D01*
Y-166099D01*
X1182218D01*
X1182307Y-165955D01*
X1182407Y-165833D01*
X1182451Y-165778D01*
X1182484Y-165733D01*
X1182506Y-165711D01*
X1182518Y-165700D01*
X1182562Y-165655D01*
X1182606Y-165600D01*
X1182740Y-165478D01*
X1182884Y-165334D01*
X1183028Y-165189D01*
X1183173Y-165056D01*
X1183295Y-164945D01*
X1183339Y-164901D01*
X1183372Y-164867D01*
X1183394Y-164856D01*
X1183406Y-164845D01*
X1183650Y-164612D01*
X1183850Y-164424D01*
X1184016Y-164246D01*
X1184149Y-164113D01*
X1184249Y-164002D01*
X1184316Y-163924D01*
X1184360Y-163869D01*
X1184371Y-163857D01*
X1184516Y-163669D01*
X1184638Y-163491D01*
X1184737Y-163325D01*
X1184815Y-163180D01*
X1184882Y-163058D01*
X1184926Y-162958D01*
X1184948Y-162903D01*
X1184959Y-162881D01*
X1185026Y-162703D01*
X1185070Y-162525D01*
X1185104Y-162359D01*
X1185126Y-162204D01*
X1185137Y-162081D01*
X1185148Y-161982D01*
Y-161915D01*
Y-161893D01*
X1185137Y-161726D01*
X1185115Y-161560D01*
X1185093Y-161404D01*
X1185048Y-161260D01*
X1184937Y-161005D01*
X1184826Y-160783D01*
X1184760Y-160683D01*
X1184704Y-160605D01*
X1184649Y-160527D01*
X1184593Y-160472D01*
X1184549Y-160427D01*
X1184527Y-160383D01*
X1184504Y-160372D01*
X1184493Y-160361D01*
X1184371Y-160250D01*
X1184227Y-160150D01*
X1184094Y-160072D01*
X1183938Y-160006D01*
X1183650Y-159895D01*
X1183361Y-159817D01*
X1183228Y-159795D01*
X1183106Y-159773D01*
X1182995Y-159762D01*
X1182895Y-159750D01*
X1182817Y-159739D01*
X1182706D01*
X1182518Y-159750D01*
D02*
G37*
G36*
X1172761Y-167465D02*
X1174315D01*
Y-164257D01*
X1174814D01*
X1174970Y-164268D01*
X1175103Y-164279D01*
X1175214Y-164301D01*
X1175303Y-164312D01*
X1175358Y-164335D01*
X1175391Y-164346D01*
X1175403D01*
X1175491Y-164390D01*
X1175580Y-164435D01*
X1175658Y-164490D01*
X1175736Y-164534D01*
X1175791Y-164590D01*
X1175835Y-164634D01*
X1175858Y-164657D01*
X1175869Y-164668D01*
X1175913Y-164723D01*
X1175969Y-164779D01*
X1176091Y-164945D01*
X1176224Y-165123D01*
X1176368Y-165323D01*
X1176490Y-165500D01*
X1176546Y-165589D01*
X1176590Y-165655D01*
X1176635Y-165711D01*
X1176668Y-165755D01*
X1176679Y-165789D01*
X1176690Y-165800D01*
X1177800Y-167465D01*
X1179665D01*
X1178721Y-165966D01*
X1178622Y-165811D01*
X1178522Y-165655D01*
X1178433Y-165522D01*
X1178344Y-165400D01*
X1178266Y-165289D01*
X1178200Y-165178D01*
X1178067Y-165012D01*
X1177967Y-164879D01*
X1177900Y-164790D01*
X1177845Y-164734D01*
X1177833Y-164723D01*
X1177711Y-164590D01*
X1177567Y-164468D01*
X1177434Y-164368D01*
X1177301Y-164268D01*
X1177190Y-164190D01*
X1177101Y-164135D01*
X1177034Y-164090D01*
X1177023Y-164079D01*
X1177012D01*
X1177201Y-164046D01*
X1177367Y-164002D01*
X1177523Y-163957D01*
X1177678Y-163902D01*
X1177811Y-163846D01*
X1177933Y-163791D01*
X1178055Y-163735D01*
X1178155Y-163669D01*
X1178244Y-163613D01*
X1178322Y-163558D01*
X1178388Y-163502D01*
X1178433Y-163458D01*
X1178477Y-163424D01*
X1178511Y-163391D01*
X1178522Y-163380D01*
X1178533Y-163369D01*
X1178622Y-163258D01*
X1178699Y-163147D01*
X1178832Y-162903D01*
X1178921Y-162670D01*
X1178977Y-162437D01*
X1179021Y-162237D01*
X1179032Y-162159D01*
Y-162081D01*
X1179043Y-162026D01*
Y-161970D01*
Y-161948D01*
Y-161937D01*
X1179032Y-161693D01*
X1178988Y-161460D01*
X1178932Y-161260D01*
X1178877Y-161082D01*
X1178810Y-160938D01*
X1178755Y-160827D01*
X1178733Y-160794D01*
X1178710Y-160760D01*
X1178699Y-160749D01*
Y-160738D01*
X1178566Y-160550D01*
X1178422Y-160394D01*
X1178278Y-160272D01*
X1178133Y-160161D01*
X1178000Y-160095D01*
X1177900Y-160039D01*
X1177833Y-160006D01*
X1177822Y-159995D01*
X1177811D01*
X1177700Y-159961D01*
X1177578Y-159928D01*
X1177301Y-159873D01*
X1177001Y-159839D01*
X1176712Y-159806D01*
X1176568D01*
X1176446Y-159795D01*
X1176324D01*
X1176224Y-159784D01*
X1172761D01*
Y-167465D01*
D02*
G37*
G36*
X1183279Y-189051D02*
X1183135Y-189284D01*
X1182980Y-189506D01*
X1182824Y-189684D01*
X1182691Y-189828D01*
X1182569Y-189939D01*
X1182524Y-189984D01*
X1182491Y-190017D01*
X1182469Y-190028D01*
X1182458Y-190039D01*
X1182214Y-190217D01*
X1181981Y-190372D01*
X1181770Y-190494D01*
X1181581Y-190583D01*
X1181426Y-190650D01*
X1181315Y-190705D01*
X1181270Y-190716D01*
X1181237Y-190727D01*
X1181226Y-190738D01*
X1181215D01*
Y-192070D01*
X1181614Y-191915D01*
X1181969Y-191749D01*
X1182136Y-191660D01*
X1182291Y-191560D01*
X1182436Y-191471D01*
X1182569Y-191382D01*
X1182691Y-191293D01*
X1182802Y-191216D01*
X1182891Y-191149D01*
X1182968Y-191082D01*
X1183035Y-191027D01*
X1183079Y-190994D01*
X1183102Y-190972D01*
X1183113Y-190960D01*
Y-196521D01*
X1184589D01*
Y-188796D01*
X1183390D01*
X1183279Y-189051D01*
D02*
G37*
G36*
X1173411Y-196521D02*
X1174966D01*
Y-193314D01*
X1175465D01*
X1175620Y-193325D01*
X1175754Y-193336D01*
X1175865Y-193358D01*
X1175953Y-193369D01*
X1176009Y-193391D01*
X1176042Y-193402D01*
X1176053D01*
X1176142Y-193447D01*
X1176231Y-193491D01*
X1176309Y-193547D01*
X1176386Y-193591D01*
X1176442Y-193647D01*
X1176486Y-193691D01*
X1176508Y-193713D01*
X1176519Y-193724D01*
X1176564Y-193780D01*
X1176619Y-193835D01*
X1176741Y-194002D01*
X1176875Y-194179D01*
X1177019Y-194379D01*
X1177141Y-194557D01*
X1177197Y-194646D01*
X1177241Y-194712D01*
X1177285Y-194768D01*
X1177319Y-194812D01*
X1177330Y-194845D01*
X1177341Y-194856D01*
X1178451Y-196521D01*
X1180316D01*
X1179372Y-195023D01*
X1179272Y-194867D01*
X1179172Y-194712D01*
X1179083Y-194579D01*
X1178995Y-194457D01*
X1178917Y-194346D01*
X1178850Y-194235D01*
X1178717Y-194068D01*
X1178617Y-193935D01*
X1178551Y-193846D01*
X1178495Y-193791D01*
X1178484Y-193780D01*
X1178362Y-193647D01*
X1178218Y-193524D01*
X1178084Y-193424D01*
X1177951Y-193325D01*
X1177840Y-193247D01*
X1177751Y-193191D01*
X1177685Y-193147D01*
X1177674Y-193136D01*
X1177663D01*
X1177851Y-193103D01*
X1178018Y-193058D01*
X1178173Y-193014D01*
X1178329Y-192958D01*
X1178462Y-192903D01*
X1178584Y-192847D01*
X1178706Y-192792D01*
X1178806Y-192725D01*
X1178895Y-192670D01*
X1178972Y-192614D01*
X1179039Y-192559D01*
X1179083Y-192514D01*
X1179128Y-192481D01*
X1179161Y-192448D01*
X1179172Y-192437D01*
X1179183Y-192425D01*
X1179272Y-192315D01*
X1179350Y-192204D01*
X1179483Y-191959D01*
X1179572Y-191726D01*
X1179627Y-191493D01*
X1179672Y-191293D01*
X1179683Y-191216D01*
Y-191138D01*
X1179694Y-191082D01*
Y-191027D01*
Y-191005D01*
Y-190994D01*
X1179683Y-190749D01*
X1179639Y-190516D01*
X1179583Y-190317D01*
X1179528Y-190139D01*
X1179461Y-189995D01*
X1179405Y-189884D01*
X1179383Y-189850D01*
X1179361Y-189817D01*
X1179350Y-189806D01*
Y-189795D01*
X1179217Y-189606D01*
X1179072Y-189451D01*
X1178928Y-189329D01*
X1178784Y-189218D01*
X1178651Y-189151D01*
X1178551Y-189096D01*
X1178484Y-189062D01*
X1178473Y-189051D01*
X1178462D01*
X1178351Y-189018D01*
X1178229Y-188985D01*
X1177951Y-188929D01*
X1177652Y-188896D01*
X1177363Y-188862D01*
X1177219D01*
X1177097Y-188851D01*
X1176974D01*
X1176875Y-188840D01*
X1173411D01*
Y-196521D01*
D02*
G37*
G36*
X1229336Y-65405D02*
X1232543D01*
Y-65904D01*
X1232532Y-66060D01*
X1232521Y-66193D01*
X1232499Y-66304D01*
X1232488Y-66393D01*
X1232466Y-66448D01*
X1232455Y-66482D01*
Y-66493D01*
X1232410Y-66582D01*
X1232366Y-66670D01*
X1232310Y-66748D01*
X1232266Y-66826D01*
X1232210Y-66881D01*
X1232166Y-66926D01*
X1232144Y-66948D01*
X1232133Y-66959D01*
X1232077Y-67003D01*
X1232022Y-67059D01*
X1231855Y-67181D01*
X1231678Y-67314D01*
X1231478Y-67458D01*
X1231300Y-67580D01*
X1231211Y-67636D01*
X1231145Y-67680D01*
X1231089Y-67725D01*
X1231045Y-67758D01*
X1231012Y-67769D01*
X1231001Y-67780D01*
X1229336Y-68890D01*
Y-70755D01*
X1230834Y-69812D01*
X1230990Y-69712D01*
X1231145Y-69612D01*
X1231278Y-69523D01*
X1231400Y-69434D01*
X1231511Y-69356D01*
X1231622Y-69290D01*
X1231789Y-69157D01*
X1231922Y-69057D01*
X1232011Y-68990D01*
X1232066Y-68935D01*
X1232077Y-68924D01*
X1232210Y-68801D01*
X1232333Y-68657D01*
X1232432Y-68524D01*
X1232532Y-68391D01*
X1232610Y-68280D01*
X1232666Y-68191D01*
X1232710Y-68124D01*
X1232721Y-68113D01*
Y-68102D01*
X1232754Y-68291D01*
X1232799Y-68457D01*
X1232843Y-68613D01*
X1232899Y-68768D01*
X1232954Y-68901D01*
X1233010Y-69023D01*
X1233065Y-69146D01*
X1233132Y-69246D01*
X1233187Y-69334D01*
X1233243Y-69412D01*
X1233298Y-69479D01*
X1233343Y-69523D01*
X1233376Y-69567D01*
X1233409Y-69601D01*
X1233420Y-69612D01*
X1233431Y-69623D01*
X1233542Y-69712D01*
X1233653Y-69789D01*
X1233898Y-69922D01*
X1234131Y-70011D01*
X1234364Y-70067D01*
X1234564Y-70111D01*
X1234641Y-70122D01*
X1234719D01*
X1234775Y-70133D01*
X1234830D01*
X1234852D01*
X1234863D01*
X1235108Y-70122D01*
X1235341Y-70078D01*
X1235540Y-70022D01*
X1235718Y-69967D01*
X1235862Y-69900D01*
X1235973Y-69845D01*
X1236007Y-69823D01*
X1236040Y-69800D01*
X1236051Y-69789D01*
X1236062D01*
X1236251Y-69656D01*
X1236406Y-69512D01*
X1236528Y-69368D01*
X1236639Y-69223D01*
X1236706Y-69090D01*
X1236761Y-68990D01*
X1236795Y-68924D01*
X1236806Y-68913D01*
Y-68901D01*
X1236839Y-68790D01*
X1236872Y-68668D01*
X1236928Y-68391D01*
X1236961Y-68091D01*
X1236994Y-67803D01*
Y-67658D01*
X1237006Y-67536D01*
Y-67414D01*
X1237017Y-67314D01*
Y-63851D01*
X1229336D01*
Y-65405D01*
D02*
G37*
G36*
X1234242Y-71166D02*
X1234042Y-71188D01*
X1233853Y-71210D01*
X1233687Y-71255D01*
X1233520Y-71310D01*
X1233376Y-71365D01*
X1233232Y-71421D01*
X1233110Y-71488D01*
X1232999Y-71543D01*
X1232899Y-71599D01*
X1232821Y-71654D01*
X1232743Y-71710D01*
X1232699Y-71754D01*
X1232654Y-71776D01*
X1232632Y-71798D01*
X1232621Y-71810D01*
X1232499Y-71932D01*
X1232388Y-72065D01*
X1232299Y-72198D01*
X1232222Y-72331D01*
X1232155Y-72464D01*
X1232088Y-72586D01*
X1232011Y-72831D01*
X1231955Y-73042D01*
X1231944Y-73130D01*
X1231933Y-73208D01*
X1231922Y-73275D01*
Y-73363D01*
X1231933Y-73519D01*
X1231955Y-73663D01*
X1231977Y-73796D01*
X1232022Y-73930D01*
X1232122Y-74174D01*
X1232244Y-74374D01*
X1232366Y-74529D01*
X1232421Y-74596D01*
X1232466Y-74651D01*
X1232510Y-74696D01*
X1232543Y-74729D01*
X1232555Y-74740D01*
X1232566Y-74751D01*
X1232333Y-74729D01*
X1232111Y-74707D01*
X1231911Y-74684D01*
X1231733Y-74651D01*
X1231578Y-74618D01*
X1231433Y-74584D01*
X1231311Y-74551D01*
X1231200Y-74518D01*
X1231100Y-74474D01*
X1231023Y-74451D01*
X1230956Y-74418D01*
X1230912Y-74396D01*
X1230867Y-74374D01*
X1230845Y-74351D01*
X1230823Y-74340D01*
X1230690Y-74218D01*
X1230590Y-74085D01*
X1230512Y-73963D01*
X1230468Y-73841D01*
X1230434Y-73730D01*
X1230423Y-73652D01*
X1230412Y-73597D01*
Y-73574D01*
X1230423Y-73452D01*
X1230446Y-73330D01*
X1230479Y-73241D01*
X1230512Y-73153D01*
X1230546Y-73086D01*
X1230579Y-73042D01*
X1230601Y-73008D01*
X1230612Y-72997D01*
X1230701Y-72920D01*
X1230801Y-72864D01*
X1230912Y-72820D01*
X1231023Y-72786D01*
X1231112Y-72753D01*
X1231189Y-72742D01*
X1231245Y-72731D01*
X1231267D01*
X1231100Y-71310D01*
X1230923Y-71343D01*
X1230768Y-71388D01*
X1230612Y-71432D01*
X1230479Y-71488D01*
X1230346Y-71543D01*
X1230224Y-71599D01*
X1230124Y-71665D01*
X1230024Y-71721D01*
X1229946Y-71787D01*
X1229868Y-71832D01*
X1229813Y-71887D01*
X1229758Y-71932D01*
X1229724Y-71965D01*
X1229691Y-71998D01*
X1229680Y-72009D01*
X1229669Y-72020D01*
X1229580Y-72131D01*
X1229513Y-72242D01*
X1229391Y-72487D01*
X1229314Y-72720D01*
X1229247Y-72953D01*
X1229214Y-73164D01*
X1229202Y-73253D01*
Y-73330D01*
X1229191Y-73386D01*
Y-73474D01*
X1229202Y-73708D01*
X1229236Y-73918D01*
X1229280Y-74118D01*
X1229336Y-74318D01*
X1229413Y-74496D01*
X1229491Y-74662D01*
X1229569Y-74818D01*
X1229658Y-74951D01*
X1229746Y-75073D01*
X1229824Y-75184D01*
X1229913Y-75273D01*
X1229979Y-75350D01*
X1230035Y-75417D01*
X1230079Y-75461D01*
X1230113Y-75483D01*
X1230124Y-75495D01*
X1230312Y-75639D01*
X1230523Y-75750D01*
X1230756Y-75861D01*
X1230990Y-75950D01*
X1231245Y-76027D01*
X1231500Y-76094D01*
X1231744Y-76138D01*
X1232000Y-76183D01*
X1232233Y-76216D01*
X1232444Y-76238D01*
X1232643Y-76260D01*
X1232821Y-76272D01*
X1232965Y-76283D01*
X1233076D01*
X1233110D01*
X1233143D01*
X1233154D01*
X1233165D01*
X1233542Y-76272D01*
X1233887Y-76249D01*
X1234209Y-76216D01*
X1234508Y-76161D01*
X1234775Y-76105D01*
X1235019Y-76050D01*
X1235241Y-75972D01*
X1235441Y-75905D01*
X1235607Y-75839D01*
X1235751Y-75772D01*
X1235873Y-75705D01*
X1235973Y-75650D01*
X1236051Y-75595D01*
X1236106Y-75561D01*
X1236140Y-75539D01*
X1236151Y-75528D01*
X1236306Y-75384D01*
X1236451Y-75228D01*
X1236573Y-75073D01*
X1236673Y-74917D01*
X1236761Y-74751D01*
X1236839Y-74596D01*
X1236895Y-74440D01*
X1236950Y-74285D01*
X1236983Y-74152D01*
X1237017Y-74018D01*
X1237039Y-73907D01*
X1237050Y-73808D01*
Y-73719D01*
X1237061Y-73663D01*
Y-73608D01*
X1237050Y-73408D01*
X1237028Y-73230D01*
X1236994Y-73053D01*
X1236950Y-72886D01*
X1236895Y-72731D01*
X1236828Y-72586D01*
X1236773Y-72442D01*
X1236706Y-72331D01*
X1236628Y-72220D01*
X1236573Y-72120D01*
X1236506Y-72043D01*
X1236451Y-71965D01*
X1236406Y-71909D01*
X1236373Y-71876D01*
X1236351Y-71854D01*
X1236340Y-71843D01*
X1236195Y-71721D01*
X1236051Y-71621D01*
X1235896Y-71521D01*
X1235740Y-71443D01*
X1235585Y-71377D01*
X1235418Y-71321D01*
X1235119Y-71243D01*
X1234986Y-71210D01*
X1234852Y-71188D01*
X1234741Y-71177D01*
X1234641Y-71166D01*
X1234553Y-71155D01*
X1234497D01*
X1234453D01*
X1234442D01*
X1234242Y-71166D01*
D02*
G37*
%LPC*%
G36*
X1108730Y-159104D02*
X1108774D01*
X1108796D01*
X1108918Y-159115D01*
X1109029Y-159126D01*
X1109129Y-159159D01*
X1109218Y-159193D01*
X1109296Y-159226D01*
X1109351Y-159248D01*
X1109385Y-159270D01*
X1109396Y-159282D01*
X1109484Y-159348D01*
X1109562Y-159437D01*
X1109629Y-159515D01*
X1109684Y-159592D01*
X1109718Y-159659D01*
X1109751Y-159714D01*
X1109762Y-159759D01*
X1109773Y-159770D01*
X1109795Y-159837D01*
X1109806Y-159914D01*
X1109840Y-160092D01*
X1109862Y-160292D01*
X1109873Y-160491D01*
Y-160691D01*
X1109884Y-160769D01*
Y-161835D01*
X1107698D01*
Y-160680D01*
X1107709Y-160569D01*
Y-160469D01*
X1107720Y-160369D01*
Y-160225D01*
X1107731Y-160114D01*
X1107742Y-160036D01*
X1107753Y-159992D01*
Y-159981D01*
X1107786Y-159848D01*
X1107831Y-159726D01*
X1107886Y-159614D01*
X1107953Y-159526D01*
X1108008Y-159459D01*
X1108053Y-159404D01*
X1108086Y-159370D01*
X1108097Y-159359D01*
X1108208Y-159270D01*
X1108319Y-159215D01*
X1108441Y-159171D01*
X1108552Y-159137D01*
X1108652Y-159115D01*
X1108730Y-159104D01*
D02*
G37*
G36*
X1228221Y-171745D02*
X1229997D01*
X1230097Y-171756D01*
X1230341D01*
X1230441Y-171767D01*
X1230508D01*
X1230541Y-171778D01*
X1230552D01*
X1230685Y-171812D01*
X1230807Y-171856D01*
X1230907Y-171901D01*
X1230985Y-171956D01*
X1231052Y-172012D01*
X1231107Y-172045D01*
X1231129Y-172078D01*
X1231141Y-172089D01*
X1231207Y-172178D01*
X1231263Y-172289D01*
X1231296Y-172389D01*
X1231329Y-172489D01*
X1231340Y-172578D01*
X1231351Y-172644D01*
Y-172689D01*
Y-172711D01*
X1231340Y-172833D01*
X1231329Y-172944D01*
X1231296Y-173044D01*
X1231274Y-173133D01*
X1231240Y-173199D01*
X1231207Y-173244D01*
X1231196Y-173277D01*
X1231185Y-173288D01*
X1231118Y-173366D01*
X1231052Y-173432D01*
X1230907Y-173532D01*
X1230852Y-173566D01*
X1230796Y-173588D01*
X1230763Y-173610D01*
X1230752D01*
X1230696Y-173621D01*
X1230608Y-173643D01*
X1230519Y-173654D01*
X1230419Y-173665D01*
X1230186Y-173676D01*
X1229953Y-173688D01*
X1229731Y-173699D01*
X1228221D01*
Y-171745D01*
D02*
G37*
G36*
X1191195Y-274391D02*
X1191239D01*
X1191339Y-274403D01*
X1191428Y-274414D01*
X1191506Y-274447D01*
X1191572Y-274480D01*
X1191628Y-274514D01*
X1191672Y-274536D01*
X1191694Y-274558D01*
X1191705Y-274569D01*
X1191772Y-274647D01*
X1191839Y-274747D01*
X1191894Y-274858D01*
X1191950Y-274969D01*
X1191983Y-275080D01*
X1192016Y-275168D01*
X1192027Y-275224D01*
X1192038Y-275235D01*
Y-275246D01*
X1192061Y-275346D01*
X1192083Y-275468D01*
X1192105Y-275613D01*
X1192127Y-275757D01*
X1192150Y-276056D01*
X1192161Y-276367D01*
X1192172Y-276512D01*
Y-276656D01*
X1192183Y-276778D01*
Y-276889D01*
Y-276978D01*
Y-277055D01*
Y-277100D01*
Y-277111D01*
Y-277355D01*
X1192172Y-277588D01*
Y-277799D01*
X1192161Y-277988D01*
X1192150Y-278165D01*
X1192138Y-278321D01*
X1192116Y-278465D01*
X1192105Y-278587D01*
X1192094Y-278698D01*
X1192072Y-278787D01*
X1192061Y-278865D01*
X1192050Y-278931D01*
X1192038Y-278976D01*
Y-279020D01*
X1192027Y-279031D01*
Y-279042D01*
X1191983Y-279198D01*
X1191927Y-279320D01*
X1191872Y-279431D01*
X1191828Y-279508D01*
X1191783Y-279575D01*
X1191739Y-279620D01*
X1191717Y-279642D01*
X1191705Y-279653D01*
X1191628Y-279708D01*
X1191550Y-279753D01*
X1191472Y-279775D01*
X1191395Y-279797D01*
X1191339Y-279808D01*
X1191284Y-279819D01*
X1191239D01*
X1191139Y-279808D01*
X1191051Y-279797D01*
X1190973Y-279764D01*
X1190906Y-279730D01*
X1190851Y-279708D01*
X1190806Y-279675D01*
X1190784Y-279664D01*
X1190773Y-279653D01*
X1190706Y-279575D01*
X1190640Y-279475D01*
X1190584Y-279364D01*
X1190529Y-279253D01*
X1190496Y-279153D01*
X1190462Y-279065D01*
X1190451Y-279009D01*
X1190440Y-278987D01*
X1190418Y-278876D01*
X1190396Y-278754D01*
X1190374Y-278620D01*
X1190362Y-278476D01*
X1190340Y-278165D01*
X1190329Y-277855D01*
X1190318Y-277710D01*
Y-277566D01*
X1190307Y-277444D01*
Y-277333D01*
Y-277244D01*
Y-277167D01*
Y-277122D01*
Y-277111D01*
Y-276867D01*
X1190318Y-276634D01*
Y-276434D01*
X1190329Y-276234D01*
X1190340Y-276068D01*
X1190351Y-275901D01*
X1190362Y-275768D01*
X1190385Y-275635D01*
X1190396Y-275524D01*
X1190407Y-275435D01*
X1190418Y-275357D01*
X1190429Y-275291D01*
X1190440Y-275246D01*
Y-275202D01*
X1190451Y-275191D01*
Y-275180D01*
X1190496Y-275024D01*
X1190551Y-274891D01*
X1190595Y-274791D01*
X1190651Y-274702D01*
X1190695Y-274647D01*
X1190729Y-274602D01*
X1190751Y-274580D01*
X1190762Y-274569D01*
X1190840Y-274514D01*
X1190928Y-274469D01*
X1191006Y-274436D01*
X1191084Y-274414D01*
X1191139Y-274403D01*
X1191195Y-274391D01*
D02*
G37*
G36*
X1175197Y-249933D02*
X1175252D01*
X1175286D01*
X1175308D01*
X1175319D01*
X1175552Y-249944D01*
X1175752Y-249978D01*
X1175918Y-250033D01*
X1176063Y-250078D01*
X1176163Y-250133D01*
X1176240Y-250189D01*
X1176296Y-250222D01*
X1176307Y-250233D01*
X1176418Y-250344D01*
X1176496Y-250466D01*
X1176562Y-250588D01*
X1176596Y-250699D01*
X1176618Y-250799D01*
X1176629Y-250877D01*
X1176640Y-250921D01*
Y-250944D01*
X1176629Y-251099D01*
X1176584Y-251243D01*
X1176529Y-251365D01*
X1176462Y-251476D01*
X1176407Y-251565D01*
X1176351Y-251621D01*
X1176307Y-251665D01*
X1176296Y-251676D01*
X1176152Y-251776D01*
X1175974Y-251842D01*
X1175796Y-251898D01*
X1175608Y-251931D01*
X1175452Y-251954D01*
X1175319Y-251965D01*
X1175264D01*
X1175230D01*
X1175208D01*
X1175197D01*
X1174942Y-251954D01*
X1174720Y-251920D01*
X1174531Y-251876D01*
X1174387Y-251831D01*
X1174276Y-251787D01*
X1174198Y-251743D01*
X1174142Y-251709D01*
X1174131Y-251698D01*
X1174020Y-251587D01*
X1173943Y-251476D01*
X1173876Y-251365D01*
X1173843Y-251254D01*
X1173820Y-251166D01*
X1173798Y-251088D01*
Y-251021D01*
X1173820Y-250866D01*
X1173865Y-250721D01*
X1173920Y-250588D01*
X1173998Y-250477D01*
X1174076Y-250389D01*
X1174131Y-250322D01*
X1174176Y-250278D01*
X1174198Y-250266D01*
X1174364Y-250155D01*
X1174542Y-250078D01*
X1174731Y-250011D01*
X1174908Y-249978D01*
X1175075Y-249956D01*
X1175197Y-249933D01*
D02*
G37*
G36*
X1171284Y-73982D02*
X1173060D01*
X1173160Y-73993D01*
X1173404D01*
X1173504Y-74004D01*
X1173571D01*
X1173604Y-74015D01*
X1173615D01*
X1173748Y-74049D01*
X1173870Y-74093D01*
X1173970Y-74137D01*
X1174048Y-74193D01*
X1174114Y-74248D01*
X1174170Y-74282D01*
X1174192Y-74315D01*
X1174203Y-74326D01*
X1174270Y-74415D01*
X1174325Y-74526D01*
X1174359Y-74626D01*
X1174392Y-74726D01*
X1174403Y-74814D01*
X1174414Y-74881D01*
Y-74925D01*
Y-74948D01*
X1174403Y-75070D01*
X1174392Y-75181D01*
X1174359Y-75281D01*
X1174336Y-75369D01*
X1174303Y-75436D01*
X1174270Y-75480D01*
X1174259Y-75514D01*
X1174248Y-75525D01*
X1174181Y-75602D01*
X1174114Y-75669D01*
X1173970Y-75769D01*
X1173915Y-75802D01*
X1173859Y-75824D01*
X1173826Y-75847D01*
X1173815D01*
X1173759Y-75858D01*
X1173670Y-75880D01*
X1173582Y-75891D01*
X1173482Y-75902D01*
X1173249Y-75913D01*
X1173016Y-75924D01*
X1172794Y-75936D01*
X1171284D01*
Y-73982D01*
D02*
G37*
G36*
X1185321Y-91806D02*
X1186831D01*
Y-93759D01*
X1185055D01*
X1184955Y-93748D01*
X1184711D01*
X1184611Y-93737D01*
X1184544D01*
X1184511Y-93726D01*
X1184500D01*
X1184367Y-93693D01*
X1184245Y-93648D01*
X1184145Y-93604D01*
X1184067Y-93548D01*
X1184000Y-93493D01*
X1183945Y-93460D01*
X1183923Y-93426D01*
X1183912Y-93415D01*
X1183845Y-93327D01*
X1183790Y-93216D01*
X1183756Y-93116D01*
X1183723Y-93016D01*
X1183712Y-92927D01*
X1183701Y-92860D01*
Y-92816D01*
Y-92794D01*
X1183712Y-92672D01*
X1183723Y-92561D01*
X1183756Y-92461D01*
X1183778Y-92372D01*
X1183812Y-92305D01*
X1183845Y-92261D01*
X1183856Y-92228D01*
X1183867Y-92217D01*
X1183934Y-92139D01*
X1184000Y-92072D01*
X1184145Y-91972D01*
X1184200Y-91939D01*
X1184256Y-91917D01*
X1184289Y-91895D01*
X1184300D01*
X1184356Y-91883D01*
X1184444Y-91861D01*
X1184533Y-91850D01*
X1184633Y-91839D01*
X1184866Y-91828D01*
X1185099Y-91817D01*
X1185321Y-91806D01*
D02*
G37*
G36*
X1172468Y-88454D02*
X1172512D01*
X1172612Y-88465D01*
X1172701Y-88476D01*
X1172778Y-88509D01*
X1172845Y-88542D01*
X1172901Y-88565D01*
X1172945Y-88598D01*
X1172967Y-88609D01*
X1172978Y-88620D01*
X1173045Y-88698D01*
X1173111Y-88798D01*
X1173167Y-88909D01*
X1173223Y-89020D01*
X1173256Y-89120D01*
X1173289Y-89208D01*
X1173300Y-89264D01*
X1173311Y-89286D01*
X1173334Y-89397D01*
X1173356Y-89519D01*
X1173378Y-89652D01*
X1173389Y-89797D01*
X1173411Y-90107D01*
X1173422Y-90418D01*
X1173433Y-90563D01*
Y-90707D01*
X1173445Y-90829D01*
Y-90940D01*
Y-91029D01*
Y-91107D01*
Y-91151D01*
Y-91162D01*
Y-91406D01*
X1173433Y-91639D01*
Y-91839D01*
X1173422Y-92039D01*
X1173411Y-92205D01*
X1173400Y-92372D01*
X1173389Y-92505D01*
X1173367Y-92638D01*
X1173356Y-92749D01*
X1173345Y-92838D01*
X1173334Y-92916D01*
X1173322Y-92982D01*
X1173311Y-93027D01*
Y-93071D01*
X1173300Y-93082D01*
Y-93093D01*
X1173256Y-93249D01*
X1173200Y-93382D01*
X1173156Y-93482D01*
X1173100Y-93571D01*
X1173056Y-93626D01*
X1173023Y-93671D01*
X1173000Y-93693D01*
X1172989Y-93704D01*
X1172912Y-93759D01*
X1172823Y-93804D01*
X1172745Y-93837D01*
X1172667Y-93859D01*
X1172612Y-93870D01*
X1172557Y-93882D01*
X1172512D01*
X1172412Y-93870D01*
X1172323Y-93859D01*
X1172246Y-93826D01*
X1172179Y-93793D01*
X1172124Y-93759D01*
X1172079Y-93737D01*
X1172057Y-93715D01*
X1172046Y-93704D01*
X1171979Y-93626D01*
X1171913Y-93526D01*
X1171857Y-93415D01*
X1171802Y-93304D01*
X1171768Y-93193D01*
X1171735Y-93104D01*
X1171724Y-93049D01*
X1171713Y-93038D01*
Y-93027D01*
X1171691Y-92927D01*
X1171668Y-92805D01*
X1171646Y-92661D01*
X1171624Y-92516D01*
X1171602Y-92217D01*
X1171591Y-91906D01*
X1171580Y-91761D01*
Y-91617D01*
X1171569Y-91495D01*
Y-91384D01*
Y-91295D01*
Y-91217D01*
Y-91173D01*
Y-91162D01*
Y-90918D01*
X1171580Y-90685D01*
Y-90474D01*
X1171591Y-90285D01*
X1171602Y-90107D01*
X1171613Y-89952D01*
X1171635Y-89808D01*
X1171646Y-89686D01*
X1171657Y-89575D01*
X1171680Y-89486D01*
X1171691Y-89408D01*
X1171702Y-89342D01*
X1171713Y-89297D01*
Y-89253D01*
X1171724Y-89242D01*
Y-89231D01*
X1171768Y-89075D01*
X1171824Y-88953D01*
X1171879Y-88842D01*
X1171924Y-88764D01*
X1171968Y-88698D01*
X1172013Y-88653D01*
X1172035Y-88631D01*
X1172046Y-88620D01*
X1172124Y-88565D01*
X1172201Y-88520D01*
X1172279Y-88498D01*
X1172357Y-88476D01*
X1172412Y-88465D01*
X1172468Y-88454D01*
D02*
G37*
G36*
X1183120Y-104082D02*
Y-106724D01*
X1181332D01*
X1183120Y-104082D01*
D02*
G37*
G36*
X1174352Y-117611D02*
X1176128D01*
X1176227Y-117622D01*
X1176472D01*
X1176572Y-117633D01*
X1176638D01*
X1176672Y-117645D01*
X1176683D01*
X1176816Y-117678D01*
X1176938Y-117722D01*
X1177038Y-117767D01*
X1177115Y-117822D01*
X1177182Y-117878D01*
X1177237Y-117911D01*
X1177260Y-117944D01*
X1177271Y-117955D01*
X1177337Y-118044D01*
X1177393Y-118155D01*
X1177426Y-118255D01*
X1177459Y-118355D01*
X1177471Y-118444D01*
X1177482Y-118510D01*
Y-118555D01*
Y-118577D01*
X1177471Y-118699D01*
X1177459Y-118810D01*
X1177426Y-118910D01*
X1177404Y-118999D01*
X1177371Y-119065D01*
X1177337Y-119110D01*
X1177326Y-119143D01*
X1177315Y-119154D01*
X1177249Y-119232D01*
X1177182Y-119298D01*
X1177038Y-119398D01*
X1176982Y-119431D01*
X1176927Y-119454D01*
X1176893Y-119476D01*
X1176882D01*
X1176827Y-119487D01*
X1176738Y-119509D01*
X1176649Y-119520D01*
X1176549Y-119531D01*
X1176316Y-119543D01*
X1176083Y-119554D01*
X1175861Y-119565D01*
X1174352D01*
Y-117611D01*
D02*
G37*
G36*
X1174435Y-146609D02*
X1176211D01*
X1176311Y-146620D01*
X1176555D01*
X1176655Y-146631D01*
X1176721D01*
X1176755Y-146642D01*
X1176766D01*
X1176899Y-146675D01*
X1177021Y-146720D01*
X1177121Y-146764D01*
X1177199Y-146819D01*
X1177265Y-146875D01*
X1177321Y-146908D01*
X1177343Y-146942D01*
X1177354Y-146953D01*
X1177421Y-147042D01*
X1177476Y-147153D01*
X1177510Y-147252D01*
X1177543Y-147352D01*
X1177554Y-147441D01*
X1177565Y-147508D01*
Y-147552D01*
Y-147574D01*
X1177554Y-147696D01*
X1177543Y-147807D01*
X1177510Y-147907D01*
X1177487Y-147996D01*
X1177454Y-148063D01*
X1177421Y-148107D01*
X1177410Y-148140D01*
X1177399Y-148152D01*
X1177332Y-148229D01*
X1177265Y-148296D01*
X1177121Y-148396D01*
X1177066Y-148429D01*
X1177010Y-148451D01*
X1176977Y-148473D01*
X1176966D01*
X1176910Y-148484D01*
X1176821Y-148507D01*
X1176732Y-148518D01*
X1176633Y-148529D01*
X1176400Y-148540D01*
X1176166Y-148551D01*
X1175944Y-148562D01*
X1174435D01*
Y-146609D01*
D02*
G37*
G36*
X1174315Y-161082D02*
X1176091D01*
X1176191Y-161094D01*
X1176435D01*
X1176535Y-161105D01*
X1176601D01*
X1176635Y-161116D01*
X1176646D01*
X1176779Y-161149D01*
X1176901Y-161193D01*
X1177001Y-161238D01*
X1177079Y-161293D01*
X1177145Y-161349D01*
X1177201Y-161382D01*
X1177223Y-161415D01*
X1177234Y-161427D01*
X1177301Y-161515D01*
X1177356Y-161626D01*
X1177390Y-161726D01*
X1177423Y-161826D01*
X1177434Y-161915D01*
X1177445Y-161982D01*
Y-162026D01*
Y-162048D01*
X1177434Y-162170D01*
X1177423Y-162281D01*
X1177390Y-162381D01*
X1177367Y-162470D01*
X1177334Y-162537D01*
X1177301Y-162581D01*
X1177290Y-162614D01*
X1177279Y-162625D01*
X1177212Y-162703D01*
X1177145Y-162770D01*
X1177001Y-162869D01*
X1176945Y-162903D01*
X1176890Y-162925D01*
X1176857Y-162947D01*
X1176846D01*
X1176790Y-162958D01*
X1176701Y-162980D01*
X1176612Y-162992D01*
X1176513Y-163003D01*
X1176280Y-163014D01*
X1176046Y-163025D01*
X1175824Y-163036D01*
X1174315D01*
Y-161082D01*
D02*
G37*
G36*
X1174966Y-190139D02*
X1176741D01*
X1176841Y-190150D01*
X1177085D01*
X1177185Y-190161D01*
X1177252D01*
X1177285Y-190172D01*
X1177296D01*
X1177430Y-190206D01*
X1177552Y-190250D01*
X1177652Y-190294D01*
X1177729Y-190350D01*
X1177796Y-190405D01*
X1177851Y-190439D01*
X1177874Y-190472D01*
X1177885Y-190483D01*
X1177951Y-190572D01*
X1178007Y-190683D01*
X1178040Y-190783D01*
X1178073Y-190883D01*
X1178084Y-190972D01*
X1178096Y-191038D01*
Y-191082D01*
Y-191105D01*
X1178084Y-191227D01*
X1178073Y-191338D01*
X1178040Y-191438D01*
X1178018Y-191527D01*
X1177985Y-191593D01*
X1177951Y-191637D01*
X1177940Y-191671D01*
X1177929Y-191682D01*
X1177862Y-191760D01*
X1177796Y-191826D01*
X1177652Y-191926D01*
X1177596Y-191959D01*
X1177541Y-191982D01*
X1177507Y-192004D01*
X1177496D01*
X1177441Y-192015D01*
X1177352Y-192037D01*
X1177263Y-192048D01*
X1177163Y-192059D01*
X1176930Y-192070D01*
X1176697Y-192082D01*
X1176475Y-192093D01*
X1174966D01*
Y-190139D01*
D02*
G37*
G36*
X1233764Y-65405D02*
X1235718D01*
Y-67181D01*
X1235707Y-67281D01*
Y-67525D01*
X1235696Y-67625D01*
Y-67691D01*
X1235685Y-67725D01*
Y-67736D01*
X1235651Y-67869D01*
X1235607Y-67991D01*
X1235563Y-68091D01*
X1235507Y-68169D01*
X1235452Y-68235D01*
X1235418Y-68291D01*
X1235385Y-68313D01*
X1235374Y-68324D01*
X1235285Y-68391D01*
X1235174Y-68446D01*
X1235074Y-68480D01*
X1234974Y-68513D01*
X1234886Y-68524D01*
X1234819Y-68535D01*
X1234775D01*
X1234752D01*
X1234630Y-68524D01*
X1234519Y-68513D01*
X1234419Y-68480D01*
X1234331Y-68457D01*
X1234264Y-68424D01*
X1234220Y-68391D01*
X1234186Y-68380D01*
X1234175Y-68369D01*
X1234098Y-68302D01*
X1234031Y-68235D01*
X1233931Y-68091D01*
X1233898Y-68036D01*
X1233876Y-67980D01*
X1233853Y-67947D01*
Y-67936D01*
X1233842Y-67880D01*
X1233820Y-67791D01*
X1233809Y-67703D01*
X1233798Y-67603D01*
X1233787Y-67370D01*
X1233776Y-67137D01*
X1233764Y-66915D01*
Y-65405D01*
D02*
G37*
G36*
X1234320Y-72598D02*
X1234375D01*
X1234408D01*
X1234430D01*
X1234442D01*
X1234697Y-72609D01*
X1234919Y-72642D01*
X1235108Y-72686D01*
X1235252Y-72731D01*
X1235363Y-72775D01*
X1235441Y-72820D01*
X1235496Y-72853D01*
X1235507Y-72864D01*
X1235618Y-72975D01*
X1235696Y-73086D01*
X1235762Y-73197D01*
X1235796Y-73308D01*
X1235818Y-73397D01*
X1235840Y-73474D01*
Y-73541D01*
X1235818Y-73696D01*
X1235774Y-73841D01*
X1235718Y-73974D01*
X1235640Y-74085D01*
X1235563Y-74174D01*
X1235507Y-74240D01*
X1235463Y-74285D01*
X1235441Y-74296D01*
X1235274Y-74407D01*
X1235097Y-74485D01*
X1234908Y-74551D01*
X1234730Y-74584D01*
X1234564Y-74607D01*
X1234442Y-74629D01*
X1234386D01*
X1234353D01*
X1234331D01*
X1234320D01*
X1234086Y-74618D01*
X1233887Y-74584D01*
X1233720Y-74529D01*
X1233576Y-74485D01*
X1233476Y-74429D01*
X1233398Y-74374D01*
X1233343Y-74340D01*
X1233332Y-74329D01*
X1233221Y-74218D01*
X1233143Y-74096D01*
X1233076Y-73974D01*
X1233043Y-73863D01*
X1233021Y-73763D01*
X1233010Y-73685D01*
X1232999Y-73641D01*
Y-73619D01*
X1233010Y-73463D01*
X1233054Y-73319D01*
X1233110Y-73197D01*
X1233176Y-73086D01*
X1233232Y-72997D01*
X1233287Y-72942D01*
X1233332Y-72897D01*
X1233343Y-72886D01*
X1233487Y-72786D01*
X1233665Y-72720D01*
X1233842Y-72664D01*
X1234031Y-72631D01*
X1234186Y-72609D01*
X1234320Y-72598D01*
D02*
G37*
%LPD*%
D10*
X1166768Y-281791D02*
Y-246791D01*
X1124768Y-281791D02*
Y-246791D01*
X1166768Y-281791D02*
X1124768D01*
X1166768Y-246791D02*
X1124768D01*
X1163794Y-185326D02*
Y-170924D01*
X1194308Y-185326D02*
X1163794D01*
X1194308D02*
Y-170924D01*
X1163794D01*
X1251278Y-181510D02*
Y-167107D01*
X1220764D01*
Y-181510D02*
Y-167107D01*
X1251278Y-181510D02*
X1220764D01*
X1131008Y-245302D02*
Y-230899D01*
X1161522Y-245302D02*
X1131008D01*
X1161522D02*
Y-230899D01*
X1131008D01*
X1199752Y-284199D02*
Y-269796D01*
X1169238D01*
Y-284199D02*
Y-269796D01*
X1199752Y-284199D02*
X1169238D01*
X1183606Y-239295D02*
X1169203D01*
Y-269809D02*
Y-239295D01*
X1183606Y-269809D02*
X1169203D01*
X1183606D02*
Y-239295D01*
X1194269Y-83747D02*
Y-69344D01*
X1163755D01*
Y-83747D02*
Y-69344D01*
X1194269Y-83747D02*
X1163755D01*
X1163879Y-98397D02*
Y-83995D01*
X1194393Y-98397D02*
X1163879D01*
X1194393D02*
Y-83995D01*
X1163879D01*
X1194352Y-112852D02*
Y-98449D01*
X1163837D01*
Y-112852D02*
Y-98449D01*
X1194352Y-112852D02*
X1163837D01*
X1194345Y-127326D02*
Y-112923D01*
X1163831D01*
Y-127326D02*
Y-112923D01*
X1194345Y-127326D02*
X1163831D01*
X1163794Y-141904D02*
Y-127501D01*
X1194308Y-141904D02*
X1163794D01*
X1194308D02*
Y-127501D01*
X1163794D01*
X1194434Y-156373D02*
Y-141971D01*
X1163920D01*
Y-156373D02*
Y-141971D01*
X1194434Y-156373D02*
X1163920D01*
X1194275Y-170775D02*
Y-156372D01*
X1163761D01*
Y-170775D02*
Y-156372D01*
X1194275Y-170775D02*
X1163761D01*
X1194321Y-199832D02*
X1163807D01*
Y-185429D01*
X1194321D02*
X1163807D01*
X1194321Y-199832D02*
Y-185429D01*
X1240356Y-85387D02*
X1225953D01*
X1240356D02*
Y-54873D01*
X1225953D01*
Y-85387D02*
Y-54873D01*
M02*
