G04*
G04 #@! TF.GenerationSoftware,Altium Limited,Altium Designer,23.10.1 (27)*
G04*
G04 Layer_Physical_Order=1*
G04 Layer_Color=255*
%FSLAX44Y44*%
%MOMM*%
G71*
G04*
G04 #@! TF.SameCoordinates,F1356F94-EBF5-402A-8C13-2620F03D8000*
G04*
G04*
G04 #@! TF.FilePolarity,Positive*
G04*
G01*
G75*
%ADD10C,0.2000*%
%ADD12R,0.9500X0.9500*%
G04:AMPARAMS|DCode=13|XSize=2.5mm|YSize=0.65mm|CornerRadius=0.1625mm|HoleSize=0mm|Usage=FLASHONLY|Rotation=0.000|XOffset=0mm|YOffset=0mm|HoleType=Round|Shape=RoundedRectangle|*
%AMROUNDEDRECTD13*
21,1,2.5000,0.3250,0,0,0.0*
21,1,2.1750,0.6500,0,0,0.0*
1,1,0.3250,1.0875,-0.1625*
1,1,0.3250,-1.0875,-0.1625*
1,1,0.3250,-1.0875,0.1625*
1,1,0.3250,1.0875,0.1625*
%
%ADD13ROUNDEDRECTD13*%
G04:AMPARAMS|DCode=14|XSize=1.97mm|YSize=0.6mm|CornerRadius=0.15mm|HoleSize=0mm|Usage=FLASHONLY|Rotation=180.000|XOffset=0mm|YOffset=0mm|HoleType=Round|Shape=RoundedRectangle|*
%AMROUNDEDRECTD14*
21,1,1.9700,0.3000,0,0,180.0*
21,1,1.6700,0.6000,0,0,180.0*
1,1,0.3000,-0.8350,0.1500*
1,1,0.3000,0.8350,0.1500*
1,1,0.3000,0.8350,-0.1500*
1,1,0.3000,-0.8350,-0.1500*
%
%ADD14ROUNDEDRECTD14*%
%ADD15R,0.8000X0.8000*%
%ADD21C,2.5000*%
%ADD24C,2.0000*%
%ADD25R,1.0000X1.0000*%
%ADD26C,0.2500*%
%ADD27C,0.3000*%
%ADD28C,0.2540*%
%ADD29C,0.4000*%
%ADD30R,1.4928X0.6857*%
%ADD31R,1.3349X0.8815*%
%ADD32R,2.8938X0.6157*%
%ADD33R,2.3519X0.6451*%
%ADD34R,2.3160X0.6207*%
%ADD35R,1.5000X1.5000*%
%ADD36C,1.5000*%
%ADD37C,0.3000*%
%ADD38C,0.4000*%
%ADD39C,0.6000*%
G36*
X37293Y-3059D02*
X39386Y-3059D01*
X43538Y-3605D01*
X47582Y-4689D01*
X51450Y-6291D01*
X55076Y-8385D01*
X58398Y-10934D01*
X61359Y-13894D01*
X63908Y-17216D01*
X64955Y-19029D01*
X159747Y-183215D01*
X160794Y-185028D01*
X162397Y-188897D01*
X163480Y-192941D01*
X164027Y-197092D01*
X164027Y-201279D01*
X163480Y-205431D01*
X162397Y-209475D01*
X160794Y-213343D01*
X159747Y-215156D01*
X122455Y-279750D01*
X121408Y-281563D01*
X118859Y-284884D01*
X115898Y-287845D01*
X112577Y-290394D01*
X108950Y-292488D01*
X105082Y-294090D01*
X101038Y-295174D01*
X96886Y-295720D01*
X22200D01*
Y-276980D01*
X3200D01*
Y-295720D01*
X-96886D01*
X-101038Y-295174D01*
X-105082Y-294090D01*
X-108950Y-292488D01*
X-112577Y-290394D01*
X-115898Y-287845D01*
X-118859Y-284884D01*
X-121408Y-281562D01*
X-122455Y-279750D01*
X-159747Y-215157D01*
X-159747Y-215156D01*
X-160794Y-213344D01*
X-162397Y-209475D01*
X-163480Y-205431D01*
X-164027Y-201279D01*
X-164027Y-197092D01*
X-163480Y-192941D01*
X-162397Y-188897D01*
X-160794Y-185028D01*
X-159747Y-183215D01*
X-159747Y-183215D01*
X-64955Y-19029D01*
X-63908Y-17216D01*
X-61359Y-13895D01*
X-58398Y-10934D01*
X-55077Y-8385D01*
X-51450Y-6291D01*
X-47582Y-4689D01*
X-43538Y-3605D01*
X-39386Y-3059D01*
X-37293Y-3059D01*
X37293Y-3059D01*
D02*
G37*
%LPC*%
G36*
X48323Y-15977D02*
X48068Y-15994D01*
X47812Y-15977D01*
X47448Y-16025D01*
X46159D01*
X44913Y-16359D01*
X44549Y-16407D01*
X44307Y-16489D01*
X44056Y-16539D01*
X43716Y-16680D01*
X42471Y-17013D01*
X41354Y-17658D01*
X41015Y-17799D01*
X40802Y-17941D01*
X40573Y-18054D01*
X40281Y-18278D01*
X39165Y-18922D01*
X38253Y-19834D01*
X37961Y-20058D01*
X37793Y-20250D01*
X37600Y-20419D01*
X37377Y-20710D01*
X36465Y-21622D01*
X35820Y-22739D01*
X35597Y-23030D01*
X35484Y-23260D01*
X35341Y-23472D01*
X35201Y-23812D01*
X34556Y-24929D01*
X34222Y-26174D01*
X34082Y-26513D01*
X34032Y-26764D01*
X33949Y-27007D01*
X33902Y-27371D01*
X33568Y-28616D01*
Y-29906D01*
X33520Y-30270D01*
X33537Y-30525D01*
X33520Y-30781D01*
X33568Y-31145D01*
Y-32434D01*
X33902Y-33680D01*
X33949Y-34044D01*
X34032Y-34286D01*
X34082Y-34537D01*
X34222Y-34877D01*
X34556Y-36122D01*
X35201Y-37239D01*
X35341Y-37578D01*
X35484Y-37791D01*
X35597Y-38021D01*
X35820Y-38312D01*
X36465Y-39429D01*
X37377Y-40340D01*
X37600Y-40632D01*
X37793Y-40800D01*
X37961Y-40993D01*
X38253Y-41216D01*
X39165Y-42128D01*
X40281Y-42773D01*
X40573Y-42997D01*
X40802Y-43110D01*
X41015Y-43252D01*
X41354Y-43393D01*
X42471Y-44037D01*
X43716Y-44371D01*
X44056Y-44511D01*
X44307Y-44561D01*
X44488Y-44623D01*
Y-54830D01*
X41638D01*
Y-58320D01*
X35933D01*
X35632Y-57868D01*
X34997Y-57444D01*
X34942Y-57421D01*
X34466Y-57103D01*
X33904Y-56991D01*
X33849Y-56969D01*
X33100Y-56820D01*
X16400D01*
X15651Y-56969D01*
X15596Y-56991D01*
X15034Y-57103D01*
X14558Y-57421D01*
X14503Y-57444D01*
X13868Y-57868D01*
X12773Y-57457D01*
X10935Y-56696D01*
X10019D01*
X9941Y-56680D01*
X9862Y-56696D01*
X8946D01*
X7108Y-57457D01*
X5702Y-58864D01*
X4941Y-60701D01*
Y-62691D01*
X5702Y-64528D01*
X7108Y-65935D01*
X8946Y-66696D01*
X10935D01*
X12773Y-65935D01*
X13868Y-65932D01*
X14503Y-66356D01*
X14558Y-66379D01*
X15034Y-66697D01*
X15596Y-66809D01*
X15651Y-66831D01*
X16400Y-66980D01*
X33100D01*
X33849Y-66831D01*
X33904Y-66809D01*
X34466Y-66697D01*
X34942Y-66379D01*
X34997Y-66356D01*
X35632Y-65932D01*
X35933Y-65480D01*
X41638D01*
Y-68330D01*
X55138D01*
Y-67560D01*
X57638D01*
Y-68330D01*
X60820D01*
Y-82909D01*
X61091Y-84275D01*
X61865Y-85433D01*
X67527Y-91095D01*
Y-92042D01*
X68288Y-93880D01*
X68958Y-94550D01*
Y-111262D01*
X68921Y-111299D01*
X68148Y-112457D01*
X67876Y-113822D01*
Y-131301D01*
X67206Y-131972D01*
X66445Y-133809D01*
Y-135799D01*
X67206Y-137636D01*
X68612Y-139043D01*
X70450Y-139804D01*
X72439D01*
X74277Y-139043D01*
X75683Y-137636D01*
X76445Y-135799D01*
Y-133809D01*
X75683Y-131972D01*
X75013Y-131301D01*
Y-115301D01*
X75050Y-115264D01*
X75824Y-114106D01*
X76095Y-112740D01*
Y-94550D01*
X76766Y-93880D01*
X77527Y-92042D01*
Y-90053D01*
X76766Y-88216D01*
X75359Y-86809D01*
X73521Y-86048D01*
X72574D01*
X67957Y-81431D01*
Y-68330D01*
X71138D01*
Y-54830D01*
X57638D01*
Y-55806D01*
X55138D01*
Y-54830D01*
X51648D01*
Y-44623D01*
X51829Y-44561D01*
X52080Y-44511D01*
X52419Y-44371D01*
X53665Y-44037D01*
X54781Y-43393D01*
X55121Y-43252D01*
X55333Y-43110D01*
X55563Y-42997D01*
X55854Y-42773D01*
X56971Y-42128D01*
X57883Y-41216D01*
X58174Y-40993D01*
X58343Y-40800D01*
X58535Y-40632D01*
X58759Y-40340D01*
X59671Y-39429D01*
X60315Y-38312D01*
X60539Y-38021D01*
X60652Y-37791D01*
X60794Y-37578D01*
X60935Y-37239D01*
X61580Y-36122D01*
X61913Y-34877D01*
X62054Y-34537D01*
X62104Y-34286D01*
X62186Y-34044D01*
X62234Y-33680D01*
X62568Y-32434D01*
Y-31145D01*
X62616Y-30781D01*
X62599Y-30525D01*
X62616Y-30270D01*
X62568Y-29906D01*
Y-28616D01*
X62234Y-27371D01*
X62186Y-27007D01*
X62104Y-26764D01*
X62054Y-26513D01*
X61913Y-26174D01*
X61580Y-24929D01*
X60935Y-23812D01*
X60794Y-23472D01*
X60652Y-23260D01*
X60539Y-23030D01*
X60315Y-22739D01*
X59671Y-21622D01*
X58759Y-20710D01*
X58535Y-20419D01*
X58343Y-20250D01*
X58174Y-20058D01*
X57883Y-19834D01*
X56971Y-18922D01*
X55854Y-18278D01*
X55563Y-18054D01*
X55334Y-17941D01*
X55121Y-17799D01*
X54781Y-17658D01*
X53665Y-17013D01*
X52419Y-16680D01*
X52080Y-16539D01*
X51829Y-16489D01*
X51586Y-16407D01*
X51222Y-16359D01*
X49977Y-16025D01*
X48687D01*
X48323Y-15977D01*
D02*
G37*
G36*
X1959Y-5500D02*
X-1859D01*
X-5547Y-6488D01*
X-8853Y-8397D01*
X-11553Y-11097D01*
X-13462Y-14403D01*
X-14450Y-18091D01*
Y-21909D01*
X-13462Y-25597D01*
X-11553Y-28903D01*
X-8853Y-31603D01*
X-5547Y-33512D01*
X-1859Y-34500D01*
X1959D01*
X5647Y-33512D01*
X8953Y-31603D01*
X11653Y-28903D01*
X13562Y-25597D01*
X14550Y-21909D01*
Y-18091D01*
X13562Y-14403D01*
X11653Y-11097D01*
X8953Y-8397D01*
X5647Y-6488D01*
X1959Y-5500D01*
D02*
G37*
G36*
X-16400Y-56831D02*
X-33100D01*
X-34466Y-57103D01*
X-35623Y-57877D01*
X-36397Y-59034D01*
X-36669Y-60400D01*
Y-63400D01*
X-36397Y-64766D01*
X-35623Y-65923D01*
X-34466Y-66697D01*
X-33100Y-66969D01*
X-16400D01*
X-15034Y-66697D01*
X-13877Y-65923D01*
X-13103Y-64766D01*
X-12831Y-63400D01*
Y-60400D01*
X-13103Y-59034D01*
X-13877Y-57877D01*
X-15034Y-57103D01*
X-16400Y-56831D01*
D02*
G37*
G36*
X33100Y-69531D02*
X16400D01*
X15034Y-69803D01*
X13877Y-70577D01*
X13791Y-70705D01*
X13238Y-70759D01*
X11400Y-69998D01*
X9411D01*
X7573Y-70759D01*
X6166Y-72166D01*
X5405Y-74003D01*
Y-75992D01*
X6166Y-77830D01*
X7573Y-79237D01*
X9411Y-79998D01*
X11400D01*
X13238Y-79237D01*
X13853Y-78621D01*
X13877Y-78623D01*
X15034Y-79397D01*
X16400Y-79669D01*
X33100D01*
X34466Y-79397D01*
X35623Y-78623D01*
X36397Y-77466D01*
X36669Y-76100D01*
Y-73100D01*
X36397Y-71734D01*
X35623Y-70577D01*
X34466Y-69803D01*
X33100Y-69531D01*
D02*
G37*
G36*
X-83872Y-72651D02*
X-84128Y-72668D01*
X-84383Y-72651D01*
X-84748Y-72699D01*
X-86037D01*
X-87282Y-73032D01*
X-87646Y-73081D01*
X-87889Y-73163D01*
X-88140Y-73213D01*
X-88479Y-73353D01*
X-89725Y-73687D01*
X-90841Y-74332D01*
X-91180Y-74472D01*
X-91393Y-74615D01*
X-91623Y-74728D01*
X-91915Y-74951D01*
X-93031Y-75596D01*
X-93942Y-76508D01*
X-94234Y-76731D01*
X-94403Y-76924D01*
X-94595Y-77092D01*
X-94819Y-77384D01*
X-95731Y-78296D01*
X-96375Y-79412D01*
X-96599Y-79704D01*
X-96712Y-79933D01*
X-96854Y-80146D01*
X-96995Y-80486D01*
X-97640Y-81602D01*
X-97973Y-82847D01*
X-98114Y-83187D01*
X-98164Y-83438D01*
X-98246Y-83680D01*
X-98294Y-84045D01*
X-98628Y-85290D01*
Y-86579D01*
X-98676Y-86943D01*
X-98659Y-87199D01*
X-98676Y-87454D01*
X-98628Y-87818D01*
Y-89108D01*
X-98294Y-90353D01*
X-98246Y-90717D01*
X-98164Y-90960D01*
X-98114Y-91211D01*
X-97973Y-91550D01*
X-97640Y-92796D01*
X-96995Y-93912D01*
X-96854Y-94252D01*
X-96712Y-94465D01*
X-96599Y-94694D01*
X-96375Y-94986D01*
X-95731Y-96102D01*
X-94819Y-97014D01*
X-94595Y-97305D01*
X-94403Y-97474D01*
X-94234Y-97666D01*
X-93943Y-97890D01*
X-93461Y-98372D01*
X-94118Y-99510D01*
X-97219Y-98680D01*
X-101037D01*
X-104725Y-99668D01*
X-108031Y-101577D01*
X-110731Y-104276D01*
X-112640Y-107583D01*
X-113628Y-111271D01*
Y-115089D01*
X-112640Y-118776D01*
X-110731Y-122083D01*
X-108461Y-124353D01*
X-109118Y-125491D01*
X-109776Y-125315D01*
X-110116Y-125174D01*
X-110367Y-125124D01*
X-110609Y-125042D01*
X-110973Y-124994D01*
X-112219Y-124660D01*
X-113508D01*
X-113872Y-124612D01*
X-114128Y-124629D01*
X-114383Y-124612D01*
X-114747Y-124660D01*
X-116037D01*
X-117282Y-124994D01*
X-117646Y-125042D01*
X-117889Y-125124D01*
X-118140Y-125174D01*
X-118479Y-125315D01*
X-119725Y-125648D01*
X-120841Y-126293D01*
X-121180Y-126434D01*
X-121393Y-126576D01*
X-121623Y-126689D01*
X-121914Y-126913D01*
X-123031Y-127557D01*
X-123943Y-128469D01*
X-124234Y-128693D01*
X-124403Y-128885D01*
X-124595Y-129054D01*
X-124819Y-129345D01*
X-125731Y-130257D01*
X-126375Y-131374D01*
X-126599Y-131665D01*
X-126712Y-131895D01*
X-126854Y-132108D01*
X-126995Y-132447D01*
X-127640Y-133564D01*
X-127973Y-134809D01*
X-128114Y-135148D01*
X-128164Y-135399D01*
X-128246Y-135642D01*
X-128294Y-136006D01*
X-128628Y-137251D01*
Y-138541D01*
X-128676Y-138905D01*
X-128659Y-139160D01*
X-128676Y-139416D01*
X-128628Y-139780D01*
Y-141069D01*
X-128294Y-142315D01*
X-128246Y-142679D01*
X-128164Y-142921D01*
X-128114Y-143172D01*
X-127973Y-143512D01*
X-127640Y-144757D01*
X-126995Y-145874D01*
X-126854Y-146213D01*
X-126712Y-146426D01*
X-126599Y-146656D01*
X-126375Y-146947D01*
X-125731Y-148064D01*
X-124819Y-148975D01*
X-124595Y-149267D01*
X-124403Y-149436D01*
X-124234Y-149628D01*
X-123943Y-149852D01*
X-123031Y-150763D01*
X-121914Y-151408D01*
X-121623Y-151631D01*
X-121393Y-151745D01*
X-121180Y-151887D01*
X-120841Y-152028D01*
X-119725Y-152672D01*
X-118479Y-153006D01*
X-118140Y-153146D01*
X-117889Y-153196D01*
X-117646Y-153279D01*
X-117441Y-153306D01*
Y-177251D01*
X-117189Y-178519D01*
X-116471Y-179594D01*
X-113267Y-182798D01*
Y-241423D01*
X-113014Y-242691D01*
X-112296Y-243766D01*
X-92747Y-263316D01*
X-91672Y-264034D01*
X-90404Y-264286D01*
X-84443D01*
Y-267723D01*
X-70943D01*
Y-266953D01*
X-68443D01*
Y-267723D01*
X-54943D01*
Y-254223D01*
X-54943D01*
Y-253274D01*
X-54943D01*
Y-249838D01*
X-48940D01*
X-47672Y-249586D01*
X-46597Y-248867D01*
X-44228Y-246499D01*
X-42703Y-246623D01*
X-42517Y-246901D01*
X-41318Y-247702D01*
X-39904Y-247984D01*
X-18154D01*
X-16740Y-247702D01*
X-15540Y-246901D01*
X-14739Y-245702D01*
X-14458Y-244288D01*
Y-241038D01*
X-14739Y-239623D01*
X-15540Y-238424D01*
X-16740Y-237623D01*
X-18154Y-237342D01*
X-39904D01*
X-41318Y-237623D01*
X-42517Y-238424D01*
X-43135Y-239349D01*
X-45078D01*
X-46346Y-239601D01*
X-47421Y-240319D01*
X-50312Y-243211D01*
X-54943D01*
Y-240096D01*
X-54943Y-239774D01*
Y-238826D01*
X-54943Y-238504D01*
Y-235389D01*
X-51493D01*
X-50224Y-235137D01*
X-49149Y-234419D01*
X-48007Y-233276D01*
X-43135D01*
X-42517Y-234201D01*
X-41318Y-235002D01*
X-39904Y-235284D01*
X-18154D01*
X-16740Y-235002D01*
X-15540Y-234201D01*
X-14739Y-233002D01*
X-14458Y-231588D01*
Y-228338D01*
X-14739Y-226923D01*
X-15540Y-225724D01*
X-16740Y-224923D01*
X-18154Y-224642D01*
X-39904D01*
X-41318Y-224923D01*
X-42517Y-225724D01*
X-43135Y-226649D01*
X-49379D01*
X-50648Y-226901D01*
X-51723Y-227619D01*
X-52865Y-228762D01*
X-54943D01*
Y-225326D01*
X-54943D01*
X-54818Y-224322D01*
X-54818D01*
X-54818Y-224108D01*
Y-220576D01*
X-43135D01*
X-42517Y-221501D01*
X-41318Y-222302D01*
X-39904Y-222584D01*
X-18154D01*
X-16740Y-222302D01*
X-15540Y-221501D01*
X-14739Y-220302D01*
X-14458Y-218888D01*
Y-215638D01*
X-14739Y-214223D01*
X-15540Y-213024D01*
X-16740Y-212223D01*
X-18154Y-211942D01*
X-39904D01*
X-41318Y-212223D01*
X-42517Y-213024D01*
X-43135Y-213949D01*
X-54818D01*
Y-211147D01*
X-54818Y-210822D01*
X-54943Y-209604D01*
Y-208774D01*
X-54045Y-207876D01*
X-43135D01*
X-42517Y-208801D01*
X-41318Y-209602D01*
X-39904Y-209884D01*
X-18154D01*
X-16740Y-209602D01*
X-15540Y-208801D01*
X-14739Y-207602D01*
X-14458Y-206188D01*
Y-202938D01*
X-14739Y-201523D01*
X-15540Y-200324D01*
X-16740Y-199523D01*
X-18154Y-199242D01*
X-39904D01*
X-41318Y-199523D01*
X-42517Y-200324D01*
X-43135Y-201249D01*
X-54943D01*
Y-196429D01*
X-54943D01*
Y-195481D01*
X-54943D01*
Y-181981D01*
X-68443D01*
Y-182957D01*
X-70943D01*
Y-181981D01*
X-84443D01*
Y-185417D01*
X-87064D01*
Y-169932D01*
X-57785Y-140653D01*
X-57067Y-139578D01*
X-56815Y-138310D01*
Y-95897D01*
X-57067Y-94629D01*
X-57785Y-93554D01*
X-64246Y-87094D01*
X-65321Y-86375D01*
X-66589Y-86123D01*
X-69628D01*
Y-85290D01*
X-69962Y-84044D01*
X-70009Y-83680D01*
X-70092Y-83438D01*
X-70142Y-83187D01*
X-70282Y-82848D01*
X-70616Y-81602D01*
X-71261Y-80485D01*
X-71401Y-80146D01*
X-71543Y-79933D01*
X-71657Y-79704D01*
X-71880Y-79412D01*
X-72525Y-78296D01*
X-73437Y-77384D01*
X-73660Y-77092D01*
X-73853Y-76924D01*
X-74021Y-76731D01*
X-74313Y-76508D01*
X-75224Y-75596D01*
X-76341Y-74951D01*
X-76633Y-74728D01*
X-76862Y-74615D01*
X-77075Y-74472D01*
X-77414Y-74332D01*
X-78531Y-73687D01*
X-79776Y-73353D01*
X-80116Y-73213D01*
X-80367Y-73163D01*
X-80609Y-73081D01*
X-80974Y-73032D01*
X-82219Y-72699D01*
X-83508D01*
X-83872Y-72651D01*
D02*
G37*
G36*
X-16400Y-69531D02*
X-33100D01*
X-34466Y-69803D01*
X-35623Y-70577D01*
X-36397Y-71734D01*
X-36669Y-73100D01*
Y-76100D01*
X-36397Y-77466D01*
X-35623Y-78623D01*
X-34466Y-79397D01*
X-33100Y-79669D01*
X-16400D01*
X-15034Y-79397D01*
X-13877Y-78623D01*
X-13103Y-77466D01*
X-12831Y-76100D01*
Y-73100D01*
X-13103Y-71734D01*
X-13877Y-70577D01*
X-15034Y-69803D01*
X-16400Y-69531D01*
D02*
G37*
G36*
Y-82231D02*
X-33100D01*
X-34466Y-82503D01*
X-35623Y-83277D01*
X-36397Y-84434D01*
X-36669Y-85800D01*
Y-88800D01*
X-36397Y-90166D01*
X-35623Y-91323D01*
X-34466Y-92097D01*
X-33100Y-92369D01*
X-16400D01*
X-15034Y-92097D01*
X-13877Y-91323D01*
X-13103Y-90166D01*
X-12831Y-88800D01*
Y-85800D01*
X-13103Y-84434D01*
X-13877Y-83277D01*
X-15034Y-82503D01*
X-16400Y-82231D01*
D02*
G37*
G36*
X33100D02*
X16400D01*
X15034Y-82503D01*
X13877Y-83277D01*
X13103Y-84434D01*
X12831Y-85800D01*
Y-88800D01*
X13103Y-90166D01*
X13877Y-91323D01*
X15034Y-92097D01*
X16400Y-92369D01*
X33100D01*
X33755Y-92238D01*
X34512Y-92146D01*
X35353Y-93031D01*
X35725Y-93929D01*
X37132Y-95335D01*
X38969Y-96097D01*
X40958D01*
X42796Y-95335D01*
X44203Y-93929D01*
X44964Y-92091D01*
Y-90102D01*
X44203Y-88264D01*
X42796Y-86858D01*
X40958Y-86097D01*
X39957D01*
X39093Y-85232D01*
X38017Y-84514D01*
X36749Y-84262D01*
X36281D01*
X35623Y-83277D01*
X34466Y-82503D01*
X33100Y-82231D01*
D02*
G37*
G36*
Y-94931D02*
X16400D01*
X16252Y-94961D01*
X4162D01*
X3382Y-95116D01*
X2721Y-95558D01*
X2279Y-96220D01*
X2123Y-97000D01*
Y-98892D01*
X1941Y-99333D01*
Y-101322D01*
X2123Y-101763D01*
Y-103157D01*
X2279Y-103937D01*
X2721Y-104599D01*
X3382Y-105041D01*
X4162Y-105196D01*
X5627D01*
X5946Y-105328D01*
X7935D01*
X8254Y-105196D01*
X13196D01*
X13271Y-105227D01*
X15260D01*
X15335Y-105196D01*
X33100D01*
X33880Y-105041D01*
X34151Y-104859D01*
X34466Y-104797D01*
X35623Y-104023D01*
X36397Y-102866D01*
X36669Y-101500D01*
Y-98500D01*
X36397Y-97134D01*
X35623Y-95977D01*
X34466Y-95203D01*
X33100Y-94931D01*
D02*
G37*
G36*
X-16400D02*
X-33100D01*
X-34466Y-95203D01*
X-35623Y-95977D01*
X-36397Y-97134D01*
X-36669Y-98500D01*
Y-101500D01*
X-36397Y-102866D01*
X-35623Y-104023D01*
X-34466Y-104797D01*
X-33100Y-105069D01*
X-25564D01*
X-25530Y-105091D01*
X-24750Y-105246D01*
X-1591D01*
X-810Y-105091D01*
X-149Y-104649D01*
X293Y-103988D01*
X449Y-103207D01*
Y-97000D01*
X293Y-96220D01*
X-149Y-95558D01*
X-810Y-95116D01*
X-1591Y-94961D01*
X-3730D01*
X-3743Y-94955D01*
X-5732D01*
X-5745Y-94961D01*
X-16252D01*
X-16400Y-94931D01*
D02*
G37*
G36*
Y-107631D02*
X-33100D01*
X-34466Y-107903D01*
X-35623Y-108677D01*
X-35927Y-109131D01*
X-37551D01*
X-38221Y-108461D01*
X-40059Y-107700D01*
X-42048D01*
X-43886Y-108461D01*
X-45292Y-109868D01*
X-46054Y-111705D01*
Y-113695D01*
X-45292Y-115532D01*
X-43886Y-116939D01*
X-42048Y-117700D01*
X-40059D01*
X-38221Y-116939D01*
X-37551Y-116269D01*
X-35927D01*
X-35623Y-116723D01*
X-34466Y-117497D01*
X-33100Y-117769D01*
X-16400D01*
X-15034Y-117497D01*
X-13877Y-116723D01*
X-13103Y-115566D01*
X-12831Y-114200D01*
Y-111200D01*
X-13103Y-109834D01*
X-13877Y-108677D01*
X-15034Y-107903D01*
X-16400Y-107631D01*
D02*
G37*
G36*
Y-120331D02*
X-33100D01*
X-34466Y-120603D01*
X-35623Y-121377D01*
X-36397Y-122534D01*
X-36669Y-123900D01*
Y-126900D01*
X-36397Y-128266D01*
X-35623Y-129423D01*
X-34466Y-130197D01*
X-33100Y-130469D01*
X-28064D01*
Y-133031D01*
X-33100D01*
X-34466Y-133303D01*
X-35623Y-134077D01*
X-36397Y-135234D01*
X-36669Y-136600D01*
Y-139600D01*
X-36397Y-140966D01*
X-35623Y-142123D01*
X-34466Y-142897D01*
X-33100Y-143169D01*
X-31350D01*
Y-148259D01*
X-37281D01*
Y-149028D01*
X-39781D01*
Y-148259D01*
X-53281D01*
Y-149411D01*
X-54338Y-150117D01*
X-54734Y-149953D01*
X-56723D01*
X-58561Y-150714D01*
X-59967Y-152121D01*
X-60729Y-153958D01*
Y-155947D01*
X-59967Y-157785D01*
X-58561Y-159192D01*
X-56723Y-159953D01*
X-54734D01*
X-54338Y-159789D01*
X-53281Y-160494D01*
Y-161759D01*
X-53281D01*
X-53314Y-162353D01*
X-53314D01*
X-53314Y-163015D01*
Y-175853D01*
X-39814D01*
Y-175084D01*
X-37314D01*
Y-175853D01*
X-35840D01*
X-35052Y-177123D01*
X-35531Y-178280D01*
Y-180269D01*
X-34769Y-182106D01*
X-33363Y-183513D01*
X-31525Y-184274D01*
X-29536D01*
X-27698Y-183513D01*
X-26292Y-182106D01*
X-25531Y-180269D01*
Y-178280D01*
X-26010Y-177123D01*
X-25221Y-175853D01*
X-23814D01*
Y-162353D01*
X-23814D01*
X-23781Y-161759D01*
X-23781D01*
X-23781Y-161096D01*
Y-148259D01*
X-24723D01*
Y-143169D01*
X-16400D01*
X-15034Y-142897D01*
X-13877Y-142123D01*
X-13103Y-140966D01*
X-12831Y-139600D01*
Y-136600D01*
X-13103Y-135234D01*
X-13877Y-134077D01*
X-15034Y-133303D01*
X-16400Y-133031D01*
X-21436D01*
Y-130469D01*
X-16400D01*
X-15034Y-130197D01*
X-13877Y-129423D01*
X-13103Y-128266D01*
X-12831Y-126900D01*
Y-123900D01*
X-13103Y-122534D01*
X-13877Y-121377D01*
X-15034Y-120603D01*
X-16400Y-120331D01*
D02*
G37*
G36*
X83573Y-100774D02*
X81584D01*
X79746Y-101535D01*
X78340Y-102942D01*
X77579Y-104779D01*
Y-106769D01*
X78340Y-108606D01*
X79265Y-109531D01*
Y-126193D01*
X79517Y-127461D01*
X80236Y-128536D01*
X81238Y-129539D01*
Y-161980D01*
X79968Y-162829D01*
X79108Y-162472D01*
X77119D01*
X75281Y-163234D01*
X74356Y-164159D01*
X72145D01*
X71138Y-163152D01*
Y-154709D01*
X72151Y-154089D01*
X73840Y-153390D01*
X75247Y-151983D01*
X76008Y-150146D01*
Y-148156D01*
X75247Y-146319D01*
X73840Y-144912D01*
X72003Y-144151D01*
X70014D01*
X68176Y-144912D01*
X67223Y-145866D01*
X41473D01*
Y-127139D01*
X41253Y-126032D01*
X41284Y-125735D01*
X41876Y-124558D01*
X43222Y-124001D01*
X44628Y-122594D01*
X45389Y-120757D01*
Y-118767D01*
X44628Y-116930D01*
X43703Y-116005D01*
Y-114164D01*
X43451Y-112896D01*
X42733Y-111821D01*
X41268Y-110357D01*
X40193Y-109639D01*
X38925Y-109386D01*
X36098D01*
X35623Y-108677D01*
X34466Y-107903D01*
X33100Y-107631D01*
X16400D01*
X15034Y-107903D01*
X13877Y-108677D01*
X13103Y-109834D01*
X12831Y-111200D01*
Y-114200D01*
X13103Y-115566D01*
X13877Y-116723D01*
X15034Y-117497D01*
X16400Y-117769D01*
X33100D01*
X34466Y-117497D01*
X34570Y-117427D01*
X35596Y-118269D01*
X35389Y-118767D01*
Y-119693D01*
X35109Y-119969D01*
X34119Y-120534D01*
X33100Y-120331D01*
X16400D01*
X15034Y-120603D01*
X13877Y-121377D01*
X13103Y-122534D01*
X12831Y-123900D01*
Y-126900D01*
X13103Y-128266D01*
X13877Y-129423D01*
X15034Y-130197D01*
X16400Y-130469D01*
X33100D01*
X33336Y-130422D01*
X34355Y-131245D01*
Y-132254D01*
X33336Y-133078D01*
X33100Y-133031D01*
X16400D01*
X15034Y-133303D01*
X13877Y-134077D01*
X13103Y-135234D01*
X12831Y-136600D01*
Y-139600D01*
X13103Y-140966D01*
X13877Y-142123D01*
X15034Y-142897D01*
X16400Y-143169D01*
X21436D01*
Y-154459D01*
X17750D01*
Y-167378D01*
X17750Y-168220D01*
X17665Y-168333D01*
X16883Y-169212D01*
X15709Y-169271D01*
X14980D01*
X13142Y-170032D01*
X11736Y-171439D01*
X10975Y-173276D01*
Y-175265D01*
X11736Y-177103D01*
X13142Y-178510D01*
X14980Y-179271D01*
X16969D01*
X18807Y-178510D01*
X20213Y-177103D01*
X20975Y-175265D01*
Y-173276D01*
X20213Y-171439D01*
X18807Y-170032D01*
X18076Y-169729D01*
X18327Y-168464D01*
X18339Y-168459D01*
X18900Y-168459D01*
X18900Y-168459D01*
X18921Y-168459D01*
X31750D01*
Y-164773D01*
X41638D01*
Y-168209D01*
X45075D01*
Y-174200D01*
X44540Y-174735D01*
X42648D01*
X41723Y-173810D01*
X39885Y-173048D01*
X37896D01*
X36058Y-173810D01*
X34652Y-175216D01*
X33890Y-177054D01*
Y-179043D01*
X34652Y-180881D01*
X36058Y-182287D01*
X37896Y-183048D01*
X39885D01*
X41723Y-182287D01*
X42648Y-181362D01*
X77673D01*
X78434Y-182632D01*
X77936Y-183835D01*
Y-184377D01*
X75544Y-186770D01*
X74826Y-187845D01*
X74573Y-189113D01*
Y-190863D01*
X71475D01*
Y-190051D01*
X70714Y-188213D01*
X69307Y-186807D01*
X67470Y-186045D01*
X65481D01*
X63643Y-186807D01*
X62236Y-188213D01*
X61475Y-190051D01*
Y-190863D01*
X55137D01*
Y-194299D01*
X48749D01*
X47481Y-194551D01*
X46406Y-195270D01*
X44942Y-196734D01*
X44223Y-197809D01*
X44078Y-198542D01*
X43536Y-199192D01*
X42701Y-199412D01*
X41846Y-199242D01*
X20096D01*
X19936Y-199273D01*
X10866D01*
X10237Y-199013D01*
X8248D01*
X7620Y-199273D01*
X5192D01*
X4411Y-199429D01*
X3750Y-199871D01*
X3307Y-200532D01*
X3152Y-201313D01*
Y-207764D01*
X3307Y-208544D01*
X3750Y-209205D01*
X4411Y-209648D01*
X5192Y-209803D01*
X19689D01*
X20096Y-209884D01*
X41846D01*
X42336Y-209786D01*
X43438Y-210632D01*
Y-211193D01*
X42336Y-212039D01*
X41846Y-211942D01*
X20096D01*
X18681Y-212223D01*
X17483Y-213024D01*
X16681Y-214223D01*
X16400Y-215638D01*
Y-218888D01*
X16681Y-220302D01*
X17483Y-221501D01*
X18681Y-222302D01*
X20096Y-222584D01*
X41846D01*
X43260Y-222302D01*
X44459Y-221501D01*
X44759Y-221053D01*
X46290Y-221688D01*
X48279D01*
X50117Y-220927D01*
X50439Y-220605D01*
X51709Y-221131D01*
Y-226995D01*
X45275D01*
X45261Y-226923D01*
X44459Y-225724D01*
X43260Y-224923D01*
X41846Y-224642D01*
X20096D01*
X18681Y-224923D01*
X17483Y-225724D01*
X16681Y-226923D01*
X16400Y-228338D01*
Y-231588D01*
X16681Y-233002D01*
X17483Y-234201D01*
X18681Y-235002D01*
X20096Y-235284D01*
X41846D01*
X43260Y-235002D01*
X44459Y-234201D01*
X44846Y-233622D01*
X53527D01*
X54795Y-233370D01*
X55870Y-232652D01*
X57366Y-231156D01*
X58084Y-230081D01*
X58336Y-228813D01*
Y-218941D01*
X68638D01*
Y-218172D01*
X71138D01*
Y-218941D01*
X84638D01*
Y-218941D01*
X85882Y-219005D01*
Y-219223D01*
X99382D01*
Y-218247D01*
X103882D01*
Y-206493D01*
X99382D01*
Y-205723D01*
X98204D01*
X98023Y-205452D01*
Y-203463D01*
X97262Y-201626D01*
X95855Y-200219D01*
X94017Y-199458D01*
X92028D01*
X90191Y-200219D01*
X88784Y-201626D01*
X88023Y-203463D01*
Y-205452D01*
X87842Y-205723D01*
X85882D01*
Y-205723D01*
X85793Y-205719D01*
X84638Y-205441D01*
X84637Y-204363D01*
X84637D01*
Y-190863D01*
X84637D01*
X84502Y-189593D01*
X85768Y-189068D01*
X87175Y-187661D01*
X87936Y-185824D01*
Y-183835D01*
X87175Y-181997D01*
X85768Y-180590D01*
X83931Y-179829D01*
X83582D01*
X83056Y-178559D01*
X86895Y-174720D01*
X87613Y-173645D01*
X87866Y-172377D01*
Y-128166D01*
X87613Y-126898D01*
X86895Y-125823D01*
X85892Y-124820D01*
Y-109531D01*
X86818Y-108606D01*
X87579Y-106769D01*
Y-104779D01*
X86818Y-102942D01*
X85411Y-101535D01*
X83573Y-100774D01*
D02*
G37*
G36*
X-2574Y-155230D02*
X-14574D01*
Y-167230D01*
X-14015D01*
X-13484Y-168024D01*
Y-170013D01*
X-12723Y-171851D01*
X-11316Y-173257D01*
X-9479Y-174018D01*
X-7490D01*
X-5652Y-173257D01*
X-4245Y-171851D01*
X-3484Y-170013D01*
Y-168024D01*
X-2954Y-167230D01*
X-2574D01*
Y-155230D01*
D02*
G37*
G36*
X141909Y-185500D02*
X138091D01*
X134403Y-186488D01*
X131097Y-188397D01*
X128397Y-191097D01*
X126488Y-194403D01*
X125500Y-198091D01*
Y-201909D01*
X126488Y-205597D01*
X128397Y-208903D01*
X131097Y-211603D01*
X134403Y-213512D01*
X138091Y-214500D01*
X141909D01*
X145597Y-213512D01*
X148903Y-211603D01*
X151603Y-208903D01*
X153512Y-205597D01*
X154500Y-201909D01*
Y-198091D01*
X153512Y-194403D01*
X151603Y-191097D01*
X148903Y-188397D01*
X145597Y-186488D01*
X141909Y-185500D01*
D02*
G37*
G36*
X-138091D02*
X-141909D01*
X-145597Y-186488D01*
X-148903Y-188397D01*
X-151603Y-191097D01*
X-153512Y-194403D01*
X-154500Y-198091D01*
Y-201909D01*
X-153512Y-205597D01*
X-151603Y-208903D01*
X-148903Y-211603D01*
X-145597Y-213512D01*
X-141909Y-214500D01*
X-138091D01*
X-134403Y-213512D01*
X-131097Y-211603D01*
X-128397Y-208903D01*
X-126488Y-205597D01*
X-125500Y-201909D01*
Y-198091D01*
X-126488Y-194403D01*
X-128397Y-191097D01*
X-131097Y-188397D01*
X-134403Y-186488D01*
X-138091Y-185500D01*
D02*
G37*
G36*
X11813Y-235446D02*
X-3115D01*
X-3896Y-235602D01*
X-4557Y-236044D01*
X-4999Y-236705D01*
X-5155Y-237486D01*
Y-244342D01*
X-4999Y-245123D01*
X-4557Y-245784D01*
X-3896Y-246226D01*
X-3115Y-246381D01*
X-1853D01*
X-751Y-246601D01*
X352Y-246381D01*
X11813D01*
X12593Y-246226D01*
X13255Y-245784D01*
X13263Y-245772D01*
X16728D01*
X17483Y-246901D01*
X18681Y-247702D01*
X20096Y-247984D01*
X41846D01*
X43260Y-247702D01*
X44459Y-246901D01*
X44566Y-246741D01*
X56230D01*
Y-279417D01*
X52973D01*
X52192Y-279572D01*
X51531Y-280014D01*
X51089Y-280676D01*
X50934Y-281456D01*
Y-290271D01*
X51089Y-291052D01*
X51531Y-291713D01*
X52192Y-292155D01*
X52973Y-292310D01*
X66322D01*
X67102Y-292155D01*
X67764Y-291713D01*
X68206Y-291052D01*
X68361Y-290271D01*
Y-281456D01*
X68206Y-280676D01*
X67764Y-280014D01*
X67102Y-279572D01*
X66322Y-279417D01*
X64387D01*
Y-245006D01*
X64076Y-243445D01*
X63192Y-242122D01*
X63192Y-242122D01*
X60849Y-239779D01*
X59526Y-238895D01*
X57965Y-238584D01*
X57965Y-238584D01*
X44566D01*
X44459Y-238424D01*
X43260Y-237623D01*
X41846Y-237342D01*
X20096D01*
X18718Y-237616D01*
X13852D01*
Y-237486D01*
X13697Y-236705D01*
X13255Y-236044D01*
X12593Y-235602D01*
X11813Y-235446D01*
D02*
G37*
%LPD*%
G36*
X-63442Y-97270D02*
Y-136937D01*
X-92721Y-166216D01*
X-93439Y-167291D01*
X-93691Y-168559D01*
Y-186973D01*
X-93439Y-188241D01*
X-92721Y-189316D01*
X-90963Y-191074D01*
X-89888Y-191792D01*
X-88620Y-192044D01*
X-84443D01*
Y-195481D01*
X-84443D01*
Y-196429D01*
X-84443D01*
Y-197676D01*
X-85713Y-198524D01*
X-86547Y-198179D01*
X-88536D01*
X-90374Y-198940D01*
X-91780Y-200347D01*
X-92542Y-202185D01*
Y-204174D01*
X-91780Y-206011D01*
X-90374Y-207418D01*
X-88536Y-208179D01*
X-86547D01*
X-85713Y-207834D01*
X-84443Y-208682D01*
X-84443Y-209929D01*
X-84318Y-211147D01*
Y-224322D01*
X-84318D01*
X-84443Y-225326D01*
X-84443D01*
X-84443Y-225540D01*
Y-238504D01*
X-84443Y-238826D01*
Y-239774D01*
X-84443Y-240096D01*
Y-241544D01*
X-85713Y-242139D01*
X-87198Y-241524D01*
X-89188D01*
X-91025Y-242285D01*
X-92432Y-243692D01*
X-93193Y-245530D01*
Y-247519D01*
X-92432Y-249356D01*
X-91025Y-250763D01*
X-89188Y-251524D01*
X-87198D01*
X-85713Y-250909D01*
X-84443Y-251505D01*
Y-253274D01*
X-84443D01*
Y-254223D01*
X-84443D01*
Y-257659D01*
X-89031D01*
X-106639Y-240051D01*
Y-181426D01*
X-106892Y-180158D01*
X-107610Y-179083D01*
X-110814Y-175879D01*
Y-153306D01*
X-110609Y-153279D01*
X-110367Y-153196D01*
X-110116Y-153146D01*
X-109776Y-153006D01*
X-108531Y-152672D01*
X-107414Y-152028D01*
X-107075Y-151887D01*
X-106862Y-151745D01*
X-106633Y-151631D01*
X-106341Y-151408D01*
X-105225Y-150763D01*
X-104313Y-149852D01*
X-104021Y-149628D01*
X-103853Y-149435D01*
X-103660Y-149267D01*
X-103437Y-148975D01*
X-102525Y-148064D01*
X-101880Y-146947D01*
X-101657Y-146656D01*
X-101543Y-146426D01*
X-101401Y-146213D01*
X-101260Y-145874D01*
X-100616Y-144757D01*
X-100282Y-143512D01*
X-100142Y-143172D01*
X-100092Y-142921D01*
X-100009Y-142679D01*
X-99961Y-142315D01*
X-99628Y-141069D01*
Y-139780D01*
X-99580Y-139416D01*
X-99597Y-139160D01*
X-99580Y-138905D01*
X-99628Y-138541D01*
Y-137251D01*
X-99962Y-136006D01*
X-100009Y-135642D01*
X-100092Y-135400D01*
X-100142Y-135148D01*
X-100282Y-134809D01*
X-100616Y-133564D01*
X-101261Y-132447D01*
X-101401Y-132108D01*
X-101543Y-131895D01*
X-101657Y-131665D01*
X-101880Y-131374D01*
X-102525Y-130257D01*
X-103437Y-129345D01*
X-103660Y-129054D01*
X-103853Y-128885D01*
X-104021Y-128693D01*
X-104313Y-128469D01*
X-104795Y-127987D01*
X-104137Y-126849D01*
X-101037Y-127680D01*
X-97219D01*
X-93531Y-126692D01*
X-90225Y-124782D01*
X-87525Y-122083D01*
X-85616Y-118776D01*
X-84628Y-115089D01*
Y-111271D01*
X-85616Y-107583D01*
X-87525Y-104276D01*
X-89795Y-102007D01*
X-89137Y-100868D01*
X-88479Y-101044D01*
X-88140Y-101185D01*
X-87889Y-101235D01*
X-87646Y-101317D01*
X-87282Y-101365D01*
X-86037Y-101699D01*
X-84747D01*
X-84383Y-101747D01*
X-84128Y-101730D01*
X-83872Y-101747D01*
X-83508Y-101699D01*
X-82219D01*
X-80973Y-101365D01*
X-80609Y-101317D01*
X-80367Y-101235D01*
X-80116Y-101185D01*
X-79777Y-101045D01*
X-78531Y-100711D01*
X-77414Y-100066D01*
X-77075Y-99925D01*
X-76862Y-99783D01*
X-76633Y-99670D01*
X-76341Y-99447D01*
X-75224Y-98802D01*
X-74313Y-97890D01*
X-74021Y-97666D01*
X-73853Y-97474D01*
X-73660Y-97305D01*
X-73437Y-97014D01*
X-72525Y-96102D01*
X-71880Y-94985D01*
X-71657Y-94694D01*
X-71543Y-94465D01*
X-71401Y-94252D01*
X-71261Y-93912D01*
X-70616Y-92796D01*
X-70604Y-92751D01*
X-67962D01*
X-63442Y-97270D01*
D02*
G37*
D10*
X108532Y-212374D02*
X108586Y-212427D01*
Y-221365D02*
Y-212427D01*
D12*
X-30564Y-169103D02*
D03*
X-46564D02*
D03*
X-46532Y-155009D02*
D03*
X-30531D02*
D03*
X48388Y-161459D02*
D03*
X64388D02*
D03*
X-61693Y-203179D02*
D03*
X-77693D02*
D03*
X92632Y-212473D02*
D03*
X108631D02*
D03*
X77888Y-212191D02*
D03*
X61888D02*
D03*
X77887Y-197613D02*
D03*
X61887D02*
D03*
X-61693Y-188731D02*
D03*
X-77693D02*
D03*
X-77568Y-217572D02*
D03*
X-61568D02*
D03*
X64388Y-61580D02*
D03*
X48388D02*
D03*
X-61693Y-232076D02*
D03*
X-77693D02*
D03*
X-61693Y-246524D02*
D03*
X-77693D02*
D03*
X-61693Y-260973D02*
D03*
X-77693D02*
D03*
D13*
X30971Y-204563D02*
D03*
Y-217263D02*
D03*
Y-229963D02*
D03*
Y-242663D02*
D03*
X-29029D02*
D03*
Y-229963D02*
D03*
Y-217263D02*
D03*
Y-204563D02*
D03*
D14*
X-24750Y-138100D02*
D03*
Y-125400D02*
D03*
Y-112700D02*
D03*
Y-100000D02*
D03*
Y-87300D02*
D03*
Y-74600D02*
D03*
Y-61900D02*
D03*
X24750D02*
D03*
Y-74600D02*
D03*
Y-87300D02*
D03*
Y-100000D02*
D03*
Y-112700D02*
D03*
Y-125400D02*
D03*
Y-138100D02*
D03*
D15*
X6426Y-161230D02*
D03*
X-8574D02*
D03*
D21*
X-84128Y-87199D02*
D03*
X-99128Y-113180D02*
D03*
X-114128Y-139160D02*
D03*
X48068Y-30525D02*
D03*
D24*
X140000Y-200000D02*
D03*
X50Y-20000D02*
D03*
X-140000Y-200000D02*
D03*
D25*
X24750Y-161459D02*
D03*
D26*
X65387Y-194113D02*
Y-193081D01*
X66475Y-191992D02*
Y-191045D01*
X61887Y-197613D02*
X65387Y-194113D01*
Y-193081D02*
X66475Y-191992D01*
X47285Y-199077D02*
X48749Y-197613D01*
X61887D01*
X47285Y-216688D02*
Y-199077D01*
X46997Y-216975D02*
X47285Y-216688D01*
X30971Y-217263D02*
X31258Y-216975D01*
X46997D01*
X-30564Y-179241D02*
X-30531Y-179274D01*
X-30564Y-179241D02*
Y-169103D01*
X40389Y-119762D02*
Y-114164D01*
X24750Y-112700D02*
X38925D01*
X40389Y-114164D01*
X84552Y-172377D02*
Y-128166D01*
X45912Y-178048D02*
X78881D01*
X38890D02*
X45912D01*
X78881D02*
X84552Y-172377D01*
X77887Y-189113D02*
X82170Y-184829D01*
X82936D01*
X77887Y-197613D02*
Y-189113D01*
X70402Y-167472D02*
X78114D01*
X64388Y-161459D02*
X70402Y-167472D01*
X82579Y-126193D02*
Y-105774D01*
Y-126193D02*
X84552Y-128166D01*
X-8484Y-169018D02*
Y-160984D01*
X45912Y-178048D02*
X48388Y-175573D01*
Y-161459D01*
X48388Y-161459D02*
X48388Y-161459D01*
X24750Y-161459D02*
X48388D01*
X24750D02*
Y-138100D01*
X-31600Y-170139D02*
X-30564Y-169103D01*
X-46564D02*
Y-155009D01*
X-46587Y-154953D02*
X-46532Y-155009D01*
X-55729Y-154953D02*
X-46587D01*
X25025Y-87575D02*
X36749D01*
X24750Y-87300D02*
X25025Y-87575D01*
X36749D02*
X39964Y-90790D01*
Y-91097D02*
Y-90790D01*
X10604Y-74799D02*
X24551D01*
X10405Y-74998D02*
X10604Y-74799D01*
X24551D02*
X24750Y-74600D01*
X-28036Y-139831D02*
X-26305Y-138100D01*
X-28036Y-154959D02*
Y-139831D01*
X-26305Y-138100D02*
X-24750D01*
X-88193Y-246524D02*
X-77693D01*
X-87542Y-203179D02*
X-77693D01*
X-61258Y-217263D02*
X-29029D01*
X-61568Y-217572D02*
X-61258Y-217263D01*
X-51493Y-232076D02*
X-49379Y-229963D01*
X-29029D01*
X-61693Y-232076D02*
X-51493D01*
X-48940Y-246524D02*
X-45078Y-242663D01*
X-29029D01*
X-61693Y-246524D02*
X-48940D01*
X-61693Y-260973D02*
Y-246524D01*
X-60309Y-204563D02*
X-29029D01*
X-61693Y-203179D02*
X-60309Y-204563D01*
X-61693Y-203179D02*
Y-188731D01*
X-60128Y-138310D02*
Y-95897D01*
X-81890Y-89437D02*
X-66589D01*
X-60128Y-95897D01*
X-84128Y-87199D02*
X-81890Y-89437D01*
X-90378Y-168559D02*
X-60128Y-138310D01*
X-90378Y-186973D02*
Y-168559D01*
X-88620Y-188731D02*
X-77693D01*
X-90378Y-186973D02*
X-88620Y-188731D01*
X-90404Y-260973D02*
X-77693D01*
X-109953Y-241423D02*
Y-181426D01*
Y-241423D02*
X-90404Y-260973D01*
X-114128Y-177251D02*
X-109953Y-181426D01*
X-114128Y-177251D02*
Y-139160D01*
X93023Y-208973D02*
Y-204458D01*
X89131Y-212191D02*
X89757Y-211565D01*
X90207Y-212191D02*
Y-209599D01*
X89757D02*
X92632Y-212473D01*
X92397Y-209599D02*
X93023Y-208973D01*
X89757Y-211565D02*
Y-209599D01*
X90207D02*
X92397D01*
X77888Y-212191D02*
X90207D01*
X-24905Y-125245D02*
X-24750Y-125089D01*
Y-138100D02*
Y-125400D01*
X30971Y-229963D02*
X31317Y-230308D01*
X55022Y-228813D02*
Y-213656D01*
X31317Y-230308D02*
X53527D01*
X55022Y-228813D01*
Y-213656D02*
X56487Y-212191D01*
X65088D01*
X-29245Y-229747D02*
X-29029Y-229963D01*
X-29685Y-217919D02*
X-29029Y-217263D01*
D27*
X10043Y-61798D02*
X24648D01*
X24750Y-61900D01*
X9941Y-61696D02*
X10043Y-61798D01*
X71445Y-134804D02*
Y-113822D01*
X72527Y-112740D02*
Y-91048D01*
X71445Y-113822D02*
X72527Y-112740D01*
X64388Y-82909D02*
Y-61580D01*
Y-82909D02*
X72527Y-91048D01*
X24750Y-61900D02*
X48068D01*
Y-61259D02*
Y-30525D01*
Y-61259D02*
X48388Y-61580D01*
X48068Y-61900D02*
X48388Y-61580D01*
X-77693Y-224847D02*
Y-217697D01*
Y-232076D02*
Y-224847D01*
Y-217697D02*
X-77568Y-217572D01*
X-41054Y-112700D02*
X-24750D01*
D28*
X39627Y-149200D02*
X70960D01*
X71008Y-149151D01*
X38140Y-147712D02*
X39627Y-149200D01*
X38140Y-147712D02*
Y-127139D01*
X25001Y-125651D02*
X36652D01*
X38140Y-127139D01*
X24750Y-125400D02*
X25001Y-125651D01*
D29*
X9164Y-241694D02*
X30002D01*
X8216Y-240746D02*
X9164Y-241694D01*
X30002D02*
X30971Y-242663D01*
X2061Y-240746D02*
X8216D01*
X1138Y-241670D02*
X2061Y-240746D01*
X101Y-241670D02*
X1138D01*
X-751Y-242523D02*
X101Y-241670D01*
X56456Y-285818D02*
X57947D01*
X60308Y-283456D02*
Y-245006D01*
X57947Y-285818D02*
X60308Y-283456D01*
X30971Y-242663D02*
X57965D01*
X60308Y-245006D01*
X-12063Y-100008D02*
X-4790D01*
X-24750Y-100000D02*
X-24720Y-100030D01*
X-4790Y-100008D02*
X-4737Y-99955D01*
X-12145Y-100030D02*
X-12115Y-100060D01*
X-24720Y-100030D02*
X-12145D01*
X-12115Y-100060D02*
X-12063Y-100008D01*
D30*
X4349Y-240914D02*
D03*
D31*
X59647Y-285863D02*
D03*
D32*
X18631Y-100078D02*
D03*
D33*
X16951Y-204538D02*
D03*
D34*
X-13170Y-100104D02*
D03*
D35*
X12700Y-286480D02*
D03*
D36*
X-12700D02*
D03*
D37*
X148914Y-219861D02*
D03*
X140914Y-171861D02*
D03*
X136914Y-227861D02*
D03*
X128914Y-147861D02*
D03*
X132914Y-219861D02*
D03*
X128914Y-227861D02*
D03*
X132914Y-235861D02*
D03*
X128914Y-243861D02*
D03*
X120914Y-131861D02*
D03*
X124914Y-139861D02*
D03*
X120914Y-147861D02*
D03*
Y-211861D02*
D03*
X124914Y-219861D02*
D03*
X120914Y-227861D02*
D03*
X124914Y-235861D02*
D03*
X120914Y-243861D02*
D03*
X124914Y-251861D02*
D03*
X120914Y-259861D02*
D03*
X112914Y-115861D02*
D03*
X116914Y-123861D02*
D03*
X112914Y-131861D02*
D03*
X116914Y-139861D02*
D03*
X112914Y-147861D02*
D03*
Y-179861D02*
D03*
X116914Y-235861D02*
D03*
X112914Y-243861D02*
D03*
X116914Y-251861D02*
D03*
Y-267861D02*
D03*
X104914Y-115861D02*
D03*
X108914Y-123861D02*
D03*
X104914Y-131861D02*
D03*
X108914Y-139861D02*
D03*
X104914Y-147861D02*
D03*
X108914Y-155861D02*
D03*
X104914Y-163861D02*
D03*
X108914Y-171861D02*
D03*
X104914Y-179861D02*
D03*
X108914Y-187861D02*
D03*
X80914Y-67861D02*
D03*
X84914Y-75861D02*
D03*
X68914Y-43861D02*
D03*
X64914Y-227861D02*
D03*
X28914Y-11861D02*
D03*
X24914Y-19861D02*
D03*
X28914Y-283861D02*
D03*
X20914Y-11861D02*
D03*
Y-27861D02*
D03*
X16914Y-35861D02*
D03*
X914Y-259861D02*
D03*
X4914Y-267861D02*
D03*
X-7086Y-227861D02*
D03*
Y-259861D02*
D03*
X-3086Y-267861D02*
D03*
X-15086Y-35861D02*
D03*
X-11086Y-251861D02*
D03*
X-15086Y-259861D02*
D03*
X-11086Y-267861D02*
D03*
X-23086Y-19861D02*
D03*
Y-35861D02*
D03*
Y-259861D02*
D03*
X-19086Y-267861D02*
D03*
X-23086Y-275861D02*
D03*
X-27086Y-11861D02*
D03*
X-31086Y-19861D02*
D03*
X-27086Y-27861D02*
D03*
X-31086Y-35861D02*
D03*
Y-259861D02*
D03*
X-27086Y-267861D02*
D03*
X-31086Y-275861D02*
D03*
X-27086Y-283861D02*
D03*
X-35086Y-11861D02*
D03*
X-39086Y-19861D02*
D03*
X-35086Y-27861D02*
D03*
X-39086Y-35861D02*
D03*
X-35086Y-43861D02*
D03*
X-39086Y-51861D02*
D03*
Y-259861D02*
D03*
X-35086Y-267861D02*
D03*
X-39086Y-275861D02*
D03*
X-35086Y-283861D02*
D03*
X-43086Y-11861D02*
D03*
X-47086Y-19861D02*
D03*
X-43086Y-27861D02*
D03*
X-47086Y-35861D02*
D03*
X-43086Y-43861D02*
D03*
X-47086Y-51861D02*
D03*
Y-67861D02*
D03*
Y-83861D02*
D03*
X-43086Y-91861D02*
D03*
Y-187861D02*
D03*
X-47086Y-259861D02*
D03*
X-43086Y-267861D02*
D03*
X-47086Y-275861D02*
D03*
X-43086Y-283861D02*
D03*
X-55086Y-19861D02*
D03*
X-51086Y-27861D02*
D03*
X-55086Y-35861D02*
D03*
X-51086Y-43861D02*
D03*
X-55086Y-51861D02*
D03*
X-51086Y-59861D02*
D03*
X-55086Y-67861D02*
D03*
X-51086Y-75861D02*
D03*
X-55086Y-275861D02*
D03*
X-51086Y-283861D02*
D03*
X-59086Y-27861D02*
D03*
X-63086Y-35861D02*
D03*
X-59086Y-43861D02*
D03*
X-63086Y-51861D02*
D03*
X-59086Y-59861D02*
D03*
X-63086Y-67861D02*
D03*
X-59086Y-75861D02*
D03*
X-63086Y-163861D02*
D03*
Y-275861D02*
D03*
X-59086Y-283861D02*
D03*
X-67086Y-43861D02*
D03*
X-71086Y-51861D02*
D03*
X-67086Y-59861D02*
D03*
Y-171861D02*
D03*
Y-283861D02*
D03*
X-75086Y-59861D02*
D03*
Y-283861D02*
D03*
X-87086Y-275861D02*
D03*
X-83086Y-283861D02*
D03*
X-95086Y-275861D02*
D03*
X-91086Y-283861D02*
D03*
X-103086Y-275861D02*
D03*
X-99086Y-283861D02*
D03*
X-107086Y-267861D02*
D03*
X-111086Y-275861D02*
D03*
X-107086Y-283861D02*
D03*
X-119086Y-259861D02*
D03*
X-115086Y-267861D02*
D03*
X-127086Y-179861D02*
D03*
Y-227861D02*
D03*
Y-243861D02*
D03*
X-123086Y-251861D02*
D03*
X-135086Y-163861D02*
D03*
X-131086Y-171861D02*
D03*
Y-219861D02*
D03*
X-135086Y-227861D02*
D03*
X-131086Y-235861D02*
D03*
X-135086Y-243861D02*
D03*
X-139086Y-171861D02*
D03*
X-143086Y-227861D02*
D03*
X-139086Y-235861D02*
D03*
X-147086Y-219861D02*
D03*
D38*
X64615Y-29436D02*
D03*
X59795Y-42256D02*
D03*
X51859Y-14334D02*
D03*
X63564Y-36357D02*
D03*
X-6605Y-57333D02*
D03*
X38012Y-67571D02*
D03*
X43475Y-14564D02*
D03*
X32895Y-37137D02*
D03*
X33779Y-54864D02*
D03*
X40730Y-54036D02*
D03*
X26781Y-54729D02*
D03*
X62735Y-22694D02*
D03*
X58150Y-17404D02*
D03*
X33078Y-23473D02*
D03*
X31466Y-30285D02*
D03*
X37326Y-17910D02*
D03*
X-6605Y-64334D02*
D03*
X19781Y-54729D02*
D03*
X12802Y-55273D02*
D03*
X-85622Y-70705D02*
D03*
X-92312Y-72762D02*
D03*
X-100339Y-90839D02*
D03*
X-85359Y-103727D02*
D03*
X-78428Y-102749D02*
D03*
X-72494Y-99035D02*
D03*
X-65529Y-99736D02*
D03*
Y-106736D02*
D03*
Y-113736D02*
D03*
X-74715Y-145259D02*
D03*
X-89564Y-160108D02*
D03*
X-94451Y-165120D02*
D03*
X-95779Y-171993D02*
D03*
Y-178993D02*
D03*
Y-185993D02*
D03*
X-92706Y-192283D02*
D03*
X-86210Y-194891D02*
D03*
X-74088Y-179933D02*
D03*
X-81088D02*
D03*
X-84977Y-174112D02*
D03*
X-81971Y-167791D02*
D03*
X-77022Y-162841D02*
D03*
X-62172Y-147992D02*
D03*
X-54728Y-108502D02*
D03*
Y-101502D02*
D03*
X-55004Y-94507D02*
D03*
X-59360Y-89028D02*
D03*
X-64690Y-84489D02*
D03*
X-69461Y-79367D02*
D03*
X-74045Y-74077D02*
D03*
X-80336Y-71007D02*
D03*
X-115129Y-122602D02*
D03*
X-121878Y-124459D02*
D03*
X-130407Y-142288D02*
D03*
X-127649Y-148722D02*
D03*
X-122514Y-153479D02*
D03*
X-119529Y-159810D02*
D03*
Y-166810D02*
D03*
Y-173810D02*
D03*
X-118205Y-180684D02*
D03*
X-115354Y-187077D02*
D03*
Y-194077D02*
D03*
Y-201077D02*
D03*
Y-208077D02*
D03*
Y-215077D02*
D03*
Y-222077D02*
D03*
Y-229077D02*
D03*
Y-236077D02*
D03*
X-115006Y-243068D02*
D03*
X-110549Y-248466D02*
D03*
X-105599Y-253415D02*
D03*
X-100649Y-258365D02*
D03*
X-95699Y-263315D02*
D03*
X-89403Y-266373D02*
D03*
X-76203Y-269770D02*
D03*
X-90537Y-253202D02*
D03*
X-95487Y-248252D02*
D03*
X-104552Y-237640D02*
D03*
Y-230640D02*
D03*
Y-216640D02*
D03*
Y-209640D02*
D03*
Y-202640D02*
D03*
Y-188640D02*
D03*
Y-181640D02*
D03*
X-108122Y-175619D02*
D03*
X-108727Y-168645D02*
D03*
Y-161645D02*
D03*
X-108301Y-154658D02*
D03*
X-102401Y-150891D02*
D03*
X-98632Y-144992D02*
D03*
X-97581Y-138071D02*
D03*
X-99461Y-131328D02*
D03*
D39*
X108586Y-221365D02*
D03*
X66475Y-191045D02*
D03*
X47285Y-216688D02*
D03*
X9941Y-61696D02*
D03*
X6222Y-87818D02*
D03*
X-2709Y-136435D02*
D03*
X-1585Y-120287D02*
D03*
X35353Y-169586D02*
D03*
X-30531Y-179274D02*
D03*
X40389Y-119762D02*
D03*
X71008Y-149151D02*
D03*
X82936Y-184829D02*
D03*
X78114Y-167472D02*
D03*
X82579Y-105774D02*
D03*
X-8484Y-169018D02*
D03*
X38890Y-178048D02*
D03*
X71445Y-134804D02*
D03*
X9243Y-204013D02*
D03*
X8216Y-240746D02*
D03*
X1138Y-240870D02*
D03*
X-55729Y-154953D02*
D03*
X39964Y-91097D02*
D03*
X63210Y-285892D02*
D03*
X56456Y-285818D02*
D03*
X-1517Y-189930D02*
D03*
X-4092Y-207764D02*
D03*
X1211Y-220608D02*
D03*
X7417Y-232075D02*
D03*
X10405Y-74998D02*
D03*
X-99128Y-238952D02*
D03*
X-102363Y-224642D02*
D03*
X-100105Y-194700D02*
D03*
X-101037Y-166000D02*
D03*
X-87542Y-203179D02*
D03*
X-77693Y-224847D02*
D03*
X-88193Y-246524D02*
D03*
X15975Y-174271D02*
D03*
X93023Y-204458D02*
D03*
X72527Y-91048D02*
D03*
X-41054Y-112700D02*
D03*
X14265Y-100227D02*
D03*
X6941Y-100328D02*
D03*
X16218Y-204666D02*
D03*
X-12115Y-100060D02*
D03*
X-4737Y-99955D02*
D03*
M02*
