G04*
G04 #@! TF.GenerationSoftware,Altium Limited,Altium Designer,23.10.1 (27)*
G04*
G04 Layer_Color=16711935*
%FSLAX44Y44*%
%MOMM*%
G71*
G04*
G04 #@! TF.SameCoordinates,F1356F94-EBF5-402A-8C13-2620F03D8000*
G04*
G04*
G04 #@! TF.FilePolarity,Positive*
G04*
G01*
G75*
%ADD10C,0.2000*%
G36*
X-34029Y-197613D02*
Y-211613D01*
X-20029Y-197613D01*
X-34029D01*
D02*
G37*
G36*
X24750Y-143250D02*
Y-128400D01*
X9900Y-143250D01*
X9199D01*
X24750D01*
D02*
G37*
G36*
X-99552Y-106329D02*
X-99410Y-106331D01*
X-99267Y-106334D01*
X-99081Y-106345D01*
X-98902Y-106368D01*
X-98706Y-106417D01*
X-98498Y-106473D01*
X-98279Y-106536D01*
X-98041Y-106625D01*
X-97806Y-106744D01*
X-97559Y-106871D01*
X-98301Y-108572D01*
X-98313Y-108565D01*
X-98337Y-108552D01*
X-98373Y-108531D01*
X-98428Y-108515D01*
X-98548Y-108446D01*
X-98718Y-108380D01*
X-98900Y-108307D01*
X-99089Y-108245D01*
X-99261Y-108210D01*
X-99428Y-108194D01*
X-99459Y-108192D01*
X-99528Y-108201D01*
X-99635Y-108219D01*
X-99762Y-108273D01*
X-99909Y-108333D01*
X-100064Y-108435D01*
X-100209Y-108576D01*
X-100344Y-108754D01*
X-100399Y-108850D01*
X-100443Y-108953D01*
X-100481Y-109075D01*
X-100521Y-109228D01*
X-100538Y-109395D01*
X-100535Y-109557D01*
X-100482Y-109715D01*
X-100477Y-109734D01*
X-100431Y-109793D01*
X-100368Y-109877D01*
X-100264Y-110002D01*
X-100193Y-110074D01*
X-100111Y-110154D01*
X-100010Y-110228D01*
X-99904Y-110322D01*
X-99767Y-110417D01*
X-99629Y-110512D01*
X-99468Y-110621D01*
X-99288Y-110725D01*
X-93895Y-113839D01*
X-94866Y-115520D01*
X-100139Y-112476D01*
X-100151Y-112469D01*
X-100187Y-112448D01*
X-100235Y-112420D01*
X-100307Y-112379D01*
X-100391Y-112330D01*
X-100492Y-112256D01*
X-100713Y-112112D01*
X-100952Y-111942D01*
X-101195Y-111754D01*
X-101432Y-111553D01*
X-101625Y-111361D01*
X-101637Y-111355D01*
X-101654Y-111329D01*
X-101683Y-111296D01*
X-101717Y-111244D01*
X-101815Y-111108D01*
X-101928Y-110915D01*
X-102038Y-110690D01*
X-102140Y-110423D01*
X-102228Y-110132D01*
X-102277Y-109800D01*
X-102270Y-109788D01*
X-102287Y-109762D01*
X-102278Y-109719D01*
X-102280Y-109638D01*
X-102269Y-109564D01*
X-102263Y-109472D01*
X-102256Y-109348D01*
X-102237Y-109231D01*
X-102203Y-109090D01*
X-102182Y-108942D01*
X-102076Y-108619D01*
X-101930Y-108255D01*
X-101739Y-107869D01*
X-101669Y-107749D01*
X-101609Y-107672D01*
X-101534Y-107571D01*
X-101460Y-107469D01*
X-101360Y-107351D01*
X-101252Y-107221D01*
X-100988Y-106957D01*
X-100838Y-106836D01*
X-100688Y-106714D01*
X-100513Y-106607D01*
X-100346Y-106511D01*
X-100155Y-106429D01*
X-99958Y-106367D01*
X-99939Y-106362D01*
X-99908Y-106363D01*
X-99852Y-106348D01*
X-99764Y-106335D01*
X-99664Y-106328D01*
X-99552Y-106329D01*
D02*
G37*
G36*
X-99414Y-118099D02*
X-99419Y-118080D01*
X-99429Y-118042D01*
X-99437Y-117973D01*
X-99456Y-117866D01*
X-99479Y-117741D01*
X-99496Y-117603D01*
X-99510Y-117435D01*
X-99530Y-117247D01*
X-99543Y-117047D01*
X-99549Y-116836D01*
X-99560Y-116605D01*
X-99552Y-116369D01*
X-99510Y-115881D01*
X-99429Y-115352D01*
X-97988Y-116184D01*
X-97995Y-116196D01*
X-97990Y-116215D01*
X-97998Y-116258D01*
X-98014Y-116313D01*
X-98023Y-116468D01*
X-98048Y-116677D01*
X-98070Y-116937D01*
X-98070Y-117241D01*
X-98047Y-117591D01*
X-98008Y-117966D01*
X-98003Y-117985D01*
X-98005Y-118016D01*
X-97989Y-118073D01*
X-97969Y-118148D01*
X-97925Y-118350D01*
X-97852Y-118584D01*
X-97757Y-118863D01*
X-97614Y-119170D01*
X-97452Y-119472D01*
X-97245Y-119751D01*
X-97994Y-121048D01*
X-106353Y-116222D01*
X-105431Y-114625D01*
X-99414Y-118099D01*
D02*
G37*
G36*
X-41130Y-165159D02*
X-41008Y-165170D01*
X-40875Y-165193D01*
X-40720Y-165215D01*
X-40553Y-165248D01*
X-40376Y-165293D01*
X-40187Y-165348D01*
X-39998Y-165415D01*
X-39799Y-165504D01*
X-39610Y-165592D01*
X-39432Y-165703D01*
X-39244Y-165837D01*
X-39077Y-165981D01*
X-39066D01*
X-39055Y-166003D01*
X-39021Y-166036D01*
X-38988Y-166070D01*
X-38944Y-166125D01*
X-38899Y-166192D01*
X-38777Y-166347D01*
X-38655Y-166547D01*
X-38522Y-166791D01*
X-38400Y-167069D01*
X-38289Y-167390D01*
X-39821Y-167757D01*
Y-167746D01*
X-39832Y-167735D01*
Y-167701D01*
X-39854Y-167657D01*
X-39887Y-167557D01*
X-39943Y-167424D01*
X-40020Y-167268D01*
X-40120Y-167113D01*
X-40254Y-166958D01*
X-40398Y-166824D01*
X-40420Y-166813D01*
X-40476Y-166769D01*
X-40564Y-166713D01*
X-40686Y-166647D01*
X-40842Y-166580D01*
X-41020Y-166525D01*
X-41219Y-166480D01*
X-41441Y-166469D01*
X-41519D01*
X-41585Y-166480D01*
X-41652Y-166491D01*
X-41741Y-166502D01*
X-41930Y-166547D01*
X-42152Y-166625D01*
X-42385Y-166736D01*
X-42507Y-166802D01*
X-42618Y-166880D01*
X-42729Y-166980D01*
X-42829Y-167091D01*
Y-167102D01*
X-42851Y-167124D01*
X-42873Y-167157D01*
X-42906Y-167213D01*
X-42951Y-167279D01*
X-42995Y-167357D01*
X-43040Y-167457D01*
X-43084Y-167568D01*
X-43140Y-167701D01*
X-43184Y-167846D01*
X-43228Y-168012D01*
X-43273Y-168190D01*
X-43306Y-168389D01*
X-43328Y-168600D01*
X-43339Y-168834D01*
X-43350Y-169089D01*
Y-169100D01*
Y-169155D01*
Y-169233D01*
X-43339Y-169322D01*
Y-169444D01*
X-43317Y-169588D01*
X-43306Y-169733D01*
X-43284Y-169899D01*
X-43217Y-170243D01*
X-43128Y-170587D01*
X-43073Y-170754D01*
X-42995Y-170909D01*
X-42917Y-171053D01*
X-42829Y-171175D01*
X-42818Y-171187D01*
X-42807Y-171198D01*
X-42773Y-171231D01*
X-42729Y-171275D01*
X-42618Y-171364D01*
X-42462Y-171475D01*
X-42274Y-171597D01*
X-42041Y-171686D01*
X-41774Y-171764D01*
X-41630Y-171775D01*
X-41474Y-171786D01*
X-41419D01*
X-41375Y-171775D01*
X-41252Y-171764D01*
X-41108Y-171742D01*
X-40953Y-171686D01*
X-40775Y-171619D01*
X-40598Y-171531D01*
X-40420Y-171397D01*
X-40398Y-171375D01*
X-40342Y-171320D01*
X-40265Y-171231D01*
X-40176Y-171098D01*
X-40065Y-170920D01*
X-39965Y-170709D01*
X-39865Y-170454D01*
X-39776Y-170154D01*
X-38267Y-170620D01*
Y-170632D01*
X-38278Y-170676D01*
X-38300Y-170743D01*
X-38333Y-170831D01*
X-38378Y-170931D01*
X-38422Y-171053D01*
X-38478Y-171187D01*
X-38544Y-171331D01*
X-38700Y-171631D01*
X-38899Y-171941D01*
X-39144Y-172241D01*
X-39277Y-172374D01*
X-39421Y-172496D01*
X-39432Y-172507D01*
X-39454Y-172519D01*
X-39499Y-172552D01*
X-39565Y-172596D01*
X-39643Y-172641D01*
X-39743Y-172685D01*
X-39854Y-172741D01*
X-39976Y-172796D01*
X-40120Y-172863D01*
X-40276Y-172918D01*
X-40442Y-172963D01*
X-40620Y-173007D01*
X-40809Y-173051D01*
X-41020Y-173085D01*
X-41230Y-173096D01*
X-41463Y-173107D01*
X-41530D01*
X-41608Y-173096D01*
X-41719Y-173085D01*
X-41841Y-173074D01*
X-41996Y-173051D01*
X-42163Y-173018D01*
X-42351Y-172974D01*
X-42540Y-172918D01*
X-42740Y-172852D01*
X-42951Y-172763D01*
X-43162Y-172663D01*
X-43373Y-172552D01*
X-43583Y-172408D01*
X-43783Y-172252D01*
X-43972Y-172064D01*
X-43983Y-172052D01*
X-44016Y-172019D01*
X-44061Y-171952D01*
X-44127Y-171875D01*
X-44194Y-171764D01*
X-44283Y-171642D01*
X-44372Y-171486D01*
X-44460Y-171309D01*
X-44549Y-171120D01*
X-44638Y-170909D01*
X-44727Y-170665D01*
X-44793Y-170410D01*
X-44860Y-170143D01*
X-44904Y-169844D01*
X-44938Y-169533D01*
X-44949Y-169200D01*
Y-169189D01*
Y-169178D01*
Y-169111D01*
X-44938Y-169011D01*
Y-168878D01*
X-44915Y-168722D01*
X-44893Y-168534D01*
X-44871Y-168334D01*
X-44827Y-168101D01*
X-44771Y-167868D01*
X-44705Y-167624D01*
X-44627Y-167379D01*
X-44527Y-167124D01*
X-44416Y-166880D01*
X-44283Y-166647D01*
X-44138Y-166425D01*
X-43961Y-166214D01*
X-43950Y-166203D01*
X-43917Y-166169D01*
X-43861Y-166114D01*
X-43783Y-166047D01*
X-43683Y-165970D01*
X-43561Y-165881D01*
X-43428Y-165781D01*
X-43262Y-165681D01*
X-43084Y-165581D01*
X-42895Y-165481D01*
X-42673Y-165392D01*
X-42451Y-165315D01*
X-42196Y-165248D01*
X-41941Y-165193D01*
X-41652Y-165159D01*
X-41364Y-165148D01*
X-41230D01*
X-41130Y-165159D01*
D02*
G37*
G36*
X-34604Y-165259D02*
X-34504Y-165270D01*
X-34404Y-165282D01*
X-34282Y-165293D01*
X-34160Y-165315D01*
X-33882Y-165381D01*
X-33594Y-165481D01*
X-33461Y-165548D01*
X-33316Y-165626D01*
X-33194Y-165714D01*
X-33072Y-165814D01*
X-33061Y-165825D01*
X-33050Y-165837D01*
X-33017Y-165870D01*
X-32972Y-165914D01*
X-32928Y-165970D01*
X-32883Y-166036D01*
X-32761Y-166203D01*
X-32650Y-166414D01*
X-32561Y-166647D01*
X-32484Y-166924D01*
X-32473Y-167080D01*
X-32462Y-167235D01*
Y-167246D01*
Y-167257D01*
Y-167324D01*
X-32473Y-167424D01*
X-32495Y-167557D01*
X-32528Y-167701D01*
X-32584Y-167857D01*
X-32650Y-168023D01*
X-32750Y-168190D01*
X-32761Y-168212D01*
X-32806Y-168256D01*
X-32861Y-168334D01*
X-32950Y-168423D01*
X-33061Y-168534D01*
X-33194Y-168634D01*
X-33349Y-168734D01*
X-33527Y-168822D01*
X-33516D01*
X-33494Y-168834D01*
X-33461Y-168845D01*
X-33416Y-168867D01*
X-33305Y-168933D01*
X-33161Y-169022D01*
X-33005Y-169122D01*
X-32839Y-169255D01*
X-32683Y-169411D01*
X-32550Y-169588D01*
X-32539Y-169611D01*
X-32495Y-169677D01*
X-32439Y-169777D01*
X-32384Y-169910D01*
X-32317Y-170077D01*
X-32273Y-170276D01*
X-32228Y-170487D01*
X-32217Y-170720D01*
Y-170732D01*
Y-170765D01*
Y-170820D01*
X-32228Y-170898D01*
X-32239Y-170987D01*
X-32251Y-171098D01*
X-32273Y-171209D01*
X-32306Y-171331D01*
X-32384Y-171608D01*
X-32439Y-171753D01*
X-32506Y-171897D01*
X-32584Y-172041D01*
X-32683Y-172186D01*
X-32783Y-172319D01*
X-32905Y-172452D01*
X-32917Y-172463D01*
X-32939Y-172485D01*
X-32972Y-172519D01*
X-33028Y-172552D01*
X-33094Y-172607D01*
X-33183Y-172663D01*
X-33272Y-172718D01*
X-33383Y-172785D01*
X-33505Y-172852D01*
X-33649Y-172907D01*
X-33793Y-172963D01*
X-33949Y-173018D01*
X-34127Y-173051D01*
X-34315Y-173085D01*
X-34504Y-173107D01*
X-34715Y-173118D01*
X-34815D01*
X-34892Y-173107D01*
X-34981Y-173096D01*
X-35081Y-173085D01*
X-35192Y-173074D01*
X-35325Y-173051D01*
X-35603Y-172985D01*
X-35891Y-172885D01*
X-36036Y-172829D01*
X-36180Y-172752D01*
X-36324Y-172674D01*
X-36457Y-172574D01*
X-36469Y-172563D01*
X-36491Y-172541D01*
X-36535Y-172507D01*
X-36591Y-172452D01*
X-36646Y-172385D01*
X-36713Y-172308D01*
X-36790Y-172208D01*
X-36868Y-172108D01*
X-36946Y-171986D01*
X-37023Y-171853D01*
X-37090Y-171708D01*
X-37146Y-171542D01*
X-37201Y-171375D01*
X-37246Y-171187D01*
X-37268Y-170998D01*
X-37279Y-170787D01*
Y-170776D01*
Y-170754D01*
Y-170720D01*
Y-170676D01*
X-37268Y-170554D01*
X-37246Y-170410D01*
X-37201Y-170232D01*
X-37157Y-170032D01*
X-37079Y-169832D01*
X-36979Y-169633D01*
Y-169622D01*
X-36968Y-169611D01*
X-36924Y-169544D01*
X-36846Y-169455D01*
X-36735Y-169333D01*
X-36602Y-169200D01*
X-36435Y-169067D01*
X-36235Y-168944D01*
X-36002Y-168822D01*
X-36013D01*
X-36024Y-168811D01*
X-36091Y-168778D01*
X-36191Y-168722D01*
X-36313Y-168656D01*
X-36457Y-168556D01*
X-36591Y-168445D01*
X-36724Y-168312D01*
X-36835Y-168167D01*
X-36846Y-168145D01*
X-36879Y-168090D01*
X-36913Y-168012D01*
X-36957Y-167890D01*
X-37012Y-167757D01*
X-37046Y-167590D01*
X-37079Y-167424D01*
X-37090Y-167235D01*
Y-167224D01*
Y-167202D01*
Y-167157D01*
X-37079Y-167091D01*
X-37068Y-167024D01*
X-37057Y-166935D01*
X-37012Y-166736D01*
X-36946Y-166514D01*
X-36835Y-166269D01*
X-36768Y-166158D01*
X-36690Y-166036D01*
X-36591Y-165925D01*
X-36491Y-165814D01*
X-36480Y-165803D01*
X-36457Y-165792D01*
X-36424Y-165759D01*
X-36380Y-165725D01*
X-36313Y-165681D01*
X-36247Y-165637D01*
X-36158Y-165581D01*
X-36047Y-165526D01*
X-35936Y-165481D01*
X-35814Y-165426D01*
X-35669Y-165381D01*
X-35514Y-165337D01*
X-35347Y-165304D01*
X-35170Y-165270D01*
X-34981Y-165259D01*
X-34781Y-165248D01*
X-34670D01*
X-34604Y-165259D01*
D02*
G37*
G36*
X-29201Y-158826D02*
X-32664D01*
X-32764Y-158815D01*
X-32886D01*
X-33008Y-158804D01*
X-33153D01*
X-33441Y-158771D01*
X-33741Y-158737D01*
X-34019Y-158682D01*
X-34141Y-158649D01*
X-34252Y-158615D01*
X-34263D01*
X-34274Y-158604D01*
X-34341Y-158571D01*
X-34440Y-158516D01*
X-34574Y-158449D01*
X-34718Y-158338D01*
X-34862Y-158216D01*
X-35006Y-158060D01*
X-35140Y-157872D01*
Y-157861D01*
X-35151Y-157850D01*
X-35173Y-157816D01*
X-35195Y-157783D01*
X-35251Y-157672D01*
X-35317Y-157528D01*
X-35373Y-157350D01*
X-35428Y-157150D01*
X-35473Y-156917D01*
X-35484Y-156673D01*
Y-156662D01*
Y-156640D01*
Y-156584D01*
X-35473Y-156529D01*
Y-156451D01*
X-35462Y-156373D01*
X-35417Y-156173D01*
X-35362Y-155940D01*
X-35273Y-155707D01*
X-35140Y-155463D01*
X-35062Y-155352D01*
X-34973Y-155241D01*
X-34962Y-155230D01*
X-34951Y-155219D01*
X-34918Y-155185D01*
X-34873Y-155152D01*
X-34829Y-155108D01*
X-34762Y-155052D01*
X-34685Y-154997D01*
X-34596Y-154941D01*
X-34496Y-154875D01*
X-34374Y-154819D01*
X-34252Y-154764D01*
X-34118Y-154708D01*
X-33963Y-154653D01*
X-33808Y-154608D01*
X-33641Y-154564D01*
X-33452Y-154531D01*
X-33464D01*
X-33475Y-154520D01*
X-33541Y-154475D01*
X-33630Y-154420D01*
X-33741Y-154342D01*
X-33874Y-154242D01*
X-34007Y-154142D01*
X-34152Y-154020D01*
X-34274Y-153887D01*
X-34285Y-153876D01*
X-34341Y-153820D01*
X-34407Y-153731D01*
X-34507Y-153598D01*
X-34640Y-153432D01*
X-34707Y-153321D01*
X-34785Y-153210D01*
X-34873Y-153088D01*
X-34962Y-152955D01*
X-35062Y-152799D01*
X-35162Y-152644D01*
X-36105Y-151145D01*
X-34241D01*
X-33131Y-152810D01*
X-33119Y-152821D01*
X-33108Y-152855D01*
X-33075Y-152899D01*
X-33031Y-152955D01*
X-32986Y-153021D01*
X-32931Y-153110D01*
X-32809Y-153287D01*
X-32664Y-153487D01*
X-32531Y-153665D01*
X-32409Y-153831D01*
X-32354Y-153887D01*
X-32309Y-153942D01*
X-32298Y-153953D01*
X-32276Y-153976D01*
X-32232Y-154020D01*
X-32176Y-154075D01*
X-32098Y-154120D01*
X-32021Y-154175D01*
X-31932Y-154220D01*
X-31843Y-154264D01*
X-31832D01*
X-31799Y-154275D01*
X-31743Y-154298D01*
X-31654Y-154309D01*
X-31543Y-154331D01*
X-31410Y-154342D01*
X-31255Y-154353D01*
X-30755D01*
Y-151145D01*
X-29201D01*
Y-158826D01*
D02*
G37*
G36*
X-45485Y-152688D02*
X-42332D01*
Y-153965D01*
X-45662Y-158860D01*
X-46905D01*
Y-153976D01*
X-47860D01*
Y-152688D01*
X-46905D01*
Y-151145D01*
X-45485D01*
Y-152688D01*
D02*
G37*
G36*
X-38902Y-156706D02*
X-38891Y-156695D01*
X-38869Y-156673D01*
X-38825Y-156640D01*
X-38758Y-156584D01*
X-38681Y-156517D01*
X-38592Y-156451D01*
X-38481Y-156373D01*
X-38359Y-156284D01*
X-38225Y-156196D01*
X-38081Y-156107D01*
X-37926Y-156007D01*
X-37759Y-155918D01*
X-37404Y-155752D01*
X-37004Y-155596D01*
Y-156928D01*
X-37016D01*
X-37027Y-156939D01*
X-37060Y-156950D01*
X-37104Y-156961D01*
X-37215Y-157017D01*
X-37371Y-157084D01*
X-37559Y-157172D01*
X-37770Y-157295D01*
X-38003Y-157450D01*
X-38248Y-157627D01*
X-38259Y-157639D01*
X-38281Y-157650D01*
X-38314Y-157683D01*
X-38359Y-157727D01*
X-38481Y-157838D01*
X-38614Y-157983D01*
X-38769Y-158160D01*
X-38925Y-158382D01*
X-39069Y-158615D01*
X-39180Y-158871D01*
X-40379D01*
Y-151145D01*
X-38902D01*
Y-156706D01*
D02*
G37*
G36*
X893Y-223774D02*
Y-223785D01*
Y-223829D01*
Y-223907D01*
Y-223996D01*
Y-224107D01*
X882Y-224240D01*
Y-224384D01*
Y-224528D01*
X860Y-224850D01*
X838Y-225183D01*
X827Y-225327D01*
X804Y-225472D01*
X782Y-225605D01*
X760Y-225727D01*
Y-225738D01*
X749Y-225749D01*
Y-225783D01*
X738Y-225816D01*
X705Y-225927D01*
X660Y-226060D01*
X594Y-226215D01*
X516Y-226371D01*
X416Y-226537D01*
X294Y-226693D01*
X283Y-226715D01*
X238Y-226759D01*
X161Y-226826D01*
X61Y-226915D01*
X-72Y-227015D01*
X-228Y-227115D01*
X-405Y-227226D01*
X-605Y-227314D01*
X-616D01*
X-627Y-227325D01*
X-661Y-227337D01*
X-705Y-227348D01*
X-761Y-227370D01*
X-827Y-227392D01*
X-916Y-227414D01*
X-1005Y-227425D01*
X-1216Y-227470D01*
X-1471Y-227514D01*
X-1760Y-227536D01*
X-2081Y-227547D01*
X-2259D01*
X-2359Y-227536D01*
X-2459D01*
X-2581Y-227525D01*
X-2703Y-227514D01*
X-2970Y-227492D01*
X-3247Y-227448D01*
X-3525Y-227381D01*
X-3647Y-227348D01*
X-3758Y-227303D01*
X-3769D01*
X-3780Y-227292D01*
X-3846Y-227259D01*
X-3957Y-227203D01*
X-4079Y-227126D01*
X-4224Y-227026D01*
X-4379Y-226915D01*
X-4523Y-226782D01*
X-4657Y-226637D01*
X-4668Y-226615D01*
X-4712Y-226571D01*
X-4768Y-226482D01*
X-4834Y-226371D01*
X-4901Y-226249D01*
X-4979Y-226105D01*
X-5034Y-225949D01*
X-5089Y-225783D01*
Y-225772D01*
X-5101Y-225749D01*
Y-225716D01*
X-5112Y-225660D01*
X-5123Y-225594D01*
X-5134Y-225505D01*
X-5145Y-225405D01*
X-5156Y-225294D01*
X-5178Y-225161D01*
X-5189Y-225017D01*
X-5200Y-224861D01*
X-5212Y-224684D01*
X-5223Y-224495D01*
Y-224284D01*
X-5234Y-224062D01*
Y-223829D01*
Y-219722D01*
X-3680D01*
Y-223896D01*
Y-223907D01*
Y-223940D01*
Y-223985D01*
Y-224051D01*
Y-224140D01*
Y-224229D01*
X-3669Y-224429D01*
Y-224650D01*
X-3658Y-224861D01*
X-3647Y-224961D01*
Y-225050D01*
X-3636Y-225117D01*
X-3624Y-225183D01*
Y-225205D01*
X-3602Y-225261D01*
X-3569Y-225350D01*
X-3525Y-225461D01*
X-3469Y-225583D01*
X-3380Y-225705D01*
X-3280Y-225838D01*
X-3158Y-225949D01*
X-3136Y-225960D01*
X-3092Y-225993D01*
X-3003Y-226038D01*
X-2892Y-226082D01*
X-2736Y-226138D01*
X-2559Y-226182D01*
X-2359Y-226215D01*
X-2126Y-226227D01*
X-2015D01*
X-1904Y-226215D01*
X-1760Y-226193D01*
X-1593Y-226160D01*
X-1438Y-226116D01*
X-1271Y-226049D01*
X-1138Y-225960D01*
X-1127Y-225949D01*
X-1082Y-225916D01*
X-1027Y-225860D01*
X-960Y-225783D01*
X-894Y-225683D01*
X-827Y-225572D01*
X-772Y-225450D01*
X-738Y-225305D01*
Y-225283D01*
X-727Y-225228D01*
X-716Y-225128D01*
X-694Y-224995D01*
Y-224906D01*
X-683Y-224806D01*
Y-224695D01*
X-672Y-224584D01*
Y-224451D01*
X-661Y-224306D01*
Y-224151D01*
Y-223985D01*
Y-219722D01*
X893D01*
Y-223774D01*
D02*
G37*
G36*
X4922Y-219689D02*
X5022Y-219700D01*
X5133Y-219711D01*
X5256Y-219733D01*
X5389Y-219755D01*
X5677Y-219833D01*
X5966Y-219944D01*
X6121Y-220011D01*
X6255Y-220088D01*
X6399Y-220188D01*
X6521Y-220299D01*
X6532Y-220310D01*
X6554Y-220322D01*
X6576Y-220366D01*
X6621Y-220410D01*
X6676Y-220466D01*
X6732Y-220543D01*
X6787Y-220621D01*
X6854Y-220721D01*
X6965Y-220943D01*
X7076Y-221198D01*
X7120Y-221343D01*
X7143Y-221498D01*
X7165Y-221665D01*
X7176Y-221831D01*
Y-221853D01*
Y-221920D01*
X7165Y-222020D01*
X7154Y-222142D01*
X7131Y-222297D01*
X7098Y-222464D01*
X7054Y-222641D01*
X6987Y-222819D01*
X6976Y-222841D01*
X6954Y-222897D01*
X6909Y-222997D01*
X6843Y-223119D01*
X6765Y-223263D01*
X6665Y-223430D01*
X6543Y-223607D01*
X6399Y-223796D01*
X6388Y-223807D01*
X6343Y-223862D01*
X6277Y-223940D01*
X6177Y-224051D01*
X6044Y-224184D01*
X5877Y-224362D01*
X5677Y-224551D01*
X5433Y-224784D01*
X5422Y-224795D01*
X5400Y-224806D01*
X5367Y-224839D01*
X5322Y-224883D01*
X5200Y-224995D01*
X5056Y-225128D01*
X4911Y-225272D01*
X4767Y-225416D01*
X4634Y-225538D01*
X4590Y-225594D01*
X4545Y-225638D01*
X4534Y-225649D01*
X4512Y-225672D01*
X4478Y-225716D01*
X4434Y-225772D01*
X4334Y-225894D01*
X4245Y-226038D01*
X7176D01*
Y-227403D01*
X2014D01*
Y-227392D01*
Y-227370D01*
X2025Y-227325D01*
X2036Y-227270D01*
X2048Y-227203D01*
X2059Y-227126D01*
X2103Y-226926D01*
X2170Y-226704D01*
X2259Y-226460D01*
X2369Y-226193D01*
X2514Y-225938D01*
Y-225927D01*
X2536Y-225905D01*
X2558Y-225860D01*
X2603Y-225816D01*
X2647Y-225738D01*
X2714Y-225660D01*
X2791Y-225561D01*
X2880Y-225450D01*
X2980Y-225316D01*
X3102Y-225183D01*
X3235Y-225028D01*
X3391Y-224861D01*
X3557Y-224695D01*
X3746Y-224506D01*
X3946Y-224306D01*
X4168Y-224095D01*
X4179Y-224084D01*
X4212Y-224051D01*
X4257Y-224007D01*
X4323Y-223940D01*
X4412Y-223874D01*
X4501Y-223785D01*
X4701Y-223585D01*
X4900Y-223374D01*
X5100Y-223163D01*
X5189Y-223074D01*
X5278Y-222974D01*
X5344Y-222897D01*
X5389Y-222830D01*
X5400Y-222808D01*
X5433Y-222752D01*
X5489Y-222664D01*
X5544Y-222542D01*
X5600Y-222408D01*
X5655Y-222253D01*
X5688Y-222097D01*
X5699Y-221931D01*
Y-221920D01*
Y-221909D01*
Y-221853D01*
X5688Y-221753D01*
X5666Y-221642D01*
X5633Y-221520D01*
X5588Y-221398D01*
X5522Y-221276D01*
X5433Y-221165D01*
X5422Y-221154D01*
X5389Y-221121D01*
X5322Y-221076D01*
X5244Y-221032D01*
X5133Y-220987D01*
X5011Y-220943D01*
X4867Y-220910D01*
X4701Y-220899D01*
X4623D01*
X4534Y-220910D01*
X4434Y-220932D01*
X4312Y-220965D01*
X4190Y-221021D01*
X4068Y-221087D01*
X3957Y-221176D01*
X3946Y-221187D01*
X3912Y-221232D01*
X3868Y-221298D01*
X3824Y-221398D01*
X3768Y-221520D01*
X3724Y-221687D01*
X3679Y-221875D01*
X3657Y-222097D01*
X2192Y-221953D01*
Y-221942D01*
X2203Y-221898D01*
Y-221842D01*
X2225Y-221753D01*
X2236Y-221653D01*
X2270Y-221542D01*
X2303Y-221420D01*
X2336Y-221276D01*
X2447Y-220999D01*
X2580Y-220710D01*
X2669Y-220566D01*
X2769Y-220432D01*
X2880Y-220322D01*
X3002Y-220210D01*
X3013Y-220199D01*
X3036Y-220188D01*
X3069Y-220166D01*
X3124Y-220122D01*
X3191Y-220088D01*
X3280Y-220044D01*
X3368Y-219988D01*
X3480Y-219944D01*
X3602Y-219889D01*
X3735Y-219844D01*
X4023Y-219755D01*
X4367Y-219700D01*
X4545Y-219689D01*
X4734Y-219678D01*
X4845D01*
X4922Y-219689D01*
D02*
G37*
G36*
X4515Y-165093D02*
X3038D01*
Y-159532D01*
X3027Y-159543D01*
X3005Y-159565D01*
X2961Y-159598D01*
X2894Y-159654D01*
X2817Y-159720D01*
X2728Y-159787D01*
X2617Y-159865D01*
X2495Y-159954D01*
X2361Y-160042D01*
X2217Y-160131D01*
X2062Y-160231D01*
X1895Y-160320D01*
X1540Y-160486D01*
X1141Y-160642D01*
Y-159310D01*
X1152D01*
X1163Y-159299D01*
X1196Y-159288D01*
X1240Y-159277D01*
X1351Y-159221D01*
X1507Y-159154D01*
X1695Y-159066D01*
X1906Y-158944D01*
X2139Y-158788D01*
X2384Y-158611D01*
X2395Y-158600D01*
X2417Y-158588D01*
X2450Y-158555D01*
X2495Y-158511D01*
X2617Y-158400D01*
X2750Y-158255D01*
X2905Y-158078D01*
X3061Y-157856D01*
X3205Y-157623D01*
X3316Y-157367D01*
X4515D01*
Y-165093D01*
D02*
G37*
G36*
X-3510Y-157423D02*
X-3300Y-157434D01*
X-3066Y-157445D01*
X-2822Y-157478D01*
X-2589Y-157512D01*
X-2378Y-157567D01*
X-2367D01*
X-2345Y-157578D01*
X-2312Y-157589D01*
X-2267Y-157600D01*
X-2134Y-157656D01*
X-1979Y-157734D01*
X-1801Y-157834D01*
X-1601Y-157956D01*
X-1412Y-158100D01*
X-1224Y-158278D01*
X-1213D01*
X-1202Y-158300D01*
X-1146Y-158366D01*
X-1057Y-158477D01*
X-957Y-158622D01*
X-835Y-158799D01*
X-713Y-159010D01*
X-591Y-159254D01*
X-491Y-159521D01*
Y-159532D01*
X-480Y-159554D01*
X-469Y-159598D01*
X-447Y-159654D01*
X-436Y-159720D01*
X-413Y-159809D01*
X-391Y-159909D01*
X-358Y-160020D01*
X-336Y-160142D01*
X-314Y-160287D01*
X-291Y-160431D01*
X-280Y-160597D01*
X-247Y-160942D01*
X-236Y-161330D01*
Y-161341D01*
Y-161374D01*
Y-161419D01*
Y-161485D01*
X-247Y-161574D01*
Y-161663D01*
X-258Y-161774D01*
X-269Y-161896D01*
X-291Y-162151D01*
X-336Y-162418D01*
X-402Y-162695D01*
X-480Y-162962D01*
Y-162973D01*
X-491Y-162995D01*
X-513Y-163039D01*
X-536Y-163106D01*
X-558Y-163173D01*
X-602Y-163250D01*
X-691Y-163450D01*
X-802Y-163661D01*
X-946Y-163894D01*
X-1113Y-164116D01*
X-1302Y-164327D01*
X-1324Y-164349D01*
X-1379Y-164394D01*
X-1468Y-164460D01*
X-1590Y-164549D01*
X-1745Y-164649D01*
X-1923Y-164749D01*
X-2145Y-164849D01*
X-2389Y-164937D01*
X-2400D01*
X-2412Y-164949D01*
X-2445D01*
X-2478Y-164960D01*
X-2600Y-164982D01*
X-2756Y-165015D01*
X-2944Y-165048D01*
X-3177Y-165071D01*
X-3455Y-165082D01*
X-3755Y-165093D01*
X-6663D01*
Y-157412D01*
X-3599D01*
X-3510Y-157423D01*
D02*
G37*
G36*
X52443Y-25623D02*
X52540D01*
X52651Y-25637D01*
X52901Y-25693D01*
X53178Y-25762D01*
X53484Y-25873D01*
X53789Y-26026D01*
X53927Y-26123D01*
X54066Y-26233D01*
X54080D01*
X54094Y-26261D01*
X54135Y-26303D01*
X54177Y-26344D01*
X54246Y-26414D01*
X54302Y-26483D01*
X54454Y-26677D01*
X54607Y-26941D01*
X54759Y-27246D01*
X54898Y-27593D01*
X54995Y-28009D01*
X53220Y-28203D01*
Y-28175D01*
X53206Y-28120D01*
X53178Y-28022D01*
X53151Y-27898D01*
X53109Y-27773D01*
X53040Y-27634D01*
X52970Y-27509D01*
X52873Y-27398D01*
X52859Y-27385D01*
X52818Y-27357D01*
X52762Y-27315D01*
X52679Y-27260D01*
X52582Y-27218D01*
X52457Y-27177D01*
X52305Y-27149D01*
X52152Y-27135D01*
X52124D01*
X52055Y-27149D01*
X51944Y-27163D01*
X51805Y-27204D01*
X51653Y-27260D01*
X51486Y-27357D01*
X51320Y-27482D01*
X51167Y-27662D01*
X51154Y-27690D01*
X51126Y-27717D01*
X51098Y-27773D01*
X51070Y-27828D01*
X51029Y-27912D01*
X51001Y-28009D01*
X50959Y-28133D01*
X50904Y-28272D01*
X50862Y-28425D01*
X50821Y-28605D01*
X50779Y-28799D01*
X50738Y-29021D01*
X50710Y-29271D01*
X50682Y-29548D01*
X50654Y-29839D01*
X50668Y-29825D01*
X50682Y-29798D01*
X50724Y-29770D01*
X50779Y-29715D01*
X50848Y-29645D01*
X50932Y-29576D01*
X51126Y-29423D01*
X51375Y-29285D01*
X51667Y-29146D01*
X51833Y-29090D01*
X52000Y-29063D01*
X52180Y-29035D01*
X52374Y-29021D01*
X52485D01*
X52568Y-29035D01*
X52665Y-29049D01*
X52776Y-29063D01*
X52915Y-29090D01*
X53053Y-29132D01*
X53359Y-29243D01*
X53525Y-29312D01*
X53692Y-29395D01*
X53858Y-29493D01*
X54024Y-29617D01*
X54191Y-29756D01*
X54343Y-29909D01*
X54357Y-29922D01*
X54385Y-29950D01*
X54426Y-29992D01*
X54468Y-30061D01*
X54538Y-30158D01*
X54607Y-30255D01*
X54676Y-30380D01*
X54759Y-30519D01*
X54843Y-30671D01*
X54912Y-30852D01*
X54981Y-31032D01*
X55051Y-31240D01*
X55092Y-31448D01*
X55134Y-31684D01*
X55161Y-31920D01*
X55175Y-32183D01*
Y-32197D01*
Y-32252D01*
Y-32322D01*
X55161Y-32433D01*
X55148Y-32557D01*
X55134Y-32696D01*
X55106Y-32863D01*
X55065Y-33029D01*
X54967Y-33417D01*
X54898Y-33612D01*
X54801Y-33806D01*
X54704Y-34000D01*
X54593Y-34194D01*
X54454Y-34388D01*
X54302Y-34555D01*
X54288Y-34568D01*
X54260Y-34596D01*
X54219Y-34638D01*
X54149Y-34693D01*
X54066Y-34763D01*
X53955Y-34832D01*
X53844Y-34915D01*
X53705Y-34998D01*
X53553Y-35082D01*
X53386Y-35165D01*
X53206Y-35234D01*
X52998Y-35303D01*
X52790Y-35359D01*
X52568Y-35401D01*
X52332Y-35428D01*
X52083Y-35442D01*
X52013D01*
X51944Y-35428D01*
X51847D01*
X51722Y-35401D01*
X51570Y-35387D01*
X51417Y-35345D01*
X51237Y-35303D01*
X51056Y-35248D01*
X50862Y-35165D01*
X50654Y-35082D01*
X50460Y-34971D01*
X50252Y-34846D01*
X50058Y-34693D01*
X49864Y-34513D01*
X49683Y-34319D01*
X49670Y-34305D01*
X49642Y-34263D01*
X49600Y-34194D01*
X49545Y-34097D01*
X49462Y-33972D01*
X49392Y-33819D01*
X49309Y-33639D01*
X49226Y-33431D01*
X49129Y-33182D01*
X49046Y-32918D01*
X48976Y-32613D01*
X48907Y-32266D01*
X48837Y-31906D01*
X48796Y-31504D01*
X48768Y-31074D01*
X48754Y-30602D01*
Y-30588D01*
Y-30574D01*
Y-30533D01*
Y-30491D01*
Y-30352D01*
X48768Y-30172D01*
X48782Y-29950D01*
X48810Y-29701D01*
X48837Y-29423D01*
X48879Y-29132D01*
X48921Y-28827D01*
X48990Y-28508D01*
X49073Y-28189D01*
X49170Y-27870D01*
X49281Y-27579D01*
X49406Y-27287D01*
X49559Y-27024D01*
X49725Y-26788D01*
X49739Y-26774D01*
X49767Y-26733D01*
X49822Y-26677D01*
X49905Y-26608D01*
X50002Y-26511D01*
X50113Y-26414D01*
X50252Y-26303D01*
X50405Y-26192D01*
X50585Y-26095D01*
X50765Y-25984D01*
X50987Y-25887D01*
X51209Y-25790D01*
X51445Y-25720D01*
X51708Y-25665D01*
X51972Y-25623D01*
X52263Y-25609D01*
X52374D01*
X52443Y-25623D01*
D02*
G37*
G36*
X47104Y-31753D02*
Y-31767D01*
Y-31809D01*
Y-31864D01*
Y-31947D01*
Y-32044D01*
X47090Y-32169D01*
X47076Y-32433D01*
X47049Y-32724D01*
X47007Y-33029D01*
X46951Y-33334D01*
X46882Y-33598D01*
Y-33612D01*
X46868Y-33639D01*
X46854Y-33681D01*
X46827Y-33736D01*
X46757Y-33889D01*
X46646Y-34083D01*
X46508Y-34291D01*
X46327Y-34513D01*
X46119Y-34735D01*
X45856Y-34943D01*
X45842D01*
X45828Y-34971D01*
X45786Y-34985D01*
X45717Y-35026D01*
X45648Y-35054D01*
X45565Y-35095D01*
X45454Y-35151D01*
X45343Y-35192D01*
X45204Y-35234D01*
X45065Y-35290D01*
X44732Y-35359D01*
X44344Y-35414D01*
X43914Y-35442D01*
X43776D01*
X43678Y-35428D01*
X43554Y-35414D01*
X43429Y-35401D01*
X43276Y-35373D01*
X43110Y-35345D01*
X42749Y-35248D01*
X42569Y-35179D01*
X42389Y-35109D01*
X42208Y-35012D01*
X42042Y-34915D01*
X41876Y-34790D01*
X41723Y-34652D01*
X41709Y-34638D01*
X41695Y-34610D01*
X41654Y-34568D01*
X41598Y-34499D01*
X41543Y-34416D01*
X41487Y-34319D01*
X41418Y-34194D01*
X41349Y-34069D01*
X41265Y-33903D01*
X41196Y-33736D01*
X41141Y-33542D01*
X41085Y-33334D01*
X41030Y-33112D01*
X40988Y-32863D01*
X40974Y-32599D01*
X40960Y-32322D01*
X42805Y-32114D01*
Y-32128D01*
Y-32155D01*
Y-32197D01*
X42819Y-32252D01*
Y-32391D01*
X42846Y-32571D01*
X42874Y-32766D01*
X42916Y-32960D01*
X42971Y-33126D01*
X43041Y-33279D01*
X43054Y-33306D01*
X43096Y-33362D01*
X43165Y-33445D01*
X43276Y-33528D01*
X43401Y-33625D01*
X43568Y-33709D01*
X43762Y-33764D01*
X43984Y-33792D01*
X44095D01*
X44205Y-33778D01*
X44330Y-33750D01*
X44483Y-33709D01*
X44635Y-33639D01*
X44774Y-33556D01*
X44885Y-33431D01*
X44899Y-33417D01*
X44927Y-33348D01*
X44968Y-33251D01*
X45024Y-33098D01*
X45051Y-33001D01*
X45079Y-32890D01*
X45093Y-32766D01*
X45121Y-32627D01*
X45135Y-32460D01*
X45149Y-32294D01*
X45162Y-32100D01*
Y-31892D01*
Y-25665D01*
X47104D01*
Y-31753D01*
D02*
G37*
G36*
X53816Y-157515D02*
X53938Y-157527D01*
X54071Y-157549D01*
X54226Y-157571D01*
X54393Y-157604D01*
X54571Y-157649D01*
X54759Y-157704D01*
X54948Y-157771D01*
X55148Y-157859D01*
X55336Y-157948D01*
X55514Y-158059D01*
X55703Y-158192D01*
X55869Y-158337D01*
X55880D01*
X55891Y-158359D01*
X55925Y-158392D01*
X55958Y-158426D01*
X56002Y-158481D01*
X56047Y-158548D01*
X56169Y-158703D01*
X56291Y-158903D01*
X56424Y-159147D01*
X56546Y-159424D01*
X56657Y-159746D01*
X55126Y-160113D01*
Y-160102D01*
X55114Y-160091D01*
Y-160057D01*
X55092Y-160013D01*
X55059Y-159913D01*
X55003Y-159780D01*
X54926Y-159624D01*
X54826Y-159469D01*
X54693Y-159313D01*
X54548Y-159180D01*
X54526Y-159169D01*
X54471Y-159125D01*
X54382Y-159069D01*
X54260Y-159003D01*
X54104Y-158936D01*
X53927Y-158881D01*
X53727Y-158836D01*
X53505Y-158825D01*
X53427D01*
X53361Y-158836D01*
X53294Y-158847D01*
X53205Y-158858D01*
X53017Y-158903D01*
X52795Y-158981D01*
X52561Y-159092D01*
X52439Y-159158D01*
X52328Y-159236D01*
X52217Y-159336D01*
X52118Y-159447D01*
Y-159458D01*
X52095Y-159480D01*
X52073Y-159513D01*
X52040Y-159569D01*
X51995Y-159635D01*
X51951Y-159713D01*
X51907Y-159813D01*
X51862Y-159924D01*
X51807Y-160057D01*
X51762Y-160201D01*
X51718Y-160368D01*
X51673Y-160546D01*
X51640Y-160745D01*
X51618Y-160956D01*
X51607Y-161189D01*
X51596Y-161445D01*
Y-161456D01*
Y-161511D01*
Y-161589D01*
X51607Y-161678D01*
Y-161800D01*
X51629Y-161944D01*
X51640Y-162089D01*
X51662Y-162255D01*
X51729Y-162599D01*
X51818Y-162943D01*
X51873Y-163110D01*
X51951Y-163265D01*
X52029Y-163409D01*
X52118Y-163531D01*
X52129Y-163542D01*
X52140Y-163554D01*
X52173Y-163587D01*
X52217Y-163631D01*
X52328Y-163720D01*
X52484Y-163831D01*
X52673Y-163953D01*
X52906Y-164042D01*
X53172Y-164120D01*
X53316Y-164131D01*
X53472Y-164142D01*
X53527D01*
X53572Y-164131D01*
X53694Y-164120D01*
X53838Y-164097D01*
X53993Y-164042D01*
X54171Y-163975D01*
X54349Y-163887D01*
X54526Y-163753D01*
X54548Y-163731D01*
X54604Y-163676D01*
X54682Y-163587D01*
X54770Y-163454D01*
X54881Y-163276D01*
X54981Y-163065D01*
X55081Y-162810D01*
X55170Y-162510D01*
X56680Y-162976D01*
Y-162988D01*
X56668Y-163032D01*
X56646Y-163099D01*
X56613Y-163187D01*
X56568Y-163287D01*
X56524Y-163409D01*
X56469Y-163542D01*
X56402Y-163687D01*
X56247Y-163986D01*
X56047Y-164297D01*
X55803Y-164597D01*
X55669Y-164730D01*
X55525Y-164852D01*
X55514Y-164863D01*
X55492Y-164874D01*
X55448Y-164908D01*
X55381Y-164952D01*
X55303Y-164997D01*
X55203Y-165041D01*
X55092Y-165096D01*
X54970Y-165152D01*
X54826Y-165219D01*
X54671Y-165274D01*
X54504Y-165319D01*
X54326Y-165363D01*
X54138Y-165407D01*
X53927Y-165441D01*
X53716Y-165452D01*
X53483Y-165463D01*
X53416D01*
X53338Y-165452D01*
X53228Y-165441D01*
X53105Y-165429D01*
X52950Y-165407D01*
X52783Y-165374D01*
X52595Y-165330D01*
X52406Y-165274D01*
X52206Y-165208D01*
X51995Y-165119D01*
X51785Y-165019D01*
X51574Y-164908D01*
X51363Y-164764D01*
X51163Y-164608D01*
X50974Y-164419D01*
X50963Y-164408D01*
X50930Y-164375D01*
X50885Y-164308D01*
X50819Y-164231D01*
X50752Y-164120D01*
X50663Y-163998D01*
X50575Y-163842D01*
X50486Y-163665D01*
X50397Y-163476D01*
X50308Y-163265D01*
X50219Y-163021D01*
X50153Y-162766D01*
X50086Y-162499D01*
X50042Y-162199D01*
X50009Y-161889D01*
X49998Y-161556D01*
Y-161545D01*
Y-161534D01*
Y-161467D01*
X50009Y-161367D01*
Y-161234D01*
X50031Y-161078D01*
X50053Y-160890D01*
X50075Y-160690D01*
X50120Y-160457D01*
X50175Y-160224D01*
X50242Y-159979D01*
X50319Y-159735D01*
X50419Y-159480D01*
X50530Y-159236D01*
X50663Y-159003D01*
X50808Y-158781D01*
X50985Y-158570D01*
X50996Y-158559D01*
X51030Y-158525D01*
X51085Y-158470D01*
X51163Y-158403D01*
X51263Y-158326D01*
X51385Y-158237D01*
X51518Y-158137D01*
X51685Y-158037D01*
X51862Y-157937D01*
X52051Y-157837D01*
X52273Y-157748D01*
X52495Y-157671D01*
X52750Y-157604D01*
X53005Y-157549D01*
X53294Y-157515D01*
X53583Y-157504D01*
X53716D01*
X53816Y-157515D01*
D02*
G37*
G36*
X60287Y-157615D02*
X60387Y-157626D01*
X60487Y-157638D01*
X60609Y-157660D01*
X60731Y-157693D01*
X61009Y-157771D01*
X61153Y-157826D01*
X61308Y-157904D01*
X61452Y-157982D01*
X61586Y-158070D01*
X61730Y-158181D01*
X61852Y-158303D01*
X61863Y-158315D01*
X61874Y-158326D01*
X61908Y-158359D01*
X61941Y-158403D01*
X62030Y-158514D01*
X62130Y-158670D01*
X62229Y-158858D01*
X62307Y-159080D01*
X62374Y-159325D01*
X62385Y-159447D01*
X62396Y-159580D01*
Y-159591D01*
Y-159624D01*
X62385Y-159680D01*
X62374Y-159746D01*
X62363Y-159835D01*
X62340Y-159935D01*
X62307Y-160046D01*
X62263Y-160168D01*
X62196Y-160290D01*
X62130Y-160424D01*
X62041Y-160557D01*
X61930Y-160690D01*
X61796Y-160823D01*
X61652Y-160956D01*
X61486Y-161078D01*
X61286Y-161201D01*
X61297D01*
X61319Y-161212D01*
X61353D01*
X61397Y-161234D01*
X61519Y-161267D01*
X61663Y-161334D01*
X61830Y-161423D01*
X62007Y-161534D01*
X62185Y-161678D01*
X62340Y-161844D01*
X62363Y-161866D01*
X62407Y-161933D01*
X62463Y-162033D01*
X62540Y-162177D01*
X62618Y-162344D01*
X62673Y-162555D01*
X62718Y-162777D01*
X62740Y-163032D01*
Y-163043D01*
Y-163076D01*
Y-163132D01*
X62729Y-163199D01*
X62718Y-163287D01*
X62696Y-163387D01*
X62673Y-163509D01*
X62651Y-163631D01*
X62562Y-163898D01*
X62496Y-164042D01*
X62429Y-164197D01*
X62340Y-164342D01*
X62241Y-164486D01*
X62130Y-164630D01*
X61996Y-164764D01*
X61985Y-164775D01*
X61963Y-164797D01*
X61919Y-164830D01*
X61863Y-164874D01*
X61785Y-164930D01*
X61708Y-164986D01*
X61597Y-165052D01*
X61486Y-165119D01*
X61364Y-165185D01*
X61219Y-165252D01*
X61064Y-165307D01*
X60909Y-165363D01*
X60731Y-165407D01*
X60553Y-165441D01*
X60354Y-165463D01*
X60154Y-165474D01*
X60054D01*
X59976Y-165463D01*
X59887Y-165452D01*
X59788Y-165441D01*
X59676Y-165418D01*
X59543Y-165396D01*
X59277Y-165330D01*
X58988Y-165219D01*
X58833Y-165152D01*
X58700Y-165074D01*
X58555Y-164974D01*
X58422Y-164874D01*
X58411Y-164863D01*
X58389Y-164841D01*
X58356Y-164808D01*
X58311Y-164764D01*
X58256Y-164708D01*
X58200Y-164630D01*
X58134Y-164553D01*
X58067Y-164453D01*
X58000Y-164342D01*
X57923Y-164231D01*
X57801Y-163964D01*
X57701Y-163654D01*
X57656Y-163487D01*
X57634Y-163309D01*
X59055Y-163132D01*
Y-163143D01*
Y-163154D01*
X59066Y-163221D01*
X59088Y-163321D01*
X59121Y-163443D01*
X59177Y-163576D01*
X59233Y-163720D01*
X59321Y-163853D01*
X59421Y-163975D01*
X59432Y-163986D01*
X59477Y-164020D01*
X59543Y-164064D01*
X59621Y-164109D01*
X59732Y-164164D01*
X59854Y-164209D01*
X59987Y-164242D01*
X60143Y-164253D01*
X60165D01*
X60220Y-164242D01*
X60298Y-164231D01*
X60409Y-164209D01*
X60531Y-164164D01*
X60653Y-164109D01*
X60786Y-164020D01*
X60909Y-163909D01*
X60920Y-163898D01*
X60964Y-163842D01*
X61009Y-163764D01*
X61075Y-163665D01*
X61131Y-163531D01*
X61186Y-163365D01*
X61219Y-163176D01*
X61231Y-162965D01*
Y-162954D01*
Y-162943D01*
Y-162877D01*
X61219Y-162777D01*
X61197Y-162644D01*
X61153Y-162499D01*
X61097Y-162355D01*
X61020Y-162211D01*
X60920Y-162077D01*
X60909Y-162066D01*
X60864Y-162022D01*
X60798Y-161966D01*
X60720Y-161911D01*
X60609Y-161844D01*
X60487Y-161800D01*
X60354Y-161756D01*
X60198Y-161744D01*
X60087D01*
X60009Y-161756D01*
X59910Y-161767D01*
X59788Y-161789D01*
X59665Y-161822D01*
X59521Y-161855D01*
X59676Y-160668D01*
X59776D01*
X59887Y-160657D01*
X60021Y-160646D01*
X60165Y-160612D01*
X60320Y-160568D01*
X60465Y-160501D01*
X60598Y-160412D01*
X60609Y-160401D01*
X60653Y-160357D01*
X60698Y-160301D01*
X60764Y-160213D01*
X60820Y-160113D01*
X60875Y-159991D01*
X60909Y-159846D01*
X60920Y-159680D01*
Y-159658D01*
Y-159613D01*
X60909Y-159547D01*
X60886Y-159458D01*
X60864Y-159358D01*
X60820Y-159258D01*
X60764Y-159147D01*
X60687Y-159058D01*
X60676Y-159047D01*
X60642Y-159025D01*
X60598Y-158981D01*
X60520Y-158936D01*
X60431Y-158903D01*
X60331Y-158858D01*
X60198Y-158836D01*
X60065Y-158825D01*
X59998D01*
X59932Y-158836D01*
X59843Y-158858D01*
X59743Y-158892D01*
X59632Y-158936D01*
X59521Y-159003D01*
X59421Y-159092D01*
X59410Y-159103D01*
X59377Y-159136D01*
X59332Y-159202D01*
X59277Y-159291D01*
X59221Y-159391D01*
X59177Y-159524D01*
X59133Y-159680D01*
X59099Y-159857D01*
X57745Y-159635D01*
Y-159624D01*
X57756Y-159602D01*
Y-159569D01*
X57767Y-159513D01*
X57801Y-159391D01*
X57845Y-159225D01*
X57912Y-159047D01*
X57978Y-158858D01*
X58067Y-158681D01*
X58167Y-158514D01*
X58178Y-158492D01*
X58222Y-158448D01*
X58289Y-158370D01*
X58378Y-158270D01*
X58489Y-158170D01*
X58622Y-158059D01*
X58788Y-157948D01*
X58966Y-157848D01*
X58977D01*
X58988Y-157837D01*
X59055Y-157815D01*
X59166Y-157771D01*
X59299Y-157726D01*
X59466Y-157682D01*
X59665Y-157638D01*
X59876Y-157615D01*
X60109Y-157604D01*
X60209D01*
X60287Y-157615D01*
D02*
G37*
G36*
X-63733Y-200743D02*
X-66519D01*
X-66752Y-202053D01*
X-66741D01*
X-66730Y-202042D01*
X-66664Y-202009D01*
X-66564Y-201975D01*
X-66442Y-201920D01*
X-66286Y-201876D01*
X-66120Y-201842D01*
X-65931Y-201809D01*
X-65742Y-201798D01*
X-65642D01*
X-65576Y-201809D01*
X-65498Y-201820D01*
X-65398Y-201831D01*
X-65287Y-201853D01*
X-65165Y-201887D01*
X-64910Y-201975D01*
X-64766Y-202031D01*
X-64632Y-202098D01*
X-64488Y-202186D01*
X-64344Y-202286D01*
X-64211Y-202397D01*
X-64077Y-202519D01*
X-64066Y-202530D01*
X-64044Y-202553D01*
X-64011Y-202597D01*
X-63966Y-202653D01*
X-63922Y-202719D01*
X-63855Y-202808D01*
X-63800Y-202908D01*
X-63733Y-203019D01*
X-63667Y-203141D01*
X-63611Y-203285D01*
X-63545Y-203441D01*
X-63500Y-203596D01*
X-63456Y-203774D01*
X-63422Y-203962D01*
X-63400Y-204162D01*
X-63389Y-204373D01*
Y-204384D01*
Y-204417D01*
Y-204462D01*
X-63400Y-204528D01*
Y-204617D01*
X-63422Y-204717D01*
X-63433Y-204828D01*
X-63456Y-204939D01*
X-63522Y-205205D01*
X-63622Y-205494D01*
X-63689Y-205650D01*
X-63755Y-205794D01*
X-63844Y-205938D01*
X-63944Y-206082D01*
X-63955Y-206094D01*
X-63977Y-206127D01*
X-64022Y-206171D01*
X-64077Y-206238D01*
X-64155Y-206315D01*
X-64255Y-206404D01*
X-64366Y-206493D01*
X-64488Y-206582D01*
X-64632Y-206682D01*
X-64788Y-206771D01*
X-64954Y-206859D01*
X-65143Y-206937D01*
X-65343Y-207004D01*
X-65554Y-207048D01*
X-65787Y-207081D01*
X-66031Y-207092D01*
X-66131D01*
X-66209Y-207081D01*
X-66297Y-207070D01*
X-66408Y-207059D01*
X-66519Y-207048D01*
X-66652Y-207026D01*
X-66919Y-206959D01*
X-67219Y-206848D01*
X-67363Y-206793D01*
X-67507Y-206715D01*
X-67640Y-206626D01*
X-67774Y-206526D01*
X-67785Y-206515D01*
X-67807Y-206504D01*
X-67840Y-206471D01*
X-67884Y-206427D01*
X-67929Y-206360D01*
X-67996Y-206293D01*
X-68051Y-206216D01*
X-68118Y-206127D01*
X-68195Y-206016D01*
X-68262Y-205905D01*
X-68384Y-205638D01*
X-68495Y-205339D01*
X-68528Y-205172D01*
X-68562Y-204995D01*
X-67097Y-204839D01*
Y-204861D01*
X-67085Y-204917D01*
X-67063Y-205017D01*
X-67030Y-205128D01*
X-66986Y-205250D01*
X-66919Y-205383D01*
X-66830Y-205505D01*
X-66730Y-205627D01*
X-66719Y-205638D01*
X-66675Y-205672D01*
X-66608Y-205716D01*
X-66519Y-205772D01*
X-66419Y-205827D01*
X-66297Y-205872D01*
X-66153Y-205905D01*
X-66009Y-205916D01*
X-65986D01*
X-65931Y-205905D01*
X-65842Y-205894D01*
X-65731Y-205872D01*
X-65609Y-205827D01*
X-65476Y-205760D01*
X-65343Y-205661D01*
X-65221Y-205539D01*
X-65209Y-205516D01*
X-65165Y-205472D01*
X-65121Y-205383D01*
X-65054Y-205250D01*
X-64999Y-205095D01*
X-64943Y-204906D01*
X-64910Y-204673D01*
X-64899Y-204406D01*
Y-204395D01*
Y-204373D01*
Y-204340D01*
Y-204284D01*
X-64910Y-204162D01*
X-64943Y-204007D01*
X-64976Y-203829D01*
X-65032Y-203652D01*
X-65110Y-203485D01*
X-65221Y-203341D01*
X-65232Y-203330D01*
X-65276Y-203285D01*
X-65354Y-203230D01*
X-65443Y-203152D01*
X-65565Y-203085D01*
X-65709Y-203030D01*
X-65876Y-202986D01*
X-66053Y-202974D01*
X-66120D01*
X-66164Y-202986D01*
X-66275Y-203008D01*
X-66431Y-203041D01*
X-66608Y-203108D01*
X-66797Y-203208D01*
X-66897Y-203274D01*
X-66997Y-203352D01*
X-67097Y-203441D01*
X-67196Y-203541D01*
X-68384Y-203374D01*
X-67629Y-199367D01*
X-63733D01*
Y-200743D01*
D02*
G37*
G36*
X-72435Y-199278D02*
X-72313D01*
X-72191Y-199289D01*
X-72047D01*
X-71758Y-199323D01*
X-71459Y-199356D01*
X-71181Y-199411D01*
X-71059Y-199445D01*
X-70948Y-199478D01*
X-70937D01*
X-70926Y-199489D01*
X-70859Y-199522D01*
X-70759Y-199578D01*
X-70626Y-199645D01*
X-70482Y-199755D01*
X-70338Y-199878D01*
X-70193Y-200033D01*
X-70060Y-200222D01*
Y-200233D01*
X-70049Y-200244D01*
X-70027Y-200277D01*
X-70005Y-200310D01*
X-69949Y-200422D01*
X-69882Y-200566D01*
X-69827Y-200743D01*
X-69771Y-200943D01*
X-69727Y-201176D01*
X-69716Y-201420D01*
Y-201432D01*
Y-201454D01*
Y-201509D01*
X-69727Y-201565D01*
Y-201642D01*
X-69738Y-201720D01*
X-69783Y-201920D01*
X-69838Y-202153D01*
X-69927Y-202386D01*
X-70060Y-202630D01*
X-70138Y-202741D01*
X-70227Y-202852D01*
X-70238Y-202864D01*
X-70249Y-202875D01*
X-70282Y-202908D01*
X-70326Y-202941D01*
X-70371Y-202986D01*
X-70437Y-203041D01*
X-70515Y-203097D01*
X-70604Y-203152D01*
X-70704Y-203219D01*
X-70826Y-203274D01*
X-70948Y-203330D01*
X-71081Y-203385D01*
X-71237Y-203441D01*
X-71392Y-203485D01*
X-71559Y-203529D01*
X-71747Y-203563D01*
X-71736D01*
X-71725Y-203574D01*
X-71659Y-203618D01*
X-71570Y-203674D01*
X-71459Y-203752D01*
X-71325Y-203851D01*
X-71192Y-203951D01*
X-71048Y-204073D01*
X-70926Y-204207D01*
X-70915Y-204218D01*
X-70859Y-204273D01*
X-70793Y-204362D01*
X-70693Y-204495D01*
X-70560Y-204662D01*
X-70493Y-204773D01*
X-70415Y-204884D01*
X-70326Y-205006D01*
X-70238Y-205139D01*
X-70138Y-205294D01*
X-70038Y-205450D01*
X-69094Y-206948D01*
X-70959D01*
X-72069Y-205283D01*
X-72080Y-205272D01*
X-72091Y-205239D01*
X-72125Y-205194D01*
X-72169Y-205139D01*
X-72214Y-205072D01*
X-72269Y-204984D01*
X-72391Y-204806D01*
X-72535Y-204606D01*
X-72669Y-204429D01*
X-72791Y-204262D01*
X-72846Y-204207D01*
X-72891Y-204151D01*
X-72902Y-204140D01*
X-72924Y-204118D01*
X-72968Y-204073D01*
X-73024Y-204018D01*
X-73102Y-203974D01*
X-73179Y-203918D01*
X-73268Y-203874D01*
X-73357Y-203829D01*
X-73368D01*
X-73401Y-203818D01*
X-73457Y-203796D01*
X-73545Y-203785D01*
X-73656Y-203763D01*
X-73790Y-203752D01*
X-73945Y-203740D01*
X-74444D01*
Y-206948D01*
X-75999D01*
Y-199267D01*
X-72535D01*
X-72435Y-199278D01*
D02*
G37*
G36*
X109845Y-216291D02*
X106382D01*
X106282Y-216280D01*
X106160D01*
X106038Y-216269D01*
X105893D01*
X105605Y-216235D01*
X105305Y-216202D01*
X105028Y-216147D01*
X104906Y-216113D01*
X104795Y-216080D01*
X104783D01*
X104772Y-216069D01*
X104706Y-216035D01*
X104606Y-215980D01*
X104473Y-215913D01*
X104328Y-215802D01*
X104184Y-215680D01*
X104040Y-215525D01*
X103906Y-215336D01*
Y-215325D01*
X103895Y-215314D01*
X103873Y-215281D01*
X103851Y-215247D01*
X103795Y-215136D01*
X103729Y-214992D01*
X103673Y-214814D01*
X103618Y-214615D01*
X103574Y-214382D01*
X103562Y-214137D01*
Y-214126D01*
Y-214104D01*
Y-214049D01*
X103574Y-213993D01*
Y-213915D01*
X103585Y-213838D01*
X103629Y-213638D01*
X103685Y-213405D01*
X103773Y-213172D01*
X103906Y-212928D01*
X103984Y-212817D01*
X104073Y-212706D01*
X104084Y-212694D01*
X104095Y-212683D01*
X104129Y-212650D01*
X104173Y-212617D01*
X104217Y-212572D01*
X104284Y-212517D01*
X104362Y-212461D01*
X104450Y-212406D01*
X104550Y-212339D01*
X104672Y-212284D01*
X104795Y-212228D01*
X104928Y-212173D01*
X105083Y-212117D01*
X105238Y-212073D01*
X105405Y-212029D01*
X105594Y-211995D01*
X105583D01*
X105571Y-211984D01*
X105505Y-211940D01*
X105416Y-211884D01*
X105305Y-211807D01*
X105172Y-211707D01*
X105039Y-211607D01*
X104894Y-211485D01*
X104772Y-211351D01*
X104761Y-211340D01*
X104706Y-211285D01*
X104639Y-211196D01*
X104539Y-211063D01*
X104406Y-210896D01*
X104339Y-210785D01*
X104262Y-210674D01*
X104173Y-210552D01*
X104084Y-210419D01*
X103984Y-210264D01*
X103884Y-210108D01*
X102941Y-208610D01*
X104806D01*
X105915Y-210275D01*
X105927Y-210286D01*
X105938Y-210319D01*
X105971Y-210364D01*
X106015Y-210419D01*
X106060Y-210486D01*
X106115Y-210574D01*
X106237Y-210752D01*
X106382Y-210952D01*
X106515Y-211129D01*
X106637Y-211296D01*
X106692Y-211351D01*
X106737Y-211407D01*
X106748Y-211418D01*
X106770Y-211440D01*
X106815Y-211485D01*
X106870Y-211540D01*
X106948Y-211584D01*
X107025Y-211640D01*
X107114Y-211684D01*
X107203Y-211729D01*
X107214D01*
X107247Y-211740D01*
X107303Y-211762D01*
X107392Y-211773D01*
X107503Y-211795D01*
X107636Y-211807D01*
X107791Y-211818D01*
X108291D01*
Y-208610D01*
X109845D01*
Y-216291D01*
D02*
G37*
G36*
X95426Y-208632D02*
Y-208676D01*
X95415Y-208765D01*
Y-208887D01*
X95404Y-209032D01*
X95382Y-209198D01*
X95360Y-209398D01*
X95326Y-209609D01*
X95293Y-209842D01*
X95249Y-210097D01*
X95193Y-210364D01*
X95138Y-210652D01*
X95060Y-210941D01*
X94982Y-211240D01*
X94882Y-211540D01*
X94771Y-211851D01*
X94760Y-211873D01*
X94738Y-211929D01*
X94705Y-212017D01*
X94660Y-212128D01*
X94594Y-212273D01*
X94516Y-212450D01*
X94427Y-212639D01*
X94327Y-212850D01*
X94216Y-213072D01*
X94094Y-213305D01*
X93961Y-213560D01*
X93806Y-213804D01*
X93484Y-214326D01*
X93118Y-214826D01*
X96459D01*
Y-216191D01*
X91419D01*
Y-215125D01*
X91430Y-215114D01*
X91453Y-215092D01*
X91486Y-215059D01*
X91530Y-215014D01*
X91586Y-214948D01*
X91652Y-214870D01*
X91730Y-214781D01*
X91819Y-214670D01*
X91908Y-214548D01*
X92008Y-214415D01*
X92119Y-214271D01*
X92229Y-214115D01*
X92340Y-213938D01*
X92451Y-213760D01*
X92574Y-213560D01*
X92696Y-213349D01*
X92707Y-213338D01*
X92729Y-213294D01*
X92762Y-213238D01*
X92807Y-213150D01*
X92851Y-213050D01*
X92918Y-212917D01*
X92984Y-212772D01*
X93062Y-212617D01*
X93140Y-212439D01*
X93217Y-212250D01*
X93306Y-212051D01*
X93384Y-211840D01*
X93539Y-211385D01*
X93684Y-210907D01*
Y-210896D01*
X93695Y-210852D01*
X93717Y-210785D01*
X93739Y-210685D01*
X93761Y-210574D01*
X93784Y-210452D01*
X93817Y-210297D01*
X93850Y-210142D01*
X93883Y-209964D01*
X93906Y-209786D01*
X93961Y-209398D01*
X93994Y-208998D01*
X94005Y-208610D01*
X95426D01*
Y-208632D01*
D02*
G37*
G36*
X100144Y-214171D02*
X100155Y-214160D01*
X100177Y-214137D01*
X100221Y-214104D01*
X100288Y-214049D01*
X100366Y-213982D01*
X100454Y-213915D01*
X100565Y-213838D01*
X100688Y-213749D01*
X100821Y-213660D01*
X100965Y-213571D01*
X101120Y-213472D01*
X101287Y-213383D01*
X101642Y-213216D01*
X102042Y-213061D01*
Y-214393D01*
X102031D01*
X102020Y-214404D01*
X101986Y-214415D01*
X101942Y-214426D01*
X101831Y-214482D01*
X101675Y-214548D01*
X101487Y-214637D01*
X101276Y-214759D01*
X101043Y-214914D01*
X100799Y-215092D01*
X100787Y-215103D01*
X100765Y-215114D01*
X100732Y-215147D01*
X100688Y-215192D01*
X100565Y-215303D01*
X100432Y-215447D01*
X100277Y-215625D01*
X100121Y-215847D01*
X99977Y-216080D01*
X99866Y-216335D01*
X98667D01*
Y-208610D01*
X100144D01*
Y-214171D01*
D02*
G37*
G36*
X139002Y-201200D02*
Y-201213D01*
Y-201255D01*
Y-201311D01*
Y-201394D01*
Y-201491D01*
X138988Y-201616D01*
X138974Y-201879D01*
X138946Y-202170D01*
X138904Y-202475D01*
X138849Y-202781D01*
X138780Y-203044D01*
Y-203058D01*
X138766Y-203086D01*
X138752Y-203127D01*
X138724Y-203183D01*
X138655Y-203335D01*
X138544Y-203529D01*
X138405Y-203738D01*
X138225Y-203959D01*
X138017Y-204181D01*
X137753Y-204389D01*
X137739D01*
X137726Y-204417D01*
X137684Y-204431D01*
X137615Y-204473D01*
X137545Y-204500D01*
X137462Y-204542D01*
X137351Y-204597D01*
X137240Y-204639D01*
X137101Y-204681D01*
X136963Y-204736D01*
X136630Y-204805D01*
X136242Y-204861D01*
X135812Y-204889D01*
X135673D01*
X135576Y-204875D01*
X135451Y-204861D01*
X135326Y-204847D01*
X135174Y-204819D01*
X135007Y-204792D01*
X134647Y-204694D01*
X134466Y-204625D01*
X134286Y-204556D01*
X134106Y-204459D01*
X133940Y-204362D01*
X133773Y-204237D01*
X133621Y-204098D01*
X133607Y-204084D01*
X133593Y-204056D01*
X133551Y-204015D01*
X133496Y-203946D01*
X133440Y-203862D01*
X133385Y-203765D01*
X133315Y-203640D01*
X133246Y-203516D01*
X133163Y-203349D01*
X133094Y-203183D01*
X133038Y-202989D01*
X132983Y-202781D01*
X132927Y-202559D01*
X132886Y-202309D01*
X132872Y-202046D01*
X132858Y-201768D01*
X134702Y-201560D01*
Y-201574D01*
Y-201602D01*
Y-201643D01*
X134716Y-201699D01*
Y-201838D01*
X134744Y-202018D01*
X134772Y-202212D01*
X134813Y-202406D01*
X134869Y-202573D01*
X134938Y-202725D01*
X134952Y-202753D01*
X134993Y-202808D01*
X135063Y-202892D01*
X135174Y-202975D01*
X135299Y-203072D01*
X135465Y-203155D01*
X135659Y-203211D01*
X135881Y-203238D01*
X135992D01*
X136103Y-203224D01*
X136228Y-203197D01*
X136380Y-203155D01*
X136533Y-203086D01*
X136672Y-203002D01*
X136783Y-202878D01*
X136796Y-202864D01*
X136824Y-202794D01*
X136866Y-202697D01*
X136921Y-202545D01*
X136949Y-202448D01*
X136977Y-202337D01*
X136991Y-202212D01*
X137018Y-202073D01*
X137032Y-201907D01*
X137046Y-201740D01*
X137060Y-201546D01*
Y-201338D01*
Y-195111D01*
X139002D01*
Y-201200D01*
D02*
G37*
G36*
X146712Y-196956D02*
X143231D01*
X142940Y-198592D01*
X142954D01*
X142968Y-198578D01*
X143051Y-198537D01*
X143176Y-198495D01*
X143328Y-198426D01*
X143523Y-198370D01*
X143731Y-198329D01*
X143966Y-198287D01*
X144202Y-198273D01*
X144327D01*
X144410Y-198287D01*
X144507Y-198301D01*
X144632Y-198315D01*
X144771Y-198343D01*
X144923Y-198384D01*
X145242Y-198495D01*
X145422Y-198565D01*
X145589Y-198648D01*
X145769Y-198759D01*
X145949Y-198884D01*
X146116Y-199022D01*
X146282Y-199175D01*
X146296Y-199189D01*
X146324Y-199216D01*
X146366Y-199272D01*
X146421Y-199341D01*
X146476Y-199424D01*
X146560Y-199535D01*
X146629Y-199660D01*
X146712Y-199799D01*
X146796Y-199951D01*
X146865Y-200132D01*
X146948Y-200326D01*
X147003Y-200520D01*
X147059Y-200742D01*
X147101Y-200978D01*
X147128Y-201227D01*
X147142Y-201491D01*
Y-201505D01*
Y-201546D01*
Y-201602D01*
X147128Y-201685D01*
Y-201796D01*
X147101Y-201921D01*
X147087Y-202059D01*
X147059Y-202198D01*
X146976Y-202531D01*
X146851Y-202892D01*
X146768Y-203086D01*
X146685Y-203266D01*
X146574Y-203446D01*
X146449Y-203627D01*
X146435Y-203640D01*
X146407Y-203682D01*
X146352Y-203738D01*
X146282Y-203821D01*
X146185Y-203918D01*
X146060Y-204029D01*
X145922Y-204140D01*
X145769Y-204251D01*
X145589Y-204375D01*
X145395Y-204486D01*
X145187Y-204597D01*
X144951Y-204694D01*
X144701Y-204778D01*
X144438Y-204833D01*
X144147Y-204875D01*
X143841Y-204889D01*
X143717D01*
X143620Y-204875D01*
X143509Y-204861D01*
X143370Y-204847D01*
X143231Y-204833D01*
X143065Y-204805D01*
X142732Y-204722D01*
X142358Y-204583D01*
X142177Y-204514D01*
X141997Y-204417D01*
X141831Y-204306D01*
X141664Y-204181D01*
X141650Y-204167D01*
X141623Y-204154D01*
X141581Y-204112D01*
X141525Y-204056D01*
X141470Y-203973D01*
X141387Y-203890D01*
X141318Y-203793D01*
X141234Y-203682D01*
X141137Y-203543D01*
X141054Y-203405D01*
X140901Y-203072D01*
X140763Y-202697D01*
X140721Y-202489D01*
X140680Y-202267D01*
X142510Y-202073D01*
Y-202101D01*
X142524Y-202170D01*
X142552Y-202295D01*
X142593Y-202434D01*
X142649Y-202586D01*
X142732Y-202753D01*
X142843Y-202905D01*
X142968Y-203058D01*
X142982Y-203072D01*
X143037Y-203113D01*
X143120Y-203169D01*
X143231Y-203238D01*
X143356Y-203308D01*
X143509Y-203363D01*
X143689Y-203405D01*
X143869Y-203419D01*
X143897D01*
X143966Y-203405D01*
X144077Y-203391D01*
X144216Y-203363D01*
X144368Y-203308D01*
X144535Y-203224D01*
X144701Y-203100D01*
X144854Y-202947D01*
X144868Y-202919D01*
X144923Y-202864D01*
X144979Y-202753D01*
X145062Y-202586D01*
X145131Y-202392D01*
X145201Y-202157D01*
X145242Y-201865D01*
X145256Y-201532D01*
Y-201519D01*
Y-201491D01*
Y-201449D01*
Y-201380D01*
X145242Y-201227D01*
X145201Y-201033D01*
X145159Y-200811D01*
X145090Y-200589D01*
X144993Y-200381D01*
X144854Y-200201D01*
X144840Y-200187D01*
X144785Y-200132D01*
X144688Y-200062D01*
X144577Y-199965D01*
X144424Y-199882D01*
X144244Y-199813D01*
X144036Y-199757D01*
X143814Y-199743D01*
X143731D01*
X143675Y-199757D01*
X143536Y-199785D01*
X143342Y-199827D01*
X143120Y-199910D01*
X142885Y-200035D01*
X142760Y-200118D01*
X142635Y-200215D01*
X142510Y-200326D01*
X142385Y-200451D01*
X140901Y-200243D01*
X141845Y-195236D01*
X146712D01*
Y-196956D01*
D02*
G37*
G36*
X67223Y-208313D02*
X67345D01*
X67467Y-208324D01*
X67611D01*
X67900Y-208357D01*
X68200Y-208391D01*
X68477Y-208446D01*
X68599Y-208479D01*
X68710Y-208513D01*
X68721D01*
X68733Y-208524D01*
X68799Y-208557D01*
X68899Y-208613D01*
X69032Y-208679D01*
X69177Y-208790D01*
X69321Y-208912D01*
X69465Y-209068D01*
X69598Y-209256D01*
Y-209268D01*
X69609Y-209279D01*
X69632Y-209312D01*
X69654Y-209345D01*
X69709Y-209456D01*
X69776Y-209600D01*
X69831Y-209778D01*
X69887Y-209978D01*
X69931Y-210211D01*
X69942Y-210455D01*
Y-210466D01*
Y-210488D01*
Y-210544D01*
X69931Y-210599D01*
Y-210677D01*
X69920Y-210755D01*
X69876Y-210955D01*
X69820Y-211188D01*
X69731Y-211421D01*
X69598Y-211665D01*
X69521Y-211776D01*
X69432Y-211887D01*
X69421Y-211898D01*
X69410Y-211909D01*
X69376Y-211943D01*
X69332Y-211976D01*
X69288Y-212020D01*
X69221Y-212076D01*
X69143Y-212131D01*
X69054Y-212187D01*
X68955Y-212253D01*
X68833Y-212309D01*
X68710Y-212364D01*
X68577Y-212420D01*
X68422Y-212475D01*
X68266Y-212520D01*
X68100Y-212564D01*
X67911Y-212597D01*
X67922D01*
X67933Y-212609D01*
X68000Y-212653D01*
X68089Y-212708D01*
X68200Y-212786D01*
X68333Y-212886D01*
X68466Y-212986D01*
X68611Y-213108D01*
X68733Y-213241D01*
X68744Y-213252D01*
X68799Y-213308D01*
X68866Y-213397D01*
X68966Y-213530D01*
X69099Y-213696D01*
X69165Y-213807D01*
X69243Y-213918D01*
X69332Y-214040D01*
X69421Y-214174D01*
X69521Y-214329D01*
X69620Y-214484D01*
X70564Y-215983D01*
X68699D01*
X67589Y-214318D01*
X67578Y-214307D01*
X67567Y-214273D01*
X67534Y-214229D01*
X67489Y-214174D01*
X67445Y-214107D01*
X67389Y-214018D01*
X67267Y-213841D01*
X67123Y-213641D01*
X66990Y-213463D01*
X66868Y-213297D01*
X66812Y-213241D01*
X66768Y-213186D01*
X66757Y-213175D01*
X66735Y-213152D01*
X66690Y-213108D01*
X66635Y-213053D01*
X66557Y-213008D01*
X66479Y-212953D01*
X66391Y-212908D01*
X66302Y-212864D01*
X66291D01*
X66257Y-212853D01*
X66202Y-212831D01*
X66113Y-212819D01*
X66002Y-212797D01*
X65869Y-212786D01*
X65713Y-212775D01*
X65214D01*
Y-215983D01*
X63660D01*
Y-208302D01*
X67123D01*
X67223Y-208313D01*
D02*
G37*
G36*
X73727Y-208269D02*
X73827Y-208280D01*
X73927Y-208291D01*
X74049Y-208302D01*
X74172Y-208324D01*
X74449Y-208391D01*
X74738Y-208491D01*
X74871Y-208557D01*
X75015Y-208635D01*
X75137Y-208724D01*
X75259Y-208824D01*
X75270Y-208835D01*
X75281Y-208846D01*
X75315Y-208879D01*
X75359Y-208923D01*
X75403Y-208979D01*
X75448Y-209046D01*
X75570Y-209212D01*
X75681Y-209423D01*
X75770Y-209656D01*
X75848Y-209933D01*
X75859Y-210089D01*
X75870Y-210244D01*
Y-210255D01*
Y-210266D01*
Y-210333D01*
X75859Y-210433D01*
X75836Y-210566D01*
X75803Y-210710D01*
X75748Y-210866D01*
X75681Y-211032D01*
X75581Y-211199D01*
X75570Y-211221D01*
X75526Y-211265D01*
X75470Y-211343D01*
X75381Y-211432D01*
X75270Y-211543D01*
X75137Y-211643D01*
X74982Y-211743D01*
X74804Y-211831D01*
X74815D01*
X74837Y-211843D01*
X74871Y-211854D01*
X74915Y-211876D01*
X75026Y-211943D01*
X75170Y-212031D01*
X75326Y-212131D01*
X75492Y-212264D01*
X75648Y-212420D01*
X75781Y-212597D01*
X75792Y-212620D01*
X75836Y-212686D01*
X75892Y-212786D01*
X75947Y-212919D01*
X76014Y-213086D01*
X76058Y-213286D01*
X76103Y-213496D01*
X76114Y-213730D01*
Y-213741D01*
Y-213774D01*
Y-213829D01*
X76103Y-213907D01*
X76092Y-213996D01*
X76081Y-214107D01*
X76058Y-214218D01*
X76025Y-214340D01*
X75947Y-214618D01*
X75892Y-214762D01*
X75825Y-214906D01*
X75748Y-215050D01*
X75648Y-215195D01*
X75548Y-215328D01*
X75426Y-215461D01*
X75415Y-215472D01*
X75392Y-215494D01*
X75359Y-215528D01*
X75304Y-215561D01*
X75237Y-215616D01*
X75148Y-215672D01*
X75059Y-215728D01*
X74948Y-215794D01*
X74826Y-215861D01*
X74682Y-215916D01*
X74538Y-215972D01*
X74382Y-216027D01*
X74205Y-216061D01*
X74016Y-216094D01*
X73827Y-216116D01*
X73616Y-216127D01*
X73517D01*
X73439Y-216116D01*
X73350Y-216105D01*
X73250Y-216094D01*
X73139Y-216083D01*
X73006Y-216061D01*
X72729Y-215994D01*
X72440Y-215894D01*
X72296Y-215839D01*
X72151Y-215761D01*
X72007Y-215683D01*
X71874Y-215583D01*
X71863Y-215572D01*
X71841Y-215550D01*
X71796Y-215517D01*
X71741Y-215461D01*
X71685Y-215394D01*
X71618Y-215317D01*
X71541Y-215217D01*
X71463Y-215117D01*
X71385Y-214995D01*
X71308Y-214862D01*
X71241Y-214718D01*
X71186Y-214551D01*
X71130Y-214384D01*
X71086Y-214196D01*
X71063Y-214007D01*
X71052Y-213796D01*
Y-213785D01*
Y-213763D01*
Y-213730D01*
Y-213685D01*
X71063Y-213563D01*
X71086Y-213419D01*
X71130Y-213241D01*
X71175Y-213041D01*
X71252Y-212842D01*
X71352Y-212642D01*
Y-212631D01*
X71363Y-212620D01*
X71408Y-212553D01*
X71485Y-212464D01*
X71596Y-212342D01*
X71729Y-212209D01*
X71896Y-212076D01*
X72096Y-211954D01*
X72329Y-211831D01*
X72318D01*
X72307Y-211820D01*
X72240Y-211787D01*
X72140Y-211732D01*
X72018Y-211665D01*
X71874Y-211565D01*
X71741Y-211454D01*
X71607Y-211321D01*
X71496Y-211177D01*
X71485Y-211154D01*
X71452Y-211099D01*
X71419Y-211021D01*
X71374Y-210899D01*
X71319Y-210766D01*
X71286Y-210599D01*
X71252Y-210433D01*
X71241Y-210244D01*
Y-210233D01*
Y-210211D01*
Y-210166D01*
X71252Y-210100D01*
X71263Y-210033D01*
X71274Y-209944D01*
X71319Y-209745D01*
X71385Y-209523D01*
X71496Y-209279D01*
X71563Y-209168D01*
X71641Y-209046D01*
X71741Y-208934D01*
X71841Y-208824D01*
X71852Y-208812D01*
X71874Y-208801D01*
X71907Y-208768D01*
X71951Y-208735D01*
X72018Y-208690D01*
X72085Y-208646D01*
X72174Y-208590D01*
X72284Y-208535D01*
X72396Y-208491D01*
X72518Y-208435D01*
X72662Y-208391D01*
X72817Y-208346D01*
X72984Y-208313D01*
X73161Y-208280D01*
X73350Y-208269D01*
X73550Y-208257D01*
X73661D01*
X73727Y-208269D01*
D02*
G37*
G36*
X28568Y-158101D02*
X27269D01*
Y-155836D01*
X20886D01*
Y-154282D01*
X27269D01*
Y-152007D01*
X28568D01*
Y-158101D01*
D02*
G37*
G36*
Y-161941D02*
X28556Y-162063D01*
Y-162352D01*
X28534Y-162663D01*
X28512Y-162973D01*
X28501Y-163107D01*
X28490Y-163240D01*
X28468Y-163351D01*
X28445Y-163440D01*
Y-163451D01*
X28434Y-163473D01*
X28423Y-163506D01*
X28412Y-163551D01*
X28357Y-163673D01*
X28290Y-163828D01*
X28190Y-163995D01*
X28057Y-164183D01*
X27890Y-164361D01*
X27691Y-164539D01*
X27680D01*
X27668Y-164561D01*
X27635Y-164583D01*
X27591Y-164605D01*
X27524Y-164650D01*
X27457Y-164683D01*
X27380Y-164727D01*
X27291Y-164772D01*
X27069Y-164849D01*
X26825Y-164927D01*
X26525Y-164972D01*
X26203Y-164994D01*
X26192D01*
X26170D01*
X26137D01*
X26081D01*
X26026Y-164983D01*
X25948D01*
X25793Y-164960D01*
X25604Y-164927D01*
X25393Y-164883D01*
X25193Y-164816D01*
X25004Y-164727D01*
X24982Y-164716D01*
X24927Y-164683D01*
X24838Y-164627D01*
X24727Y-164550D01*
X24616Y-164461D01*
X24483Y-164339D01*
X24361Y-164217D01*
X24250Y-164072D01*
X24239Y-164050D01*
X24205Y-164006D01*
X24161Y-163928D01*
X24105Y-163828D01*
X24039Y-163706D01*
X23983Y-163573D01*
X23928Y-163429D01*
X23883Y-163273D01*
Y-163251D01*
X23872Y-163218D01*
Y-163173D01*
X23861Y-163118D01*
X23850Y-163040D01*
X23839Y-162962D01*
Y-162862D01*
X23828Y-162763D01*
X23817Y-162640D01*
X23806Y-162507D01*
X23795Y-162363D01*
Y-162208D01*
X23784Y-162041D01*
Y-160665D01*
X20886D01*
Y-159111D01*
X28568D01*
Y-161941D01*
D02*
G37*
G36*
X20964Y-165760D02*
X21020Y-165771D01*
X21086Y-165782D01*
X21164Y-165793D01*
X21364Y-165837D01*
X21586Y-165904D01*
X21830Y-165993D01*
X22096Y-166104D01*
X22352Y-166248D01*
X22363D01*
X22385Y-166270D01*
X22429Y-166292D01*
X22474Y-166337D01*
X22551Y-166381D01*
X22629Y-166448D01*
X22729Y-166525D01*
X22840Y-166614D01*
X22973Y-166714D01*
X23106Y-166836D01*
X23262Y-166969D01*
X23428Y-167125D01*
X23595Y-167291D01*
X23784Y-167480D01*
X23983Y-167680D01*
X24194Y-167902D01*
X24205Y-167913D01*
X24239Y-167946D01*
X24283Y-167991D01*
X24350Y-168057D01*
X24416Y-168146D01*
X24505Y-168235D01*
X24705Y-168435D01*
X24916Y-168634D01*
X25127Y-168834D01*
X25215Y-168923D01*
X25315Y-169012D01*
X25393Y-169078D01*
X25460Y-169123D01*
X25482Y-169134D01*
X25537Y-169167D01*
X25626Y-169223D01*
X25748Y-169278D01*
X25881Y-169334D01*
X26037Y-169389D01*
X26192Y-169422D01*
X26359Y-169434D01*
X26370D01*
X26381D01*
X26436D01*
X26536Y-169422D01*
X26647Y-169400D01*
X26769Y-169367D01*
X26891Y-169323D01*
X27013Y-169256D01*
X27125Y-169167D01*
X27136Y-169156D01*
X27169Y-169123D01*
X27213Y-169056D01*
X27258Y-168979D01*
X27302Y-168867D01*
X27346Y-168745D01*
X27380Y-168601D01*
X27391Y-168435D01*
Y-168357D01*
X27380Y-168268D01*
X27358Y-168168D01*
X27324Y-168046D01*
X27269Y-167924D01*
X27202Y-167802D01*
X27113Y-167691D01*
X27102Y-167680D01*
X27058Y-167647D01*
X26991Y-167602D01*
X26891Y-167558D01*
X26769Y-167502D01*
X26603Y-167458D01*
X26414Y-167413D01*
X26192Y-167391D01*
X26336Y-165926D01*
X26347D01*
X26392Y-165937D01*
X26447D01*
X26536Y-165959D01*
X26636Y-165970D01*
X26747Y-166004D01*
X26869Y-166037D01*
X27013Y-166070D01*
X27291Y-166181D01*
X27580Y-166315D01*
X27724Y-166403D01*
X27857Y-166503D01*
X27968Y-166614D01*
X28079Y-166736D01*
X28090Y-166747D01*
X28101Y-166770D01*
X28124Y-166803D01*
X28168Y-166858D01*
X28201Y-166925D01*
X28246Y-167014D01*
X28301Y-167103D01*
X28345Y-167214D01*
X28401Y-167336D01*
X28445Y-167469D01*
X28534Y-167757D01*
X28590Y-168102D01*
X28601Y-168279D01*
X28612Y-168468D01*
Y-168579D01*
X28601Y-168657D01*
X28590Y-168757D01*
X28579Y-168867D01*
X28556Y-168990D01*
X28534Y-169123D01*
X28456Y-169411D01*
X28345Y-169700D01*
X28279Y-169855D01*
X28201Y-169989D01*
X28101Y-170133D01*
X27990Y-170255D01*
X27979Y-170266D01*
X27968Y-170288D01*
X27924Y-170310D01*
X27879Y-170355D01*
X27824Y-170410D01*
X27746Y-170466D01*
X27668Y-170521D01*
X27569Y-170588D01*
X27346Y-170699D01*
X27091Y-170810D01*
X26947Y-170854D01*
X26792Y-170877D01*
X26625Y-170899D01*
X26458Y-170910D01*
X26436D01*
X26370D01*
X26270Y-170899D01*
X26148Y-170888D01*
X25992Y-170865D01*
X25826Y-170832D01*
X25648Y-170788D01*
X25471Y-170721D01*
X25449Y-170710D01*
X25393Y-170688D01*
X25293Y-170644D01*
X25171Y-170577D01*
X25027Y-170499D01*
X24860Y-170399D01*
X24683Y-170277D01*
X24494Y-170133D01*
X24483Y-170122D01*
X24427Y-170077D01*
X24350Y-170011D01*
X24239Y-169911D01*
X24105Y-169778D01*
X23928Y-169611D01*
X23739Y-169411D01*
X23506Y-169167D01*
X23495Y-169156D01*
X23484Y-169134D01*
X23451Y-169101D01*
X23406Y-169056D01*
X23295Y-168934D01*
X23162Y-168790D01*
X23018Y-168645D01*
X22873Y-168501D01*
X22751Y-168368D01*
X22696Y-168324D01*
X22651Y-168279D01*
X22640Y-168268D01*
X22618Y-168246D01*
X22574Y-168213D01*
X22518Y-168168D01*
X22396Y-168068D01*
X22252Y-167980D01*
Y-170910D01*
X20886D01*
Y-165749D01*
X20898D01*
X20920D01*
X20964Y-165760D01*
D02*
G37*
G36*
X73976Y-193690D02*
X74054D01*
X74143Y-193701D01*
X74343Y-193745D01*
X74565Y-193801D01*
X74809Y-193890D01*
X75053Y-194011D01*
X75164Y-194089D01*
X75275Y-194178D01*
X75286D01*
X75297Y-194200D01*
X75331Y-194233D01*
X75364Y-194267D01*
X75419Y-194322D01*
X75464Y-194378D01*
X75586Y-194533D01*
X75708Y-194744D01*
X75830Y-194988D01*
X75941Y-195266D01*
X76019Y-195599D01*
X74598Y-195754D01*
Y-195732D01*
X74587Y-195688D01*
X74565Y-195610D01*
X74542Y-195510D01*
X74509Y-195410D01*
X74454Y-195299D01*
X74398Y-195199D01*
X74321Y-195110D01*
X74309Y-195099D01*
X74276Y-195077D01*
X74232Y-195044D01*
X74165Y-194999D01*
X74087Y-194966D01*
X73987Y-194933D01*
X73865Y-194911D01*
X73743Y-194900D01*
X73721D01*
X73666Y-194911D01*
X73577Y-194922D01*
X73466Y-194955D01*
X73344Y-194999D01*
X73211Y-195077D01*
X73077Y-195177D01*
X72955Y-195321D01*
X72944Y-195343D01*
X72922Y-195366D01*
X72900Y-195410D01*
X72877Y-195455D01*
X72844Y-195521D01*
X72822Y-195599D01*
X72789Y-195699D01*
X72744Y-195810D01*
X72711Y-195932D01*
X72678Y-196076D01*
X72644Y-196231D01*
X72611Y-196409D01*
X72589Y-196609D01*
X72567Y-196831D01*
X72544Y-197064D01*
X72556Y-197053D01*
X72567Y-197031D01*
X72600Y-197008D01*
X72644Y-196964D01*
X72700Y-196909D01*
X72766Y-196853D01*
X72922Y-196731D01*
X73122Y-196620D01*
X73355Y-196509D01*
X73488Y-196465D01*
X73621Y-196442D01*
X73766Y-196420D01*
X73921Y-196409D01*
X74010D01*
X74076Y-196420D01*
X74154Y-196431D01*
X74243Y-196442D01*
X74354Y-196465D01*
X74465Y-196498D01*
X74709Y-196587D01*
X74842Y-196642D01*
X74975Y-196709D01*
X75109Y-196786D01*
X75242Y-196886D01*
X75375Y-196997D01*
X75497Y-197120D01*
X75508Y-197131D01*
X75530Y-197153D01*
X75564Y-197186D01*
X75597Y-197242D01*
X75652Y-197319D01*
X75708Y-197397D01*
X75764Y-197497D01*
X75830Y-197608D01*
X75897Y-197730D01*
X75952Y-197874D01*
X76008Y-198019D01*
X76063Y-198185D01*
X76097Y-198352D01*
X76130Y-198540D01*
X76152Y-198729D01*
X76163Y-198940D01*
Y-198951D01*
Y-198995D01*
Y-199051D01*
X76152Y-199140D01*
X76141Y-199240D01*
X76130Y-199351D01*
X76108Y-199484D01*
X76074Y-199617D01*
X75997Y-199928D01*
X75941Y-200083D01*
X75863Y-200238D01*
X75786Y-200394D01*
X75697Y-200549D01*
X75586Y-200705D01*
X75464Y-200838D01*
X75453Y-200849D01*
X75430Y-200871D01*
X75397Y-200905D01*
X75342Y-200949D01*
X75275Y-201004D01*
X75186Y-201060D01*
X75097Y-201126D01*
X74987Y-201193D01*
X74864Y-201260D01*
X74731Y-201326D01*
X74587Y-201382D01*
X74420Y-201437D01*
X74254Y-201482D01*
X74076Y-201515D01*
X73888Y-201537D01*
X73688Y-201548D01*
X73632D01*
X73577Y-201537D01*
X73499D01*
X73399Y-201515D01*
X73277Y-201504D01*
X73155Y-201471D01*
X73011Y-201437D01*
X72866Y-201393D01*
X72711Y-201326D01*
X72544Y-201260D01*
X72389Y-201171D01*
X72223Y-201071D01*
X72067Y-200949D01*
X71912Y-200805D01*
X71768Y-200649D01*
X71756Y-200638D01*
X71734Y-200605D01*
X71701Y-200549D01*
X71656Y-200472D01*
X71590Y-200372D01*
X71535Y-200250D01*
X71468Y-200105D01*
X71401Y-199939D01*
X71324Y-199739D01*
X71257Y-199528D01*
X71202Y-199284D01*
X71146Y-199007D01*
X71090Y-198718D01*
X71057Y-198396D01*
X71035Y-198052D01*
X71024Y-197675D01*
Y-197663D01*
Y-197652D01*
Y-197619D01*
Y-197586D01*
Y-197475D01*
X71035Y-197330D01*
X71046Y-197153D01*
X71068Y-196953D01*
X71090Y-196731D01*
X71124Y-196498D01*
X71157Y-196254D01*
X71213Y-195998D01*
X71279Y-195743D01*
X71357Y-195488D01*
X71446Y-195255D01*
X71546Y-195022D01*
X71668Y-194811D01*
X71801Y-194622D01*
X71812Y-194611D01*
X71834Y-194578D01*
X71878Y-194533D01*
X71945Y-194478D01*
X72023Y-194400D01*
X72112Y-194322D01*
X72223Y-194233D01*
X72345Y-194145D01*
X72489Y-194067D01*
X72633Y-193978D01*
X72811Y-193901D01*
X72989Y-193823D01*
X73177Y-193767D01*
X73388Y-193723D01*
X73599Y-193690D01*
X73832Y-193679D01*
X73921D01*
X73976Y-193690D01*
D02*
G37*
G36*
X67172Y-193734D02*
X67294D01*
X67416Y-193745D01*
X67561D01*
X67849Y-193778D01*
X68149Y-193812D01*
X68426Y-193867D01*
X68549Y-193901D01*
X68660Y-193934D01*
X68671D01*
X68682Y-193945D01*
X68748Y-193978D01*
X68848Y-194034D01*
X68981Y-194100D01*
X69126Y-194211D01*
X69270Y-194333D01*
X69414Y-194489D01*
X69548Y-194678D01*
Y-194689D01*
X69559Y-194700D01*
X69581Y-194733D01*
X69603Y-194766D01*
X69659Y-194877D01*
X69725Y-195022D01*
X69781Y-195199D01*
X69836Y-195399D01*
X69881Y-195632D01*
X69892Y-195876D01*
Y-195887D01*
Y-195910D01*
Y-195965D01*
X69881Y-196021D01*
Y-196098D01*
X69869Y-196176D01*
X69825Y-196376D01*
X69770Y-196609D01*
X69681Y-196842D01*
X69548Y-197086D01*
X69470Y-197197D01*
X69381Y-197308D01*
X69370Y-197319D01*
X69359Y-197330D01*
X69326Y-197364D01*
X69281Y-197397D01*
X69237Y-197441D01*
X69170Y-197497D01*
X69092Y-197552D01*
X69004Y-197608D01*
X68904Y-197675D01*
X68782Y-197730D01*
X68660Y-197785D01*
X68526Y-197841D01*
X68371Y-197896D01*
X68216Y-197941D01*
X68049Y-197985D01*
X67860Y-198019D01*
X67871D01*
X67883Y-198030D01*
X67949Y-198074D01*
X68038Y-198130D01*
X68149Y-198207D01*
X68282Y-198307D01*
X68415Y-198407D01*
X68560Y-198529D01*
X68682Y-198662D01*
X68693Y-198673D01*
X68748Y-198729D01*
X68815Y-198818D01*
X68915Y-198951D01*
X69048Y-199118D01*
X69115Y-199228D01*
X69192Y-199340D01*
X69281Y-199462D01*
X69370Y-199595D01*
X69470Y-199750D01*
X69570Y-199905D01*
X70513Y-201404D01*
X68649D01*
X67538Y-199739D01*
X67527Y-199728D01*
X67516Y-199695D01*
X67483Y-199650D01*
X67439Y-199595D01*
X67394Y-199528D01*
X67339Y-199439D01*
X67217Y-199262D01*
X67072Y-199062D01*
X66939Y-198884D01*
X66817Y-198718D01*
X66761Y-198662D01*
X66717Y-198607D01*
X66706Y-198596D01*
X66684Y-198574D01*
X66639Y-198529D01*
X66584Y-198474D01*
X66506Y-198429D01*
X66428Y-198374D01*
X66340Y-198329D01*
X66251Y-198285D01*
X66240D01*
X66206Y-198274D01*
X66151Y-198252D01*
X66062Y-198241D01*
X65951Y-198218D01*
X65818Y-198207D01*
X65663Y-198196D01*
X65163D01*
Y-201404D01*
X63609D01*
Y-193723D01*
X67072D01*
X67172Y-193734D01*
D02*
G37*
G36*
X-71622Y-184792D02*
X-71500Y-184804D01*
X-71366Y-184826D01*
X-71211Y-184848D01*
X-71045Y-184881D01*
X-70867Y-184926D01*
X-70678Y-184981D01*
X-70490Y-185048D01*
X-70290Y-185137D01*
X-70101Y-185225D01*
X-69923Y-185336D01*
X-69735Y-185470D01*
X-69568Y-185614D01*
X-69557D01*
X-69546Y-185636D01*
X-69513Y-185669D01*
X-69479Y-185703D01*
X-69435Y-185758D01*
X-69391Y-185825D01*
X-69268Y-185980D01*
X-69146Y-186180D01*
X-69013Y-186424D01*
X-68891Y-186702D01*
X-68780Y-187024D01*
X-70312Y-187390D01*
Y-187379D01*
X-70323Y-187368D01*
Y-187334D01*
X-70345Y-187290D01*
X-70378Y-187190D01*
X-70434Y-187057D01*
X-70512Y-186901D01*
X-70612Y-186746D01*
X-70745Y-186591D01*
X-70889Y-186458D01*
X-70911Y-186446D01*
X-70967Y-186402D01*
X-71056Y-186346D01*
X-71178Y-186280D01*
X-71333Y-186213D01*
X-71511Y-186158D01*
X-71711Y-186113D01*
X-71933Y-186102D01*
X-72010D01*
X-72077Y-186113D01*
X-72143Y-186124D01*
X-72232Y-186136D01*
X-72421Y-186180D01*
X-72643Y-186258D01*
X-72876Y-186369D01*
X-72998Y-186435D01*
X-73109Y-186513D01*
X-73220Y-186613D01*
X-73320Y-186724D01*
Y-186735D01*
X-73342Y-186757D01*
X-73364Y-186791D01*
X-73398Y-186846D01*
X-73442Y-186913D01*
X-73486Y-186990D01*
X-73531Y-187090D01*
X-73575Y-187201D01*
X-73631Y-187334D01*
X-73675Y-187479D01*
X-73720Y-187645D01*
X-73764Y-187823D01*
X-73797Y-188023D01*
X-73819Y-188234D01*
X-73830Y-188467D01*
X-73842Y-188722D01*
Y-188733D01*
Y-188788D01*
Y-188866D01*
X-73830Y-188955D01*
Y-189077D01*
X-73808Y-189221D01*
X-73797Y-189366D01*
X-73775Y-189532D01*
X-73708Y-189876D01*
X-73620Y-190220D01*
X-73564Y-190387D01*
X-73486Y-190542D01*
X-73409Y-190686D01*
X-73320Y-190809D01*
X-73309Y-190820D01*
X-73298Y-190831D01*
X-73264Y-190864D01*
X-73220Y-190909D01*
X-73109Y-190997D01*
X-72954Y-191108D01*
X-72765Y-191230D01*
X-72532Y-191319D01*
X-72266Y-191397D01*
X-72121Y-191408D01*
X-71966Y-191419D01*
X-71910D01*
X-71866Y-191408D01*
X-71744Y-191397D01*
X-71599Y-191375D01*
X-71444Y-191319D01*
X-71266Y-191253D01*
X-71089Y-191164D01*
X-70911Y-191031D01*
X-70889Y-191008D01*
X-70834Y-190953D01*
X-70756Y-190864D01*
X-70667Y-190731D01*
X-70556Y-190553D01*
X-70456Y-190342D01*
X-70356Y-190087D01*
X-70268Y-189787D01*
X-68758Y-190254D01*
Y-190265D01*
X-68769Y-190309D01*
X-68791Y-190376D01*
X-68825Y-190464D01*
X-68869Y-190564D01*
X-68913Y-190686D01*
X-68969Y-190820D01*
X-69035Y-190964D01*
X-69191Y-191264D01*
X-69391Y-191574D01*
X-69635Y-191874D01*
X-69768Y-192007D01*
X-69912Y-192129D01*
X-69923Y-192141D01*
X-69946Y-192152D01*
X-69990Y-192185D01*
X-70057Y-192229D01*
X-70134Y-192274D01*
X-70234Y-192318D01*
X-70345Y-192374D01*
X-70467Y-192429D01*
X-70612Y-192496D01*
X-70767Y-192551D01*
X-70933Y-192596D01*
X-71111Y-192640D01*
X-71300Y-192684D01*
X-71511Y-192718D01*
X-71722Y-192729D01*
X-71955Y-192740D01*
X-72021D01*
X-72099Y-192729D01*
X-72210Y-192718D01*
X-72332Y-192707D01*
X-72488Y-192684D01*
X-72654Y-192651D01*
X-72843Y-192607D01*
X-73031Y-192551D01*
X-73231Y-192485D01*
X-73442Y-192396D01*
X-73653Y-192296D01*
X-73864Y-192185D01*
X-74075Y-192041D01*
X-74275Y-191885D01*
X-74463Y-191697D01*
X-74474Y-191686D01*
X-74508Y-191652D01*
X-74552Y-191586D01*
X-74619Y-191508D01*
X-74685Y-191397D01*
X-74774Y-191275D01*
X-74863Y-191119D01*
X-74952Y-190942D01*
X-75040Y-190753D01*
X-75129Y-190542D01*
X-75218Y-190298D01*
X-75285Y-190043D01*
X-75351Y-189776D01*
X-75396Y-189477D01*
X-75429Y-189166D01*
X-75440Y-188833D01*
Y-188822D01*
Y-188811D01*
Y-188744D01*
X-75429Y-188644D01*
Y-188511D01*
X-75407Y-188356D01*
X-75384Y-188167D01*
X-75362Y-187967D01*
X-75318Y-187734D01*
X-75262Y-187501D01*
X-75196Y-187257D01*
X-75118Y-187013D01*
X-75018Y-186757D01*
X-74907Y-186513D01*
X-74774Y-186280D01*
X-74630Y-186058D01*
X-74452Y-185847D01*
X-74441Y-185836D01*
X-74408Y-185803D01*
X-74352Y-185747D01*
X-74275Y-185681D01*
X-74175Y-185603D01*
X-74053Y-185514D01*
X-73919Y-185414D01*
X-73753Y-185314D01*
X-73575Y-185214D01*
X-73387Y-185114D01*
X-73165Y-185026D01*
X-72943Y-184948D01*
X-72687Y-184881D01*
X-72432Y-184826D01*
X-72143Y-184792D01*
X-71855Y-184781D01*
X-71722D01*
X-71622Y-184792D01*
D02*
G37*
G36*
X-63985Y-192607D02*
X-65461D01*
Y-187046D01*
X-65472Y-187057D01*
X-65495Y-187079D01*
X-65539Y-187112D01*
X-65606Y-187168D01*
X-65683Y-187234D01*
X-65772Y-187301D01*
X-65883Y-187379D01*
X-66005Y-187468D01*
X-66138Y-187556D01*
X-66283Y-187645D01*
X-66438Y-187745D01*
X-66605Y-187834D01*
X-66960Y-188000D01*
X-67359Y-188156D01*
Y-186824D01*
X-67348D01*
X-67337Y-186813D01*
X-67304Y-186802D01*
X-67259Y-186791D01*
X-67148Y-186735D01*
X-66993Y-186668D01*
X-66804Y-186580D01*
X-66593Y-186458D01*
X-66360Y-186302D01*
X-66116Y-186124D01*
X-66105Y-186113D01*
X-66083Y-186102D01*
X-66050Y-186069D01*
X-66005Y-186025D01*
X-65883Y-185914D01*
X-65750Y-185769D01*
X-65595Y-185592D01*
X-65439Y-185370D01*
X-65295Y-185137D01*
X-65184Y-184881D01*
X-63985D01*
Y-192607D01*
D02*
G37*
G36*
X-63224Y-221395D02*
X-66687D01*
X-66787Y-221384D01*
X-66909D01*
X-67031Y-221373D01*
X-67175D01*
X-67464Y-221340D01*
X-67764Y-221306D01*
X-68041Y-221251D01*
X-68163Y-221218D01*
X-68274Y-221184D01*
X-68285D01*
X-68296Y-221173D01*
X-68363Y-221140D01*
X-68463Y-221084D01*
X-68596Y-221018D01*
X-68740Y-220907D01*
X-68885Y-220785D01*
X-69029Y-220629D01*
X-69162Y-220441D01*
Y-220429D01*
X-69173Y-220418D01*
X-69195Y-220385D01*
X-69218Y-220352D01*
X-69273Y-220241D01*
X-69340Y-220096D01*
X-69395Y-219919D01*
X-69451Y-219719D01*
X-69495Y-219486D01*
X-69506Y-219242D01*
Y-219231D01*
Y-219209D01*
Y-219153D01*
X-69495Y-219098D01*
Y-219020D01*
X-69484Y-218942D01*
X-69440Y-218742D01*
X-69384Y-218509D01*
X-69295Y-218276D01*
X-69162Y-218032D01*
X-69084Y-217921D01*
X-68996Y-217810D01*
X-68984Y-217799D01*
X-68973Y-217788D01*
X-68940Y-217754D01*
X-68896Y-217721D01*
X-68851Y-217677D01*
X-68785Y-217621D01*
X-68707Y-217566D01*
X-68618Y-217510D01*
X-68518Y-217444D01*
X-68396Y-217388D01*
X-68274Y-217333D01*
X-68141Y-217277D01*
X-67986Y-217222D01*
X-67830Y-217177D01*
X-67664Y-217133D01*
X-67475Y-217100D01*
X-67486D01*
X-67497Y-217089D01*
X-67564Y-217044D01*
X-67653Y-216989D01*
X-67764Y-216911D01*
X-67897Y-216811D01*
X-68030Y-216711D01*
X-68174Y-216589D01*
X-68296Y-216456D01*
X-68307Y-216445D01*
X-68363Y-216389D01*
X-68429Y-216300D01*
X-68529Y-216167D01*
X-68663Y-216001D01*
X-68729Y-215890D01*
X-68807Y-215779D01*
X-68896Y-215657D01*
X-68984Y-215523D01*
X-69084Y-215368D01*
X-69184Y-215213D01*
X-70128Y-213714D01*
X-68263D01*
X-67153Y-215379D01*
X-67142Y-215390D01*
X-67131Y-215424D01*
X-67098Y-215468D01*
X-67053Y-215523D01*
X-67009Y-215590D01*
X-66953Y-215679D01*
X-66831Y-215856D01*
X-66687Y-216056D01*
X-66554Y-216234D01*
X-66431Y-216400D01*
X-66376Y-216456D01*
X-66332Y-216511D01*
X-66321Y-216522D01*
X-66298Y-216545D01*
X-66254Y-216589D01*
X-66198Y-216644D01*
X-66121Y-216689D01*
X-66043Y-216744D01*
X-65954Y-216789D01*
X-65866Y-216833D01*
X-65854D01*
X-65821Y-216844D01*
X-65766Y-216866D01*
X-65677Y-216878D01*
X-65566Y-216900D01*
X-65433Y-216911D01*
X-65277Y-216922D01*
X-64778D01*
Y-213714D01*
X-63224D01*
Y-221395D01*
D02*
G37*
G36*
X-73535Y-215257D02*
X-70383D01*
Y-216534D01*
X-73713Y-221429D01*
X-74956D01*
Y-216545D01*
X-75911D01*
Y-215257D01*
X-74956D01*
Y-213714D01*
X-73535D01*
Y-215257D01*
D02*
G37*
G36*
X60598Y-57736D02*
X60676D01*
X60764Y-57747D01*
X60964Y-57791D01*
X61186Y-57847D01*
X61430Y-57936D01*
X61674Y-58058D01*
X61785Y-58135D01*
X61896Y-58224D01*
X61908D01*
X61919Y-58246D01*
X61952Y-58280D01*
X61985Y-58313D01*
X62041Y-58369D01*
X62085Y-58424D01*
X62207Y-58580D01*
X62329Y-58790D01*
X62451Y-59035D01*
X62562Y-59312D01*
X62640Y-59645D01*
X61219Y-59801D01*
Y-59778D01*
X61208Y-59734D01*
X61186Y-59656D01*
X61164Y-59556D01*
X61131Y-59456D01*
X61075Y-59345D01*
X61020Y-59246D01*
X60942Y-59157D01*
X60931Y-59146D01*
X60897Y-59123D01*
X60853Y-59090D01*
X60786Y-59046D01*
X60709Y-59012D01*
X60609Y-58979D01*
X60487Y-58957D01*
X60365Y-58946D01*
X60342D01*
X60287Y-58957D01*
X60198Y-58968D01*
X60087Y-59001D01*
X59965Y-59046D01*
X59832Y-59123D01*
X59699Y-59223D01*
X59577Y-59368D01*
X59566Y-59390D01*
X59543Y-59412D01*
X59521Y-59456D01*
X59499Y-59501D01*
X59466Y-59567D01*
X59443Y-59645D01*
X59410Y-59745D01*
X59366Y-59856D01*
X59332Y-59978D01*
X59299Y-60122D01*
X59266Y-60278D01*
X59233Y-60455D01*
X59210Y-60655D01*
X59188Y-60877D01*
X59166Y-61110D01*
X59177Y-61099D01*
X59188Y-61077D01*
X59221Y-61055D01*
X59266Y-61010D01*
X59321Y-60955D01*
X59388Y-60899D01*
X59543Y-60777D01*
X59743Y-60666D01*
X59976Y-60555D01*
X60109Y-60511D01*
X60243Y-60489D01*
X60387Y-60466D01*
X60542Y-60455D01*
X60631D01*
X60698Y-60466D01*
X60775Y-60478D01*
X60864Y-60489D01*
X60975Y-60511D01*
X61086Y-60544D01*
X61330Y-60633D01*
X61464Y-60688D01*
X61597Y-60755D01*
X61730Y-60833D01*
X61863Y-60933D01*
X61996Y-61044D01*
X62118Y-61166D01*
X62130Y-61177D01*
X62152Y-61199D01*
X62185Y-61232D01*
X62218Y-61288D01*
X62274Y-61365D01*
X62329Y-61443D01*
X62385Y-61543D01*
X62451Y-61654D01*
X62518Y-61776D01*
X62573Y-61920D01*
X62629Y-62065D01*
X62684Y-62231D01*
X62718Y-62398D01*
X62751Y-62586D01*
X62773Y-62775D01*
X62784Y-62986D01*
Y-62997D01*
Y-63042D01*
Y-63097D01*
X62773Y-63186D01*
X62762Y-63286D01*
X62751Y-63397D01*
X62729Y-63530D01*
X62696Y-63663D01*
X62618Y-63974D01*
X62562Y-64129D01*
X62485Y-64285D01*
X62407Y-64440D01*
X62318Y-64596D01*
X62207Y-64751D01*
X62085Y-64884D01*
X62074Y-64895D01*
X62052Y-64917D01*
X62018Y-64951D01*
X61963Y-64995D01*
X61896Y-65051D01*
X61808Y-65106D01*
X61719Y-65173D01*
X61608Y-65239D01*
X61486Y-65306D01*
X61353Y-65373D01*
X61208Y-65428D01*
X61042Y-65484D01*
X60875Y-65528D01*
X60698Y-65561D01*
X60509Y-65584D01*
X60309Y-65595D01*
X60254D01*
X60198Y-65584D01*
X60121D01*
X60021Y-65561D01*
X59899Y-65550D01*
X59776Y-65517D01*
X59632Y-65484D01*
X59488Y-65439D01*
X59332Y-65373D01*
X59166Y-65306D01*
X59011Y-65217D01*
X58844Y-65117D01*
X58689Y-64995D01*
X58533Y-64851D01*
X58389Y-64696D01*
X58378Y-64684D01*
X58356Y-64651D01*
X58322Y-64596D01*
X58278Y-64518D01*
X58211Y-64418D01*
X58156Y-64296D01*
X58089Y-64152D01*
X58023Y-63985D01*
X57945Y-63785D01*
X57878Y-63574D01*
X57823Y-63330D01*
X57767Y-63053D01*
X57712Y-62764D01*
X57678Y-62442D01*
X57656Y-62098D01*
X57645Y-61721D01*
Y-61710D01*
Y-61698D01*
Y-61665D01*
Y-61632D01*
Y-61521D01*
X57656Y-61377D01*
X57667Y-61199D01*
X57690Y-60999D01*
X57712Y-60777D01*
X57745Y-60544D01*
X57778Y-60300D01*
X57834Y-60045D01*
X57901Y-59789D01*
X57978Y-59534D01*
X58067Y-59301D01*
X58167Y-59068D01*
X58289Y-58857D01*
X58422Y-58668D01*
X58433Y-58657D01*
X58456Y-58624D01*
X58500Y-58580D01*
X58566Y-58524D01*
X58644Y-58446D01*
X58733Y-58369D01*
X58844Y-58280D01*
X58966Y-58191D01*
X59110Y-58113D01*
X59255Y-58025D01*
X59432Y-57947D01*
X59610Y-57869D01*
X59799Y-57814D01*
X60009Y-57769D01*
X60220Y-57736D01*
X60454Y-57725D01*
X60542D01*
X60598Y-57736D01*
D02*
G37*
G36*
X53771Y-57636D02*
X53893Y-57647D01*
X54027Y-57669D01*
X54182Y-57691D01*
X54349Y-57725D01*
X54526Y-57769D01*
X54715Y-57825D01*
X54904Y-57891D01*
X55103Y-57980D01*
X55292Y-58069D01*
X55470Y-58180D01*
X55658Y-58313D01*
X55825Y-58457D01*
X55836D01*
X55847Y-58480D01*
X55880Y-58513D01*
X55914Y-58546D01*
X55958Y-58602D01*
X56002Y-58668D01*
X56125Y-58824D01*
X56247Y-59023D01*
X56380Y-59268D01*
X56502Y-59545D01*
X56613Y-59867D01*
X55081Y-60233D01*
Y-60222D01*
X55070Y-60211D01*
Y-60178D01*
X55048Y-60134D01*
X55015Y-60034D01*
X54959Y-59900D01*
X54881Y-59745D01*
X54781Y-59590D01*
X54648Y-59434D01*
X54504Y-59301D01*
X54482Y-59290D01*
X54426Y-59246D01*
X54338Y-59190D01*
X54215Y-59123D01*
X54060Y-59057D01*
X53882Y-59001D01*
X53683Y-58957D01*
X53461Y-58946D01*
X53383D01*
X53316Y-58957D01*
X53250Y-58968D01*
X53161Y-58979D01*
X52972Y-59023D01*
X52750Y-59101D01*
X52517Y-59212D01*
X52395Y-59279D01*
X52284Y-59356D01*
X52173Y-59456D01*
X52073Y-59567D01*
Y-59578D01*
X52051Y-59601D01*
X52029Y-59634D01*
X51995Y-59689D01*
X51951Y-59756D01*
X51907Y-59834D01*
X51862Y-59934D01*
X51818Y-60045D01*
X51762Y-60178D01*
X51718Y-60322D01*
X51673Y-60489D01*
X51629Y-60666D01*
X51596Y-60866D01*
X51574Y-61077D01*
X51562Y-61310D01*
X51551Y-61565D01*
Y-61576D01*
Y-61632D01*
Y-61710D01*
X51562Y-61798D01*
Y-61920D01*
X51585Y-62065D01*
X51596Y-62209D01*
X51618Y-62376D01*
X51685Y-62720D01*
X51773Y-63064D01*
X51829Y-63230D01*
X51907Y-63386D01*
X51984Y-63530D01*
X52073Y-63652D01*
X52084Y-63663D01*
X52095Y-63674D01*
X52129Y-63708D01*
X52173Y-63752D01*
X52284Y-63841D01*
X52439Y-63952D01*
X52628Y-64074D01*
X52861Y-64163D01*
X53128Y-64240D01*
X53272Y-64251D01*
X53427Y-64263D01*
X53483D01*
X53527Y-64251D01*
X53649Y-64240D01*
X53794Y-64218D01*
X53949Y-64163D01*
X54127Y-64096D01*
X54304Y-64007D01*
X54482Y-63874D01*
X54504Y-63852D01*
X54559Y-63796D01*
X54637Y-63708D01*
X54726Y-63574D01*
X54837Y-63397D01*
X54937Y-63186D01*
X55037Y-62931D01*
X55126Y-62631D01*
X56635Y-63097D01*
Y-63108D01*
X56624Y-63153D01*
X56602Y-63219D01*
X56568Y-63308D01*
X56524Y-63408D01*
X56480Y-63530D01*
X56424Y-63663D01*
X56358Y-63808D01*
X56202Y-64107D01*
X56002Y-64418D01*
X55758Y-64718D01*
X55625Y-64851D01*
X55481Y-64973D01*
X55470Y-64984D01*
X55448Y-64995D01*
X55403Y-65029D01*
X55336Y-65073D01*
X55259Y-65117D01*
X55159Y-65162D01*
X55048Y-65217D01*
X54926Y-65273D01*
X54781Y-65339D01*
X54626Y-65395D01*
X54460Y-65439D01*
X54282Y-65484D01*
X54093Y-65528D01*
X53882Y-65561D01*
X53671Y-65572D01*
X53438Y-65584D01*
X53372D01*
X53294Y-65572D01*
X53183Y-65561D01*
X53061Y-65550D01*
X52906Y-65528D01*
X52739Y-65495D01*
X52550Y-65450D01*
X52362Y-65395D01*
X52162Y-65328D01*
X51951Y-65239D01*
X51740Y-65139D01*
X51529Y-65029D01*
X51318Y-64884D01*
X51118Y-64729D01*
X50930Y-64540D01*
X50919Y-64529D01*
X50885Y-64496D01*
X50841Y-64429D01*
X50774Y-64351D01*
X50708Y-64240D01*
X50619Y-64118D01*
X50530Y-63963D01*
X50441Y-63785D01*
X50353Y-63597D01*
X50264Y-63386D01*
X50175Y-63141D01*
X50108Y-62886D01*
X50042Y-62620D01*
X49998Y-62320D01*
X49964Y-62009D01*
X49953Y-61676D01*
Y-61665D01*
Y-61654D01*
Y-61588D01*
X49964Y-61488D01*
Y-61354D01*
X49986Y-61199D01*
X50009Y-61010D01*
X50031Y-60810D01*
X50075Y-60578D01*
X50131Y-60344D01*
X50197Y-60100D01*
X50275Y-59856D01*
X50375Y-59601D01*
X50486Y-59356D01*
X50619Y-59123D01*
X50763Y-58901D01*
X50941Y-58691D01*
X50952Y-58679D01*
X50985Y-58646D01*
X51041Y-58591D01*
X51118Y-58524D01*
X51218Y-58446D01*
X51340Y-58358D01*
X51474Y-58258D01*
X51640Y-58158D01*
X51818Y-58058D01*
X52007Y-57958D01*
X52228Y-57869D01*
X52450Y-57791D01*
X52706Y-57725D01*
X52961Y-57669D01*
X53250Y-57636D01*
X53538Y-57625D01*
X53671D01*
X53771Y-57636D01*
D02*
G37*
G36*
X-908Y-21227D02*
Y-21241D01*
Y-21283D01*
Y-21338D01*
Y-21421D01*
Y-21519D01*
X-922Y-21643D01*
X-936Y-21907D01*
X-964Y-22198D01*
X-1006Y-22503D01*
X-1061Y-22808D01*
X-1130Y-23072D01*
Y-23086D01*
X-1144Y-23114D01*
X-1158Y-23155D01*
X-1186Y-23210D01*
X-1255Y-23363D01*
X-1366Y-23557D01*
X-1505Y-23765D01*
X-1685Y-23987D01*
X-1893Y-24209D01*
X-2157Y-24417D01*
X-2170D01*
X-2184Y-24445D01*
X-2226Y-24459D01*
X-2295Y-24500D01*
X-2365Y-24528D01*
X-2448Y-24570D01*
X-2559Y-24625D01*
X-2670Y-24667D01*
X-2808Y-24708D01*
X-2947Y-24764D01*
X-3280Y-24833D01*
X-3668Y-24889D01*
X-4098Y-24916D01*
X-4237D01*
X-4334Y-24903D01*
X-4459Y-24889D01*
X-4584Y-24875D01*
X-4736Y-24847D01*
X-4902Y-24819D01*
X-5263Y-24722D01*
X-5443Y-24653D01*
X-5624Y-24583D01*
X-5804Y-24486D01*
X-5970Y-24389D01*
X-6137Y-24265D01*
X-6289Y-24126D01*
X-6303Y-24112D01*
X-6317Y-24084D01*
X-6359Y-24043D01*
X-6414Y-23973D01*
X-6470Y-23890D01*
X-6525Y-23793D01*
X-6594Y-23668D01*
X-6664Y-23543D01*
X-6747Y-23377D01*
X-6816Y-23210D01*
X-6872Y-23016D01*
X-6927Y-22808D01*
X-6983Y-22587D01*
X-7024Y-22337D01*
X-7038Y-22073D01*
X-7052Y-21796D01*
X-5208Y-21588D01*
Y-21602D01*
Y-21630D01*
Y-21671D01*
X-5194Y-21727D01*
Y-21865D01*
X-5166Y-22046D01*
X-5138Y-22240D01*
X-5097Y-22434D01*
X-5041Y-22600D01*
X-4972Y-22753D01*
X-4958Y-22781D01*
X-4916Y-22836D01*
X-4847Y-22919D01*
X-4736Y-23003D01*
X-4611Y-23100D01*
X-4445Y-23183D01*
X-4251Y-23238D01*
X-4029Y-23266D01*
X-3918D01*
X-3807Y-23252D01*
X-3682Y-23224D01*
X-3530Y-23183D01*
X-3377Y-23114D01*
X-3238Y-23030D01*
X-3127Y-22905D01*
X-3113Y-22892D01*
X-3086Y-22822D01*
X-3044Y-22725D01*
X-2989Y-22573D01*
X-2961Y-22476D01*
X-2933Y-22365D01*
X-2919Y-22240D01*
X-2892Y-22101D01*
X-2878Y-21935D01*
X-2864Y-21768D01*
X-2850Y-21574D01*
Y-21366D01*
Y-15139D01*
X-908D01*
Y-21227D01*
D02*
G37*
G36*
X3987Y-15098D02*
X4112Y-15111D01*
X4237Y-15125D01*
X4389Y-15153D01*
X4542Y-15195D01*
X4889Y-15292D01*
X5069Y-15361D01*
X5263Y-15458D01*
X5443Y-15555D01*
X5610Y-15666D01*
X5790Y-15805D01*
X5943Y-15957D01*
X5957Y-15971D01*
X5970Y-15985D01*
X6012Y-16027D01*
X6054Y-16082D01*
X6165Y-16221D01*
X6289Y-16415D01*
X6414Y-16651D01*
X6511Y-16928D01*
X6594Y-17233D01*
X6608Y-17386D01*
X6622Y-17552D01*
Y-17566D01*
Y-17608D01*
X6608Y-17677D01*
X6594Y-17760D01*
X6581Y-17871D01*
X6553Y-17996D01*
X6511Y-18135D01*
X6456Y-18287D01*
X6373Y-18440D01*
X6289Y-18606D01*
X6178Y-18773D01*
X6040Y-18939D01*
X5873Y-19105D01*
X5693Y-19272D01*
X5485Y-19425D01*
X5235Y-19577D01*
X5249D01*
X5277Y-19591D01*
X5318D01*
X5374Y-19619D01*
X5527Y-19660D01*
X5707Y-19743D01*
X5915Y-19854D01*
X6137Y-19993D01*
X6359Y-20173D01*
X6553Y-20381D01*
X6581Y-20409D01*
X6636Y-20492D01*
X6705Y-20617D01*
X6802Y-20797D01*
X6899Y-21005D01*
X6969Y-21269D01*
X7024Y-21546D01*
X7052Y-21865D01*
Y-21879D01*
Y-21921D01*
Y-21990D01*
X7038Y-22073D01*
X7024Y-22184D01*
X6997Y-22309D01*
X6969Y-22462D01*
X6941Y-22614D01*
X6830Y-22947D01*
X6747Y-23127D01*
X6664Y-23321D01*
X6553Y-23502D01*
X6428Y-23682D01*
X6289Y-23862D01*
X6123Y-24029D01*
X6109Y-24043D01*
X6081Y-24070D01*
X6026Y-24112D01*
X5957Y-24167D01*
X5859Y-24237D01*
X5762Y-24306D01*
X5624Y-24389D01*
X5485Y-24473D01*
X5332Y-24556D01*
X5152Y-24639D01*
X4958Y-24708D01*
X4764Y-24778D01*
X4542Y-24833D01*
X4320Y-24875D01*
X4070Y-24903D01*
X3821Y-24916D01*
X3696D01*
X3599Y-24903D01*
X3488Y-24889D01*
X3363Y-24875D01*
X3224Y-24847D01*
X3058Y-24819D01*
X2725Y-24736D01*
X2365Y-24597D01*
X2170Y-24514D01*
X2004Y-24417D01*
X1824Y-24292D01*
X1657Y-24167D01*
X1643Y-24154D01*
X1616Y-24126D01*
X1574Y-24084D01*
X1519Y-24029D01*
X1449Y-23959D01*
X1380Y-23862D01*
X1297Y-23765D01*
X1213Y-23640D01*
X1130Y-23502D01*
X1033Y-23363D01*
X881Y-23030D01*
X756Y-22642D01*
X700Y-22434D01*
X673Y-22212D01*
X2448Y-21990D01*
Y-22004D01*
Y-22018D01*
X2462Y-22101D01*
X2489Y-22226D01*
X2531Y-22378D01*
X2600Y-22545D01*
X2670Y-22725D01*
X2781Y-22892D01*
X2905Y-23044D01*
X2919Y-23058D01*
X2975Y-23100D01*
X3058Y-23155D01*
X3155Y-23210D01*
X3294Y-23280D01*
X3446Y-23335D01*
X3613Y-23377D01*
X3807Y-23391D01*
X3835D01*
X3904Y-23377D01*
X4001Y-23363D01*
X4140Y-23335D01*
X4292Y-23280D01*
X4445Y-23210D01*
X4611Y-23100D01*
X4764Y-22961D01*
X4778Y-22947D01*
X4833Y-22878D01*
X4889Y-22781D01*
X4972Y-22656D01*
X5041Y-22489D01*
X5110Y-22281D01*
X5152Y-22046D01*
X5166Y-21782D01*
Y-21768D01*
Y-21754D01*
Y-21671D01*
X5152Y-21546D01*
X5124Y-21380D01*
X5069Y-21200D01*
X5000Y-21019D01*
X4902Y-20839D01*
X4778Y-20673D01*
X4764Y-20659D01*
X4708Y-20603D01*
X4625Y-20534D01*
X4528Y-20465D01*
X4389Y-20381D01*
X4237Y-20326D01*
X4070Y-20270D01*
X3876Y-20257D01*
X3738D01*
X3641Y-20270D01*
X3516Y-20284D01*
X3363Y-20312D01*
X3210Y-20354D01*
X3030Y-20395D01*
X3224Y-18911D01*
X3349D01*
X3488Y-18898D01*
X3654Y-18884D01*
X3835Y-18842D01*
X4029Y-18786D01*
X4209Y-18703D01*
X4376Y-18592D01*
X4389Y-18578D01*
X4445Y-18523D01*
X4500Y-18454D01*
X4584Y-18343D01*
X4653Y-18218D01*
X4722Y-18065D01*
X4764Y-17885D01*
X4778Y-17677D01*
Y-17649D01*
Y-17594D01*
X4764Y-17511D01*
X4736Y-17400D01*
X4708Y-17275D01*
X4653Y-17150D01*
X4584Y-17011D01*
X4486Y-16900D01*
X4473Y-16887D01*
X4431Y-16859D01*
X4376Y-16803D01*
X4278Y-16748D01*
X4168Y-16706D01*
X4043Y-16651D01*
X3876Y-16623D01*
X3710Y-16609D01*
X3627D01*
X3543Y-16623D01*
X3432Y-16651D01*
X3308Y-16692D01*
X3169Y-16748D01*
X3030Y-16831D01*
X2905Y-16942D01*
X2892Y-16956D01*
X2850Y-16997D01*
X2794Y-17081D01*
X2725Y-17192D01*
X2656Y-17316D01*
X2600Y-17483D01*
X2545Y-17677D01*
X2503Y-17899D01*
X811Y-17622D01*
Y-17608D01*
X825Y-17580D01*
Y-17538D01*
X839Y-17469D01*
X881Y-17316D01*
X936Y-17108D01*
X1019Y-16887D01*
X1103Y-16651D01*
X1213Y-16429D01*
X1338Y-16221D01*
X1352Y-16193D01*
X1408Y-16138D01*
X1491Y-16041D01*
X1602Y-15916D01*
X1741Y-15791D01*
X1907Y-15652D01*
X2115Y-15514D01*
X2337Y-15389D01*
X2351D01*
X2365Y-15375D01*
X2448Y-15347D01*
X2587Y-15292D01*
X2753Y-15236D01*
X2961Y-15181D01*
X3210Y-15125D01*
X3474Y-15098D01*
X3765Y-15084D01*
X3890D01*
X3987Y-15098D01*
D02*
G37*
G36*
X-141047Y-201220D02*
Y-201234D01*
Y-201276D01*
Y-201331D01*
Y-201415D01*
Y-201512D01*
X-141061Y-201637D01*
X-141075Y-201900D01*
X-141103Y-202191D01*
X-141144Y-202496D01*
X-141200Y-202801D01*
X-141269Y-203065D01*
Y-203079D01*
X-141283Y-203106D01*
X-141297Y-203148D01*
X-141324Y-203204D01*
X-141394Y-203356D01*
X-141505Y-203550D01*
X-141643Y-203758D01*
X-141824Y-203980D01*
X-142032Y-204202D01*
X-142295Y-204410D01*
X-142309D01*
X-142323Y-204438D01*
X-142365Y-204452D01*
X-142434Y-204493D01*
X-142503Y-204521D01*
X-142586Y-204563D01*
X-142697Y-204618D01*
X-142808Y-204660D01*
X-142947Y-204701D01*
X-143086Y-204757D01*
X-143419Y-204826D01*
X-143807Y-204882D01*
X-144237Y-204909D01*
X-144375D01*
X-144473Y-204896D01*
X-144597Y-204882D01*
X-144722Y-204868D01*
X-144875Y-204840D01*
X-145041Y-204812D01*
X-145402Y-204715D01*
X-145582Y-204646D01*
X-145762Y-204577D01*
X-145943Y-204480D01*
X-146109Y-204382D01*
X-146276Y-204258D01*
X-146428Y-204119D01*
X-146442Y-204105D01*
X-146456Y-204077D01*
X-146497Y-204036D01*
X-146553Y-203966D01*
X-146608Y-203883D01*
X-146664Y-203786D01*
X-146733Y-203661D01*
X-146802Y-203536D01*
X-146886Y-203370D01*
X-146955Y-203204D01*
X-147010Y-203009D01*
X-147066Y-202801D01*
X-147121Y-202579D01*
X-147163Y-202330D01*
X-147177Y-202066D01*
X-147191Y-201789D01*
X-145346Y-201581D01*
Y-201595D01*
Y-201623D01*
Y-201664D01*
X-145332Y-201720D01*
Y-201858D01*
X-145305Y-202039D01*
X-145277Y-202233D01*
X-145235Y-202427D01*
X-145180Y-202593D01*
X-145111Y-202746D01*
X-145097Y-202774D01*
X-145055Y-202829D01*
X-144986Y-202912D01*
X-144875Y-202996D01*
X-144750Y-203093D01*
X-144584Y-203176D01*
X-144389Y-203231D01*
X-144167Y-203259D01*
X-144057D01*
X-143946Y-203245D01*
X-143821Y-203218D01*
X-143668Y-203176D01*
X-143516Y-203106D01*
X-143377Y-203023D01*
X-143266Y-202899D01*
X-143252Y-202885D01*
X-143224Y-202815D01*
X-143183Y-202718D01*
X-143127Y-202566D01*
X-143100Y-202469D01*
X-143072Y-202358D01*
X-143058Y-202233D01*
X-143030Y-202094D01*
X-143016Y-201928D01*
X-143003Y-201761D01*
X-142989Y-201567D01*
Y-201359D01*
Y-195132D01*
X-141047D01*
Y-201220D01*
D02*
G37*
G36*
X-134002Y-201193D02*
X-132809D01*
Y-202801D01*
X-134002D01*
Y-204729D01*
X-135777D01*
Y-202801D01*
X-139716D01*
Y-201207D01*
X-135555Y-195091D01*
X-134002D01*
Y-201193D01*
D02*
G37*
G36*
X-62768Y-228225D02*
X-62668Y-228236D01*
X-62557Y-228247D01*
X-62435Y-228269D01*
X-62301Y-228292D01*
X-62013Y-228369D01*
X-61724Y-228480D01*
X-61569Y-228547D01*
X-61436Y-228625D01*
X-61291Y-228724D01*
X-61169Y-228836D01*
X-61158Y-228847D01*
X-61136Y-228858D01*
X-61114Y-228902D01*
X-61069Y-228946D01*
X-61014Y-229002D01*
X-60958Y-229080D01*
X-60903Y-229157D01*
X-60836Y-229257D01*
X-60725Y-229479D01*
X-60614Y-229734D01*
X-60570Y-229879D01*
X-60548Y-230034D01*
X-60525Y-230201D01*
X-60514Y-230367D01*
Y-230389D01*
Y-230456D01*
X-60525Y-230556D01*
X-60536Y-230678D01*
X-60559Y-230833D01*
X-60592Y-231000D01*
X-60636Y-231178D01*
X-60703Y-231355D01*
X-60714Y-231377D01*
X-60736Y-231433D01*
X-60781Y-231533D01*
X-60847Y-231655D01*
X-60925Y-231799D01*
X-61025Y-231966D01*
X-61147Y-232143D01*
X-61291Y-232332D01*
X-61302Y-232343D01*
X-61347Y-232398D01*
X-61413Y-232476D01*
X-61513Y-232587D01*
X-61646Y-232720D01*
X-61813Y-232898D01*
X-62013Y-233087D01*
X-62257Y-233320D01*
X-62268Y-233331D01*
X-62290Y-233342D01*
X-62323Y-233375D01*
X-62368Y-233420D01*
X-62490Y-233531D01*
X-62634Y-233664D01*
X-62779Y-233808D01*
X-62923Y-233953D01*
X-63056Y-234075D01*
X-63101Y-234130D01*
X-63145Y-234174D01*
X-63156Y-234186D01*
X-63178Y-234208D01*
X-63211Y-234252D01*
X-63256Y-234308D01*
X-63356Y-234430D01*
X-63445Y-234574D01*
X-60514D01*
Y-235939D01*
X-65676D01*
Y-235928D01*
Y-235906D01*
X-65665Y-235862D01*
X-65654Y-235806D01*
X-65642Y-235739D01*
X-65631Y-235662D01*
X-65587Y-235462D01*
X-65520Y-235240D01*
X-65431Y-234996D01*
X-65321Y-234729D01*
X-65176Y-234474D01*
Y-234463D01*
X-65154Y-234441D01*
X-65132Y-234396D01*
X-65087Y-234352D01*
X-65043Y-234274D01*
X-64976Y-234197D01*
X-64899Y-234097D01*
X-64810Y-233986D01*
X-64710Y-233853D01*
X-64588Y-233719D01*
X-64455Y-233564D01*
X-64299Y-233398D01*
X-64133Y-233231D01*
X-63944Y-233042D01*
X-63744Y-232843D01*
X-63522Y-232632D01*
X-63511Y-232621D01*
X-63478Y-232587D01*
X-63433Y-232543D01*
X-63367Y-232476D01*
X-63278Y-232410D01*
X-63189Y-232321D01*
X-62990Y-232121D01*
X-62790Y-231910D01*
X-62590Y-231699D01*
X-62501Y-231610D01*
X-62412Y-231511D01*
X-62346Y-231433D01*
X-62301Y-231366D01*
X-62290Y-231344D01*
X-62257Y-231289D01*
X-62201Y-231200D01*
X-62146Y-231078D01*
X-62091Y-230944D01*
X-62035Y-230789D01*
X-62002Y-230634D01*
X-61991Y-230467D01*
Y-230456D01*
Y-230445D01*
Y-230389D01*
X-62002Y-230289D01*
X-62024Y-230179D01*
X-62057Y-230056D01*
X-62102Y-229934D01*
X-62168Y-229812D01*
X-62257Y-229701D01*
X-62268Y-229690D01*
X-62301Y-229657D01*
X-62368Y-229612D01*
X-62446Y-229568D01*
X-62557Y-229524D01*
X-62679Y-229479D01*
X-62823Y-229446D01*
X-62990Y-229435D01*
X-63067D01*
X-63156Y-229446D01*
X-63256Y-229468D01*
X-63378Y-229501D01*
X-63500Y-229557D01*
X-63622Y-229624D01*
X-63733Y-229712D01*
X-63744Y-229723D01*
X-63778Y-229768D01*
X-63822Y-229834D01*
X-63866Y-229934D01*
X-63922Y-230056D01*
X-63966Y-230223D01*
X-64011Y-230412D01*
X-64033Y-230634D01*
X-65498Y-230489D01*
Y-230478D01*
X-65487Y-230434D01*
Y-230378D01*
X-65465Y-230289D01*
X-65454Y-230190D01*
X-65420Y-230079D01*
X-65387Y-229956D01*
X-65354Y-229812D01*
X-65243Y-229535D01*
X-65110Y-229246D01*
X-65021Y-229102D01*
X-64921Y-228969D01*
X-64810Y-228858D01*
X-64688Y-228747D01*
X-64677Y-228736D01*
X-64654Y-228724D01*
X-64621Y-228702D01*
X-64566Y-228658D01*
X-64499Y-228625D01*
X-64410Y-228580D01*
X-64321Y-228525D01*
X-64211Y-228480D01*
X-64088Y-228425D01*
X-63955Y-228380D01*
X-63667Y-228292D01*
X-63323Y-228236D01*
X-63145Y-228225D01*
X-62956Y-228214D01*
X-62845D01*
X-62768Y-228225D01*
D02*
G37*
G36*
X-67696Y-235939D02*
X-69172D01*
Y-230378D01*
X-69183Y-230389D01*
X-69205Y-230412D01*
X-69250Y-230445D01*
X-69316Y-230500D01*
X-69394Y-230567D01*
X-69483Y-230634D01*
X-69594Y-230711D01*
X-69716Y-230800D01*
X-69849Y-230889D01*
X-69994Y-230978D01*
X-70149Y-231078D01*
X-70315Y-231166D01*
X-70671Y-231333D01*
X-71070Y-231488D01*
Y-230156D01*
X-71059D01*
X-71048Y-230145D01*
X-71015Y-230134D01*
X-70970Y-230123D01*
X-70859Y-230068D01*
X-70704Y-230001D01*
X-70515Y-229912D01*
X-70304Y-229790D01*
X-70071Y-229635D01*
X-69827Y-229457D01*
X-69816Y-229446D01*
X-69794Y-229435D01*
X-69760Y-229401D01*
X-69716Y-229357D01*
X-69594Y-229246D01*
X-69461Y-229102D01*
X-69305Y-228924D01*
X-69150Y-228702D01*
X-69006Y-228469D01*
X-68895Y-228214D01*
X-67696D01*
Y-235939D01*
D02*
G37*
G36*
X-75310Y-228269D02*
X-75188D01*
X-75066Y-228281D01*
X-74922D01*
X-74633Y-228314D01*
X-74334Y-228347D01*
X-74056Y-228403D01*
X-73934Y-228436D01*
X-73823Y-228469D01*
X-73812D01*
X-73801Y-228480D01*
X-73734Y-228514D01*
X-73634Y-228569D01*
X-73501Y-228636D01*
X-73357Y-228747D01*
X-73212Y-228869D01*
X-73068Y-229024D01*
X-72935Y-229213D01*
Y-229224D01*
X-72924Y-229235D01*
X-72902Y-229268D01*
X-72880Y-229302D01*
X-72824Y-229413D01*
X-72757Y-229557D01*
X-72702Y-229734D01*
X-72646Y-229934D01*
X-72602Y-230167D01*
X-72591Y-230412D01*
Y-230423D01*
Y-230445D01*
Y-230500D01*
X-72602Y-230556D01*
Y-230634D01*
X-72613Y-230711D01*
X-72657Y-230911D01*
X-72713Y-231144D01*
X-72802Y-231377D01*
X-72935Y-231621D01*
X-73013Y-231733D01*
X-73102Y-231843D01*
X-73113Y-231855D01*
X-73124Y-231866D01*
X-73157Y-231899D01*
X-73201Y-231932D01*
X-73246Y-231977D01*
X-73312Y-232032D01*
X-73390Y-232088D01*
X-73479Y-232143D01*
X-73579Y-232210D01*
X-73701Y-232265D01*
X-73823Y-232321D01*
X-73956Y-232376D01*
X-74111Y-232432D01*
X-74267Y-232476D01*
X-74433Y-232521D01*
X-74622Y-232554D01*
X-74611D01*
X-74600Y-232565D01*
X-74533Y-232609D01*
X-74444Y-232665D01*
X-74334Y-232743D01*
X-74200Y-232843D01*
X-74067Y-232942D01*
X-73923Y-233064D01*
X-73801Y-233198D01*
X-73790Y-233209D01*
X-73734Y-233264D01*
X-73667Y-233353D01*
X-73568Y-233486D01*
X-73434Y-233653D01*
X-73368Y-233764D01*
X-73290Y-233875D01*
X-73201Y-233997D01*
X-73113Y-234130D01*
X-73013Y-234286D01*
X-72913Y-234441D01*
X-71969Y-235939D01*
X-73834D01*
X-74944Y-234274D01*
X-74955Y-234263D01*
X-74966Y-234230D01*
X-74999Y-234186D01*
X-75044Y-234130D01*
X-75088Y-234063D01*
X-75144Y-233975D01*
X-75266Y-233797D01*
X-75410Y-233597D01*
X-75543Y-233420D01*
X-75665Y-233253D01*
X-75721Y-233198D01*
X-75765Y-233142D01*
X-75777Y-233131D01*
X-75799Y-233109D01*
X-75843Y-233064D01*
X-75899Y-233009D01*
X-75976Y-232965D01*
X-76054Y-232909D01*
X-76143Y-232865D01*
X-76232Y-232820D01*
X-76243D01*
X-76276Y-232809D01*
X-76332Y-232787D01*
X-76420Y-232776D01*
X-76531Y-232754D01*
X-76665Y-232743D01*
X-76820Y-232731D01*
X-77319D01*
Y-235939D01*
X-78873D01*
Y-228258D01*
X-75410D01*
X-75310Y-228269D01*
D02*
G37*
G36*
X-61119Y-250388D02*
X-62596D01*
Y-244827D01*
X-62607Y-244838D01*
X-62629Y-244860D01*
X-62673Y-244893D01*
X-62740Y-244949D01*
X-62818Y-245015D01*
X-62906Y-245082D01*
X-63017Y-245160D01*
X-63139Y-245249D01*
X-63273Y-245337D01*
X-63417Y-245426D01*
X-63572Y-245526D01*
X-63739Y-245615D01*
X-64094Y-245781D01*
X-64493Y-245937D01*
Y-244605D01*
X-64482D01*
X-64471Y-244594D01*
X-64438Y-244583D01*
X-64394Y-244571D01*
X-64283Y-244516D01*
X-64127Y-244449D01*
X-63939Y-244361D01*
X-63728Y-244238D01*
X-63495Y-244083D01*
X-63250Y-243905D01*
X-63239Y-243894D01*
X-63217Y-243883D01*
X-63184Y-243850D01*
X-63139Y-243806D01*
X-63017Y-243694D01*
X-62884Y-243550D01*
X-62729Y-243373D01*
X-62573Y-243151D01*
X-62429Y-242917D01*
X-62318Y-242662D01*
X-61119D01*
Y-250388D01*
D02*
G37*
G36*
X-67091D02*
X-68567D01*
Y-244827D01*
X-68578Y-244838D01*
X-68601Y-244860D01*
X-68645Y-244893D01*
X-68712Y-244949D01*
X-68789Y-245015D01*
X-68878Y-245082D01*
X-68989Y-245160D01*
X-69111Y-245249D01*
X-69244Y-245337D01*
X-69389Y-245426D01*
X-69544Y-245526D01*
X-69710Y-245615D01*
X-70066Y-245781D01*
X-70465Y-245937D01*
Y-244605D01*
X-70454D01*
X-70443Y-244594D01*
X-70410Y-244583D01*
X-70365Y-244571D01*
X-70254Y-244516D01*
X-70099Y-244449D01*
X-69910Y-244361D01*
X-69699Y-244238D01*
X-69466Y-244083D01*
X-69222Y-243905D01*
X-69211Y-243894D01*
X-69189Y-243883D01*
X-69156Y-243850D01*
X-69111Y-243806D01*
X-68989Y-243694D01*
X-68856Y-243550D01*
X-68700Y-243373D01*
X-68545Y-243151D01*
X-68401Y-242917D01*
X-68290Y-242662D01*
X-67091D01*
Y-250388D01*
D02*
G37*
G36*
X-74705Y-242718D02*
X-74583D01*
X-74461Y-242729D01*
X-74317D01*
X-74028Y-242762D01*
X-73729Y-242796D01*
X-73451Y-242851D01*
X-73329Y-242884D01*
X-73218Y-242917D01*
X-73207D01*
X-73196Y-242929D01*
X-73129Y-242962D01*
X-73029Y-243017D01*
X-72896Y-243084D01*
X-72752Y-243195D01*
X-72607Y-243317D01*
X-72463Y-243472D01*
X-72330Y-243661D01*
Y-243672D01*
X-72319Y-243683D01*
X-72297Y-243717D01*
X-72274Y-243750D01*
X-72219Y-243861D01*
X-72152Y-244005D01*
X-72097Y-244183D01*
X-72041Y-244383D01*
X-71997Y-244616D01*
X-71986Y-244860D01*
Y-244871D01*
Y-244893D01*
Y-244949D01*
X-71997Y-245004D01*
Y-245082D01*
X-72008Y-245160D01*
X-72052Y-245359D01*
X-72108Y-245593D01*
X-72197Y-245826D01*
X-72330Y-246070D01*
X-72408Y-246181D01*
X-72497Y-246292D01*
X-72508Y-246303D01*
X-72519Y-246314D01*
X-72552Y-246347D01*
X-72596Y-246381D01*
X-72641Y-246425D01*
X-72707Y-246481D01*
X-72785Y-246536D01*
X-72874Y-246592D01*
X-72974Y-246658D01*
X-73096Y-246714D01*
X-73218Y-246769D01*
X-73351Y-246825D01*
X-73507Y-246880D01*
X-73662Y-246925D01*
X-73829Y-246969D01*
X-74017Y-247002D01*
X-74006D01*
X-73995Y-247013D01*
X-73928Y-247058D01*
X-73840Y-247113D01*
X-73729Y-247191D01*
X-73595Y-247291D01*
X-73462Y-247391D01*
X-73318Y-247513D01*
X-73196Y-247646D01*
X-73185Y-247657D01*
X-73129Y-247713D01*
X-73063Y-247801D01*
X-72963Y-247935D01*
X-72829Y-248101D01*
X-72763Y-248212D01*
X-72685Y-248323D01*
X-72596Y-248445D01*
X-72508Y-248578D01*
X-72408Y-248734D01*
X-72308Y-248889D01*
X-71364Y-250388D01*
X-73229D01*
X-74339Y-248723D01*
X-74350Y-248712D01*
X-74361Y-248678D01*
X-74395Y-248634D01*
X-74439Y-248578D01*
X-74483Y-248512D01*
X-74539Y-248423D01*
X-74661Y-248246D01*
X-74805Y-248046D01*
X-74939Y-247868D01*
X-75061Y-247702D01*
X-75116Y-247646D01*
X-75160Y-247591D01*
X-75172Y-247579D01*
X-75194Y-247557D01*
X-75238Y-247513D01*
X-75294Y-247457D01*
X-75371Y-247413D01*
X-75449Y-247358D01*
X-75538Y-247313D01*
X-75627Y-247269D01*
X-75638D01*
X-75671Y-247258D01*
X-75726Y-247235D01*
X-75815Y-247224D01*
X-75926Y-247202D01*
X-76059Y-247191D01*
X-76215Y-247180D01*
X-76714D01*
Y-250388D01*
X-78268D01*
Y-242707D01*
X-74805D01*
X-74705Y-242718D01*
D02*
G37*
G36*
X-72260Y-257034D02*
X-72138Y-257045D01*
X-72005Y-257068D01*
X-71849Y-257090D01*
X-71683Y-257123D01*
X-71505Y-257168D01*
X-71316Y-257223D01*
X-71128Y-257290D01*
X-70928Y-257379D01*
X-70739Y-257467D01*
X-70562Y-257578D01*
X-70373Y-257712D01*
X-70206Y-257856D01*
X-70195D01*
X-70184Y-257878D01*
X-70151Y-257911D01*
X-70118Y-257945D01*
X-70073Y-258000D01*
X-70029Y-258067D01*
X-69907Y-258222D01*
X-69785Y-258422D01*
X-69651Y-258666D01*
X-69529Y-258944D01*
X-69418Y-259265D01*
X-70950Y-259632D01*
Y-259621D01*
X-70961Y-259610D01*
Y-259576D01*
X-70983Y-259532D01*
X-71017Y-259432D01*
X-71072Y-259299D01*
X-71150Y-259143D01*
X-71250Y-258988D01*
X-71383Y-258833D01*
X-71527Y-258699D01*
X-71550Y-258688D01*
X-71605Y-258644D01*
X-71694Y-258588D01*
X-71816Y-258522D01*
X-71971Y-258455D01*
X-72149Y-258400D01*
X-72349Y-258355D01*
X-72571Y-258344D01*
X-72648D01*
X-72715Y-258355D01*
X-72782Y-258366D01*
X-72870Y-258377D01*
X-73059Y-258422D01*
X-73281Y-258500D01*
X-73514Y-258611D01*
X-73636Y-258677D01*
X-73747Y-258755D01*
X-73858Y-258855D01*
X-73958Y-258966D01*
Y-258977D01*
X-73980Y-258999D01*
X-74003Y-259032D01*
X-74036Y-259088D01*
X-74080Y-259154D01*
X-74125Y-259232D01*
X-74169Y-259332D01*
X-74214Y-259443D01*
X-74269Y-259576D01*
X-74313Y-259721D01*
X-74358Y-259887D01*
X-74402Y-260065D01*
X-74436Y-260264D01*
X-74458Y-260475D01*
X-74469Y-260709D01*
X-74480Y-260964D01*
Y-260975D01*
Y-261030D01*
Y-261108D01*
X-74469Y-261197D01*
Y-261319D01*
X-74447Y-261463D01*
X-74436Y-261608D01*
X-74413Y-261774D01*
X-74347Y-262118D01*
X-74258Y-262462D01*
X-74202Y-262629D01*
X-74125Y-262784D01*
X-74047Y-262928D01*
X-73958Y-263050D01*
X-73947Y-263062D01*
X-73936Y-263073D01*
X-73903Y-263106D01*
X-73858Y-263150D01*
X-73747Y-263239D01*
X-73592Y-263350D01*
X-73403Y-263472D01*
X-73170Y-263561D01*
X-72904Y-263639D01*
X-72759Y-263650D01*
X-72604Y-263661D01*
X-72548D01*
X-72504Y-263650D01*
X-72382Y-263639D01*
X-72238Y-263617D01*
X-72082Y-263561D01*
X-71905Y-263494D01*
X-71727Y-263406D01*
X-71550Y-263272D01*
X-71527Y-263250D01*
X-71472Y-263195D01*
X-71394Y-263106D01*
X-71305Y-262973D01*
X-71194Y-262795D01*
X-71094Y-262584D01*
X-70995Y-262329D01*
X-70906Y-262029D01*
X-69396Y-262495D01*
Y-262507D01*
X-69407Y-262551D01*
X-69429Y-262618D01*
X-69463Y-262706D01*
X-69507Y-262806D01*
X-69552Y-262928D01*
X-69607Y-263062D01*
X-69674Y-263206D01*
X-69829Y-263506D01*
X-70029Y-263816D01*
X-70273Y-264116D01*
X-70406Y-264249D01*
X-70550Y-264371D01*
X-70562Y-264382D01*
X-70584Y-264394D01*
X-70628Y-264427D01*
X-70695Y-264471D01*
X-70773Y-264516D01*
X-70872Y-264560D01*
X-70983Y-264616D01*
X-71105Y-264671D01*
X-71250Y-264738D01*
X-71405Y-264793D01*
X-71572Y-264838D01*
X-71749Y-264882D01*
X-71938Y-264926D01*
X-72149Y-264960D01*
X-72360Y-264971D01*
X-72593Y-264982D01*
X-72660D01*
X-72737Y-264971D01*
X-72848Y-264960D01*
X-72970Y-264949D01*
X-73126Y-264926D01*
X-73292Y-264893D01*
X-73481Y-264849D01*
X-73670Y-264793D01*
X-73869Y-264727D01*
X-74080Y-264638D01*
X-74291Y-264538D01*
X-74502Y-264427D01*
X-74713Y-264283D01*
X-74913Y-264127D01*
X-75101Y-263939D01*
X-75113Y-263927D01*
X-75146Y-263894D01*
X-75190Y-263827D01*
X-75257Y-263750D01*
X-75323Y-263639D01*
X-75412Y-263517D01*
X-75501Y-263361D01*
X-75590Y-263184D01*
X-75679Y-262995D01*
X-75767Y-262784D01*
X-75856Y-262540D01*
X-75923Y-262285D01*
X-75989Y-262018D01*
X-76034Y-261719D01*
X-76067Y-261408D01*
X-76078Y-261075D01*
Y-261064D01*
Y-261053D01*
Y-260986D01*
X-76067Y-260886D01*
Y-260753D01*
X-76045Y-260597D01*
X-76023Y-260409D01*
X-76000Y-260209D01*
X-75956Y-259976D01*
X-75901Y-259743D01*
X-75834Y-259499D01*
X-75756Y-259254D01*
X-75656Y-258999D01*
X-75545Y-258755D01*
X-75412Y-258522D01*
X-75268Y-258300D01*
X-75090Y-258089D01*
X-75079Y-258078D01*
X-75046Y-258044D01*
X-74991Y-257989D01*
X-74913Y-257922D01*
X-74813Y-257845D01*
X-74691Y-257756D01*
X-74558Y-257656D01*
X-74391Y-257556D01*
X-74214Y-257456D01*
X-74025Y-257356D01*
X-73803Y-257267D01*
X-73581Y-257190D01*
X-73326Y-257123D01*
X-73070Y-257068D01*
X-72782Y-257034D01*
X-72493Y-257023D01*
X-72360D01*
X-72260Y-257034D01*
D02*
G37*
G36*
X-63347Y-258333D02*
X-63358Y-258344D01*
X-63380Y-258366D01*
X-63413Y-258400D01*
X-63458Y-258444D01*
X-63513Y-258511D01*
X-63580Y-258588D01*
X-63658Y-258677D01*
X-63746Y-258788D01*
X-63835Y-258910D01*
X-63935Y-259044D01*
X-64046Y-259188D01*
X-64157Y-259343D01*
X-64268Y-259521D01*
X-64379Y-259698D01*
X-64501Y-259898D01*
X-64623Y-260109D01*
X-64634Y-260120D01*
X-64657Y-260165D01*
X-64690Y-260220D01*
X-64734Y-260309D01*
X-64779Y-260409D01*
X-64845Y-260542D01*
X-64912Y-260686D01*
X-64990Y-260842D01*
X-65067Y-261019D01*
X-65145Y-261208D01*
X-65234Y-261408D01*
X-65311Y-261619D01*
X-65467Y-262074D01*
X-65611Y-262551D01*
Y-262562D01*
X-65622Y-262607D01*
X-65644Y-262673D01*
X-65667Y-262773D01*
X-65689Y-262884D01*
X-65711Y-263006D01*
X-65744Y-263162D01*
X-65778Y-263317D01*
X-65811Y-263494D01*
X-65833Y-263672D01*
X-65889Y-264061D01*
X-65922Y-264460D01*
X-65933Y-264849D01*
X-67354D01*
Y-264827D01*
Y-264782D01*
X-67343Y-264693D01*
Y-264571D01*
X-67332Y-264427D01*
X-67309Y-264260D01*
X-67287Y-264061D01*
X-67254Y-263850D01*
X-67221Y-263617D01*
X-67176Y-263361D01*
X-67121Y-263095D01*
X-67065Y-262806D01*
X-66988Y-262518D01*
X-66910Y-262218D01*
X-66810Y-261918D01*
X-66699Y-261608D01*
X-66688Y-261585D01*
X-66666Y-261530D01*
X-66632Y-261441D01*
X-66588Y-261330D01*
X-66521Y-261186D01*
X-66444Y-261008D01*
X-66355Y-260819D01*
X-66255Y-260609D01*
X-66144Y-260387D01*
X-66022Y-260154D01*
X-65889Y-259898D01*
X-65733Y-259654D01*
X-65411Y-259132D01*
X-65045Y-258633D01*
X-68386D01*
Y-257267D01*
X-63347D01*
Y-258333D01*
D02*
G37*
%LPC*%
G36*
X-34770Y-166414D02*
X-34837D01*
X-34915Y-166425D01*
X-35015Y-166447D01*
X-35126Y-166480D01*
X-35236Y-166525D01*
X-35347Y-166580D01*
X-35447Y-166669D01*
X-35459Y-166680D01*
X-35481Y-166713D01*
X-35525Y-166769D01*
X-35569Y-166847D01*
X-35614Y-166947D01*
X-35658Y-167057D01*
X-35680Y-167191D01*
X-35691Y-167346D01*
Y-167368D01*
Y-167424D01*
X-35680Y-167502D01*
X-35658Y-167601D01*
X-35636Y-167712D01*
X-35592Y-167823D01*
X-35525Y-167934D01*
X-35447Y-168034D01*
X-35436Y-168045D01*
X-35403Y-168068D01*
X-35347Y-168112D01*
X-35270Y-168156D01*
X-35170Y-168201D01*
X-35059Y-168245D01*
X-34926Y-168267D01*
X-34781Y-168279D01*
X-34715D01*
X-34637Y-168267D01*
X-34537Y-168245D01*
X-34426Y-168223D01*
X-34315Y-168179D01*
X-34204Y-168112D01*
X-34104Y-168034D01*
X-34093Y-168023D01*
X-34060Y-167990D01*
X-34027Y-167934D01*
X-33971Y-167846D01*
X-33927Y-167746D01*
X-33893Y-167635D01*
X-33860Y-167490D01*
X-33849Y-167335D01*
Y-167313D01*
Y-167268D01*
X-33860Y-167191D01*
X-33882Y-167102D01*
X-33916Y-166991D01*
X-33960Y-166880D01*
X-34016Y-166769D01*
X-34104Y-166669D01*
X-34115Y-166658D01*
X-34149Y-166625D01*
X-34204Y-166591D01*
X-34282Y-166536D01*
X-34382Y-166491D01*
X-34493Y-166458D01*
X-34626Y-166425D01*
X-34770Y-166414D01*
D02*
G37*
G36*
X-34759Y-169444D02*
X-34848D01*
X-34948Y-169466D01*
X-35059Y-169488D01*
X-35192Y-169533D01*
X-35325Y-169599D01*
X-35459Y-169699D01*
X-35569Y-169821D01*
X-35580Y-169844D01*
X-35614Y-169888D01*
X-35647Y-169966D01*
X-35691Y-170065D01*
X-35747Y-170188D01*
X-35780Y-170321D01*
X-35814Y-170476D01*
X-35825Y-170632D01*
Y-170643D01*
Y-170654D01*
Y-170687D01*
Y-170732D01*
X-35803Y-170842D01*
X-35780Y-170987D01*
X-35747Y-171142D01*
X-35691Y-171298D01*
X-35614Y-171453D01*
X-35514Y-171597D01*
X-35503Y-171608D01*
X-35459Y-171653D01*
X-35392Y-171697D01*
X-35303Y-171764D01*
X-35192Y-171819D01*
X-35059Y-171875D01*
X-34904Y-171919D01*
X-34737Y-171930D01*
X-34659D01*
X-34582Y-171908D01*
X-34471Y-171886D01*
X-34348Y-171853D01*
X-34226Y-171797D01*
X-34104Y-171719D01*
X-33982Y-171608D01*
X-33971Y-171597D01*
X-33938Y-171542D01*
X-33882Y-171475D01*
X-33827Y-171364D01*
X-33771Y-171231D01*
X-33716Y-171064D01*
X-33682Y-170876D01*
X-33671Y-170654D01*
Y-170643D01*
Y-170632D01*
Y-170565D01*
X-33682Y-170465D01*
X-33705Y-170343D01*
X-33749Y-170199D01*
X-33805Y-170054D01*
X-33882Y-169910D01*
X-33982Y-169777D01*
X-33993Y-169766D01*
X-34038Y-169722D01*
X-34104Y-169666D01*
X-34193Y-169611D01*
X-34304Y-169544D01*
X-34437Y-169499D01*
X-34593Y-169455D01*
X-34759Y-169444D01*
D02*
G37*
G36*
X-30755Y-155574D02*
X-32265D01*
X-32487Y-155585D01*
X-32720Y-155596D01*
X-32953Y-155607D01*
X-33053Y-155618D01*
X-33142Y-155630D01*
X-33231Y-155652D01*
X-33286Y-155663D01*
X-33297D01*
X-33330Y-155685D01*
X-33386Y-155707D01*
X-33441Y-155740D01*
X-33586Y-155840D01*
X-33652Y-155907D01*
X-33719Y-155985D01*
X-33730Y-155996D01*
X-33741Y-156029D01*
X-33774Y-156074D01*
X-33808Y-156140D01*
X-33830Y-156229D01*
X-33863Y-156329D01*
X-33874Y-156440D01*
X-33885Y-156562D01*
Y-156584D01*
Y-156629D01*
X-33874Y-156695D01*
X-33863Y-156784D01*
X-33830Y-156884D01*
X-33797Y-156984D01*
X-33741Y-157095D01*
X-33674Y-157184D01*
X-33663Y-157195D01*
X-33641Y-157228D01*
X-33586Y-157261D01*
X-33519Y-157317D01*
X-33441Y-157372D01*
X-33342Y-157417D01*
X-33219Y-157461D01*
X-33086Y-157494D01*
X-33075D01*
X-33042Y-157505D01*
X-32975D01*
X-32875Y-157516D01*
X-32631D01*
X-32531Y-157528D01*
X-30755D01*
Y-155574D01*
D02*
G37*
G36*
X-43698Y-153976D02*
X-45485D01*
Y-156617D01*
X-43698Y-153976D01*
D02*
G37*
G36*
X-4099Y-158710D02*
X-5109D01*
Y-163794D01*
X-3744D01*
X-3599Y-163783D01*
X-3444D01*
X-3288Y-163761D01*
X-3144Y-163750D01*
X-3022Y-163728D01*
X-3000D01*
X-2955Y-163705D01*
X-2889Y-163683D01*
X-2800Y-163650D01*
X-2700Y-163605D01*
X-2600Y-163550D01*
X-2500Y-163483D01*
X-2400Y-163406D01*
X-2389Y-163395D01*
X-2356Y-163361D01*
X-2312Y-163306D01*
X-2256Y-163228D01*
X-2201Y-163128D01*
X-2123Y-163006D01*
X-2067Y-162851D01*
X-2001Y-162673D01*
Y-162662D01*
X-1990Y-162651D01*
Y-162618D01*
X-1979Y-162573D01*
X-1956Y-162529D01*
X-1945Y-162462D01*
X-1912Y-162296D01*
X-1890Y-162096D01*
X-1857Y-161863D01*
X-1845Y-161574D01*
X-1834Y-161263D01*
Y-161252D01*
Y-161219D01*
Y-161175D01*
Y-161119D01*
Y-161041D01*
X-1845Y-160953D01*
X-1857Y-160764D01*
X-1879Y-160542D01*
X-1901Y-160309D01*
X-1945Y-160098D01*
X-2001Y-159898D01*
Y-159887D01*
X-2012Y-159876D01*
X-2034Y-159820D01*
X-2067Y-159732D01*
X-2112Y-159621D01*
X-2178Y-159510D01*
X-2256Y-159388D01*
X-2345Y-159265D01*
X-2445Y-159154D01*
X-2456Y-159143D01*
X-2489Y-159110D01*
X-2556Y-159066D01*
X-2634Y-159010D01*
X-2745Y-158944D01*
X-2867Y-158888D01*
X-3000Y-158833D01*
X-3155Y-158788D01*
X-3166D01*
X-3222Y-158777D01*
X-3311Y-158766D01*
X-3433Y-158744D01*
X-3510D01*
X-3610Y-158733D01*
X-3710D01*
X-3821Y-158722D01*
X-3954D01*
X-4099Y-158710D01*
D02*
G37*
G36*
X52083Y-30380D02*
X52000D01*
X51889Y-30408D01*
X51764Y-30436D01*
X51625Y-30491D01*
X51473Y-30560D01*
X51320Y-30671D01*
X51181Y-30810D01*
X51167Y-30824D01*
X51126Y-30893D01*
X51070Y-30990D01*
X51001Y-31115D01*
X50932Y-31295D01*
X50876Y-31504D01*
X50835Y-31753D01*
X50821Y-32044D01*
Y-32058D01*
Y-32086D01*
Y-32128D01*
Y-32197D01*
X50848Y-32350D01*
X50876Y-32557D01*
X50918Y-32779D01*
X50987Y-33015D01*
X51084Y-33237D01*
X51223Y-33431D01*
X51237Y-33445D01*
X51292Y-33500D01*
X51389Y-33584D01*
X51500Y-33667D01*
X51639Y-33764D01*
X51792Y-33833D01*
X51972Y-33889D01*
X52166Y-33917D01*
X52249D01*
X52346Y-33889D01*
X52471Y-33861D01*
X52596Y-33819D01*
X52748Y-33750D01*
X52887Y-33653D01*
X53026Y-33528D01*
X53040Y-33514D01*
X53081Y-33445D01*
X53137Y-33348D01*
X53206Y-33209D01*
X53262Y-33029D01*
X53317Y-32807D01*
X53359Y-32530D01*
X53373Y-32211D01*
Y-32197D01*
Y-32169D01*
Y-32114D01*
Y-32058D01*
X53359Y-31892D01*
X53331Y-31684D01*
X53275Y-31462D01*
X53220Y-31226D01*
X53123Y-31004D01*
X52998Y-30824D01*
X52984Y-30810D01*
X52929Y-30755D01*
X52859Y-30685D01*
X52748Y-30602D01*
X52610Y-30519D01*
X52457Y-30450D01*
X52277Y-30394D01*
X52083Y-30380D01*
D02*
G37*
G36*
X-72669Y-200566D02*
X-74444D01*
Y-202519D01*
X-72935D01*
X-72713Y-202508D01*
X-72480Y-202497D01*
X-72247Y-202486D01*
X-72147Y-202475D01*
X-72058Y-202464D01*
X-71969Y-202442D01*
X-71914Y-202431D01*
X-71903D01*
X-71869Y-202408D01*
X-71814Y-202386D01*
X-71758Y-202353D01*
X-71614Y-202253D01*
X-71547Y-202186D01*
X-71481Y-202109D01*
X-71470Y-202098D01*
X-71459Y-202064D01*
X-71425Y-202020D01*
X-71392Y-201953D01*
X-71370Y-201864D01*
X-71337Y-201765D01*
X-71325Y-201654D01*
X-71314Y-201532D01*
Y-201509D01*
Y-201465D01*
X-71325Y-201398D01*
X-71337Y-201310D01*
X-71370Y-201210D01*
X-71403Y-201110D01*
X-71459Y-200999D01*
X-71525Y-200910D01*
X-71536Y-200899D01*
X-71559Y-200865D01*
X-71614Y-200832D01*
X-71681Y-200777D01*
X-71758Y-200721D01*
X-71858Y-200677D01*
X-71980Y-200632D01*
X-72114Y-200599D01*
X-72125D01*
X-72158Y-200588D01*
X-72225D01*
X-72325Y-200577D01*
X-72569D01*
X-72669Y-200566D01*
D02*
G37*
G36*
X108291Y-213039D02*
X106781D01*
X106559Y-213050D01*
X106326Y-213061D01*
X106093Y-213072D01*
X105993Y-213083D01*
X105904Y-213094D01*
X105816Y-213116D01*
X105760Y-213127D01*
X105749D01*
X105716Y-213150D01*
X105660Y-213172D01*
X105605Y-213205D01*
X105460Y-213305D01*
X105394Y-213372D01*
X105327Y-213449D01*
X105316Y-213460D01*
X105305Y-213494D01*
X105272Y-213538D01*
X105238Y-213605D01*
X105216Y-213694D01*
X105183Y-213793D01*
X105172Y-213904D01*
X105161Y-214026D01*
Y-214049D01*
Y-214093D01*
X105172Y-214160D01*
X105183Y-214248D01*
X105216Y-214348D01*
X105250Y-214448D01*
X105305Y-214559D01*
X105372Y-214648D01*
X105383Y-214659D01*
X105405Y-214692D01*
X105460Y-214726D01*
X105527Y-214781D01*
X105605Y-214837D01*
X105705Y-214881D01*
X105827Y-214925D01*
X105960Y-214959D01*
X105971D01*
X106004Y-214970D01*
X106071D01*
X106171Y-214981D01*
X106415D01*
X106515Y-214992D01*
X108291D01*
Y-213039D01*
D02*
G37*
G36*
X66990Y-209600D02*
X65214D01*
Y-211554D01*
X66723D01*
X66946Y-211543D01*
X67179Y-211532D01*
X67412Y-211521D01*
X67512Y-211510D01*
X67600Y-211499D01*
X67689Y-211476D01*
X67745Y-211465D01*
X67756D01*
X67789Y-211443D01*
X67845Y-211421D01*
X67900Y-211388D01*
X68044Y-211288D01*
X68111Y-211221D01*
X68178Y-211143D01*
X68189Y-211132D01*
X68200Y-211099D01*
X68233Y-211054D01*
X68266Y-210988D01*
X68289Y-210899D01*
X68322Y-210799D01*
X68333Y-210688D01*
X68344Y-210566D01*
Y-210544D01*
Y-210499D01*
X68333Y-210433D01*
X68322Y-210344D01*
X68289Y-210244D01*
X68255Y-210144D01*
X68200Y-210033D01*
X68133Y-209944D01*
X68122Y-209933D01*
X68100Y-209900D01*
X68044Y-209867D01*
X67978Y-209811D01*
X67900Y-209756D01*
X67800Y-209711D01*
X67678Y-209667D01*
X67545Y-209634D01*
X67534D01*
X67501Y-209623D01*
X67434D01*
X67334Y-209611D01*
X67090D01*
X66990Y-209600D01*
D02*
G37*
G36*
X73561Y-209423D02*
X73494D01*
X73417Y-209434D01*
X73317Y-209456D01*
X73206Y-209489D01*
X73095Y-209534D01*
X72984Y-209589D01*
X72884Y-209678D01*
X72873Y-209689D01*
X72851Y-209722D01*
X72806Y-209778D01*
X72762Y-209856D01*
X72717Y-209956D01*
X72673Y-210067D01*
X72651Y-210200D01*
X72640Y-210355D01*
Y-210377D01*
Y-210433D01*
X72651Y-210511D01*
X72673Y-210611D01*
X72695Y-210721D01*
X72740Y-210833D01*
X72806Y-210944D01*
X72884Y-211043D01*
X72895Y-211054D01*
X72928Y-211077D01*
X72984Y-211121D01*
X73061Y-211166D01*
X73161Y-211210D01*
X73272Y-211254D01*
X73406Y-211276D01*
X73550Y-211288D01*
X73616D01*
X73694Y-211276D01*
X73794Y-211254D01*
X73905Y-211232D01*
X74016Y-211188D01*
X74127Y-211121D01*
X74227Y-211043D01*
X74238Y-211032D01*
X74271Y-210999D01*
X74305Y-210944D01*
X74360Y-210855D01*
X74405Y-210755D01*
X74438Y-210644D01*
X74471Y-210499D01*
X74482Y-210344D01*
Y-210322D01*
Y-210278D01*
X74471Y-210200D01*
X74449Y-210111D01*
X74416Y-210000D01*
X74371Y-209889D01*
X74316Y-209778D01*
X74227Y-209678D01*
X74216Y-209667D01*
X74183Y-209634D01*
X74127Y-209600D01*
X74049Y-209545D01*
X73949Y-209501D01*
X73839Y-209467D01*
X73705Y-209434D01*
X73561Y-209423D01*
D02*
G37*
G36*
X73572Y-212453D02*
X73483D01*
X73383Y-212475D01*
X73272Y-212498D01*
X73139Y-212542D01*
X73006Y-212609D01*
X72873Y-212708D01*
X72762Y-212831D01*
X72751Y-212853D01*
X72717Y-212897D01*
X72684Y-212975D01*
X72640Y-213075D01*
X72584Y-213197D01*
X72551Y-213330D01*
X72518Y-213485D01*
X72506Y-213641D01*
Y-213652D01*
Y-213663D01*
Y-213696D01*
Y-213741D01*
X72529Y-213852D01*
X72551Y-213996D01*
X72584Y-214151D01*
X72640Y-214307D01*
X72717Y-214462D01*
X72817Y-214606D01*
X72828Y-214618D01*
X72873Y-214662D01*
X72939Y-214706D01*
X73028Y-214773D01*
X73139Y-214828D01*
X73272Y-214884D01*
X73428Y-214928D01*
X73594Y-214939D01*
X73672D01*
X73750Y-214917D01*
X73861Y-214895D01*
X73983Y-214862D01*
X74105Y-214806D01*
X74227Y-214729D01*
X74349Y-214618D01*
X74360Y-214606D01*
X74394Y-214551D01*
X74449Y-214484D01*
X74504Y-214373D01*
X74560Y-214240D01*
X74615Y-214074D01*
X74649Y-213885D01*
X74660Y-213663D01*
Y-213652D01*
Y-213641D01*
Y-213574D01*
X74649Y-213474D01*
X74626Y-213352D01*
X74582Y-213208D01*
X74527Y-213064D01*
X74449Y-212919D01*
X74349Y-212786D01*
X74338Y-212775D01*
X74294Y-212731D01*
X74227Y-212675D01*
X74138Y-212620D01*
X74027Y-212553D01*
X73894Y-212509D01*
X73739Y-212464D01*
X73572Y-212453D01*
D02*
G37*
G36*
X27269Y-160665D02*
X25082D01*
Y-161730D01*
X25093Y-161808D01*
Y-162008D01*
X25104Y-162208D01*
X25127Y-162407D01*
X25160Y-162585D01*
X25171Y-162663D01*
X25193Y-162729D01*
X25204Y-162740D01*
X25215Y-162785D01*
X25249Y-162840D01*
X25282Y-162907D01*
X25338Y-162985D01*
X25404Y-163062D01*
X25482Y-163151D01*
X25571Y-163218D01*
X25582Y-163229D01*
X25615Y-163251D01*
X25670Y-163273D01*
X25748Y-163307D01*
X25837Y-163340D01*
X25937Y-163373D01*
X26048Y-163384D01*
X26170Y-163395D01*
X26192D01*
X26237D01*
X26314Y-163384D01*
X26414Y-163362D01*
X26525Y-163329D01*
X26647Y-163284D01*
X26758Y-163229D01*
X26869Y-163140D01*
X26880Y-163129D01*
X26914Y-163096D01*
X26958Y-163040D01*
X27013Y-162973D01*
X27080Y-162885D01*
X27136Y-162774D01*
X27180Y-162652D01*
X27213Y-162518D01*
Y-162507D01*
X27224Y-162463D01*
X27236Y-162385D01*
X27247Y-162274D01*
Y-162130D01*
X27258Y-162030D01*
Y-161930D01*
X27269Y-161819D01*
Y-160665D01*
D02*
G37*
G36*
X73688Y-197497D02*
X73621D01*
X73532Y-197519D01*
X73432Y-197541D01*
X73321Y-197586D01*
X73199Y-197641D01*
X73077Y-197730D01*
X72966Y-197841D01*
X72955Y-197852D01*
X72922Y-197908D01*
X72877Y-197985D01*
X72822Y-198085D01*
X72766Y-198230D01*
X72722Y-198396D01*
X72689Y-198596D01*
X72678Y-198829D01*
Y-198840D01*
Y-198862D01*
Y-198895D01*
Y-198951D01*
X72700Y-199073D01*
X72722Y-199240D01*
X72755Y-199417D01*
X72811Y-199606D01*
X72889Y-199783D01*
X73000Y-199939D01*
X73011Y-199950D01*
X73055Y-199994D01*
X73133Y-200061D01*
X73222Y-200128D01*
X73333Y-200205D01*
X73455Y-200261D01*
X73599Y-200305D01*
X73754Y-200327D01*
X73821D01*
X73899Y-200305D01*
X73999Y-200283D01*
X74099Y-200250D01*
X74221Y-200194D01*
X74332Y-200116D01*
X74443Y-200016D01*
X74454Y-200005D01*
X74487Y-199950D01*
X74531Y-199872D01*
X74587Y-199761D01*
X74631Y-199617D01*
X74676Y-199439D01*
X74709Y-199217D01*
X74720Y-198962D01*
Y-198951D01*
Y-198929D01*
Y-198884D01*
Y-198840D01*
X74709Y-198707D01*
X74687Y-198540D01*
X74642Y-198363D01*
X74598Y-198174D01*
X74520Y-197996D01*
X74420Y-197852D01*
X74409Y-197841D01*
X74365Y-197797D01*
X74309Y-197741D01*
X74221Y-197675D01*
X74110Y-197608D01*
X73987Y-197552D01*
X73843Y-197508D01*
X73688Y-197497D01*
D02*
G37*
G36*
X66939Y-195022D02*
X65163D01*
Y-196975D01*
X66673D01*
X66895Y-196964D01*
X67128Y-196953D01*
X67361Y-196942D01*
X67461Y-196931D01*
X67550Y-196920D01*
X67638Y-196898D01*
X67694Y-196886D01*
X67705D01*
X67738Y-196864D01*
X67794Y-196842D01*
X67849Y-196809D01*
X67994Y-196709D01*
X68060Y-196642D01*
X68127Y-196565D01*
X68138Y-196553D01*
X68149Y-196520D01*
X68182Y-196476D01*
X68216Y-196409D01*
X68238Y-196320D01*
X68271Y-196220D01*
X68282Y-196109D01*
X68293Y-195987D01*
Y-195965D01*
Y-195921D01*
X68282Y-195854D01*
X68271Y-195765D01*
X68238Y-195665D01*
X68204Y-195565D01*
X68149Y-195455D01*
X68082Y-195366D01*
X68071Y-195355D01*
X68049Y-195321D01*
X67994Y-195288D01*
X67927Y-195233D01*
X67849Y-195177D01*
X67749Y-195133D01*
X67627Y-195088D01*
X67494Y-195055D01*
X67483D01*
X67450Y-195044D01*
X67383D01*
X67283Y-195033D01*
X67039D01*
X66939Y-195022D01*
D02*
G37*
G36*
X-64778Y-218143D02*
X-66287D01*
X-66509Y-218154D01*
X-66742Y-218165D01*
X-66975Y-218176D01*
X-67075Y-218187D01*
X-67164Y-218199D01*
X-67253Y-218221D01*
X-67308Y-218232D01*
X-67319D01*
X-67353Y-218254D01*
X-67408Y-218276D01*
X-67464Y-218309D01*
X-67608Y-218409D01*
X-67675Y-218476D01*
X-67741Y-218554D01*
X-67752Y-218565D01*
X-67764Y-218598D01*
X-67797Y-218643D01*
X-67830Y-218709D01*
X-67852Y-218798D01*
X-67886Y-218898D01*
X-67897Y-219009D01*
X-67908Y-219131D01*
Y-219153D01*
Y-219198D01*
X-67897Y-219264D01*
X-67886Y-219353D01*
X-67852Y-219453D01*
X-67819Y-219553D01*
X-67764Y-219664D01*
X-67697Y-219752D01*
X-67686Y-219764D01*
X-67664Y-219797D01*
X-67608Y-219830D01*
X-67541Y-219886D01*
X-67464Y-219941D01*
X-67364Y-219986D01*
X-67242Y-220030D01*
X-67109Y-220063D01*
X-67098D01*
X-67064Y-220074D01*
X-66998D01*
X-66898Y-220085D01*
X-66653D01*
X-66554Y-220096D01*
X-64778D01*
Y-218143D01*
D02*
G37*
G36*
X-71748Y-216545D02*
X-73535D01*
Y-219186D01*
X-71748Y-216545D01*
D02*
G37*
G36*
X60309Y-61543D02*
X60243D01*
X60154Y-61565D01*
X60054Y-61588D01*
X59943Y-61632D01*
X59821Y-61687D01*
X59699Y-61776D01*
X59588Y-61887D01*
X59577Y-61898D01*
X59543Y-61954D01*
X59499Y-62031D01*
X59443Y-62131D01*
X59388Y-62276D01*
X59344Y-62442D01*
X59310Y-62642D01*
X59299Y-62875D01*
Y-62886D01*
Y-62908D01*
Y-62942D01*
Y-62997D01*
X59321Y-63119D01*
X59344Y-63286D01*
X59377Y-63463D01*
X59432Y-63652D01*
X59510Y-63830D01*
X59621Y-63985D01*
X59632Y-63996D01*
X59676Y-64041D01*
X59754Y-64107D01*
X59843Y-64174D01*
X59954Y-64251D01*
X60076Y-64307D01*
X60220Y-64351D01*
X60376Y-64374D01*
X60442D01*
X60520Y-64351D01*
X60620Y-64329D01*
X60720Y-64296D01*
X60842Y-64240D01*
X60953Y-64163D01*
X61064Y-64063D01*
X61075Y-64052D01*
X61108Y-63996D01*
X61153Y-63918D01*
X61208Y-63808D01*
X61253Y-63663D01*
X61297Y-63486D01*
X61330Y-63264D01*
X61342Y-63008D01*
Y-62997D01*
Y-62975D01*
Y-62931D01*
Y-62886D01*
X61330Y-62753D01*
X61308Y-62586D01*
X61264Y-62409D01*
X61219Y-62220D01*
X61142Y-62043D01*
X61042Y-61898D01*
X61031Y-61887D01*
X60986Y-61843D01*
X60931Y-61787D01*
X60842Y-61721D01*
X60731Y-61654D01*
X60609Y-61599D01*
X60465Y-61554D01*
X60309Y-61543D01*
D02*
G37*
G36*
X-135777Y-197892D02*
X-138010Y-201193D01*
X-135777D01*
Y-197892D01*
D02*
G37*
G36*
X-75543Y-229557D02*
X-77319D01*
Y-231511D01*
X-75810D01*
X-75588Y-231499D01*
X-75355Y-231488D01*
X-75122Y-231477D01*
X-75022Y-231466D01*
X-74933Y-231455D01*
X-74844Y-231433D01*
X-74789Y-231422D01*
X-74777D01*
X-74744Y-231399D01*
X-74689Y-231377D01*
X-74633Y-231344D01*
X-74489Y-231244D01*
X-74422Y-231178D01*
X-74356Y-231100D01*
X-74345Y-231089D01*
X-74334Y-231055D01*
X-74300Y-231011D01*
X-74267Y-230944D01*
X-74245Y-230856D01*
X-74211Y-230756D01*
X-74200Y-230645D01*
X-74189Y-230523D01*
Y-230500D01*
Y-230456D01*
X-74200Y-230389D01*
X-74211Y-230301D01*
X-74245Y-230201D01*
X-74278Y-230101D01*
X-74334Y-229990D01*
X-74400Y-229901D01*
X-74411Y-229890D01*
X-74433Y-229857D01*
X-74489Y-229823D01*
X-74556Y-229768D01*
X-74633Y-229712D01*
X-74733Y-229668D01*
X-74855Y-229624D01*
X-74988Y-229590D01*
X-74999D01*
X-75033Y-229579D01*
X-75099D01*
X-75199Y-229568D01*
X-75444D01*
X-75543Y-229557D01*
D02*
G37*
G36*
X-74939Y-244005D02*
X-76714D01*
Y-245959D01*
X-75205D01*
X-74983Y-245948D01*
X-74750Y-245937D01*
X-74517Y-245926D01*
X-74417Y-245914D01*
X-74328Y-245903D01*
X-74239Y-245881D01*
X-74184Y-245870D01*
X-74173D01*
X-74139Y-245848D01*
X-74084Y-245826D01*
X-74028Y-245792D01*
X-73884Y-245693D01*
X-73817Y-245626D01*
X-73751Y-245548D01*
X-73740Y-245537D01*
X-73729Y-245504D01*
X-73695Y-245459D01*
X-73662Y-245393D01*
X-73640Y-245304D01*
X-73607Y-245204D01*
X-73595Y-245093D01*
X-73584Y-244971D01*
Y-244949D01*
Y-244904D01*
X-73595Y-244838D01*
X-73607Y-244749D01*
X-73640Y-244649D01*
X-73673Y-244549D01*
X-73729Y-244438D01*
X-73795Y-244349D01*
X-73806Y-244338D01*
X-73829Y-244305D01*
X-73884Y-244272D01*
X-73951Y-244216D01*
X-74028Y-244161D01*
X-74128Y-244116D01*
X-74250Y-244072D01*
X-74384Y-244039D01*
X-74395D01*
X-74428Y-244028D01*
X-74495D01*
X-74594Y-244016D01*
X-74839D01*
X-74939Y-244005D01*
D02*
G37*
%LPD*%
D10*
X60568Y-30526D02*
G03*
X60568Y-30526I-12500J0D01*
G01*
X152500Y-200000D02*
G03*
X152500Y-200000I-12500J0D01*
G01*
X12500Y-20000D02*
G03*
X12500Y-20000I-12500J0D01*
G01*
X-127500Y-200000D02*
G03*
X-127500Y-200000I-12500J0D01*
G01*
X-53758Y-176277D02*
X-23244D01*
X-53758D02*
Y-161874D01*
X-23244D01*
Y-176277D02*
Y-161874D01*
X-53851Y-147835D02*
X-23337D01*
Y-162238D02*
Y-147835D01*
X-53851Y-162238D02*
X-23337D01*
X-53851D02*
Y-147835D01*
X36971Y-248613D02*
Y-197613D01*
X-34029Y-248613D02*
Y-197613D01*
X36971D01*
X-34029Y-248613D02*
X36971D01*
X0Y-143250D02*
X24750D01*
Y-56750D01*
X-26878D02*
X24750D01*
X-26878Y-143250D02*
Y-56750D01*
X-21750Y-143250D02*
X22600D01*
X-26878D02*
X-21750D01*
X-15074Y-154230D02*
X12926D01*
Y-168230D02*
Y-154230D01*
X-15074Y-168230D02*
X12926D01*
X-15074D02*
Y-154230D01*
X-26000Y-274480D02*
X25900D01*
X-26000Y-299186D02*
X25900D01*
X-26000D02*
Y-274480D01*
X25900Y-299186D02*
Y-274480D01*
X71708Y-168633D02*
Y-154230D01*
X41194D02*
X71708D01*
X41194Y-168633D02*
Y-154230D01*
Y-168633D02*
X71708D01*
X-84888Y-210353D02*
X-54373D01*
X-84888D02*
Y-195950D01*
X-54373D01*
Y-210353D02*
Y-195950D01*
X85312Y-205299D02*
X115826D01*
Y-219702D02*
Y-205299D01*
X85312Y-219702D02*
X115826D01*
X85312D02*
Y-205299D01*
X54693Y-219365D02*
X85207D01*
X54693D02*
Y-204962D01*
X85207D01*
Y-219365D02*
Y-204962D01*
X54692Y-204786D02*
X85207D01*
X54692D02*
Y-190384D01*
X85207D01*
Y-204786D02*
Y-190384D01*
X-84888Y-195904D02*
X-54373D01*
X-84888D02*
Y-181502D01*
X-54373D01*
Y-195904D02*
Y-181502D01*
X-84888Y-210398D02*
X-54373D01*
Y-224801D02*
Y-210398D01*
X-84888Y-224801D02*
X-54373D01*
X-84888D02*
Y-210398D01*
X41194Y-68753D02*
X71708D01*
X41194D02*
Y-54351D01*
X71708D01*
Y-68753D02*
Y-54351D01*
X-84888Y-239250D02*
X-54373D01*
X-84888D02*
Y-224847D01*
X-54373D01*
Y-239250D02*
Y-224847D01*
X-84888Y-253698D02*
X-54373D01*
X-84888D02*
Y-239295D01*
X-54373D01*
Y-253698D02*
Y-239295D01*
X-84888Y-268146D02*
X-54373D01*
X-84888D02*
Y-253743D01*
X-54373D01*
Y-268146D02*
Y-253743D01*
X15555Y-139446D02*
Y-132782D01*
X14222Y-131449D01*
X11556D01*
X10223Y-132782D01*
Y-139446D01*
X7557Y-131449D02*
X4891D01*
X6224D01*
Y-139446D01*
X7557Y-138113D01*
X-1667Y-289477D02*
X999D01*
X-334D01*
Y-282813D01*
X999Y-281480D01*
X2332D01*
X3665Y-282813D01*
X-9664Y-281480D02*
X-4333D01*
X-9664Y-286811D01*
Y-288144D01*
X-8332Y-289477D01*
X-5666D01*
X-4333Y-288144D01*
M02*
