M48
;Layer_Color=9474304
;FILE_FORMAT=4:4
METRIC,LZ
;TYPE=PLATED
T01F00S00C0.3000
T02F00S00C1.0000
T03F00S00C1.2000
;TYPE=NON_PLATED
T04F00S00C2.5000
%
T01
X-00107086Y-00283861
X-00099086
X-00091086
X-00083086
X-00075086
X-00067086
X-00059086
X-00051086
X-00043086
X-00035086
X-00027086
X-00031086Y-00275861
X-00023086
X-00019086Y-00267861
X-00011086
X-00003086
X00004914
X00000914Y-00259861
X-00007086
X-00015086
X-00023086
X-00031086
X-00039086
X-00047086
X-00043086Y-00267861
X-00035086
X-00027086
X-00039086Y-00275861
X-00047086
X-00055086
X-00063086
X-00076203Y-0026977
X-00089403Y-00266373
X-00095699Y-00263315
X-00100649Y-00258365
X-00105599Y-00253415
X-00110549Y-00248466
X-00115006Y-00243068
X-00115354Y-00236077
Y-00229077
Y-00222077
Y-00215077
Y-00208077
Y-00201077
Y-00194077
Y-00187077
X-00118205Y-00180684
X-00119529Y-0017381
Y-0016681
Y-0015981
X-00122514Y-00153479
X-00127649Y-00148722
X-00130407Y-00142288
X-00135086Y-00163861
X-00131086Y-00171861
X-00139086
X-00127086Y-00179861
X-00108122Y-00175619
X-00108727Y-00168645
Y-00161645
X-00108301Y-00154658
X-00102401Y-00150891
X-00098632Y-00144992
X-00101037Y-00166
X-00094451Y-0016512
X-00095779Y-00171993
Y-00178993
Y-00185993
X-00092706Y-00192283
X-0008621Y-00194891
X-00087542Y-00203179
X-00104552Y-0020264
Y-0020964
Y-0021664
X-00102363Y-00224642
X-00104552Y-0023064
Y-0023764
X-00099128Y-00238952
X-00095487Y-00248252
X-00088193Y-00246524
X-00090537Y-00253202
X-00087086Y-00275861
X-00095086
X-00103086
X-00111086
X-00107086Y-00267861
X-00115086
X-00119086Y-00259861
X-00123086Y-00251861
X-00127086Y-00243861
X-00135086
X-00131086Y-00235861
X-00139086
X-00143086Y-00227861
X-00135086
X-00127086
X-00131086Y-00219861
X-00147086
X-00100105Y-001947
X-00104552Y-0018864
Y-0018164
X-00081088Y-00179933
X-00074088
X-00067086Y-00171861
X-00063086Y-00163861
X-00077022Y-00162841
X-00081971Y-00167791
X-00084977Y-00174112
X-00089564Y-00160108
X-00074715Y-00145259
X-00062172Y-00147992
X-00055729Y-00154953
X-00043086Y-00187861
X-00030531Y-00179274
X-00008484Y-00169018
X-00001517Y-0018993
X-00004092Y-00207764
X00009243Y-00204013
X00016218Y-00204666
X00015975Y-00174271
X00035353Y-00169586
X0003889Y-00178048
X00066475Y-00191045
X00082936Y-00184829
X00078114Y-00167472
X00071008Y-00149151
X00104914Y-00147861
X00112914
X00120914
X00128914
X00108914Y-00155861
X00104914Y-00163861
X00108914Y-00171861
X00104914Y-00179861
X00112914
X00108914Y-00187861
X00093023Y-00204458
X00108586Y-00221365
X00124914Y-00219861
X00132914
X00128914Y-00227861
X00136914
X00132914Y-00235861
X00124914
X00116914
X00112914Y-00243861
X00120914
X00128914
X00124914Y-00251861
X00116914
X00120914Y-00259861
X00116914Y-00267861
X00120914Y-00227861
Y-00211861
X00148914Y-00219861
X00140914Y-00171861
X00064914Y-00227861
X00047285Y-00216688
X00001211Y-00220608
X-00007086Y-00227861
X00007417Y-00232075
X00008216Y-00240746
X00001138Y-0024087
X-00011086Y-00251861
X00028914Y-00283861
X00056456Y-00285818
X0006321Y-00285892
X-00077693Y-00224847
X-00097581Y-00138071
X-00099461Y-00131328
X-00115129Y-00122602
X-00121878Y-00124459
X-00100339Y-00090839
X-00092312Y-00072762
X-00085622Y-00070705
X-00080336Y-00071007
X-00074045Y-00074077
X-00069461Y-00079367
X-0006469Y-00084489
X-0005936Y-00089028
X-00055004Y-00094507
X-00054728Y-00101502
Y-00108502
X-00065529Y-00106736
Y-00099736
X-00072494Y-00099035
X-00078428Y-00102749
X-00085359Y-00103727
X-00065529Y-00113736
X-00041054Y-001127
X-00043086Y-00091861
X-00047086Y-00083861
X-00051086Y-00075861
X-00059086
X-00063086Y-00067861
X-00055086
X-00047086
X-00051086Y-00059861
X-00059086
X-00067086
X-00075086
X-00071086Y-00051861
X-00063086
X-00055086
X-00047086
X-00039086
X-00035086Y-00043861
X-00043086
X-00051086
X-00059086
X-00067086
X-00063086Y-00035861
X-00055086
X-00047086
X-00039086
X-00031086
X-00023086
X-00015086
X-00027086Y-00027861
X-00035086
X-00043086
X-00051086
X-00059086
X-00055086Y-00019861
X-00047086
X-00039086
X-00031086
X-00023086
X-00027086Y-00011861
X-00035086
X-00043086
X00020914
X00028914
X00024914Y-00019861
X00033078Y-00023473
X00031466Y-00030285
X00032895Y-00037137
X00016914Y-00035861
X00020914Y-00027861
X00037326Y-0001791
X00043475Y-00014564
X00051859Y-00014334
X0005815Y-00017404
X00062735Y-00022694
X00064615Y-00029436
X00063564Y-00036357
X00059795Y-00042256
X00068914Y-00043861
X00080914Y-00067861
X00084914Y-00075861
X00072527Y-00091048
X00082579Y-00105774
X00104914Y-00115861
X00112914
X00116914Y-00123861
X00108914
X00104914Y-00131861
X00112914
X00120914
X00124914Y-00139861
X00116914
X00108914
X00071445Y-00134804
X00040389Y-00119762
X00039964Y-00091097
X00038012Y-00067571
X0004073Y-00054036
X00033779Y-00054864
X00026781Y-00054729
X00019781
X00012802Y-00055273
X00009941Y-00061696
X00010405Y-00074998
X00006222Y-00087818
X00006941Y-00100328
X00014265Y-00100227
X-00004737Y-00099955
X-00012115Y-0010006
X-00001585Y-00120287
X-00002709Y-00136435
X-00006605Y-00064334
Y-00057333
T02
X-000127Y-0028648
X000127
T03
X-00114128Y-0013916
X-00099128Y-0011318
X-00084128Y-00087199
X00048068Y-00030525
T04
X-0014Y-002
X0014
X0000005Y-0002
M30
